G04*
G04 #@! TF.GenerationSoftware,Altium Limited,Altium Designer,20.2.4 (192)*
G04*
G04 Layer_Color=32896*
%FSLAX25Y25*%
%MOIN*%
G70*
G04*
G04 #@! TF.SameCoordinates,F9DD2519-DED0-4D21-AB53-5B03216E6D2C*
G04*
G04*
G04 #@! TF.FilePolarity,Positive*
G04*
G01*
G75*
%ADD10C,0.00800*%
%ADD12C,0.00600*%
G36*
X-571Y-8766D02*
X-682Y-9003D01*
X-741Y-9114D01*
X-808Y-9218D01*
X-867Y-9314D01*
X-926Y-9403D01*
X-985Y-9484D01*
X-1037Y-9558D01*
X-1082Y-9617D01*
X-1126Y-9669D01*
X-1163Y-9714D01*
X-1185Y-9743D01*
X-1200Y-9758D01*
X-1207Y-9765D01*
X2500D01*
Y-10750D01*
X-2650D01*
Y-9950D01*
X-2480Y-9876D01*
X-2325Y-9780D01*
X-2177Y-9677D01*
X-2058Y-9573D01*
X-1962Y-9484D01*
X-1888Y-9403D01*
X-1859Y-9373D01*
X-1836Y-9351D01*
X-1829Y-9336D01*
X-1822Y-9329D01*
X-1703Y-9166D01*
X-1600Y-9011D01*
X-1518Y-8870D01*
X-1459Y-8744D01*
X-1415Y-8641D01*
X-1378Y-8567D01*
X-1370Y-8537D01*
X-1363Y-8515D01*
X-1355Y-8507D01*
Y-8500D01*
X-467D01*
X-571Y-8766D01*
D02*
G37*
G36*
X11077Y-16265D02*
X11149Y-16381D01*
X11226Y-16492D01*
X11304Y-16581D01*
X11371Y-16653D01*
X11432Y-16709D01*
X11454Y-16731D01*
X11471Y-16748D01*
X11482Y-16753D01*
X11487Y-16759D01*
X11609Y-16848D01*
X11726Y-16925D01*
X11831Y-16986D01*
X11926Y-17031D01*
X12003Y-17064D01*
X12059Y-17092D01*
X12081Y-17097D01*
X12098Y-17103D01*
X12103Y-17108D01*
X12109D01*
Y-17774D01*
X11909Y-17697D01*
X11731Y-17614D01*
X11648Y-17569D01*
X11570Y-17519D01*
X11498Y-17475D01*
X11432Y-17430D01*
X11371Y-17386D01*
X11315Y-17347D01*
X11271Y-17314D01*
X11232Y-17280D01*
X11199Y-17253D01*
X11176Y-17236D01*
X11165Y-17225D01*
X11160Y-17220D01*
Y-20000D01*
X10422D01*
Y-16137D01*
X11021D01*
X11077Y-16265D01*
D02*
G37*
G36*
X15400Y-20000D02*
X12692D01*
Y-19351D01*
X14623D01*
Y-16187D01*
X15400D01*
Y-20000D01*
D02*
G37*
G36*
X204222Y-11643D02*
X204310Y-11654D01*
X204399Y-11671D01*
X204482Y-11693D01*
X204560Y-11720D01*
X204632Y-11754D01*
X204704Y-11782D01*
X204760Y-11815D01*
X204815Y-11854D01*
X204865Y-11881D01*
X204904Y-11915D01*
X204943Y-11942D01*
X204971Y-11965D01*
X204987Y-11981D01*
X204998Y-11992D01*
X205004Y-11998D01*
X205065Y-12070D01*
X205115Y-12142D01*
X205165Y-12220D01*
X205204Y-12298D01*
X205237Y-12375D01*
X205265Y-12459D01*
X205304Y-12608D01*
X205320Y-12675D01*
X205331Y-12742D01*
X205337Y-12797D01*
X205343Y-12847D01*
X205348Y-12891D01*
Y-12919D01*
Y-12942D01*
Y-12947D01*
X205343Y-13047D01*
X205331Y-13147D01*
X205320Y-13241D01*
X205298Y-13324D01*
X205270Y-13408D01*
X205243Y-13480D01*
X205215Y-13552D01*
X205182Y-13613D01*
X205154Y-13668D01*
X205126Y-13719D01*
X205098Y-13757D01*
X205071Y-13796D01*
X205048Y-13818D01*
X205037Y-13840D01*
X205026Y-13852D01*
X205021Y-13857D01*
X204960Y-13918D01*
X204893Y-13974D01*
X204826Y-14018D01*
X204760Y-14057D01*
X204693Y-14090D01*
X204632Y-14124D01*
X204510Y-14163D01*
X204405Y-14190D01*
X204360Y-14196D01*
X204321Y-14201D01*
X204288Y-14207D01*
X204244D01*
X204166Y-14201D01*
X204094Y-14190D01*
X204027Y-14179D01*
X203961Y-14157D01*
X203838Y-14107D01*
X203739Y-14046D01*
X203661Y-13985D01*
X203628Y-13957D01*
X203600Y-13935D01*
X203578Y-13913D01*
X203561Y-13896D01*
X203555Y-13891D01*
X203550Y-13885D01*
X203561Y-14002D01*
X203572Y-14112D01*
X203583Y-14212D01*
X203600Y-14301D01*
X203616Y-14379D01*
X203633Y-14451D01*
X203650Y-14512D01*
X203666Y-14568D01*
X203689Y-14617D01*
X203700Y-14656D01*
X203716Y-14690D01*
X203728Y-14712D01*
X203739Y-14734D01*
X203750Y-14745D01*
X203755Y-14756D01*
X203816Y-14823D01*
X203883Y-14873D01*
X203944Y-14912D01*
X204005Y-14934D01*
X204061Y-14951D01*
X204099Y-14956D01*
X204127Y-14962D01*
X204138D01*
X204199Y-14956D01*
X204260Y-14945D01*
X204305Y-14928D01*
X204349Y-14912D01*
X204382Y-14895D01*
X204405Y-14878D01*
X204421Y-14867D01*
X204427Y-14862D01*
X204466Y-14817D01*
X204493Y-14767D01*
X204516Y-14712D01*
X204532Y-14656D01*
X204549Y-14612D01*
X204554Y-14573D01*
X204560Y-14545D01*
Y-14534D01*
X205270Y-14617D01*
X205254Y-14706D01*
X205232Y-14784D01*
X205209Y-14862D01*
X205182Y-14928D01*
X205154Y-14995D01*
X205126Y-15056D01*
X205093Y-15106D01*
X205065Y-15156D01*
X205032Y-15195D01*
X205010Y-15234D01*
X204982Y-15261D01*
X204960Y-15289D01*
X204943Y-15306D01*
X204926Y-15322D01*
X204921Y-15328D01*
X204915Y-15334D01*
X204860Y-15378D01*
X204804Y-15411D01*
X204682Y-15472D01*
X204566Y-15511D01*
X204449Y-15544D01*
X204344Y-15561D01*
X204299Y-15567D01*
X204260D01*
X204233Y-15572D01*
X204188D01*
X204072Y-15567D01*
X203966Y-15550D01*
X203866Y-15528D01*
X203766Y-15500D01*
X203678Y-15461D01*
X203594Y-15422D01*
X203517Y-15383D01*
X203450Y-15339D01*
X203389Y-15295D01*
X203333Y-15256D01*
X203289Y-15211D01*
X203250Y-15178D01*
X203217Y-15150D01*
X203195Y-15128D01*
X203184Y-15112D01*
X203178Y-15106D01*
X203106Y-15012D01*
X203050Y-14906D01*
X202995Y-14790D01*
X202951Y-14673D01*
X202912Y-14545D01*
X202878Y-14418D01*
X202856Y-14296D01*
X202834Y-14168D01*
X202817Y-14051D01*
X202806Y-13946D01*
X202795Y-13846D01*
X202790Y-13757D01*
X202784Y-13685D01*
Y-13630D01*
Y-13613D01*
Y-13596D01*
Y-13591D01*
Y-13585D01*
X202790Y-13397D01*
X202801Y-13225D01*
X202817Y-13064D01*
X202845Y-12914D01*
X202873Y-12780D01*
X202901Y-12658D01*
X202939Y-12547D01*
X202973Y-12448D01*
X203006Y-12364D01*
X203039Y-12292D01*
X203073Y-12231D01*
X203100Y-12181D01*
X203128Y-12142D01*
X203145Y-12115D01*
X203156Y-12098D01*
X203161Y-12092D01*
X203234Y-12015D01*
X203311Y-11942D01*
X203389Y-11881D01*
X203467Y-11831D01*
X203550Y-11787D01*
X203628Y-11748D01*
X203705Y-11720D01*
X203783Y-11693D01*
X203850Y-11676D01*
X203916Y-11659D01*
X203972Y-11648D01*
X204022Y-11643D01*
X204066D01*
X204094Y-11637D01*
X204122D01*
X204222Y-11643D01*
D02*
G37*
G36*
X209000Y-15500D02*
X208223D01*
Y-13896D01*
X207973D01*
X207896Y-13902D01*
X207829Y-13907D01*
X207773Y-13918D01*
X207729Y-13924D01*
X207701Y-13935D01*
X207685Y-13940D01*
X207679D01*
X207635Y-13963D01*
X207590Y-13985D01*
X207552Y-14013D01*
X207513Y-14035D01*
X207485Y-14062D01*
X207463Y-14085D01*
X207452Y-14096D01*
X207446Y-14101D01*
X207424Y-14129D01*
X207396Y-14157D01*
X207335Y-14240D01*
X207268Y-14329D01*
X207196Y-14429D01*
X207135Y-14518D01*
X207107Y-14562D01*
X207085Y-14595D01*
X207063Y-14623D01*
X207046Y-14645D01*
X207041Y-14662D01*
X207035Y-14668D01*
X206480Y-15500D01*
X205548D01*
X206020Y-14751D01*
X206070Y-14673D01*
X206119Y-14595D01*
X206164Y-14529D01*
X206208Y-14468D01*
X206247Y-14412D01*
X206280Y-14357D01*
X206347Y-14273D01*
X206397Y-14207D01*
X206430Y-14163D01*
X206458Y-14135D01*
X206464Y-14129D01*
X206525Y-14062D01*
X206597Y-14002D01*
X206663Y-13952D01*
X206730Y-13902D01*
X206786Y-13863D01*
X206830Y-13835D01*
X206863Y-13813D01*
X206869Y-13807D01*
X206874D01*
X206780Y-13791D01*
X206697Y-13768D01*
X206619Y-13746D01*
X206541Y-13719D01*
X206475Y-13691D01*
X206414Y-13663D01*
X206353Y-13635D01*
X206303Y-13602D01*
X206258Y-13574D01*
X206220Y-13546D01*
X206186Y-13519D01*
X206164Y-13496D01*
X206142Y-13480D01*
X206125Y-13463D01*
X206119Y-13458D01*
X206114Y-13452D01*
X206070Y-13397D01*
X206031Y-13341D01*
X205964Y-13219D01*
X205920Y-13102D01*
X205892Y-12986D01*
X205870Y-12886D01*
X205864Y-12847D01*
Y-12808D01*
X205859Y-12780D01*
Y-12753D01*
Y-12742D01*
Y-12736D01*
X205864Y-12614D01*
X205887Y-12498D01*
X205914Y-12398D01*
X205942Y-12309D01*
X205975Y-12237D01*
X206003Y-12181D01*
X206014Y-12164D01*
X206025Y-12148D01*
X206031Y-12142D01*
Y-12137D01*
X206097Y-12042D01*
X206170Y-11965D01*
X206242Y-11904D01*
X206314Y-11848D01*
X206380Y-11815D01*
X206430Y-11787D01*
X206464Y-11770D01*
X206469Y-11765D01*
X206475D01*
X206530Y-11748D01*
X206591Y-11732D01*
X206730Y-11704D01*
X206880Y-11687D01*
X207024Y-11671D01*
X207096D01*
X207157Y-11665D01*
X207218D01*
X207268Y-11659D01*
X209000D01*
Y-15500D01*
D02*
G37*
G36*
X43746Y-172143D02*
X43835Y-172148D01*
X44007Y-172176D01*
X44151Y-172221D01*
X44218Y-172243D01*
X44279Y-172270D01*
X44334Y-172293D01*
X44379Y-172320D01*
X44423Y-172343D01*
X44456Y-172359D01*
X44484Y-172381D01*
X44501Y-172392D01*
X44512Y-172398D01*
X44518Y-172404D01*
X44579Y-172459D01*
X44634Y-172515D01*
X44684Y-172581D01*
X44728Y-172653D01*
X44795Y-172798D01*
X44851Y-172936D01*
X44867Y-173009D01*
X44884Y-173070D01*
X44901Y-173125D01*
X44906Y-173175D01*
X44917Y-173220D01*
Y-173247D01*
X44923Y-173269D01*
Y-173275D01*
X44190Y-173347D01*
X44179Y-173236D01*
X44157Y-173142D01*
X44135Y-173058D01*
X44107Y-172997D01*
X44085Y-172948D01*
X44063Y-172914D01*
X44046Y-172892D01*
X44040Y-172886D01*
X43985Y-172842D01*
X43924Y-172809D01*
X43863Y-172781D01*
X43802Y-172764D01*
X43752Y-172753D01*
X43707Y-172748D01*
X43668D01*
X43585Y-172753D01*
X43513Y-172770D01*
X43452Y-172792D01*
X43396Y-172814D01*
X43358Y-172836D01*
X43324Y-172859D01*
X43308Y-172875D01*
X43302Y-172881D01*
X43258Y-172936D01*
X43224Y-172997D01*
X43202Y-173058D01*
X43186Y-173120D01*
X43174Y-173175D01*
X43169Y-173225D01*
Y-173253D01*
Y-173258D01*
Y-173264D01*
X43174Y-173347D01*
X43191Y-173425D01*
X43219Y-173503D01*
X43247Y-173569D01*
X43274Y-173630D01*
X43302Y-173674D01*
X43319Y-173702D01*
X43324Y-173713D01*
X43347Y-173747D01*
X43380Y-173785D01*
X43424Y-173836D01*
X43469Y-173880D01*
X43569Y-173985D01*
X43668Y-174091D01*
X43768Y-174191D01*
X43813Y-174235D01*
X43857Y-174268D01*
X43890Y-174302D01*
X43913Y-174324D01*
X43929Y-174341D01*
X43935Y-174346D01*
X44046Y-174451D01*
X44146Y-174551D01*
X44240Y-174646D01*
X44323Y-174729D01*
X44401Y-174812D01*
X44468Y-174890D01*
X44529Y-174957D01*
X44579Y-175023D01*
X44623Y-175079D01*
X44662Y-175129D01*
X44695Y-175168D01*
X44717Y-175206D01*
X44740Y-175229D01*
X44751Y-175251D01*
X44762Y-175262D01*
Y-175267D01*
X44834Y-175395D01*
X44889Y-175528D01*
X44934Y-175650D01*
X44967Y-175761D01*
X44989Y-175861D01*
X44995Y-175900D01*
X45000Y-175933D01*
X45006Y-175961D01*
X45011Y-175983D01*
Y-175995D01*
Y-176000D01*
X42431D01*
Y-175317D01*
X43896D01*
X43852Y-175245D01*
X43802Y-175184D01*
X43780Y-175156D01*
X43763Y-175134D01*
X43752Y-175123D01*
X43746Y-175118D01*
X43724Y-175095D01*
X43702Y-175068D01*
X43635Y-175006D01*
X43563Y-174934D01*
X43491Y-174862D01*
X43419Y-174796D01*
X43358Y-174740D01*
X43335Y-174718D01*
X43319Y-174701D01*
X43308Y-174696D01*
X43302Y-174690D01*
X43180Y-174574D01*
X43080Y-174479D01*
X42997Y-174390D01*
X42930Y-174324D01*
X42880Y-174268D01*
X42847Y-174230D01*
X42825Y-174202D01*
X42819Y-174196D01*
X42747Y-174102D01*
X42686Y-174013D01*
X42636Y-173930D01*
X42597Y-173858D01*
X42564Y-173797D01*
X42542Y-173747D01*
X42531Y-173719D01*
X42525Y-173708D01*
X42492Y-173619D01*
X42470Y-173530D01*
X42453Y-173447D01*
X42442Y-173369D01*
X42436Y-173308D01*
X42431Y-173258D01*
Y-173225D01*
Y-173214D01*
X42436Y-173131D01*
X42447Y-173047D01*
X42459Y-172970D01*
X42481Y-172898D01*
X42536Y-172770D01*
X42592Y-172659D01*
X42625Y-172609D01*
X42653Y-172570D01*
X42680Y-172531D01*
X42708Y-172503D01*
X42731Y-172481D01*
X42742Y-172459D01*
X42753Y-172453D01*
X42758Y-172448D01*
X42819Y-172392D01*
X42891Y-172343D01*
X42958Y-172304D01*
X43036Y-172270D01*
X43180Y-172215D01*
X43324Y-172176D01*
X43391Y-172165D01*
X43452Y-172154D01*
X43508Y-172148D01*
X43558Y-172143D01*
X43596Y-172137D01*
X43652D01*
X43746Y-172143D01*
D02*
G37*
G36*
X46676Y-172265D02*
X46749Y-172381D01*
X46826Y-172492D01*
X46904Y-172581D01*
X46971Y-172653D01*
X47032Y-172709D01*
X47054Y-172731D01*
X47071Y-172748D01*
X47082Y-172753D01*
X47087Y-172759D01*
X47209Y-172848D01*
X47326Y-172925D01*
X47431Y-172986D01*
X47526Y-173031D01*
X47603Y-173064D01*
X47659Y-173092D01*
X47681Y-173097D01*
X47698Y-173103D01*
X47703Y-173108D01*
X47709D01*
Y-173775D01*
X47509Y-173697D01*
X47332Y-173614D01*
X47248Y-173569D01*
X47170Y-173519D01*
X47098Y-173475D01*
X47032Y-173430D01*
X46971Y-173386D01*
X46915Y-173347D01*
X46871Y-173314D01*
X46832Y-173281D01*
X46799Y-173253D01*
X46776Y-173236D01*
X46765Y-173225D01*
X46760Y-173220D01*
Y-176000D01*
X46022D01*
Y-172137D01*
X46621D01*
X46676Y-172265D01*
D02*
G37*
G36*
X51000Y-176000D02*
X48292D01*
Y-175351D01*
X50223D01*
Y-172187D01*
X51000D01*
Y-176000D01*
D02*
G37*
G36*
X33676Y-143765D02*
X33749Y-143881D01*
X33826Y-143992D01*
X33904Y-144081D01*
X33971Y-144153D01*
X34032Y-144209D01*
X34054Y-144231D01*
X34071Y-144248D01*
X34082Y-144253D01*
X34087Y-144259D01*
X34209Y-144348D01*
X34326Y-144425D01*
X34431Y-144486D01*
X34526Y-144531D01*
X34603Y-144564D01*
X34659Y-144592D01*
X34681Y-144597D01*
X34698Y-144603D01*
X34703Y-144608D01*
X34709D01*
Y-145274D01*
X34509Y-145197D01*
X34332Y-145114D01*
X34248Y-145069D01*
X34170Y-145019D01*
X34098Y-144975D01*
X34032Y-144930D01*
X33971Y-144886D01*
X33915Y-144847D01*
X33871Y-144814D01*
X33832Y-144781D01*
X33799Y-144753D01*
X33776Y-144736D01*
X33765Y-144725D01*
X33760Y-144720D01*
Y-147500D01*
X33022D01*
Y-143637D01*
X33621D01*
X33676Y-143765D01*
D02*
G37*
G36*
X30691D02*
X30763Y-143881D01*
X30841Y-143992D01*
X30918Y-144081D01*
X30985Y-144153D01*
X31046Y-144209D01*
X31068Y-144231D01*
X31085Y-144248D01*
X31096Y-144253D01*
X31101Y-144259D01*
X31223Y-144348D01*
X31340Y-144425D01*
X31445Y-144486D01*
X31540Y-144531D01*
X31618Y-144564D01*
X31673Y-144592D01*
X31695Y-144597D01*
X31712Y-144603D01*
X31717Y-144608D01*
X31723D01*
Y-145274D01*
X31523Y-145197D01*
X31345Y-145114D01*
X31262Y-145069D01*
X31185Y-145019D01*
X31113Y-144975D01*
X31046Y-144930D01*
X30985Y-144886D01*
X30929Y-144847D01*
X30885Y-144814D01*
X30846Y-144781D01*
X30813Y-144753D01*
X30791Y-144736D01*
X30779Y-144725D01*
X30774Y-144720D01*
Y-147500D01*
X30036D01*
Y-143637D01*
X30635D01*
X30691Y-143765D01*
D02*
G37*
G36*
X38000Y-147500D02*
X35292D01*
Y-146851D01*
X37223D01*
Y-143687D01*
X38000D01*
Y-147500D01*
D02*
G37*
G36*
X183677Y-143765D02*
X183749Y-143881D01*
X183826Y-143992D01*
X183904Y-144081D01*
X183971Y-144153D01*
X184032Y-144209D01*
X184054Y-144231D01*
X184071Y-144248D01*
X184082Y-144253D01*
X184087Y-144259D01*
X184209Y-144348D01*
X184326Y-144425D01*
X184431Y-144486D01*
X184526Y-144531D01*
X184603Y-144564D01*
X184659Y-144592D01*
X184681Y-144597D01*
X184698Y-144603D01*
X184703Y-144608D01*
X184709D01*
Y-145274D01*
X184509Y-145197D01*
X184331Y-145114D01*
X184248Y-145069D01*
X184170Y-145019D01*
X184098Y-144975D01*
X184032Y-144930D01*
X183971Y-144886D01*
X183915Y-144847D01*
X183871Y-144814D01*
X183832Y-144781D01*
X183799Y-144753D01*
X183776Y-144736D01*
X183765Y-144725D01*
X183760Y-144720D01*
Y-147500D01*
X183022D01*
Y-143637D01*
X183621D01*
X183677Y-143765D01*
D02*
G37*
G36*
X188000Y-147500D02*
X185292D01*
Y-146851D01*
X187223D01*
Y-143687D01*
X188000D01*
Y-147500D01*
D02*
G37*
G36*
X180774Y-143643D02*
X180868Y-143654D01*
X180963Y-143676D01*
X181046Y-143698D01*
X181124Y-143731D01*
X181196Y-143765D01*
X181257Y-143798D01*
X181318Y-143837D01*
X181368Y-143876D01*
X181418Y-143909D01*
X181456Y-143942D01*
X181484Y-143976D01*
X181512Y-143998D01*
X181529Y-144020D01*
X181540Y-144031D01*
X181545Y-144037D01*
X181612Y-144131D01*
X181667Y-144242D01*
X181717Y-144359D01*
X181762Y-144481D01*
X181795Y-144608D01*
X181828Y-144742D01*
X181851Y-144869D01*
X181873Y-144997D01*
X181884Y-145119D01*
X181895Y-145230D01*
X181906Y-145335D01*
X181912Y-145424D01*
X181917Y-145496D01*
Y-145552D01*
Y-145574D01*
Y-145591D01*
Y-145596D01*
Y-145602D01*
X181912Y-145802D01*
X181901Y-145985D01*
X181884Y-146157D01*
X181862Y-146312D01*
X181840Y-146451D01*
X181812Y-146579D01*
X181778Y-146690D01*
X181745Y-146790D01*
X181717Y-146873D01*
X181684Y-146950D01*
X181656Y-147012D01*
X181629Y-147062D01*
X181612Y-147095D01*
X181595Y-147123D01*
X181584Y-147139D01*
X181579Y-147145D01*
X181512Y-147222D01*
X181440Y-147283D01*
X181368Y-147345D01*
X181290Y-147389D01*
X181218Y-147433D01*
X181140Y-147467D01*
X181068Y-147494D01*
X180996Y-147517D01*
X180929Y-147539D01*
X180868Y-147550D01*
X180813Y-147561D01*
X180768Y-147567D01*
X180729D01*
X180696Y-147572D01*
X180674D01*
X180574Y-147567D01*
X180480Y-147555D01*
X180385Y-147533D01*
X180302Y-147511D01*
X180225Y-147483D01*
X180152Y-147450D01*
X180091Y-147411D01*
X180030Y-147372D01*
X179980Y-147339D01*
X179930Y-147300D01*
X179892Y-147267D01*
X179858Y-147239D01*
X179836Y-147217D01*
X179819Y-147195D01*
X179808Y-147184D01*
X179803Y-147178D01*
X179736Y-147084D01*
X179681Y-146973D01*
X179625Y-146856D01*
X179586Y-146729D01*
X179547Y-146601D01*
X179520Y-146473D01*
X179492Y-146340D01*
X179470Y-146212D01*
X179458Y-146090D01*
X179447Y-145979D01*
X179436Y-145874D01*
X179431Y-145785D01*
X179425Y-145713D01*
Y-145657D01*
Y-145635D01*
Y-145619D01*
Y-145613D01*
Y-145607D01*
X179431Y-145408D01*
X179442Y-145224D01*
X179458Y-145058D01*
X179486Y-144903D01*
X179514Y-144758D01*
X179542Y-144631D01*
X179581Y-144514D01*
X179614Y-144414D01*
X179647Y-144320D01*
X179681Y-144248D01*
X179714Y-144181D01*
X179742Y-144126D01*
X179769Y-144087D01*
X179786Y-144059D01*
X179797Y-144042D01*
X179803Y-144037D01*
X179864Y-143965D01*
X179930Y-143904D01*
X180002Y-143854D01*
X180075Y-143804D01*
X180147Y-143765D01*
X180219Y-143737D01*
X180286Y-143709D01*
X180358Y-143687D01*
X180424Y-143670D01*
X180480Y-143659D01*
X180535Y-143648D01*
X180580Y-143643D01*
X180619Y-143637D01*
X180674D01*
X180774Y-143643D01*
D02*
G37*
G36*
X114500Y-147500D02*
X111792D01*
Y-146851D01*
X113723D01*
Y-143687D01*
X114500D01*
Y-147500D01*
D02*
G37*
G36*
X110265Y-143643D02*
X110360Y-143648D01*
X110449Y-143665D01*
X110532Y-143682D01*
X110609Y-143704D01*
X110682Y-143726D01*
X110743Y-143754D01*
X110798Y-143776D01*
X110854Y-143804D01*
X110898Y-143831D01*
X110931Y-143854D01*
X110965Y-143876D01*
X110987Y-143893D01*
X111003Y-143909D01*
X111015Y-143915D01*
X111020Y-143920D01*
X111070Y-143976D01*
X111120Y-144031D01*
X111159Y-144092D01*
X111192Y-144148D01*
X111248Y-144270D01*
X111281Y-144381D01*
X111303Y-144481D01*
X111309Y-144525D01*
X111314Y-144559D01*
X111320Y-144592D01*
Y-144614D01*
Y-144625D01*
Y-144631D01*
X111314Y-144725D01*
X111298Y-144808D01*
X111281Y-144892D01*
X111253Y-144958D01*
X111231Y-145019D01*
X111214Y-145058D01*
X111198Y-145086D01*
X111192Y-145097D01*
X111137Y-145169D01*
X111070Y-145236D01*
X111003Y-145291D01*
X110931Y-145341D01*
X110870Y-145374D01*
X110820Y-145402D01*
X110787Y-145419D01*
X110782Y-145424D01*
X110776D01*
X110892Y-145485D01*
X110992Y-145546D01*
X111076Y-145613D01*
X111142Y-145680D01*
X111198Y-145741D01*
X111237Y-145785D01*
X111259Y-145818D01*
X111264Y-145824D01*
Y-145829D01*
X111314Y-145929D01*
X111353Y-146029D01*
X111375Y-146129D01*
X111398Y-146218D01*
X111409Y-146290D01*
X111414Y-146351D01*
Y-146373D01*
Y-146390D01*
Y-146401D01*
Y-146407D01*
X111409Y-146512D01*
X111398Y-146606D01*
X111375Y-146701D01*
X111348Y-146784D01*
X111320Y-146867D01*
X111287Y-146940D01*
X111248Y-147006D01*
X111209Y-147067D01*
X111170Y-147117D01*
X111131Y-147167D01*
X111098Y-147206D01*
X111070Y-147239D01*
X111042Y-147267D01*
X111020Y-147283D01*
X111009Y-147295D01*
X111003Y-147300D01*
X110937Y-147350D01*
X110865Y-147389D01*
X110793Y-147428D01*
X110721Y-147456D01*
X110576Y-147505D01*
X110437Y-147539D01*
X110371Y-147550D01*
X110315Y-147555D01*
X110265Y-147561D01*
X110221Y-147567D01*
X110182Y-147572D01*
X110132D01*
X110027Y-147567D01*
X109932Y-147555D01*
X109838Y-147539D01*
X109749Y-147522D01*
X109671Y-147494D01*
X109599Y-147467D01*
X109527Y-147439D01*
X109466Y-147406D01*
X109411Y-147372D01*
X109366Y-147345D01*
X109322Y-147317D01*
X109289Y-147289D01*
X109261Y-147273D01*
X109244Y-147256D01*
X109233Y-147245D01*
X109228Y-147239D01*
X109167Y-147173D01*
X109116Y-147106D01*
X109067Y-147034D01*
X109028Y-146962D01*
X108994Y-146889D01*
X108967Y-146817D01*
X108928Y-146679D01*
X108911Y-146618D01*
X108900Y-146562D01*
X108895Y-146507D01*
X108889Y-146462D01*
X108883Y-146423D01*
Y-146396D01*
Y-146379D01*
Y-146373D01*
X108889Y-146257D01*
X108911Y-146151D01*
X108933Y-146051D01*
X108967Y-145968D01*
X108994Y-145902D01*
X109022Y-145852D01*
X109044Y-145818D01*
X109050Y-145807D01*
X109116Y-145719D01*
X109194Y-145641D01*
X109277Y-145574D01*
X109355Y-145524D01*
X109427Y-145480D01*
X109483Y-145447D01*
X109505Y-145435D01*
X109522Y-145430D01*
X109533Y-145424D01*
X109538D01*
X109450Y-145380D01*
X109372Y-145330D01*
X109305Y-145280D01*
X109250Y-145224D01*
X109205Y-145180D01*
X109177Y-145141D01*
X109155Y-145119D01*
X109150Y-145108D01*
X109100Y-145025D01*
X109067Y-144941D01*
X109039Y-144864D01*
X109022Y-144792D01*
X109011Y-144725D01*
X109005Y-144675D01*
Y-144642D01*
Y-144636D01*
Y-144631D01*
X109011Y-144553D01*
X109017Y-144475D01*
X109055Y-144336D01*
X109100Y-144220D01*
X109155Y-144114D01*
X109216Y-144031D01*
X109239Y-143998D01*
X109261Y-143970D01*
X109283Y-143948D01*
X109300Y-143931D01*
X109305Y-143926D01*
X109311Y-143920D01*
X109372Y-143870D01*
X109433Y-143826D01*
X109505Y-143787D01*
X109572Y-143754D01*
X109716Y-143704D01*
X109855Y-143670D01*
X109916Y-143659D01*
X109977Y-143654D01*
X110027Y-143648D01*
X110077Y-143643D01*
X110110Y-143637D01*
X110166D01*
X110265Y-143643D01*
D02*
G37*
G36*
X-3500Y-147500D02*
X-6208D01*
Y-146851D01*
X-4277D01*
Y-143687D01*
X-3500D01*
Y-147500D01*
D02*
G37*
G36*
X-6597Y-144392D02*
X-8267D01*
X-8084Y-144642D01*
X-7923Y-144903D01*
X-7846Y-145025D01*
X-7779Y-145152D01*
X-7718Y-145269D01*
X-7662Y-145380D01*
X-7613Y-145485D01*
X-7568Y-145580D01*
X-7529Y-145668D01*
X-7496Y-145741D01*
X-7474Y-145796D01*
X-7457Y-145841D01*
X-7446Y-145868D01*
X-7440Y-145879D01*
X-7385Y-146035D01*
X-7335Y-146185D01*
X-7296Y-146335D01*
X-7257Y-146479D01*
X-7230Y-146623D01*
X-7202Y-146756D01*
X-7180Y-146884D01*
X-7163Y-147001D01*
X-7146Y-147106D01*
X-7135Y-147206D01*
X-7124Y-147289D01*
X-7119Y-147361D01*
Y-147422D01*
X-7113Y-147467D01*
Y-147489D01*
Y-147500D01*
X-7823D01*
X-7829Y-147306D01*
X-7846Y-147106D01*
X-7873Y-146912D01*
X-7885Y-146823D01*
X-7901Y-146734D01*
X-7918Y-146656D01*
X-7934Y-146579D01*
X-7946Y-146518D01*
X-7957Y-146462D01*
X-7968Y-146412D01*
X-7979Y-146379D01*
X-7984Y-146357D01*
Y-146351D01*
X-8057Y-146113D01*
X-8134Y-145885D01*
X-8173Y-145780D01*
X-8218Y-145680D01*
X-8256Y-145585D01*
X-8295Y-145496D01*
X-8334Y-145419D01*
X-8367Y-145347D01*
X-8401Y-145280D01*
X-8423Y-145230D01*
X-8445Y-145186D01*
X-8462Y-145158D01*
X-8473Y-145136D01*
X-8478Y-145130D01*
X-8539Y-145025D01*
X-8600Y-144925D01*
X-8656Y-144836D01*
X-8711Y-144747D01*
X-8767Y-144669D01*
X-8822Y-144597D01*
X-8872Y-144531D01*
X-8917Y-144470D01*
X-8961Y-144414D01*
X-9000Y-144370D01*
X-9033Y-144331D01*
X-9061Y-144298D01*
X-9083Y-144275D01*
X-9100Y-144259D01*
X-9111Y-144248D01*
X-9117Y-144242D01*
Y-143709D01*
X-6597D01*
Y-144392D01*
D02*
G37*
G36*
X70483Y-192143D02*
X70572Y-192148D01*
X70744Y-192176D01*
X70888Y-192220D01*
X70955Y-192243D01*
X71016Y-192270D01*
X71071Y-192293D01*
X71115Y-192320D01*
X71160Y-192343D01*
X71193Y-192359D01*
X71221Y-192381D01*
X71238Y-192393D01*
X71249Y-192398D01*
X71254Y-192404D01*
X71315Y-192459D01*
X71371Y-192515D01*
X71421Y-192581D01*
X71465Y-192653D01*
X71532Y-192798D01*
X71587Y-192936D01*
X71604Y-193008D01*
X71621Y-193070D01*
X71637Y-193125D01*
X71643Y-193175D01*
X71654Y-193219D01*
Y-193247D01*
X71659Y-193269D01*
Y-193275D01*
X70927Y-193347D01*
X70916Y-193236D01*
X70894Y-193142D01*
X70871Y-193059D01*
X70844Y-192998D01*
X70821Y-192947D01*
X70799Y-192914D01*
X70783Y-192892D01*
X70777Y-192886D01*
X70722Y-192842D01*
X70660Y-192809D01*
X70599Y-192781D01*
X70538Y-192764D01*
X70488Y-192753D01*
X70444Y-192748D01*
X70405D01*
X70322Y-192753D01*
X70250Y-192770D01*
X70189Y-192792D01*
X70133Y-192814D01*
X70094Y-192836D01*
X70061Y-192859D01*
X70044Y-192875D01*
X70039Y-192881D01*
X69994Y-192936D01*
X69961Y-192998D01*
X69939Y-193059D01*
X69922Y-193120D01*
X69911Y-193175D01*
X69906Y-193225D01*
Y-193253D01*
Y-193258D01*
Y-193264D01*
X69911Y-193347D01*
X69928Y-193425D01*
X69956Y-193502D01*
X69983Y-193569D01*
X70011Y-193630D01*
X70039Y-193675D01*
X70055Y-193702D01*
X70061Y-193713D01*
X70083Y-193747D01*
X70117Y-193786D01*
X70161Y-193835D01*
X70205Y-193880D01*
X70305Y-193985D01*
X70405Y-194091D01*
X70505Y-194191D01*
X70549Y-194235D01*
X70594Y-194268D01*
X70627Y-194302D01*
X70649Y-194324D01*
X70666Y-194341D01*
X70671Y-194346D01*
X70783Y-194451D01*
X70882Y-194551D01*
X70977Y-194646D01*
X71060Y-194729D01*
X71138Y-194812D01*
X71204Y-194890D01*
X71265Y-194957D01*
X71315Y-195023D01*
X71360Y-195079D01*
X71399Y-195129D01*
X71432Y-195168D01*
X71454Y-195206D01*
X71476Y-195229D01*
X71487Y-195251D01*
X71499Y-195262D01*
Y-195267D01*
X71571Y-195395D01*
X71626Y-195528D01*
X71671Y-195650D01*
X71704Y-195761D01*
X71726Y-195861D01*
X71732Y-195900D01*
X71737Y-195933D01*
X71743Y-195961D01*
X71748Y-195983D01*
Y-195994D01*
Y-196000D01*
X69167D01*
Y-195317D01*
X70633D01*
X70588Y-195245D01*
X70538Y-195184D01*
X70516Y-195156D01*
X70499Y-195134D01*
X70488Y-195123D01*
X70483Y-195118D01*
X70461Y-195095D01*
X70438Y-195068D01*
X70372Y-195007D01*
X70300Y-194934D01*
X70227Y-194862D01*
X70155Y-194796D01*
X70094Y-194740D01*
X70072Y-194718D01*
X70055Y-194701D01*
X70044Y-194696D01*
X70039Y-194690D01*
X69917Y-194574D01*
X69817Y-194479D01*
X69734Y-194390D01*
X69667Y-194324D01*
X69617Y-194268D01*
X69584Y-194229D01*
X69561Y-194202D01*
X69556Y-194196D01*
X69484Y-194102D01*
X69423Y-194013D01*
X69373Y-193930D01*
X69334Y-193858D01*
X69301Y-193797D01*
X69278Y-193747D01*
X69267Y-193719D01*
X69262Y-193708D01*
X69229Y-193619D01*
X69206Y-193530D01*
X69190Y-193447D01*
X69178Y-193369D01*
X69173Y-193308D01*
X69167Y-193258D01*
Y-193225D01*
Y-193214D01*
X69173Y-193131D01*
X69184Y-193047D01*
X69195Y-192970D01*
X69217Y-192898D01*
X69273Y-192770D01*
X69328Y-192659D01*
X69362Y-192609D01*
X69389Y-192570D01*
X69417Y-192531D01*
X69445Y-192503D01*
X69467Y-192481D01*
X69478Y-192459D01*
X69489Y-192454D01*
X69495Y-192448D01*
X69556Y-192393D01*
X69628Y-192343D01*
X69695Y-192304D01*
X69772Y-192270D01*
X69917Y-192215D01*
X70061Y-192176D01*
X70128Y-192165D01*
X70189Y-192154D01*
X70244Y-192148D01*
X70294Y-192143D01*
X70333Y-192137D01*
X70389D01*
X70483Y-192143D01*
D02*
G37*
G36*
X73852Y-192093D02*
X73996Y-192109D01*
X74124Y-192137D01*
X74251Y-192171D01*
X74362Y-192209D01*
X74473Y-192254D01*
X74568Y-192304D01*
X74656Y-192354D01*
X74740Y-192404D01*
X74806Y-192454D01*
X74867Y-192498D01*
X74917Y-192537D01*
X74956Y-192570D01*
X74984Y-192598D01*
X75001Y-192614D01*
X75006Y-192620D01*
X75095Y-192726D01*
X75167Y-192836D01*
X75234Y-192953D01*
X75289Y-193075D01*
X75339Y-193203D01*
X75378Y-193325D01*
X75411Y-193447D01*
X75439Y-193564D01*
X75461Y-193680D01*
X75472Y-193780D01*
X75483Y-193874D01*
X75494Y-193952D01*
Y-194019D01*
X75500Y-194069D01*
Y-194102D01*
Y-194107D01*
Y-194113D01*
X75494Y-194280D01*
X75478Y-194435D01*
X75456Y-194585D01*
X75422Y-194718D01*
X75389Y-194846D01*
X75345Y-194968D01*
X75300Y-195073D01*
X75256Y-195168D01*
X75211Y-195256D01*
X75167Y-195334D01*
X75123Y-195395D01*
X75089Y-195450D01*
X75056Y-195489D01*
X75034Y-195523D01*
X75017Y-195539D01*
X75012Y-195545D01*
X74917Y-195639D01*
X74817Y-195717D01*
X74712Y-195789D01*
X74606Y-195845D01*
X74501Y-195895D01*
X74396Y-195939D01*
X74296Y-195972D01*
X74201Y-196000D01*
X74107Y-196022D01*
X74024Y-196039D01*
X73946Y-196050D01*
X73885Y-196055D01*
X73829Y-196061D01*
X73791Y-196067D01*
X73757D01*
X73641Y-196061D01*
X73535Y-196055D01*
X73430Y-196039D01*
X73335Y-196017D01*
X73247Y-195994D01*
X73163Y-195972D01*
X73086Y-195944D01*
X73014Y-195911D01*
X72953Y-195883D01*
X72897Y-195856D01*
X72847Y-195834D01*
X72808Y-195811D01*
X72775Y-195789D01*
X72753Y-195773D01*
X72742Y-195767D01*
X72736Y-195761D01*
X72664Y-195700D01*
X72597Y-195634D01*
X72475Y-195484D01*
X72375Y-195328D01*
X72298Y-195179D01*
X72264Y-195106D01*
X72237Y-195040D01*
X72214Y-194979D01*
X72192Y-194929D01*
X72176Y-194884D01*
X72164Y-194851D01*
X72159Y-194829D01*
Y-194823D01*
X72914Y-194590D01*
X72958Y-194740D01*
X73008Y-194868D01*
X73058Y-194973D01*
X73114Y-195062D01*
X73158Y-195129D01*
X73197Y-195173D01*
X73225Y-195201D01*
X73236Y-195212D01*
X73324Y-195279D01*
X73413Y-195323D01*
X73502Y-195356D01*
X73580Y-195384D01*
X73652Y-195395D01*
X73713Y-195401D01*
X73735Y-195406D01*
X73763D01*
X73840Y-195401D01*
X73913Y-195395D01*
X74046Y-195356D01*
X74163Y-195312D01*
X74257Y-195251D01*
X74335Y-195195D01*
X74390Y-195151D01*
X74412Y-195129D01*
X74429Y-195112D01*
X74434Y-195106D01*
X74440Y-195101D01*
X74484Y-195040D01*
X74523Y-194968D01*
X74562Y-194890D01*
X74590Y-194807D01*
X74634Y-194635D01*
X74668Y-194463D01*
X74679Y-194379D01*
X74684Y-194307D01*
X74695Y-194235D01*
Y-194174D01*
X74701Y-194130D01*
Y-194091D01*
Y-194063D01*
Y-194058D01*
X74695Y-193930D01*
X74690Y-193813D01*
X74679Y-193708D01*
X74662Y-193608D01*
X74640Y-193519D01*
X74618Y-193436D01*
X74595Y-193364D01*
X74568Y-193297D01*
X74545Y-193242D01*
X74523Y-193192D01*
X74501Y-193153D01*
X74479Y-193120D01*
X74462Y-193092D01*
X74451Y-193075D01*
X74440Y-193064D01*
Y-193059D01*
X74390Y-193003D01*
X74335Y-192953D01*
X74279Y-192914D01*
X74218Y-192881D01*
X74101Y-192825D01*
X73990Y-192787D01*
X73896Y-192764D01*
X73852Y-192759D01*
X73818Y-192753D01*
X73785Y-192748D01*
X73746D01*
X73635Y-192753D01*
X73535Y-192775D01*
X73447Y-192803D01*
X73369Y-192836D01*
X73308Y-192870D01*
X73263Y-192898D01*
X73236Y-192920D01*
X73225Y-192925D01*
X73152Y-192992D01*
X73086Y-193070D01*
X73036Y-193147D01*
X72997Y-193225D01*
X72969Y-193292D01*
X72953Y-193342D01*
X72941Y-193364D01*
Y-193380D01*
X72936Y-193386D01*
Y-193392D01*
X72170Y-193208D01*
X72225Y-193047D01*
X72286Y-192909D01*
X72353Y-192787D01*
X72414Y-192687D01*
X72475Y-192609D01*
X72497Y-192576D01*
X72520Y-192548D01*
X72536Y-192531D01*
X72553Y-192515D01*
X72558Y-192503D01*
X72564D01*
X72647Y-192431D01*
X72742Y-192365D01*
X72830Y-192309D01*
X72925Y-192265D01*
X73025Y-192220D01*
X73119Y-192187D01*
X73213Y-192159D01*
X73302Y-192137D01*
X73386Y-192121D01*
X73463Y-192109D01*
X73530Y-192098D01*
X73591Y-192093D01*
X73641Y-192087D01*
X73707D01*
X73852Y-192093D01*
D02*
G37*
G36*
X68668Y-192892D02*
X66997D01*
X67181Y-193142D01*
X67342Y-193403D01*
X67419Y-193525D01*
X67486Y-193652D01*
X67547Y-193769D01*
X67602Y-193880D01*
X67652Y-193985D01*
X67697Y-194080D01*
X67736Y-194168D01*
X67769Y-194241D01*
X67791Y-194296D01*
X67808Y-194341D01*
X67819Y-194368D01*
X67824Y-194379D01*
X67880Y-194535D01*
X67930Y-194685D01*
X67969Y-194834D01*
X68007Y-194979D01*
X68035Y-195123D01*
X68063Y-195256D01*
X68085Y-195384D01*
X68102Y-195501D01*
X68119Y-195606D01*
X68130Y-195706D01*
X68141Y-195789D01*
X68146Y-195861D01*
Y-195922D01*
X68152Y-195967D01*
Y-195989D01*
Y-196000D01*
X67441D01*
X67436Y-195806D01*
X67419Y-195606D01*
X67391Y-195412D01*
X67380Y-195323D01*
X67364Y-195234D01*
X67347Y-195156D01*
X67330Y-195079D01*
X67319Y-195018D01*
X67308Y-194962D01*
X67297Y-194912D01*
X67286Y-194879D01*
X67280Y-194857D01*
Y-194851D01*
X67208Y-194613D01*
X67131Y-194385D01*
X67092Y-194280D01*
X67047Y-194180D01*
X67009Y-194085D01*
X66970Y-193997D01*
X66931Y-193919D01*
X66897Y-193847D01*
X66864Y-193780D01*
X66842Y-193730D01*
X66820Y-193686D01*
X66803Y-193658D01*
X66792Y-193636D01*
X66786Y-193630D01*
X66725Y-193525D01*
X66664Y-193425D01*
X66609Y-193336D01*
X66553Y-193247D01*
X66498Y-193169D01*
X66442Y-193097D01*
X66392Y-193031D01*
X66348Y-192970D01*
X66304Y-192914D01*
X66265Y-192870D01*
X66232Y-192831D01*
X66204Y-192798D01*
X66182Y-192775D01*
X66165Y-192759D01*
X66154Y-192748D01*
X66148Y-192742D01*
Y-192209D01*
X68668D01*
Y-192892D01*
D02*
G37*
G36*
X81983Y-175643D02*
X82072Y-175648D01*
X82244Y-175676D01*
X82388Y-175721D01*
X82455Y-175743D01*
X82516Y-175770D01*
X82571Y-175793D01*
X82616Y-175820D01*
X82660Y-175843D01*
X82693Y-175859D01*
X82721Y-175881D01*
X82738Y-175892D01*
X82749Y-175898D01*
X82754Y-175904D01*
X82815Y-175959D01*
X82871Y-176015D01*
X82921Y-176081D01*
X82965Y-176153D01*
X83032Y-176298D01*
X83087Y-176436D01*
X83104Y-176508D01*
X83121Y-176570D01*
X83137Y-176625D01*
X83143Y-176675D01*
X83154Y-176719D01*
Y-176747D01*
X83159Y-176769D01*
Y-176775D01*
X82427Y-176847D01*
X82416Y-176736D01*
X82393Y-176642D01*
X82371Y-176558D01*
X82344Y-176497D01*
X82321Y-176447D01*
X82299Y-176414D01*
X82283Y-176392D01*
X82277Y-176386D01*
X82222Y-176342D01*
X82160Y-176309D01*
X82099Y-176281D01*
X82038Y-176264D01*
X81988Y-176253D01*
X81944Y-176248D01*
X81905D01*
X81822Y-176253D01*
X81750Y-176270D01*
X81689Y-176292D01*
X81633Y-176314D01*
X81594Y-176337D01*
X81561Y-176359D01*
X81544Y-176375D01*
X81539Y-176381D01*
X81494Y-176436D01*
X81461Y-176497D01*
X81439Y-176558D01*
X81422Y-176620D01*
X81411Y-176675D01*
X81406Y-176725D01*
Y-176753D01*
Y-176758D01*
Y-176764D01*
X81411Y-176847D01*
X81428Y-176925D01*
X81456Y-177003D01*
X81483Y-177069D01*
X81511Y-177130D01*
X81539Y-177174D01*
X81555Y-177202D01*
X81561Y-177213D01*
X81583Y-177247D01*
X81616Y-177286D01*
X81661Y-177336D01*
X81705Y-177380D01*
X81805Y-177485D01*
X81905Y-177591D01*
X82005Y-177691D01*
X82049Y-177735D01*
X82094Y-177768D01*
X82127Y-177802D01*
X82149Y-177824D01*
X82166Y-177841D01*
X82171Y-177846D01*
X82283Y-177952D01*
X82382Y-178051D01*
X82477Y-178146D01*
X82560Y-178229D01*
X82638Y-178312D01*
X82704Y-178390D01*
X82765Y-178457D01*
X82815Y-178523D01*
X82860Y-178579D01*
X82899Y-178629D01*
X82932Y-178667D01*
X82954Y-178706D01*
X82976Y-178728D01*
X82987Y-178751D01*
X82999Y-178762D01*
Y-178767D01*
X83071Y-178895D01*
X83126Y-179028D01*
X83170Y-179150D01*
X83204Y-179261D01*
X83226Y-179361D01*
X83232Y-179400D01*
X83237Y-179433D01*
X83243Y-179461D01*
X83248Y-179483D01*
Y-179495D01*
Y-179500D01*
X80667D01*
Y-178817D01*
X82133D01*
X82088Y-178745D01*
X82038Y-178684D01*
X82016Y-178656D01*
X81999Y-178634D01*
X81988Y-178623D01*
X81983Y-178618D01*
X81961Y-178595D01*
X81938Y-178568D01*
X81872Y-178507D01*
X81800Y-178434D01*
X81727Y-178362D01*
X81655Y-178296D01*
X81594Y-178240D01*
X81572Y-178218D01*
X81555Y-178201D01*
X81544Y-178196D01*
X81539Y-178190D01*
X81417Y-178074D01*
X81317Y-177979D01*
X81234Y-177891D01*
X81167Y-177824D01*
X81117Y-177768D01*
X81084Y-177729D01*
X81062Y-177702D01*
X81056Y-177696D01*
X80984Y-177602D01*
X80923Y-177513D01*
X80873Y-177430D01*
X80834Y-177358D01*
X80801Y-177297D01*
X80778Y-177247D01*
X80767Y-177219D01*
X80762Y-177208D01*
X80729Y-177119D01*
X80706Y-177030D01*
X80690Y-176947D01*
X80678Y-176869D01*
X80673Y-176808D01*
X80667Y-176758D01*
Y-176725D01*
Y-176714D01*
X80673Y-176631D01*
X80684Y-176547D01*
X80695Y-176470D01*
X80717Y-176398D01*
X80773Y-176270D01*
X80828Y-176159D01*
X80862Y-176109D01*
X80889Y-176070D01*
X80917Y-176031D01*
X80945Y-176004D01*
X80967Y-175981D01*
X80978Y-175959D01*
X80989Y-175953D01*
X80995Y-175948D01*
X81056Y-175892D01*
X81128Y-175843D01*
X81195Y-175804D01*
X81272Y-175770D01*
X81417Y-175715D01*
X81561Y-175676D01*
X81628Y-175665D01*
X81689Y-175654D01*
X81744Y-175648D01*
X81794Y-175643D01*
X81833Y-175637D01*
X81889D01*
X81983Y-175643D01*
D02*
G37*
G36*
X78880D02*
X78986Y-175659D01*
X79091Y-175682D01*
X79186Y-175709D01*
X79274Y-175748D01*
X79363Y-175787D01*
X79435Y-175831D01*
X79507Y-175870D01*
X79569Y-175915D01*
X79624Y-175959D01*
X79668Y-175998D01*
X79707Y-176037D01*
X79741Y-176065D01*
X79763Y-176087D01*
X79774Y-176103D01*
X79779Y-176109D01*
X79846Y-176203D01*
X79907Y-176309D01*
X79957Y-176425D01*
X80001Y-176542D01*
X80040Y-176670D01*
X80074Y-176797D01*
X80101Y-176925D01*
X80118Y-177047D01*
X80135Y-177163D01*
X80146Y-177275D01*
X80157Y-177374D01*
X80162Y-177463D01*
X80168Y-177535D01*
Y-177591D01*
Y-177607D01*
Y-177624D01*
Y-177630D01*
Y-177635D01*
X80162Y-177824D01*
X80151Y-177996D01*
X80135Y-178157D01*
X80107Y-178301D01*
X80079Y-178440D01*
X80051Y-178562D01*
X80018Y-178667D01*
X79979Y-178767D01*
X79946Y-178851D01*
X79913Y-178923D01*
X79885Y-178984D01*
X79852Y-179034D01*
X79829Y-179073D01*
X79813Y-179100D01*
X79802Y-179117D01*
X79796Y-179123D01*
X79724Y-179200D01*
X79646Y-179272D01*
X79569Y-179333D01*
X79485Y-179383D01*
X79408Y-179428D01*
X79324Y-179461D01*
X79247Y-179495D01*
X79175Y-179517D01*
X79102Y-179533D01*
X79041Y-179550D01*
X78980Y-179555D01*
X78930Y-179567D01*
X78891D01*
X78864Y-179572D01*
X78836D01*
X78736Y-179567D01*
X78642Y-179555D01*
X78553Y-179539D01*
X78470Y-179517D01*
X78386Y-179489D01*
X78314Y-179461D01*
X78248Y-179428D01*
X78187Y-179395D01*
X78131Y-179361D01*
X78087Y-179328D01*
X78042Y-179300D01*
X78009Y-179272D01*
X77981Y-179250D01*
X77965Y-179234D01*
X77953Y-179223D01*
X77948Y-179217D01*
X77887Y-179150D01*
X77831Y-179073D01*
X77787Y-178995D01*
X77748Y-178917D01*
X77709Y-178840D01*
X77682Y-178762D01*
X77643Y-178606D01*
X77626Y-178540D01*
X77615Y-178473D01*
X77609Y-178418D01*
X77604Y-178368D01*
X77598Y-178323D01*
Y-178296D01*
Y-178273D01*
Y-178268D01*
X77604Y-178162D01*
X77615Y-178068D01*
X77632Y-177974D01*
X77648Y-177891D01*
X77676Y-177807D01*
X77704Y-177735D01*
X77732Y-177663D01*
X77765Y-177602D01*
X77798Y-177546D01*
X77826Y-177497D01*
X77854Y-177458D01*
X77881Y-177419D01*
X77898Y-177391D01*
X77915Y-177374D01*
X77926Y-177363D01*
X77931Y-177358D01*
X77992Y-177297D01*
X78059Y-177241D01*
X78126Y-177191D01*
X78192Y-177152D01*
X78259Y-177119D01*
X78325Y-177091D01*
X78448Y-177047D01*
X78503Y-177030D01*
X78558Y-177019D01*
X78603Y-177014D01*
X78642Y-177008D01*
X78675Y-177003D01*
X78719D01*
X78797Y-177008D01*
X78869Y-177019D01*
X78936Y-177030D01*
X79002Y-177052D01*
X79119Y-177108D01*
X79219Y-177163D01*
X79297Y-177225D01*
X79330Y-177252D01*
X79358Y-177280D01*
X79380Y-177302D01*
X79396Y-177313D01*
X79402Y-177324D01*
X79408Y-177330D01*
X79396Y-177213D01*
X79385Y-177102D01*
X79374Y-177003D01*
X79358Y-176914D01*
X79341Y-176836D01*
X79324Y-176764D01*
X79308Y-176703D01*
X79286Y-176647D01*
X79269Y-176597D01*
X79258Y-176558D01*
X79241Y-176525D01*
X79230Y-176503D01*
X79219Y-176481D01*
X79208Y-176470D01*
X79202Y-176459D01*
X79141Y-176386D01*
X79075Y-176337D01*
X79008Y-176298D01*
X78947Y-176276D01*
X78891Y-176259D01*
X78847Y-176253D01*
X78819Y-176248D01*
X78808D01*
X78747Y-176253D01*
X78686Y-176264D01*
X78636Y-176281D01*
X78597Y-176298D01*
X78564Y-176320D01*
X78542Y-176337D01*
X78525Y-176348D01*
X78520Y-176353D01*
X78481Y-176398D01*
X78453Y-176447D01*
X78425Y-176503D01*
X78409Y-176553D01*
X78398Y-176603D01*
X78386Y-176642D01*
X78381Y-176664D01*
Y-176675D01*
X77671Y-176597D01*
X77709Y-176431D01*
X77765Y-176292D01*
X77826Y-176170D01*
X77887Y-176065D01*
X77948Y-175987D01*
X77970Y-175959D01*
X77998Y-175931D01*
X78014Y-175915D01*
X78031Y-175898D01*
X78037Y-175887D01*
X78042D01*
X78098Y-175843D01*
X78153Y-175804D01*
X78275Y-175743D01*
X78398Y-175698D01*
X78509Y-175671D01*
X78608Y-175648D01*
X78653Y-175643D01*
X78692D01*
X78719Y-175637D01*
X78764D01*
X78880Y-175643D01*
D02*
G37*
G36*
X85352Y-175593D02*
X85496Y-175609D01*
X85624Y-175637D01*
X85751Y-175671D01*
X85862Y-175709D01*
X85973Y-175754D01*
X86068Y-175804D01*
X86156Y-175854D01*
X86240Y-175904D01*
X86306Y-175953D01*
X86367Y-175998D01*
X86417Y-176037D01*
X86456Y-176070D01*
X86484Y-176098D01*
X86501Y-176114D01*
X86506Y-176120D01*
X86595Y-176225D01*
X86667Y-176337D01*
X86734Y-176453D01*
X86789Y-176575D01*
X86839Y-176703D01*
X86878Y-176825D01*
X86911Y-176947D01*
X86939Y-177064D01*
X86961Y-177180D01*
X86972Y-177280D01*
X86983Y-177374D01*
X86994Y-177452D01*
Y-177519D01*
X87000Y-177569D01*
Y-177602D01*
Y-177607D01*
Y-177613D01*
X86994Y-177779D01*
X86978Y-177935D01*
X86956Y-178085D01*
X86922Y-178218D01*
X86889Y-178346D01*
X86845Y-178468D01*
X86800Y-178573D01*
X86756Y-178667D01*
X86711Y-178756D01*
X86667Y-178834D01*
X86623Y-178895D01*
X86589Y-178951D01*
X86556Y-178989D01*
X86534Y-179023D01*
X86517Y-179039D01*
X86512Y-179045D01*
X86417Y-179139D01*
X86317Y-179217D01*
X86212Y-179289D01*
X86106Y-179345D01*
X86001Y-179395D01*
X85896Y-179439D01*
X85796Y-179472D01*
X85701Y-179500D01*
X85607Y-179522D01*
X85524Y-179539D01*
X85446Y-179550D01*
X85385Y-179555D01*
X85329Y-179561D01*
X85291Y-179567D01*
X85257D01*
X85141Y-179561D01*
X85035Y-179555D01*
X84930Y-179539D01*
X84835Y-179517D01*
X84747Y-179495D01*
X84663Y-179472D01*
X84586Y-179445D01*
X84514Y-179411D01*
X84452Y-179383D01*
X84397Y-179356D01*
X84347Y-179333D01*
X84308Y-179311D01*
X84275Y-179289D01*
X84253Y-179272D01*
X84242Y-179267D01*
X84236Y-179261D01*
X84164Y-179200D01*
X84097Y-179134D01*
X83975Y-178984D01*
X83875Y-178828D01*
X83798Y-178679D01*
X83764Y-178606D01*
X83737Y-178540D01*
X83714Y-178479D01*
X83692Y-178429D01*
X83675Y-178384D01*
X83664Y-178351D01*
X83659Y-178329D01*
Y-178323D01*
X84414Y-178090D01*
X84458Y-178240D01*
X84508Y-178368D01*
X84558Y-178473D01*
X84614Y-178562D01*
X84658Y-178629D01*
X84697Y-178673D01*
X84724Y-178701D01*
X84736Y-178712D01*
X84824Y-178779D01*
X84913Y-178823D01*
X85002Y-178856D01*
X85080Y-178884D01*
X85152Y-178895D01*
X85213Y-178901D01*
X85235Y-178906D01*
X85263D01*
X85340Y-178901D01*
X85413Y-178895D01*
X85546Y-178856D01*
X85663Y-178812D01*
X85757Y-178751D01*
X85834Y-178695D01*
X85890Y-178651D01*
X85912Y-178629D01*
X85929Y-178612D01*
X85934Y-178606D01*
X85940Y-178601D01*
X85984Y-178540D01*
X86023Y-178468D01*
X86062Y-178390D01*
X86090Y-178307D01*
X86134Y-178135D01*
X86168Y-177963D01*
X86179Y-177879D01*
X86184Y-177807D01*
X86195Y-177735D01*
Y-177674D01*
X86201Y-177630D01*
Y-177591D01*
Y-177563D01*
Y-177558D01*
X86195Y-177430D01*
X86190Y-177313D01*
X86179Y-177208D01*
X86162Y-177108D01*
X86140Y-177019D01*
X86118Y-176936D01*
X86095Y-176864D01*
X86068Y-176797D01*
X86045Y-176742D01*
X86023Y-176692D01*
X86001Y-176653D01*
X85979Y-176620D01*
X85962Y-176592D01*
X85951Y-176575D01*
X85940Y-176564D01*
Y-176558D01*
X85890Y-176503D01*
X85834Y-176453D01*
X85779Y-176414D01*
X85718Y-176381D01*
X85601Y-176325D01*
X85490Y-176287D01*
X85396Y-176264D01*
X85352Y-176259D01*
X85318Y-176253D01*
X85285Y-176248D01*
X85246D01*
X85135Y-176253D01*
X85035Y-176276D01*
X84947Y-176303D01*
X84869Y-176337D01*
X84808Y-176370D01*
X84763Y-176398D01*
X84736Y-176420D01*
X84724Y-176425D01*
X84652Y-176492D01*
X84586Y-176570D01*
X84536Y-176647D01*
X84497Y-176725D01*
X84469Y-176792D01*
X84452Y-176842D01*
X84441Y-176864D01*
Y-176880D01*
X84436Y-176886D01*
Y-176892D01*
X83670Y-176708D01*
X83726Y-176547D01*
X83786Y-176409D01*
X83853Y-176287D01*
X83914Y-176187D01*
X83975Y-176109D01*
X83997Y-176076D01*
X84020Y-176048D01*
X84036Y-176031D01*
X84053Y-176015D01*
X84058Y-176004D01*
X84064D01*
X84147Y-175931D01*
X84242Y-175865D01*
X84330Y-175809D01*
X84425Y-175765D01*
X84525Y-175721D01*
X84619Y-175687D01*
X84713Y-175659D01*
X84802Y-175637D01*
X84886Y-175621D01*
X84963Y-175609D01*
X85030Y-175598D01*
X85091Y-175593D01*
X85141Y-175587D01*
X85207D01*
X85352Y-175593D01*
D02*
G37*
G36*
X31983Y-151643D02*
X32072Y-151648D01*
X32244Y-151676D01*
X32388Y-151720D01*
X32455Y-151743D01*
X32516Y-151770D01*
X32571Y-151793D01*
X32616Y-151820D01*
X32660Y-151843D01*
X32693Y-151859D01*
X32721Y-151881D01*
X32738Y-151892D01*
X32749Y-151898D01*
X32754Y-151904D01*
X32815Y-151959D01*
X32871Y-152015D01*
X32921Y-152081D01*
X32965Y-152153D01*
X33032Y-152298D01*
X33087Y-152436D01*
X33104Y-152508D01*
X33121Y-152570D01*
X33137Y-152625D01*
X33143Y-152675D01*
X33154Y-152719D01*
Y-152747D01*
X33159Y-152769D01*
Y-152775D01*
X32427Y-152847D01*
X32416Y-152736D01*
X32394Y-152642D01*
X32371Y-152559D01*
X32344Y-152497D01*
X32321Y-152447D01*
X32299Y-152414D01*
X32283Y-152392D01*
X32277Y-152386D01*
X32221Y-152342D01*
X32160Y-152309D01*
X32099Y-152281D01*
X32038Y-152264D01*
X31988Y-152253D01*
X31944Y-152248D01*
X31905D01*
X31822Y-152253D01*
X31750Y-152270D01*
X31689Y-152292D01*
X31633Y-152314D01*
X31594Y-152337D01*
X31561Y-152359D01*
X31544Y-152375D01*
X31539Y-152381D01*
X31494Y-152436D01*
X31461Y-152497D01*
X31439Y-152559D01*
X31422Y-152620D01*
X31411Y-152675D01*
X31406Y-152725D01*
Y-152753D01*
Y-152758D01*
Y-152764D01*
X31411Y-152847D01*
X31428Y-152925D01*
X31455Y-153003D01*
X31483Y-153069D01*
X31511Y-153130D01*
X31539Y-153174D01*
X31556Y-153202D01*
X31561Y-153213D01*
X31583Y-153247D01*
X31617Y-153286D01*
X31661Y-153335D01*
X31705Y-153380D01*
X31805Y-153485D01*
X31905Y-153591D01*
X32005Y-153691D01*
X32049Y-153735D01*
X32094Y-153768D01*
X32127Y-153802D01*
X32149Y-153824D01*
X32166Y-153841D01*
X32171Y-153846D01*
X32283Y-153952D01*
X32382Y-154051D01*
X32477Y-154146D01*
X32560Y-154229D01*
X32638Y-154312D01*
X32704Y-154390D01*
X32765Y-154457D01*
X32815Y-154523D01*
X32860Y-154579D01*
X32899Y-154629D01*
X32932Y-154667D01*
X32954Y-154706D01*
X32976Y-154728D01*
X32987Y-154751D01*
X32998Y-154762D01*
Y-154767D01*
X33071Y-154895D01*
X33126Y-155028D01*
X33171Y-155150D01*
X33204Y-155261D01*
X33226Y-155361D01*
X33231Y-155400D01*
X33237Y-155433D01*
X33243Y-155461D01*
X33248Y-155483D01*
Y-155494D01*
Y-155500D01*
X30667D01*
Y-154817D01*
X32133D01*
X32088Y-154745D01*
X32038Y-154684D01*
X32016Y-154656D01*
X31999Y-154634D01*
X31988Y-154623D01*
X31983Y-154618D01*
X31961Y-154595D01*
X31938Y-154568D01*
X31872Y-154507D01*
X31800Y-154434D01*
X31727Y-154362D01*
X31655Y-154296D01*
X31594Y-154240D01*
X31572Y-154218D01*
X31556Y-154201D01*
X31544Y-154196D01*
X31539Y-154190D01*
X31417Y-154074D01*
X31317Y-153979D01*
X31234Y-153891D01*
X31167Y-153824D01*
X31117Y-153768D01*
X31084Y-153729D01*
X31062Y-153702D01*
X31056Y-153696D01*
X30984Y-153602D01*
X30923Y-153513D01*
X30873Y-153430D01*
X30834Y-153358D01*
X30801Y-153297D01*
X30778Y-153247D01*
X30767Y-153219D01*
X30762Y-153208D01*
X30729Y-153119D01*
X30706Y-153030D01*
X30690Y-152947D01*
X30679Y-152869D01*
X30673Y-152808D01*
X30667Y-152758D01*
Y-152725D01*
Y-152714D01*
X30673Y-152631D01*
X30684Y-152547D01*
X30695Y-152470D01*
X30717Y-152398D01*
X30773Y-152270D01*
X30828Y-152159D01*
X30862Y-152109D01*
X30889Y-152070D01*
X30917Y-152031D01*
X30945Y-152004D01*
X30967Y-151981D01*
X30978Y-151959D01*
X30989Y-151953D01*
X30995Y-151948D01*
X31056Y-151892D01*
X31128Y-151843D01*
X31195Y-151804D01*
X31272Y-151770D01*
X31417Y-151715D01*
X31561Y-151676D01*
X31628Y-151665D01*
X31689Y-151654D01*
X31744Y-151648D01*
X31794Y-151643D01*
X31833Y-151637D01*
X31888D01*
X31983Y-151643D01*
D02*
G37*
G36*
X30068Y-153713D02*
X29474Y-153796D01*
X29424Y-153746D01*
X29374Y-153702D01*
X29324Y-153663D01*
X29274Y-153630D01*
X29180Y-153580D01*
X29091Y-153546D01*
X29013Y-153530D01*
X28958Y-153519D01*
X28936Y-153513D01*
X28903D01*
X28814Y-153519D01*
X28730Y-153541D01*
X28658Y-153569D01*
X28597Y-153602D01*
X28553Y-153641D01*
X28514Y-153668D01*
X28492Y-153691D01*
X28486Y-153696D01*
X28431Y-153768D01*
X28392Y-153852D01*
X28364Y-153940D01*
X28348Y-154029D01*
X28331Y-154107D01*
X28325Y-154168D01*
Y-154196D01*
Y-154212D01*
Y-154224D01*
Y-154229D01*
X28331Y-154362D01*
X28348Y-154479D01*
X28375Y-154573D01*
X28403Y-154651D01*
X28436Y-154718D01*
X28459Y-154762D01*
X28481Y-154784D01*
X28486Y-154795D01*
X28547Y-154856D01*
X28614Y-154906D01*
X28681Y-154939D01*
X28742Y-154962D01*
X28797Y-154973D01*
X28842Y-154978D01*
X28869Y-154984D01*
X28880D01*
X28953Y-154978D01*
X29025Y-154962D01*
X29086Y-154939D01*
X29136Y-154912D01*
X29180Y-154884D01*
X29213Y-154862D01*
X29236Y-154845D01*
X29241Y-154840D01*
X29291Y-154779D01*
X29335Y-154718D01*
X29369Y-154651D01*
X29391Y-154590D01*
X29408Y-154534D01*
X29419Y-154484D01*
X29424Y-154457D01*
Y-154446D01*
X30157Y-154523D01*
X30140Y-154612D01*
X30124Y-154695D01*
X30068Y-154845D01*
X30007Y-154978D01*
X29974Y-155034D01*
X29935Y-155089D01*
X29901Y-155134D01*
X29874Y-155173D01*
X29840Y-155206D01*
X29818Y-155239D01*
X29796Y-155261D01*
X29779Y-155278D01*
X29768Y-155283D01*
X29763Y-155289D01*
X29696Y-155339D01*
X29630Y-155383D01*
X29557Y-155422D01*
X29485Y-155450D01*
X29335Y-155506D01*
X29202Y-155539D01*
X29136Y-155550D01*
X29080Y-155555D01*
X29025Y-155561D01*
X28980Y-155567D01*
X28941Y-155572D01*
X28891D01*
X28769Y-155567D01*
X28653Y-155550D01*
X28547Y-155528D01*
X28447Y-155494D01*
X28353Y-155456D01*
X28270Y-155411D01*
X28192Y-155367D01*
X28120Y-155317D01*
X28059Y-155272D01*
X28003Y-155228D01*
X27953Y-155184D01*
X27915Y-155145D01*
X27887Y-155112D01*
X27865Y-155089D01*
X27854Y-155073D01*
X27848Y-155067D01*
X27798Y-154995D01*
X27754Y-154923D01*
X27720Y-154851D01*
X27687Y-154773D01*
X27637Y-154629D01*
X27604Y-154496D01*
X27593Y-154440D01*
X27587Y-154384D01*
X27576Y-154334D01*
Y-154290D01*
X27571Y-154257D01*
Y-154235D01*
Y-154218D01*
Y-154212D01*
X27576Y-154107D01*
X27587Y-154007D01*
X27604Y-153913D01*
X27626Y-153824D01*
X27648Y-153746D01*
X27681Y-153668D01*
X27709Y-153596D01*
X27743Y-153535D01*
X27776Y-153480D01*
X27804Y-153430D01*
X27837Y-153385D01*
X27859Y-153352D01*
X27881Y-153324D01*
X27898Y-153302D01*
X27909Y-153291D01*
X27915Y-153286D01*
X27981Y-153225D01*
X28048Y-153169D01*
X28120Y-153119D01*
X28192Y-153075D01*
X28259Y-153041D01*
X28331Y-153014D01*
X28459Y-152969D01*
X28520Y-152953D01*
X28575Y-152942D01*
X28625Y-152936D01*
X28664Y-152930D01*
X28697Y-152925D01*
X28747D01*
X28842Y-152930D01*
X28936Y-152947D01*
X29019Y-152964D01*
X29097Y-152986D01*
X29158Y-153014D01*
X29208Y-153030D01*
X29241Y-153047D01*
X29247Y-153052D01*
X29252D01*
X29136Y-152398D01*
X27743D01*
Y-151709D01*
X29691D01*
X30068Y-153713D01*
D02*
G37*
G36*
X35352Y-151593D02*
X35496Y-151609D01*
X35624Y-151637D01*
X35751Y-151671D01*
X35862Y-151709D01*
X35973Y-151754D01*
X36068Y-151804D01*
X36156Y-151854D01*
X36240Y-151904D01*
X36306Y-151953D01*
X36367Y-151998D01*
X36417Y-152037D01*
X36456Y-152070D01*
X36484Y-152098D01*
X36500Y-152114D01*
X36506Y-152120D01*
X36595Y-152225D01*
X36667Y-152337D01*
X36734Y-152453D01*
X36789Y-152575D01*
X36839Y-152703D01*
X36878Y-152825D01*
X36911Y-152947D01*
X36939Y-153064D01*
X36961Y-153180D01*
X36972Y-153280D01*
X36983Y-153374D01*
X36994Y-153452D01*
Y-153519D01*
X37000Y-153569D01*
Y-153602D01*
Y-153607D01*
Y-153613D01*
X36994Y-153779D01*
X36978Y-153935D01*
X36956Y-154085D01*
X36922Y-154218D01*
X36889Y-154346D01*
X36845Y-154468D01*
X36800Y-154573D01*
X36756Y-154667D01*
X36711Y-154756D01*
X36667Y-154834D01*
X36623Y-154895D01*
X36589Y-154950D01*
X36556Y-154989D01*
X36534Y-155023D01*
X36517Y-155039D01*
X36512Y-155045D01*
X36417Y-155139D01*
X36317Y-155217D01*
X36212Y-155289D01*
X36107Y-155345D01*
X36001Y-155395D01*
X35895Y-155439D01*
X35796Y-155472D01*
X35701Y-155500D01*
X35607Y-155522D01*
X35524Y-155539D01*
X35446Y-155550D01*
X35385Y-155555D01*
X35329Y-155561D01*
X35291Y-155567D01*
X35257D01*
X35141Y-155561D01*
X35035Y-155555D01*
X34930Y-155539D01*
X34835Y-155517D01*
X34747Y-155494D01*
X34664Y-155472D01*
X34586Y-155445D01*
X34514Y-155411D01*
X34453Y-155383D01*
X34397Y-155356D01*
X34347Y-155333D01*
X34308Y-155311D01*
X34275Y-155289D01*
X34253Y-155272D01*
X34242Y-155267D01*
X34236Y-155261D01*
X34164Y-155200D01*
X34097Y-155134D01*
X33975Y-154984D01*
X33875Y-154828D01*
X33798Y-154679D01*
X33764Y-154606D01*
X33737Y-154540D01*
X33714Y-154479D01*
X33692Y-154429D01*
X33676Y-154384D01*
X33664Y-154351D01*
X33659Y-154329D01*
Y-154323D01*
X34414Y-154090D01*
X34458Y-154240D01*
X34508Y-154368D01*
X34558Y-154473D01*
X34613Y-154562D01*
X34658Y-154629D01*
X34697Y-154673D01*
X34725Y-154701D01*
X34736Y-154712D01*
X34824Y-154779D01*
X34913Y-154823D01*
X35002Y-154856D01*
X35080Y-154884D01*
X35152Y-154895D01*
X35213Y-154901D01*
X35235Y-154906D01*
X35263D01*
X35341Y-154901D01*
X35413Y-154895D01*
X35546Y-154856D01*
X35662Y-154812D01*
X35757Y-154751D01*
X35835Y-154695D01*
X35890Y-154651D01*
X35912Y-154629D01*
X35929Y-154612D01*
X35934Y-154606D01*
X35940Y-154601D01*
X35984Y-154540D01*
X36023Y-154468D01*
X36062Y-154390D01*
X36090Y-154307D01*
X36134Y-154135D01*
X36167Y-153963D01*
X36179Y-153879D01*
X36184Y-153807D01*
X36195Y-153735D01*
Y-153674D01*
X36201Y-153630D01*
Y-153591D01*
Y-153563D01*
Y-153558D01*
X36195Y-153430D01*
X36190Y-153313D01*
X36179Y-153208D01*
X36162Y-153108D01*
X36140Y-153019D01*
X36118Y-152936D01*
X36095Y-152864D01*
X36068Y-152797D01*
X36045Y-152742D01*
X36023Y-152692D01*
X36001Y-152653D01*
X35979Y-152620D01*
X35962Y-152592D01*
X35951Y-152575D01*
X35940Y-152564D01*
Y-152559D01*
X35890Y-152503D01*
X35835Y-152453D01*
X35779Y-152414D01*
X35718Y-152381D01*
X35601Y-152325D01*
X35490Y-152287D01*
X35396Y-152264D01*
X35352Y-152259D01*
X35318Y-152253D01*
X35285Y-152248D01*
X35246D01*
X35135Y-152253D01*
X35035Y-152276D01*
X34947Y-152303D01*
X34869Y-152337D01*
X34808Y-152370D01*
X34763Y-152398D01*
X34736Y-152420D01*
X34725Y-152425D01*
X34652Y-152492D01*
X34586Y-152570D01*
X34536Y-152647D01*
X34497Y-152725D01*
X34469Y-152792D01*
X34453Y-152842D01*
X34441Y-152864D01*
Y-152880D01*
X34436Y-152886D01*
Y-152892D01*
X33670Y-152708D01*
X33726Y-152547D01*
X33786Y-152409D01*
X33853Y-152287D01*
X33914Y-152187D01*
X33975Y-152109D01*
X33997Y-152076D01*
X34020Y-152048D01*
X34036Y-152031D01*
X34053Y-152015D01*
X34058Y-152004D01*
X34064D01*
X34147Y-151931D01*
X34242Y-151865D01*
X34330Y-151809D01*
X34425Y-151765D01*
X34525Y-151720D01*
X34619Y-151687D01*
X34713Y-151659D01*
X34802Y-151637D01*
X34885Y-151621D01*
X34963Y-151609D01*
X35030Y-151598D01*
X35091Y-151593D01*
X35141Y-151587D01*
X35207D01*
X35352Y-151593D01*
D02*
G37*
G36*
X31983Y-134643D02*
X32072Y-134648D01*
X32244Y-134676D01*
X32388Y-134721D01*
X32455Y-134743D01*
X32516Y-134770D01*
X32571Y-134793D01*
X32616Y-134820D01*
X32660Y-134843D01*
X32693Y-134859D01*
X32721Y-134881D01*
X32738Y-134892D01*
X32749Y-134898D01*
X32754Y-134904D01*
X32815Y-134959D01*
X32871Y-135015D01*
X32921Y-135081D01*
X32965Y-135153D01*
X33032Y-135298D01*
X33087Y-135436D01*
X33104Y-135509D01*
X33121Y-135570D01*
X33137Y-135625D01*
X33143Y-135675D01*
X33154Y-135720D01*
Y-135747D01*
X33159Y-135769D01*
Y-135775D01*
X32427Y-135847D01*
X32416Y-135736D01*
X32394Y-135642D01*
X32371Y-135558D01*
X32344Y-135497D01*
X32321Y-135448D01*
X32299Y-135414D01*
X32283Y-135392D01*
X32277Y-135386D01*
X32221Y-135342D01*
X32160Y-135309D01*
X32099Y-135281D01*
X32038Y-135264D01*
X31988Y-135253D01*
X31944Y-135248D01*
X31905D01*
X31822Y-135253D01*
X31750Y-135270D01*
X31689Y-135292D01*
X31633Y-135314D01*
X31594Y-135336D01*
X31561Y-135359D01*
X31544Y-135375D01*
X31539Y-135381D01*
X31494Y-135436D01*
X31461Y-135497D01*
X31439Y-135558D01*
X31422Y-135620D01*
X31411Y-135675D01*
X31406Y-135725D01*
Y-135753D01*
Y-135758D01*
Y-135764D01*
X31411Y-135847D01*
X31428Y-135925D01*
X31455Y-136003D01*
X31483Y-136069D01*
X31511Y-136130D01*
X31539Y-136174D01*
X31556Y-136202D01*
X31561Y-136213D01*
X31583Y-136247D01*
X31617Y-136285D01*
X31661Y-136336D01*
X31705Y-136380D01*
X31805Y-136485D01*
X31905Y-136591D01*
X32005Y-136691D01*
X32049Y-136735D01*
X32094Y-136768D01*
X32127Y-136802D01*
X32149Y-136824D01*
X32166Y-136841D01*
X32171Y-136846D01*
X32283Y-136951D01*
X32382Y-137051D01*
X32477Y-137146D01*
X32560Y-137229D01*
X32638Y-137312D01*
X32704Y-137390D01*
X32765Y-137457D01*
X32815Y-137523D01*
X32860Y-137579D01*
X32899Y-137629D01*
X32932Y-137668D01*
X32954Y-137706D01*
X32976Y-137729D01*
X32987Y-137751D01*
X32998Y-137762D01*
Y-137767D01*
X33071Y-137895D01*
X33126Y-138028D01*
X33171Y-138150D01*
X33204Y-138261D01*
X33226Y-138361D01*
X33231Y-138400D01*
X33237Y-138433D01*
X33243Y-138461D01*
X33248Y-138483D01*
Y-138495D01*
Y-138500D01*
X30667D01*
Y-137817D01*
X32133D01*
X32088Y-137745D01*
X32038Y-137684D01*
X32016Y-137656D01*
X31999Y-137634D01*
X31988Y-137623D01*
X31983Y-137618D01*
X31961Y-137595D01*
X31938Y-137568D01*
X31872Y-137506D01*
X31800Y-137434D01*
X31727Y-137362D01*
X31655Y-137296D01*
X31594Y-137240D01*
X31572Y-137218D01*
X31556Y-137201D01*
X31544Y-137196D01*
X31539Y-137190D01*
X31417Y-137074D01*
X31317Y-136979D01*
X31234Y-136890D01*
X31167Y-136824D01*
X31117Y-136768D01*
X31084Y-136730D01*
X31062Y-136702D01*
X31056Y-136696D01*
X30984Y-136602D01*
X30923Y-136513D01*
X30873Y-136430D01*
X30834Y-136358D01*
X30801Y-136297D01*
X30778Y-136247D01*
X30767Y-136219D01*
X30762Y-136208D01*
X30729Y-136119D01*
X30706Y-136030D01*
X30690Y-135947D01*
X30679Y-135869D01*
X30673Y-135808D01*
X30667Y-135758D01*
Y-135725D01*
Y-135714D01*
X30673Y-135631D01*
X30684Y-135547D01*
X30695Y-135470D01*
X30717Y-135398D01*
X30773Y-135270D01*
X30828Y-135159D01*
X30862Y-135109D01*
X30889Y-135070D01*
X30917Y-135031D01*
X30945Y-135003D01*
X30967Y-134981D01*
X30978Y-134959D01*
X30989Y-134953D01*
X30995Y-134948D01*
X31056Y-134892D01*
X31128Y-134843D01*
X31195Y-134804D01*
X31272Y-134770D01*
X31417Y-134715D01*
X31561Y-134676D01*
X31628Y-134665D01*
X31689Y-134654D01*
X31744Y-134648D01*
X31794Y-134643D01*
X31833Y-134637D01*
X31888D01*
X31983Y-134643D01*
D02*
G37*
G36*
X35352Y-134593D02*
X35496Y-134609D01*
X35624Y-134637D01*
X35751Y-134670D01*
X35862Y-134709D01*
X35973Y-134754D01*
X36068Y-134804D01*
X36156Y-134854D01*
X36240Y-134904D01*
X36306Y-134953D01*
X36367Y-134998D01*
X36417Y-135037D01*
X36456Y-135070D01*
X36484Y-135098D01*
X36500Y-135115D01*
X36506Y-135120D01*
X36595Y-135225D01*
X36667Y-135336D01*
X36734Y-135453D01*
X36789Y-135575D01*
X36839Y-135703D01*
X36878Y-135825D01*
X36911Y-135947D01*
X36939Y-136064D01*
X36961Y-136180D01*
X36972Y-136280D01*
X36983Y-136374D01*
X36994Y-136452D01*
Y-136519D01*
X37000Y-136569D01*
Y-136602D01*
Y-136607D01*
Y-136613D01*
X36994Y-136779D01*
X36978Y-136935D01*
X36956Y-137085D01*
X36922Y-137218D01*
X36889Y-137346D01*
X36845Y-137468D01*
X36800Y-137573D01*
X36756Y-137668D01*
X36711Y-137756D01*
X36667Y-137834D01*
X36623Y-137895D01*
X36589Y-137951D01*
X36556Y-137989D01*
X36534Y-138023D01*
X36517Y-138039D01*
X36512Y-138045D01*
X36417Y-138139D01*
X36317Y-138217D01*
X36212Y-138289D01*
X36107Y-138345D01*
X36001Y-138395D01*
X35895Y-138439D01*
X35796Y-138472D01*
X35701Y-138500D01*
X35607Y-138522D01*
X35524Y-138539D01*
X35446Y-138550D01*
X35385Y-138556D01*
X35329Y-138561D01*
X35291Y-138567D01*
X35257D01*
X35141Y-138561D01*
X35035Y-138556D01*
X34930Y-138539D01*
X34835Y-138517D01*
X34747Y-138495D01*
X34664Y-138472D01*
X34586Y-138444D01*
X34514Y-138411D01*
X34453Y-138383D01*
X34397Y-138356D01*
X34347Y-138333D01*
X34308Y-138311D01*
X34275Y-138289D01*
X34253Y-138273D01*
X34242Y-138267D01*
X34236Y-138261D01*
X34164Y-138200D01*
X34097Y-138134D01*
X33975Y-137984D01*
X33875Y-137828D01*
X33798Y-137679D01*
X33764Y-137606D01*
X33737Y-137540D01*
X33714Y-137479D01*
X33692Y-137429D01*
X33676Y-137384D01*
X33664Y-137351D01*
X33659Y-137329D01*
Y-137323D01*
X34414Y-137090D01*
X34458Y-137240D01*
X34508Y-137368D01*
X34558Y-137473D01*
X34613Y-137562D01*
X34658Y-137629D01*
X34697Y-137673D01*
X34725Y-137701D01*
X34736Y-137712D01*
X34824Y-137778D01*
X34913Y-137823D01*
X35002Y-137856D01*
X35080Y-137884D01*
X35152Y-137895D01*
X35213Y-137901D01*
X35235Y-137906D01*
X35263D01*
X35341Y-137901D01*
X35413Y-137895D01*
X35546Y-137856D01*
X35662Y-137812D01*
X35757Y-137751D01*
X35835Y-137695D01*
X35890Y-137651D01*
X35912Y-137629D01*
X35929Y-137612D01*
X35934Y-137606D01*
X35940Y-137601D01*
X35984Y-137540D01*
X36023Y-137468D01*
X36062Y-137390D01*
X36090Y-137307D01*
X36134Y-137135D01*
X36167Y-136963D01*
X36179Y-136879D01*
X36184Y-136807D01*
X36195Y-136735D01*
Y-136674D01*
X36201Y-136630D01*
Y-136591D01*
Y-136563D01*
Y-136557D01*
X36195Y-136430D01*
X36190Y-136313D01*
X36179Y-136208D01*
X36162Y-136108D01*
X36140Y-136019D01*
X36118Y-135936D01*
X36095Y-135864D01*
X36068Y-135797D01*
X36045Y-135742D01*
X36023Y-135692D01*
X36001Y-135653D01*
X35979Y-135620D01*
X35962Y-135592D01*
X35951Y-135575D01*
X35940Y-135564D01*
Y-135558D01*
X35890Y-135503D01*
X35835Y-135453D01*
X35779Y-135414D01*
X35718Y-135381D01*
X35601Y-135325D01*
X35490Y-135287D01*
X35396Y-135264D01*
X35352Y-135259D01*
X35318Y-135253D01*
X35285Y-135248D01*
X35246D01*
X35135Y-135253D01*
X35035Y-135275D01*
X34947Y-135303D01*
X34869Y-135336D01*
X34808Y-135370D01*
X34763Y-135398D01*
X34736Y-135420D01*
X34725Y-135425D01*
X34652Y-135492D01*
X34586Y-135570D01*
X34536Y-135647D01*
X34497Y-135725D01*
X34469Y-135792D01*
X34453Y-135842D01*
X34441Y-135864D01*
Y-135880D01*
X34436Y-135886D01*
Y-135891D01*
X33670Y-135708D01*
X33726Y-135547D01*
X33786Y-135409D01*
X33853Y-135287D01*
X33914Y-135187D01*
X33975Y-135109D01*
X33997Y-135076D01*
X34020Y-135048D01*
X34036Y-135031D01*
X34053Y-135015D01*
X34058Y-135003D01*
X34064D01*
X34147Y-134931D01*
X34242Y-134865D01*
X34330Y-134809D01*
X34425Y-134765D01*
X34525Y-134721D01*
X34619Y-134687D01*
X34713Y-134659D01*
X34802Y-134637D01*
X34885Y-134621D01*
X34963Y-134609D01*
X35030Y-134598D01*
X35091Y-134593D01*
X35141Y-134587D01*
X35207D01*
X35352Y-134593D01*
D02*
G37*
G36*
X30296Y-137090D02*
Y-137729D01*
X28719D01*
Y-138500D01*
X28009D01*
Y-137729D01*
X27532D01*
Y-137085D01*
X28009D01*
Y-134643D01*
X28631D01*
X30296Y-137090D01*
D02*
G37*
G36*
X178075Y-134643D02*
X178180Y-134654D01*
X178280Y-134676D01*
X178363Y-134698D01*
X178430Y-134721D01*
X178485Y-134743D01*
X178519Y-134754D01*
X178524Y-134759D01*
X178530D01*
X178619Y-134809D01*
X178702Y-134865D01*
X178768Y-134920D01*
X178824Y-134970D01*
X178868Y-135020D01*
X178902Y-135059D01*
X178924Y-135081D01*
X178929Y-135092D01*
X178979Y-135176D01*
X179024Y-135264D01*
X179057Y-135359D01*
X179090Y-135448D01*
X179112Y-135531D01*
X179129Y-135592D01*
X179135Y-135620D01*
Y-135636D01*
X179140Y-135647D01*
Y-135653D01*
X178463Y-135764D01*
X178446Y-135675D01*
X178424Y-135597D01*
X178402Y-135531D01*
X178374Y-135481D01*
X178347Y-135436D01*
X178324Y-135403D01*
X178308Y-135386D01*
X178302Y-135381D01*
X178252Y-135336D01*
X178197Y-135303D01*
X178141Y-135281D01*
X178091Y-135264D01*
X178047Y-135253D01*
X178014Y-135248D01*
X177980D01*
X177914Y-135253D01*
X177847Y-135264D01*
X177797Y-135287D01*
X177753Y-135303D01*
X177714Y-135325D01*
X177692Y-135348D01*
X177675Y-135359D01*
X177670Y-135364D01*
X177631Y-135409D01*
X177603Y-135464D01*
X177581Y-135514D01*
X177570Y-135564D01*
X177558Y-135608D01*
X177553Y-135642D01*
Y-135664D01*
Y-135675D01*
X177558Y-135758D01*
X177575Y-135830D01*
X177603Y-135891D01*
X177631Y-135942D01*
X177664Y-135986D01*
X177686Y-136014D01*
X177708Y-136036D01*
X177714Y-136041D01*
X177780Y-136086D01*
X177853Y-136119D01*
X177930Y-136141D01*
X178002Y-136158D01*
X178069Y-136163D01*
X178124Y-136169D01*
X178174D01*
X178252Y-136763D01*
X178180Y-136746D01*
X178119Y-136730D01*
X178058Y-136718D01*
X178008Y-136713D01*
X177969Y-136707D01*
X177914D01*
X177836Y-136713D01*
X177769Y-136735D01*
X177708Y-136757D01*
X177653Y-136791D01*
X177614Y-136818D01*
X177581Y-136846D01*
X177558Y-136868D01*
X177553Y-136874D01*
X177503Y-136941D01*
X177464Y-137013D01*
X177436Y-137085D01*
X177414Y-137157D01*
X177403Y-137223D01*
X177398Y-137274D01*
Y-137307D01*
Y-137312D01*
Y-137318D01*
X177403Y-137423D01*
X177420Y-137518D01*
X177447Y-137601D01*
X177475Y-137668D01*
X177508Y-137717D01*
X177531Y-137756D01*
X177553Y-137784D01*
X177558Y-137790D01*
X177620Y-137845D01*
X177686Y-137890D01*
X177747Y-137917D01*
X177808Y-137940D01*
X177864Y-137951D01*
X177902Y-137956D01*
X177930Y-137962D01*
X177941D01*
X178019Y-137956D01*
X178086Y-137940D01*
X178147Y-137917D01*
X178202Y-137890D01*
X178241Y-137867D01*
X178274Y-137845D01*
X178297Y-137828D01*
X178302Y-137823D01*
X178352Y-137762D01*
X178396Y-137695D01*
X178424Y-137623D01*
X178452Y-137557D01*
X178469Y-137496D01*
X178480Y-137445D01*
X178485Y-137412D01*
Y-137407D01*
Y-137401D01*
X179196Y-137490D01*
X179185Y-137579D01*
X179162Y-137662D01*
X179112Y-137817D01*
X179051Y-137951D01*
X179013Y-138006D01*
X178979Y-138062D01*
X178946Y-138111D01*
X178913Y-138150D01*
X178885Y-138189D01*
X178857Y-138217D01*
X178835Y-138239D01*
X178818Y-138256D01*
X178807Y-138267D01*
X178802Y-138273D01*
X178735Y-138322D01*
X178663Y-138372D01*
X178596Y-138411D01*
X178519Y-138444D01*
X178374Y-138500D01*
X178241Y-138533D01*
X178174Y-138544D01*
X178119Y-138556D01*
X178069Y-138561D01*
X178025Y-138567D01*
X177986Y-138572D01*
X177936D01*
X177836Y-138567D01*
X177736Y-138556D01*
X177647Y-138539D01*
X177558Y-138517D01*
X177481Y-138489D01*
X177403Y-138461D01*
X177331Y-138428D01*
X177270Y-138395D01*
X177214Y-138361D01*
X177159Y-138328D01*
X177120Y-138300D01*
X177081Y-138273D01*
X177053Y-138250D01*
X177031Y-138234D01*
X177020Y-138223D01*
X177015Y-138217D01*
X176948Y-138150D01*
X176892Y-138078D01*
X176842Y-138006D01*
X176798Y-137934D01*
X176765Y-137856D01*
X176732Y-137784D01*
X176687Y-137651D01*
X176676Y-137590D01*
X176665Y-137529D01*
X176654Y-137479D01*
X176648Y-137434D01*
X176643Y-137401D01*
Y-137373D01*
Y-137357D01*
Y-137351D01*
X176654Y-137223D01*
X176676Y-137112D01*
X176704Y-137007D01*
X176743Y-136924D01*
X176781Y-136852D01*
X176809Y-136802D01*
X176831Y-136768D01*
X176842Y-136757D01*
X176920Y-136674D01*
X177009Y-136602D01*
X177098Y-136546D01*
X177181Y-136502D01*
X177253Y-136469D01*
X177314Y-136452D01*
X177336Y-136441D01*
X177353D01*
X177364Y-136435D01*
X177370D01*
X177270Y-136374D01*
X177187Y-136313D01*
X177114Y-136247D01*
X177048Y-136180D01*
X176992Y-136114D01*
X176948Y-136047D01*
X176915Y-135980D01*
X176881Y-135919D01*
X176859Y-135858D01*
X176842Y-135803D01*
X176831Y-135753D01*
X176826Y-135708D01*
X176820Y-135675D01*
X176815Y-135647D01*
Y-135631D01*
Y-135625D01*
X176820Y-135558D01*
X176826Y-135497D01*
X176859Y-135375D01*
X176898Y-135264D01*
X176948Y-135170D01*
X176998Y-135092D01*
X177042Y-135037D01*
X177059Y-135015D01*
X177076Y-134998D01*
X177081Y-134992D01*
X177087Y-134987D01*
X177148Y-134926D01*
X177220Y-134870D01*
X177287Y-134826D01*
X177359Y-134787D01*
X177436Y-134748D01*
X177508Y-134721D01*
X177647Y-134682D01*
X177708Y-134665D01*
X177769Y-134654D01*
X177819Y-134648D01*
X177869Y-134643D01*
X177908Y-134637D01*
X177958D01*
X178075Y-134643D01*
D02*
G37*
G36*
X180983D02*
X181072Y-134648D01*
X181244Y-134676D01*
X181388Y-134721D01*
X181455Y-134743D01*
X181516Y-134770D01*
X181571Y-134793D01*
X181615Y-134820D01*
X181660Y-134843D01*
X181693Y-134859D01*
X181721Y-134881D01*
X181738Y-134892D01*
X181749Y-134898D01*
X181754Y-134904D01*
X181815Y-134959D01*
X181871Y-135015D01*
X181921Y-135081D01*
X181965Y-135153D01*
X182032Y-135298D01*
X182087Y-135436D01*
X182104Y-135509D01*
X182121Y-135570D01*
X182137Y-135625D01*
X182143Y-135675D01*
X182154Y-135720D01*
Y-135747D01*
X182159Y-135769D01*
Y-135775D01*
X181427Y-135847D01*
X181416Y-135736D01*
X181394Y-135642D01*
X181371Y-135558D01*
X181344Y-135497D01*
X181321Y-135448D01*
X181299Y-135414D01*
X181282Y-135392D01*
X181277Y-135386D01*
X181221Y-135342D01*
X181160Y-135309D01*
X181099Y-135281D01*
X181038Y-135264D01*
X180988Y-135253D01*
X180944Y-135248D01*
X180905D01*
X180822Y-135253D01*
X180750Y-135270D01*
X180689Y-135292D01*
X180633Y-135314D01*
X180594Y-135336D01*
X180561Y-135359D01*
X180544Y-135375D01*
X180539Y-135381D01*
X180494Y-135436D01*
X180461Y-135497D01*
X180439Y-135558D01*
X180422Y-135620D01*
X180411Y-135675D01*
X180406Y-135725D01*
Y-135753D01*
Y-135758D01*
Y-135764D01*
X180411Y-135847D01*
X180428Y-135925D01*
X180456Y-136003D01*
X180483Y-136069D01*
X180511Y-136130D01*
X180539Y-136174D01*
X180555Y-136202D01*
X180561Y-136213D01*
X180583Y-136247D01*
X180616Y-136285D01*
X180661Y-136336D01*
X180705Y-136380D01*
X180805Y-136485D01*
X180905Y-136591D01*
X181005Y-136691D01*
X181049Y-136735D01*
X181094Y-136768D01*
X181127Y-136802D01*
X181149Y-136824D01*
X181166Y-136841D01*
X181172Y-136846D01*
X181282Y-136951D01*
X181382Y-137051D01*
X181477Y-137146D01*
X181560Y-137229D01*
X181638Y-137312D01*
X181704Y-137390D01*
X181765Y-137457D01*
X181815Y-137523D01*
X181860Y-137579D01*
X181899Y-137629D01*
X181932Y-137668D01*
X181954Y-137706D01*
X181976Y-137729D01*
X181987Y-137751D01*
X181999Y-137762D01*
Y-137767D01*
X182071Y-137895D01*
X182126Y-138028D01*
X182170Y-138150D01*
X182204Y-138261D01*
X182226Y-138361D01*
X182231Y-138400D01*
X182237Y-138433D01*
X182243Y-138461D01*
X182248Y-138483D01*
Y-138495D01*
Y-138500D01*
X179667D01*
Y-137817D01*
X181133D01*
X181088Y-137745D01*
X181038Y-137684D01*
X181016Y-137656D01*
X181000Y-137634D01*
X180988Y-137623D01*
X180983Y-137618D01*
X180961Y-137595D01*
X180938Y-137568D01*
X180872Y-137506D01*
X180800Y-137434D01*
X180728Y-137362D01*
X180655Y-137296D01*
X180594Y-137240D01*
X180572Y-137218D01*
X180555Y-137201D01*
X180544Y-137196D01*
X180539Y-137190D01*
X180417Y-137074D01*
X180317Y-136979D01*
X180234Y-136890D01*
X180167Y-136824D01*
X180117Y-136768D01*
X180084Y-136730D01*
X180061Y-136702D01*
X180056Y-136696D01*
X179984Y-136602D01*
X179923Y-136513D01*
X179873Y-136430D01*
X179834Y-136358D01*
X179801Y-136297D01*
X179778Y-136247D01*
X179767Y-136219D01*
X179762Y-136208D01*
X179728Y-136119D01*
X179706Y-136030D01*
X179690Y-135947D01*
X179678Y-135869D01*
X179673Y-135808D01*
X179667Y-135758D01*
Y-135725D01*
Y-135714D01*
X179673Y-135631D01*
X179684Y-135547D01*
X179695Y-135470D01*
X179717Y-135398D01*
X179773Y-135270D01*
X179828Y-135159D01*
X179862Y-135109D01*
X179890Y-135070D01*
X179917Y-135031D01*
X179945Y-135003D01*
X179967Y-134981D01*
X179978Y-134959D01*
X179989Y-134953D01*
X179995Y-134948D01*
X180056Y-134892D01*
X180128Y-134843D01*
X180195Y-134804D01*
X180272Y-134770D01*
X180417Y-134715D01*
X180561Y-134676D01*
X180628Y-134665D01*
X180689Y-134654D01*
X180744Y-134648D01*
X180794Y-134643D01*
X180833Y-134637D01*
X180888D01*
X180983Y-134643D01*
D02*
G37*
G36*
X184352Y-134593D02*
X184496Y-134609D01*
X184624Y-134637D01*
X184751Y-134670D01*
X184862Y-134709D01*
X184973Y-134754D01*
X185068Y-134804D01*
X185156Y-134854D01*
X185240Y-134904D01*
X185306Y-134953D01*
X185367Y-134998D01*
X185417Y-135037D01*
X185456Y-135070D01*
X185484Y-135098D01*
X185501Y-135115D01*
X185506Y-135120D01*
X185595Y-135225D01*
X185667Y-135336D01*
X185734Y-135453D01*
X185789Y-135575D01*
X185839Y-135703D01*
X185878Y-135825D01*
X185911Y-135947D01*
X185939Y-136064D01*
X185961Y-136180D01*
X185972Y-136280D01*
X185983Y-136374D01*
X185995Y-136452D01*
Y-136519D01*
X186000Y-136569D01*
Y-136602D01*
Y-136607D01*
Y-136613D01*
X185995Y-136779D01*
X185978Y-136935D01*
X185956Y-137085D01*
X185922Y-137218D01*
X185889Y-137346D01*
X185845Y-137468D01*
X185800Y-137573D01*
X185756Y-137668D01*
X185711Y-137756D01*
X185667Y-137834D01*
X185623Y-137895D01*
X185589Y-137951D01*
X185556Y-137989D01*
X185534Y-138023D01*
X185517Y-138039D01*
X185512Y-138045D01*
X185417Y-138139D01*
X185317Y-138217D01*
X185212Y-138289D01*
X185106Y-138345D01*
X185001Y-138395D01*
X184896Y-138439D01*
X184796Y-138472D01*
X184701Y-138500D01*
X184607Y-138522D01*
X184524Y-138539D01*
X184446Y-138550D01*
X184385Y-138556D01*
X184329Y-138561D01*
X184291Y-138567D01*
X184257D01*
X184141Y-138561D01*
X184035Y-138556D01*
X183930Y-138539D01*
X183835Y-138517D01*
X183747Y-138495D01*
X183663Y-138472D01*
X183586Y-138444D01*
X183514Y-138411D01*
X183452Y-138383D01*
X183397Y-138356D01*
X183347Y-138333D01*
X183308Y-138311D01*
X183275Y-138289D01*
X183253Y-138273D01*
X183242Y-138267D01*
X183236Y-138261D01*
X183164Y-138200D01*
X183097Y-138134D01*
X182975Y-137984D01*
X182875Y-137828D01*
X182798Y-137679D01*
X182764Y-137606D01*
X182737Y-137540D01*
X182714Y-137479D01*
X182692Y-137429D01*
X182676Y-137384D01*
X182665Y-137351D01*
X182659Y-137329D01*
Y-137323D01*
X183414Y-137090D01*
X183458Y-137240D01*
X183508Y-137368D01*
X183558Y-137473D01*
X183614Y-137562D01*
X183658Y-137629D01*
X183697Y-137673D01*
X183724Y-137701D01*
X183736Y-137712D01*
X183824Y-137778D01*
X183913Y-137823D01*
X184002Y-137856D01*
X184080Y-137884D01*
X184152Y-137895D01*
X184213Y-137901D01*
X184235Y-137906D01*
X184263D01*
X184341Y-137901D01*
X184413Y-137895D01*
X184546Y-137856D01*
X184662Y-137812D01*
X184757Y-137751D01*
X184835Y-137695D01*
X184890Y-137651D01*
X184912Y-137629D01*
X184929Y-137612D01*
X184934Y-137606D01*
X184940Y-137601D01*
X184984Y-137540D01*
X185023Y-137468D01*
X185062Y-137390D01*
X185090Y-137307D01*
X185134Y-137135D01*
X185168Y-136963D01*
X185179Y-136879D01*
X185184Y-136807D01*
X185195Y-136735D01*
Y-136674D01*
X185201Y-136630D01*
Y-136591D01*
Y-136563D01*
Y-136557D01*
X185195Y-136430D01*
X185190Y-136313D01*
X185179Y-136208D01*
X185162Y-136108D01*
X185140Y-136019D01*
X185118Y-135936D01*
X185095Y-135864D01*
X185068Y-135797D01*
X185045Y-135742D01*
X185023Y-135692D01*
X185001Y-135653D01*
X184979Y-135620D01*
X184962Y-135592D01*
X184951Y-135575D01*
X184940Y-135564D01*
Y-135558D01*
X184890Y-135503D01*
X184835Y-135453D01*
X184779Y-135414D01*
X184718Y-135381D01*
X184601Y-135325D01*
X184490Y-135287D01*
X184396Y-135264D01*
X184352Y-135259D01*
X184318Y-135253D01*
X184285Y-135248D01*
X184246D01*
X184135Y-135253D01*
X184035Y-135275D01*
X183947Y-135303D01*
X183869Y-135336D01*
X183808Y-135370D01*
X183763Y-135398D01*
X183736Y-135420D01*
X183724Y-135425D01*
X183652Y-135492D01*
X183586Y-135570D01*
X183536Y-135647D01*
X183497Y-135725D01*
X183469Y-135792D01*
X183452Y-135842D01*
X183441Y-135864D01*
Y-135880D01*
X183436Y-135886D01*
Y-135891D01*
X182670Y-135708D01*
X182726Y-135547D01*
X182787Y-135409D01*
X182853Y-135287D01*
X182914Y-135187D01*
X182975Y-135109D01*
X182998Y-135076D01*
X183020Y-135048D01*
X183036Y-135031D01*
X183053Y-135015D01*
X183059Y-135003D01*
X183064D01*
X183147Y-134931D01*
X183242Y-134865D01*
X183330Y-134809D01*
X183425Y-134765D01*
X183525Y-134721D01*
X183619Y-134687D01*
X183713Y-134659D01*
X183802Y-134637D01*
X183885Y-134621D01*
X183963Y-134609D01*
X184030Y-134598D01*
X184091Y-134593D01*
X184141Y-134587D01*
X184207D01*
X184352Y-134593D01*
D02*
G37*
G36*
X180983Y-152143D02*
X181072Y-152148D01*
X181244Y-152176D01*
X181388Y-152220D01*
X181455Y-152243D01*
X181516Y-152270D01*
X181571Y-152293D01*
X181615Y-152320D01*
X181660Y-152343D01*
X181693Y-152359D01*
X181721Y-152381D01*
X181738Y-152392D01*
X181749Y-152398D01*
X181754Y-152404D01*
X181815Y-152459D01*
X181871Y-152515D01*
X181921Y-152581D01*
X181965Y-152653D01*
X182032Y-152798D01*
X182087Y-152936D01*
X182104Y-153008D01*
X182121Y-153070D01*
X182137Y-153125D01*
X182143Y-153175D01*
X182154Y-153219D01*
Y-153247D01*
X182159Y-153269D01*
Y-153275D01*
X181427Y-153347D01*
X181416Y-153236D01*
X181394Y-153142D01*
X181371Y-153059D01*
X181344Y-152998D01*
X181321Y-152947D01*
X181299Y-152914D01*
X181282Y-152892D01*
X181277Y-152886D01*
X181221Y-152842D01*
X181160Y-152809D01*
X181099Y-152781D01*
X181038Y-152764D01*
X180988Y-152753D01*
X180944Y-152748D01*
X180905D01*
X180822Y-152753D01*
X180750Y-152770D01*
X180689Y-152792D01*
X180633Y-152814D01*
X180594Y-152837D01*
X180561Y-152859D01*
X180544Y-152875D01*
X180539Y-152881D01*
X180494Y-152936D01*
X180461Y-152998D01*
X180439Y-153059D01*
X180422Y-153120D01*
X180411Y-153175D01*
X180406Y-153225D01*
Y-153253D01*
Y-153258D01*
Y-153264D01*
X180411Y-153347D01*
X180428Y-153425D01*
X180456Y-153503D01*
X180483Y-153569D01*
X180511Y-153630D01*
X180539Y-153674D01*
X180555Y-153702D01*
X180561Y-153713D01*
X180583Y-153747D01*
X180616Y-153786D01*
X180661Y-153835D01*
X180705Y-153880D01*
X180805Y-153985D01*
X180905Y-154091D01*
X181005Y-154191D01*
X181049Y-154235D01*
X181094Y-154268D01*
X181127Y-154302D01*
X181149Y-154324D01*
X181166Y-154341D01*
X181172Y-154346D01*
X181282Y-154452D01*
X181382Y-154551D01*
X181477Y-154646D01*
X181560Y-154729D01*
X181638Y-154812D01*
X181704Y-154890D01*
X181765Y-154957D01*
X181815Y-155023D01*
X181860Y-155079D01*
X181899Y-155129D01*
X181932Y-155167D01*
X181954Y-155206D01*
X181976Y-155228D01*
X181987Y-155251D01*
X181999Y-155262D01*
Y-155267D01*
X182071Y-155395D01*
X182126Y-155528D01*
X182170Y-155650D01*
X182204Y-155761D01*
X182226Y-155861D01*
X182231Y-155900D01*
X182237Y-155933D01*
X182243Y-155961D01*
X182248Y-155983D01*
Y-155994D01*
Y-156000D01*
X179667D01*
Y-155317D01*
X181133D01*
X181088Y-155245D01*
X181038Y-155184D01*
X181016Y-155156D01*
X181000Y-155134D01*
X180988Y-155123D01*
X180983Y-155118D01*
X180961Y-155095D01*
X180938Y-155068D01*
X180872Y-155007D01*
X180800Y-154934D01*
X180728Y-154862D01*
X180655Y-154796D01*
X180594Y-154740D01*
X180572Y-154718D01*
X180555Y-154701D01*
X180544Y-154696D01*
X180539Y-154690D01*
X180417Y-154574D01*
X180317Y-154479D01*
X180234Y-154391D01*
X180167Y-154324D01*
X180117Y-154268D01*
X180084Y-154229D01*
X180061Y-154202D01*
X180056Y-154196D01*
X179984Y-154102D01*
X179923Y-154013D01*
X179873Y-153930D01*
X179834Y-153858D01*
X179801Y-153797D01*
X179778Y-153747D01*
X179767Y-153719D01*
X179762Y-153708D01*
X179728Y-153619D01*
X179706Y-153530D01*
X179690Y-153447D01*
X179678Y-153369D01*
X179673Y-153308D01*
X179667Y-153258D01*
Y-153225D01*
Y-153214D01*
X179673Y-153131D01*
X179684Y-153047D01*
X179695Y-152970D01*
X179717Y-152898D01*
X179773Y-152770D01*
X179828Y-152659D01*
X179862Y-152609D01*
X179890Y-152570D01*
X179917Y-152531D01*
X179945Y-152504D01*
X179967Y-152481D01*
X179978Y-152459D01*
X179989Y-152453D01*
X179995Y-152448D01*
X180056Y-152392D01*
X180128Y-152343D01*
X180195Y-152304D01*
X180272Y-152270D01*
X180417Y-152215D01*
X180561Y-152176D01*
X180628Y-152165D01*
X180689Y-152154D01*
X180744Y-152148D01*
X180794Y-152143D01*
X180833Y-152137D01*
X180888D01*
X180983Y-152143D01*
D02*
G37*
G36*
X177997D02*
X178086Y-152148D01*
X178258Y-152176D01*
X178402Y-152220D01*
X178469Y-152243D01*
X178530Y-152270D01*
X178585Y-152293D01*
X178630Y-152320D01*
X178674Y-152343D01*
X178707Y-152359D01*
X178735Y-152381D01*
X178752Y-152392D01*
X178763Y-152398D01*
X178768Y-152404D01*
X178829Y-152459D01*
X178885Y-152515D01*
X178935Y-152581D01*
X178979Y-152653D01*
X179046Y-152798D01*
X179101Y-152936D01*
X179118Y-153008D01*
X179135Y-153070D01*
X179151Y-153125D01*
X179157Y-153175D01*
X179168Y-153219D01*
Y-153247D01*
X179174Y-153269D01*
Y-153275D01*
X178441Y-153347D01*
X178430Y-153236D01*
X178408Y-153142D01*
X178385Y-153059D01*
X178358Y-152998D01*
X178335Y-152947D01*
X178313Y-152914D01*
X178297Y-152892D01*
X178291Y-152886D01*
X178235Y-152842D01*
X178174Y-152809D01*
X178113Y-152781D01*
X178052Y-152764D01*
X178002Y-152753D01*
X177958Y-152748D01*
X177919D01*
X177836Y-152753D01*
X177764Y-152770D01*
X177703Y-152792D01*
X177647Y-152814D01*
X177608Y-152837D01*
X177575Y-152859D01*
X177558Y-152875D01*
X177553Y-152881D01*
X177508Y-152936D01*
X177475Y-152998D01*
X177453Y-153059D01*
X177436Y-153120D01*
X177425Y-153175D01*
X177420Y-153225D01*
Y-153253D01*
Y-153258D01*
Y-153264D01*
X177425Y-153347D01*
X177442Y-153425D01*
X177470Y-153503D01*
X177497Y-153569D01*
X177525Y-153630D01*
X177553Y-153674D01*
X177570Y-153702D01*
X177575Y-153713D01*
X177597Y-153747D01*
X177631Y-153786D01*
X177675Y-153835D01*
X177719Y-153880D01*
X177819Y-153985D01*
X177919Y-154091D01*
X178019Y-154191D01*
X178063Y-154235D01*
X178108Y-154268D01*
X178141Y-154302D01*
X178163Y-154324D01*
X178180Y-154341D01*
X178186Y-154346D01*
X178297Y-154452D01*
X178396Y-154551D01*
X178491Y-154646D01*
X178574Y-154729D01*
X178652Y-154812D01*
X178718Y-154890D01*
X178779Y-154957D01*
X178829Y-155023D01*
X178874Y-155079D01*
X178913Y-155129D01*
X178946Y-155167D01*
X178968Y-155206D01*
X178990Y-155228D01*
X179001Y-155251D01*
X179013Y-155262D01*
Y-155267D01*
X179085Y-155395D01*
X179140Y-155528D01*
X179185Y-155650D01*
X179218Y-155761D01*
X179240Y-155861D01*
X179246Y-155900D01*
X179251Y-155933D01*
X179257Y-155961D01*
X179262Y-155983D01*
Y-155994D01*
Y-156000D01*
X176681D01*
Y-155317D01*
X178147D01*
X178102Y-155245D01*
X178052Y-155184D01*
X178030Y-155156D01*
X178014Y-155134D01*
X178002Y-155123D01*
X177997Y-155118D01*
X177975Y-155095D01*
X177953Y-155068D01*
X177886Y-155007D01*
X177814Y-154934D01*
X177742Y-154862D01*
X177670Y-154796D01*
X177608Y-154740D01*
X177586Y-154718D01*
X177570Y-154701D01*
X177558Y-154696D01*
X177553Y-154690D01*
X177431Y-154574D01*
X177331Y-154479D01*
X177248Y-154391D01*
X177181Y-154324D01*
X177131Y-154268D01*
X177098Y-154229D01*
X177076Y-154202D01*
X177070Y-154196D01*
X176998Y-154102D01*
X176937Y-154013D01*
X176887Y-153930D01*
X176848Y-153858D01*
X176815Y-153797D01*
X176793Y-153747D01*
X176781Y-153719D01*
X176776Y-153708D01*
X176743Y-153619D01*
X176720Y-153530D01*
X176704Y-153447D01*
X176693Y-153369D01*
X176687Y-153308D01*
X176681Y-153258D01*
Y-153225D01*
Y-153214D01*
X176687Y-153131D01*
X176698Y-153047D01*
X176709Y-152970D01*
X176732Y-152898D01*
X176787Y-152770D01*
X176842Y-152659D01*
X176876Y-152609D01*
X176903Y-152570D01*
X176931Y-152531D01*
X176959Y-152504D01*
X176981Y-152481D01*
X176992Y-152459D01*
X177003Y-152453D01*
X177009Y-152448D01*
X177070Y-152392D01*
X177142Y-152343D01*
X177209Y-152304D01*
X177287Y-152270D01*
X177431Y-152215D01*
X177575Y-152176D01*
X177642Y-152165D01*
X177703Y-152154D01*
X177758Y-152148D01*
X177808Y-152143D01*
X177847Y-152137D01*
X177902D01*
X177997Y-152143D01*
D02*
G37*
G36*
X184352Y-152093D02*
X184496Y-152109D01*
X184624Y-152137D01*
X184751Y-152171D01*
X184862Y-152209D01*
X184973Y-152254D01*
X185068Y-152304D01*
X185156Y-152354D01*
X185240Y-152404D01*
X185306Y-152453D01*
X185367Y-152498D01*
X185417Y-152537D01*
X185456Y-152570D01*
X185484Y-152598D01*
X185501Y-152614D01*
X185506Y-152620D01*
X185595Y-152726D01*
X185667Y-152837D01*
X185734Y-152953D01*
X185789Y-153075D01*
X185839Y-153203D01*
X185878Y-153325D01*
X185911Y-153447D01*
X185939Y-153564D01*
X185961Y-153680D01*
X185972Y-153780D01*
X185983Y-153874D01*
X185995Y-153952D01*
Y-154019D01*
X186000Y-154069D01*
Y-154102D01*
Y-154107D01*
Y-154113D01*
X185995Y-154279D01*
X185978Y-154435D01*
X185956Y-154585D01*
X185922Y-154718D01*
X185889Y-154846D01*
X185845Y-154968D01*
X185800Y-155073D01*
X185756Y-155167D01*
X185711Y-155256D01*
X185667Y-155334D01*
X185623Y-155395D01*
X185589Y-155450D01*
X185556Y-155489D01*
X185534Y-155523D01*
X185517Y-155539D01*
X185512Y-155545D01*
X185417Y-155639D01*
X185317Y-155717D01*
X185212Y-155789D01*
X185106Y-155845D01*
X185001Y-155895D01*
X184896Y-155939D01*
X184796Y-155972D01*
X184701Y-156000D01*
X184607Y-156022D01*
X184524Y-156039D01*
X184446Y-156050D01*
X184385Y-156055D01*
X184329Y-156061D01*
X184291Y-156067D01*
X184257D01*
X184141Y-156061D01*
X184035Y-156055D01*
X183930Y-156039D01*
X183835Y-156017D01*
X183747Y-155994D01*
X183663Y-155972D01*
X183586Y-155945D01*
X183514Y-155911D01*
X183452Y-155883D01*
X183397Y-155856D01*
X183347Y-155833D01*
X183308Y-155811D01*
X183275Y-155789D01*
X183253Y-155772D01*
X183242Y-155767D01*
X183236Y-155761D01*
X183164Y-155700D01*
X183097Y-155634D01*
X182975Y-155484D01*
X182875Y-155328D01*
X182798Y-155179D01*
X182764Y-155106D01*
X182737Y-155040D01*
X182714Y-154979D01*
X182692Y-154929D01*
X182676Y-154884D01*
X182665Y-154851D01*
X182659Y-154829D01*
Y-154823D01*
X183414Y-154590D01*
X183458Y-154740D01*
X183508Y-154868D01*
X183558Y-154973D01*
X183614Y-155062D01*
X183658Y-155129D01*
X183697Y-155173D01*
X183724Y-155201D01*
X183736Y-155212D01*
X183824Y-155279D01*
X183913Y-155323D01*
X184002Y-155356D01*
X184080Y-155384D01*
X184152Y-155395D01*
X184213Y-155401D01*
X184235Y-155406D01*
X184263D01*
X184341Y-155401D01*
X184413Y-155395D01*
X184546Y-155356D01*
X184662Y-155312D01*
X184757Y-155251D01*
X184835Y-155195D01*
X184890Y-155151D01*
X184912Y-155129D01*
X184929Y-155112D01*
X184934Y-155106D01*
X184940Y-155101D01*
X184984Y-155040D01*
X185023Y-154968D01*
X185062Y-154890D01*
X185090Y-154807D01*
X185134Y-154635D01*
X185168Y-154463D01*
X185179Y-154379D01*
X185184Y-154307D01*
X185195Y-154235D01*
Y-154174D01*
X185201Y-154130D01*
Y-154091D01*
Y-154063D01*
Y-154058D01*
X185195Y-153930D01*
X185190Y-153813D01*
X185179Y-153708D01*
X185162Y-153608D01*
X185140Y-153519D01*
X185118Y-153436D01*
X185095Y-153364D01*
X185068Y-153297D01*
X185045Y-153242D01*
X185023Y-153192D01*
X185001Y-153153D01*
X184979Y-153120D01*
X184962Y-153092D01*
X184951Y-153075D01*
X184940Y-153064D01*
Y-153059D01*
X184890Y-153003D01*
X184835Y-152953D01*
X184779Y-152914D01*
X184718Y-152881D01*
X184601Y-152825D01*
X184490Y-152787D01*
X184396Y-152764D01*
X184352Y-152759D01*
X184318Y-152753D01*
X184285Y-152748D01*
X184246D01*
X184135Y-152753D01*
X184035Y-152776D01*
X183947Y-152803D01*
X183869Y-152837D01*
X183808Y-152870D01*
X183763Y-152898D01*
X183736Y-152920D01*
X183724Y-152925D01*
X183652Y-152992D01*
X183586Y-153070D01*
X183536Y-153147D01*
X183497Y-153225D01*
X183469Y-153292D01*
X183452Y-153342D01*
X183441Y-153364D01*
Y-153380D01*
X183436Y-153386D01*
Y-153392D01*
X182670Y-153208D01*
X182726Y-153047D01*
X182787Y-152909D01*
X182853Y-152787D01*
X182914Y-152687D01*
X182975Y-152609D01*
X182998Y-152576D01*
X183020Y-152548D01*
X183036Y-152531D01*
X183053Y-152515D01*
X183059Y-152504D01*
X183064D01*
X183147Y-152431D01*
X183242Y-152365D01*
X183330Y-152309D01*
X183425Y-152265D01*
X183525Y-152220D01*
X183619Y-152187D01*
X183713Y-152159D01*
X183802Y-152137D01*
X183885Y-152121D01*
X183963Y-152109D01*
X184030Y-152098D01*
X184091Y-152093D01*
X184141Y-152087D01*
X184207D01*
X184352Y-152093D01*
D02*
G37*
G36*
X114427Y-135265D02*
X114499Y-135381D01*
X114577Y-135492D01*
X114655Y-135581D01*
X114722Y-135653D01*
X114783Y-135709D01*
X114805Y-135731D01*
X114821Y-135748D01*
X114832Y-135753D01*
X114838Y-135759D01*
X114960Y-135848D01*
X115077Y-135925D01*
X115182Y-135986D01*
X115276Y-136031D01*
X115354Y-136064D01*
X115410Y-136092D01*
X115432Y-136097D01*
X115448Y-136103D01*
X115454Y-136108D01*
X115460D01*
Y-136775D01*
X115260Y-136697D01*
X115082Y-136614D01*
X114999Y-136569D01*
X114921Y-136519D01*
X114849Y-136475D01*
X114783Y-136430D01*
X114722Y-136386D01*
X114666Y-136347D01*
X114622Y-136314D01*
X114583Y-136281D01*
X114549Y-136253D01*
X114527Y-136236D01*
X114516Y-136225D01*
X114511Y-136220D01*
Y-139000D01*
X113772D01*
Y-135137D01*
X114372D01*
X114427Y-135265D01*
D02*
G37*
G36*
X117852Y-135093D02*
X117996Y-135109D01*
X118124Y-135137D01*
X118251Y-135170D01*
X118362Y-135209D01*
X118473Y-135254D01*
X118568Y-135304D01*
X118656Y-135354D01*
X118740Y-135404D01*
X118806Y-135453D01*
X118867Y-135498D01*
X118917Y-135537D01*
X118956Y-135570D01*
X118984Y-135598D01*
X119000Y-135615D01*
X119006Y-135620D01*
X119095Y-135725D01*
X119167Y-135837D01*
X119234Y-135953D01*
X119289Y-136075D01*
X119339Y-136203D01*
X119378Y-136325D01*
X119411Y-136447D01*
X119439Y-136564D01*
X119461Y-136680D01*
X119472Y-136780D01*
X119483Y-136874D01*
X119494Y-136952D01*
Y-137019D01*
X119500Y-137069D01*
Y-137102D01*
Y-137107D01*
Y-137113D01*
X119494Y-137279D01*
X119478Y-137435D01*
X119456Y-137585D01*
X119422Y-137718D01*
X119389Y-137846D01*
X119345Y-137968D01*
X119300Y-138073D01*
X119256Y-138168D01*
X119211Y-138256D01*
X119167Y-138334D01*
X119123Y-138395D01*
X119089Y-138451D01*
X119056Y-138489D01*
X119034Y-138523D01*
X119017Y-138539D01*
X119012Y-138545D01*
X118917Y-138639D01*
X118817Y-138717D01*
X118712Y-138789D01*
X118606Y-138845D01*
X118501Y-138895D01*
X118396Y-138939D01*
X118296Y-138972D01*
X118201Y-139000D01*
X118107Y-139022D01*
X118024Y-139039D01*
X117946Y-139050D01*
X117885Y-139056D01*
X117829Y-139061D01*
X117791Y-139067D01*
X117757D01*
X117641Y-139061D01*
X117535Y-139056D01*
X117430Y-139039D01*
X117335Y-139017D01*
X117247Y-138995D01*
X117163Y-138972D01*
X117086Y-138944D01*
X117014Y-138911D01*
X116953Y-138883D01*
X116897Y-138856D01*
X116847Y-138833D01*
X116808Y-138811D01*
X116775Y-138789D01*
X116753Y-138772D01*
X116742Y-138767D01*
X116736Y-138761D01*
X116664Y-138700D01*
X116597Y-138634D01*
X116475Y-138484D01*
X116375Y-138328D01*
X116298Y-138179D01*
X116264Y-138106D01*
X116237Y-138040D01*
X116214Y-137979D01*
X116192Y-137929D01*
X116175Y-137884D01*
X116165Y-137851D01*
X116159Y-137829D01*
Y-137823D01*
X116914Y-137590D01*
X116958Y-137740D01*
X117008Y-137868D01*
X117058Y-137973D01*
X117113Y-138062D01*
X117158Y-138129D01*
X117197Y-138173D01*
X117225Y-138201D01*
X117236Y-138212D01*
X117324Y-138278D01*
X117413Y-138323D01*
X117502Y-138356D01*
X117580Y-138384D01*
X117652Y-138395D01*
X117713Y-138401D01*
X117735Y-138406D01*
X117763D01*
X117841Y-138401D01*
X117913Y-138395D01*
X118046Y-138356D01*
X118162Y-138312D01*
X118257Y-138251D01*
X118334Y-138195D01*
X118390Y-138151D01*
X118412Y-138129D01*
X118429Y-138112D01*
X118434Y-138106D01*
X118440Y-138101D01*
X118484Y-138040D01*
X118523Y-137968D01*
X118562Y-137890D01*
X118590Y-137807D01*
X118634Y-137635D01*
X118667Y-137463D01*
X118679Y-137379D01*
X118684Y-137307D01*
X118695Y-137235D01*
Y-137174D01*
X118701Y-137130D01*
Y-137091D01*
Y-137063D01*
Y-137057D01*
X118695Y-136930D01*
X118690Y-136813D01*
X118679Y-136708D01*
X118662Y-136608D01*
X118640Y-136519D01*
X118618Y-136436D01*
X118595Y-136364D01*
X118568Y-136297D01*
X118545Y-136242D01*
X118523Y-136192D01*
X118501Y-136153D01*
X118479Y-136120D01*
X118462Y-136092D01*
X118451Y-136075D01*
X118440Y-136064D01*
Y-136058D01*
X118390Y-136003D01*
X118334Y-135953D01*
X118279Y-135914D01*
X118218Y-135881D01*
X118101Y-135825D01*
X117990Y-135787D01*
X117896Y-135764D01*
X117852Y-135759D01*
X117818Y-135753D01*
X117785Y-135748D01*
X117746D01*
X117635Y-135753D01*
X117535Y-135775D01*
X117446Y-135803D01*
X117369Y-135837D01*
X117308Y-135870D01*
X117263Y-135898D01*
X117236Y-135920D01*
X117225Y-135925D01*
X117152Y-135992D01*
X117086Y-136070D01*
X117036Y-136147D01*
X116997Y-136225D01*
X116969Y-136292D01*
X116953Y-136342D01*
X116941Y-136364D01*
Y-136380D01*
X116936Y-136386D01*
Y-136391D01*
X116170Y-136208D01*
X116226Y-136047D01*
X116287Y-135909D01*
X116353Y-135787D01*
X116414Y-135687D01*
X116475Y-135609D01*
X116498Y-135576D01*
X116520Y-135548D01*
X116536Y-135531D01*
X116553Y-135515D01*
X116559Y-135503D01*
X116564D01*
X116647Y-135431D01*
X116742Y-135365D01*
X116830Y-135309D01*
X116925Y-135265D01*
X117025Y-135221D01*
X117119Y-135187D01*
X117213Y-135159D01*
X117302Y-135137D01*
X117385Y-135121D01*
X117463Y-135109D01*
X117530Y-135098D01*
X117591Y-135093D01*
X117641Y-135087D01*
X117707D01*
X117852Y-135093D01*
D02*
G37*
G36*
X112668Y-135892D02*
X110997D01*
X111180Y-136142D01*
X111342Y-136403D01*
X111419Y-136525D01*
X111486Y-136652D01*
X111547Y-136769D01*
X111602Y-136880D01*
X111652Y-136985D01*
X111697Y-137080D01*
X111735Y-137169D01*
X111769Y-137241D01*
X111791Y-137296D01*
X111808Y-137341D01*
X111819Y-137368D01*
X111824Y-137379D01*
X111880Y-137535D01*
X111930Y-137685D01*
X111969Y-137835D01*
X112007Y-137979D01*
X112035Y-138123D01*
X112063Y-138256D01*
X112085Y-138384D01*
X112102Y-138500D01*
X112118Y-138606D01*
X112130Y-138706D01*
X112141Y-138789D01*
X112146Y-138861D01*
Y-138922D01*
X112152Y-138967D01*
Y-138989D01*
Y-139000D01*
X111441D01*
X111436Y-138806D01*
X111419Y-138606D01*
X111391Y-138412D01*
X111380Y-138323D01*
X111364Y-138234D01*
X111347Y-138156D01*
X111330Y-138079D01*
X111319Y-138018D01*
X111308Y-137962D01*
X111297Y-137912D01*
X111286Y-137879D01*
X111280Y-137857D01*
Y-137851D01*
X111208Y-137612D01*
X111131Y-137385D01*
X111092Y-137279D01*
X111047Y-137180D01*
X111009Y-137085D01*
X110970Y-136996D01*
X110931Y-136919D01*
X110898Y-136847D01*
X110864Y-136780D01*
X110842Y-136730D01*
X110820Y-136686D01*
X110803Y-136658D01*
X110792Y-136636D01*
X110786Y-136630D01*
X110725Y-136525D01*
X110664Y-136425D01*
X110609Y-136336D01*
X110553Y-136247D01*
X110498Y-136170D01*
X110442Y-136097D01*
X110392Y-136031D01*
X110348Y-135970D01*
X110304Y-135914D01*
X110265Y-135870D01*
X110231Y-135831D01*
X110204Y-135798D01*
X110181Y-135775D01*
X110165Y-135759D01*
X110154Y-135748D01*
X110148Y-135742D01*
Y-135209D01*
X112668D01*
Y-135892D01*
D02*
G37*
G36*
X114427Y-152265D02*
X114499Y-152381D01*
X114577Y-152492D01*
X114655Y-152581D01*
X114722Y-152653D01*
X114783Y-152709D01*
X114805Y-152731D01*
X114821Y-152748D01*
X114832Y-152753D01*
X114838Y-152759D01*
X114960Y-152848D01*
X115077Y-152925D01*
X115182Y-152986D01*
X115276Y-153031D01*
X115354Y-153064D01*
X115410Y-153092D01*
X115432Y-153097D01*
X115448Y-153103D01*
X115454Y-153108D01*
X115460D01*
Y-153774D01*
X115260Y-153697D01*
X115082Y-153613D01*
X114999Y-153569D01*
X114921Y-153519D01*
X114849Y-153475D01*
X114783Y-153430D01*
X114722Y-153386D01*
X114666Y-153347D01*
X114622Y-153314D01*
X114583Y-153280D01*
X114549Y-153253D01*
X114527Y-153236D01*
X114516Y-153225D01*
X114511Y-153219D01*
Y-156000D01*
X113772D01*
Y-152137D01*
X114372D01*
X114427Y-152265D01*
D02*
G37*
G36*
X111380Y-152143D02*
X111486Y-152159D01*
X111591Y-152182D01*
X111686Y-152209D01*
X111774Y-152248D01*
X111863Y-152287D01*
X111935Y-152331D01*
X112007Y-152370D01*
X112069Y-152415D01*
X112124Y-152459D01*
X112169Y-152498D01*
X112207Y-152537D01*
X112241Y-152565D01*
X112263Y-152587D01*
X112274Y-152603D01*
X112279Y-152609D01*
X112346Y-152703D01*
X112407Y-152809D01*
X112457Y-152925D01*
X112501Y-153042D01*
X112540Y-153170D01*
X112574Y-153297D01*
X112601Y-153425D01*
X112618Y-153547D01*
X112635Y-153663D01*
X112646Y-153774D01*
X112657Y-153874D01*
X112662Y-153963D01*
X112668Y-154035D01*
Y-154091D01*
Y-154107D01*
Y-154124D01*
Y-154130D01*
Y-154135D01*
X112662Y-154324D01*
X112651Y-154496D01*
X112635Y-154657D01*
X112607Y-154801D01*
X112579Y-154940D01*
X112551Y-155062D01*
X112518Y-155167D01*
X112479Y-155267D01*
X112446Y-155351D01*
X112413Y-155423D01*
X112385Y-155484D01*
X112352Y-155534D01*
X112329Y-155573D01*
X112313Y-155600D01*
X112302Y-155617D01*
X112296Y-155623D01*
X112224Y-155700D01*
X112146Y-155772D01*
X112069Y-155833D01*
X111985Y-155883D01*
X111908Y-155928D01*
X111824Y-155961D01*
X111747Y-155994D01*
X111674Y-156017D01*
X111602Y-156033D01*
X111541Y-156050D01*
X111480Y-156055D01*
X111430Y-156067D01*
X111391D01*
X111364Y-156072D01*
X111336D01*
X111236Y-156067D01*
X111142Y-156055D01*
X111053Y-156039D01*
X110970Y-156017D01*
X110886Y-155989D01*
X110814Y-155961D01*
X110748Y-155928D01*
X110687Y-155895D01*
X110631Y-155861D01*
X110587Y-155828D01*
X110542Y-155800D01*
X110509Y-155772D01*
X110481Y-155750D01*
X110465Y-155734D01*
X110453Y-155722D01*
X110448Y-155717D01*
X110387Y-155650D01*
X110331Y-155573D01*
X110287Y-155495D01*
X110248Y-155417D01*
X110209Y-155340D01*
X110181Y-155262D01*
X110143Y-155106D01*
X110126Y-155040D01*
X110115Y-154973D01*
X110109Y-154918D01*
X110104Y-154868D01*
X110098Y-154823D01*
Y-154796D01*
Y-154773D01*
Y-154768D01*
X110104Y-154662D01*
X110115Y-154568D01*
X110132Y-154474D01*
X110148Y-154391D01*
X110176Y-154307D01*
X110204Y-154235D01*
X110231Y-154163D01*
X110265Y-154102D01*
X110298Y-154046D01*
X110326Y-153997D01*
X110354Y-153958D01*
X110381Y-153919D01*
X110398Y-153891D01*
X110415Y-153874D01*
X110426Y-153863D01*
X110431Y-153858D01*
X110492Y-153797D01*
X110559Y-153741D01*
X110626Y-153691D01*
X110692Y-153652D01*
X110759Y-153619D01*
X110825Y-153591D01*
X110948Y-153547D01*
X111003Y-153530D01*
X111058Y-153519D01*
X111103Y-153514D01*
X111142Y-153508D01*
X111175Y-153503D01*
X111219D01*
X111297Y-153508D01*
X111369Y-153519D01*
X111436Y-153530D01*
X111502Y-153552D01*
X111619Y-153608D01*
X111719Y-153663D01*
X111797Y-153725D01*
X111830Y-153752D01*
X111858Y-153780D01*
X111880Y-153802D01*
X111897Y-153813D01*
X111902Y-153824D01*
X111908Y-153830D01*
X111897Y-153713D01*
X111885Y-153602D01*
X111874Y-153503D01*
X111858Y-153414D01*
X111841Y-153336D01*
X111824Y-153264D01*
X111808Y-153203D01*
X111785Y-153147D01*
X111769Y-153097D01*
X111758Y-153059D01*
X111741Y-153025D01*
X111730Y-153003D01*
X111719Y-152981D01*
X111708Y-152970D01*
X111702Y-152959D01*
X111641Y-152886D01*
X111575Y-152837D01*
X111508Y-152798D01*
X111447Y-152776D01*
X111391Y-152759D01*
X111347Y-152753D01*
X111319Y-152748D01*
X111308D01*
X111247Y-152753D01*
X111186Y-152764D01*
X111136Y-152781D01*
X111097Y-152798D01*
X111064Y-152820D01*
X111042Y-152837D01*
X111025Y-152848D01*
X111020Y-152853D01*
X110981Y-152898D01*
X110953Y-152947D01*
X110925Y-153003D01*
X110909Y-153053D01*
X110898Y-153103D01*
X110886Y-153142D01*
X110881Y-153164D01*
Y-153175D01*
X110170Y-153097D01*
X110209Y-152931D01*
X110265Y-152792D01*
X110326Y-152670D01*
X110387Y-152565D01*
X110448Y-152487D01*
X110470Y-152459D01*
X110498Y-152431D01*
X110515Y-152415D01*
X110531Y-152398D01*
X110537Y-152387D01*
X110542D01*
X110598Y-152343D01*
X110653Y-152304D01*
X110775Y-152243D01*
X110898Y-152198D01*
X111009Y-152171D01*
X111108Y-152148D01*
X111153Y-152143D01*
X111192D01*
X111219Y-152137D01*
X111264D01*
X111380Y-152143D01*
D02*
G37*
G36*
X117852Y-152093D02*
X117996Y-152109D01*
X118124Y-152137D01*
X118251Y-152171D01*
X118362Y-152209D01*
X118473Y-152254D01*
X118568Y-152304D01*
X118656Y-152354D01*
X118740Y-152404D01*
X118806Y-152453D01*
X118867Y-152498D01*
X118917Y-152537D01*
X118956Y-152570D01*
X118984Y-152598D01*
X119000Y-152614D01*
X119006Y-152620D01*
X119095Y-152726D01*
X119167Y-152837D01*
X119234Y-152953D01*
X119289Y-153075D01*
X119339Y-153203D01*
X119378Y-153325D01*
X119411Y-153447D01*
X119439Y-153564D01*
X119461Y-153680D01*
X119472Y-153780D01*
X119483Y-153874D01*
X119494Y-153952D01*
Y-154019D01*
X119500Y-154069D01*
Y-154102D01*
Y-154107D01*
Y-154113D01*
X119494Y-154279D01*
X119478Y-154435D01*
X119456Y-154585D01*
X119422Y-154718D01*
X119389Y-154846D01*
X119345Y-154968D01*
X119300Y-155073D01*
X119256Y-155167D01*
X119211Y-155256D01*
X119167Y-155334D01*
X119123Y-155395D01*
X119089Y-155450D01*
X119056Y-155489D01*
X119034Y-155523D01*
X119017Y-155539D01*
X119012Y-155545D01*
X118917Y-155639D01*
X118817Y-155717D01*
X118712Y-155789D01*
X118606Y-155845D01*
X118501Y-155895D01*
X118396Y-155939D01*
X118296Y-155972D01*
X118201Y-156000D01*
X118107Y-156022D01*
X118024Y-156039D01*
X117946Y-156050D01*
X117885Y-156055D01*
X117829Y-156061D01*
X117791Y-156067D01*
X117757D01*
X117641Y-156061D01*
X117535Y-156055D01*
X117430Y-156039D01*
X117335Y-156017D01*
X117247Y-155994D01*
X117163Y-155972D01*
X117086Y-155945D01*
X117014Y-155911D01*
X116953Y-155883D01*
X116897Y-155856D01*
X116847Y-155833D01*
X116808Y-155811D01*
X116775Y-155789D01*
X116753Y-155772D01*
X116742Y-155767D01*
X116736Y-155761D01*
X116664Y-155700D01*
X116597Y-155634D01*
X116475Y-155484D01*
X116375Y-155328D01*
X116298Y-155179D01*
X116264Y-155106D01*
X116237Y-155040D01*
X116214Y-154979D01*
X116192Y-154929D01*
X116175Y-154884D01*
X116165Y-154851D01*
X116159Y-154829D01*
Y-154823D01*
X116914Y-154590D01*
X116958Y-154740D01*
X117008Y-154868D01*
X117058Y-154973D01*
X117113Y-155062D01*
X117158Y-155129D01*
X117197Y-155173D01*
X117225Y-155201D01*
X117236Y-155212D01*
X117324Y-155279D01*
X117413Y-155323D01*
X117502Y-155356D01*
X117580Y-155384D01*
X117652Y-155395D01*
X117713Y-155401D01*
X117735Y-155406D01*
X117763D01*
X117841Y-155401D01*
X117913Y-155395D01*
X118046Y-155356D01*
X118162Y-155312D01*
X118257Y-155251D01*
X118334Y-155195D01*
X118390Y-155151D01*
X118412Y-155129D01*
X118429Y-155112D01*
X118434Y-155106D01*
X118440Y-155101D01*
X118484Y-155040D01*
X118523Y-154968D01*
X118562Y-154890D01*
X118590Y-154807D01*
X118634Y-154635D01*
X118667Y-154463D01*
X118679Y-154379D01*
X118684Y-154307D01*
X118695Y-154235D01*
Y-154174D01*
X118701Y-154130D01*
Y-154091D01*
Y-154063D01*
Y-154058D01*
X118695Y-153930D01*
X118690Y-153813D01*
X118679Y-153708D01*
X118662Y-153608D01*
X118640Y-153519D01*
X118618Y-153436D01*
X118595Y-153364D01*
X118568Y-153297D01*
X118545Y-153242D01*
X118523Y-153192D01*
X118501Y-153153D01*
X118479Y-153120D01*
X118462Y-153092D01*
X118451Y-153075D01*
X118440Y-153064D01*
Y-153059D01*
X118390Y-153003D01*
X118334Y-152953D01*
X118279Y-152914D01*
X118218Y-152881D01*
X118101Y-152825D01*
X117990Y-152787D01*
X117896Y-152764D01*
X117852Y-152759D01*
X117818Y-152753D01*
X117785Y-152748D01*
X117746D01*
X117635Y-152753D01*
X117535Y-152776D01*
X117446Y-152803D01*
X117369Y-152837D01*
X117308Y-152870D01*
X117263Y-152898D01*
X117236Y-152920D01*
X117225Y-152925D01*
X117152Y-152992D01*
X117086Y-153070D01*
X117036Y-153147D01*
X116997Y-153225D01*
X116969Y-153292D01*
X116953Y-153342D01*
X116941Y-153364D01*
Y-153380D01*
X116936Y-153386D01*
Y-153392D01*
X116170Y-153208D01*
X116226Y-153047D01*
X116287Y-152909D01*
X116353Y-152787D01*
X116414Y-152687D01*
X116475Y-152609D01*
X116498Y-152576D01*
X116520Y-152548D01*
X116536Y-152531D01*
X116553Y-152515D01*
X116559Y-152504D01*
X116564D01*
X116647Y-152431D01*
X116742Y-152365D01*
X116830Y-152309D01*
X116925Y-152265D01*
X117025Y-152220D01*
X117119Y-152187D01*
X117213Y-152159D01*
X117302Y-152137D01*
X117385Y-152121D01*
X117463Y-152109D01*
X117530Y-152098D01*
X117591Y-152093D01*
X117641Y-152087D01*
X117707D01*
X117852Y-152093D01*
D02*
G37*
G36*
X-11932Y-153713D02*
X-12526Y-153796D01*
X-12576Y-153746D01*
X-12626Y-153702D01*
X-12676Y-153663D01*
X-12726Y-153630D01*
X-12820Y-153580D01*
X-12909Y-153546D01*
X-12986Y-153530D01*
X-13042Y-153519D01*
X-13064Y-153513D01*
X-13097D01*
X-13186Y-153519D01*
X-13270Y-153541D01*
X-13342Y-153569D01*
X-13403Y-153602D01*
X-13447Y-153641D01*
X-13486Y-153668D01*
X-13508Y-153691D01*
X-13514Y-153696D01*
X-13569Y-153768D01*
X-13608Y-153852D01*
X-13636Y-153940D01*
X-13652Y-154029D01*
X-13669Y-154107D01*
X-13675Y-154168D01*
Y-154196D01*
Y-154212D01*
Y-154224D01*
Y-154229D01*
X-13669Y-154362D01*
X-13652Y-154479D01*
X-13625Y-154573D01*
X-13597Y-154651D01*
X-13564Y-154718D01*
X-13542Y-154762D01*
X-13519Y-154784D01*
X-13514Y-154795D01*
X-13453Y-154856D01*
X-13386Y-154906D01*
X-13319Y-154939D01*
X-13258Y-154962D01*
X-13203Y-154973D01*
X-13159Y-154978D01*
X-13131Y-154984D01*
X-13120D01*
X-13047Y-154978D01*
X-12975Y-154962D01*
X-12914Y-154939D01*
X-12864Y-154912D01*
X-12820Y-154884D01*
X-12787Y-154862D01*
X-12764Y-154845D01*
X-12759Y-154840D01*
X-12709Y-154779D01*
X-12664Y-154718D01*
X-12631Y-154651D01*
X-12609Y-154590D01*
X-12592Y-154534D01*
X-12581Y-154484D01*
X-12576Y-154457D01*
Y-154446D01*
X-11843Y-154523D01*
X-11860Y-154612D01*
X-11876Y-154695D01*
X-11932Y-154845D01*
X-11993Y-154978D01*
X-12026Y-155034D01*
X-12065Y-155089D01*
X-12098Y-155134D01*
X-12126Y-155173D01*
X-12160Y-155206D01*
X-12182Y-155239D01*
X-12204Y-155261D01*
X-12221Y-155278D01*
X-12232Y-155283D01*
X-12237Y-155289D01*
X-12304Y-155339D01*
X-12370Y-155383D01*
X-12443Y-155422D01*
X-12515Y-155450D01*
X-12664Y-155506D01*
X-12798Y-155539D01*
X-12864Y-155550D01*
X-12920Y-155555D01*
X-12975Y-155561D01*
X-13020Y-155567D01*
X-13059Y-155572D01*
X-13108D01*
X-13231Y-155567D01*
X-13347Y-155550D01*
X-13453Y-155528D01*
X-13553Y-155494D01*
X-13647Y-155456D01*
X-13730Y-155411D01*
X-13808Y-155367D01*
X-13880Y-155317D01*
X-13941Y-155272D01*
X-13996Y-155228D01*
X-14047Y-155184D01*
X-14085Y-155145D01*
X-14113Y-155112D01*
X-14135Y-155089D01*
X-14146Y-155073D01*
X-14152Y-155067D01*
X-14202Y-154995D01*
X-14246Y-154923D01*
X-14280Y-154851D01*
X-14313Y-154773D01*
X-14363Y-154629D01*
X-14396Y-154496D01*
X-14407Y-154440D01*
X-14413Y-154384D01*
X-14424Y-154334D01*
Y-154290D01*
X-14429Y-154257D01*
Y-154235D01*
Y-154218D01*
Y-154212D01*
X-14424Y-154107D01*
X-14413Y-154007D01*
X-14396Y-153913D01*
X-14374Y-153824D01*
X-14352Y-153746D01*
X-14319Y-153668D01*
X-14291Y-153596D01*
X-14257Y-153535D01*
X-14224Y-153480D01*
X-14196Y-153430D01*
X-14163Y-153385D01*
X-14141Y-153352D01*
X-14119Y-153324D01*
X-14102Y-153302D01*
X-14091Y-153291D01*
X-14085Y-153286D01*
X-14019Y-153225D01*
X-13952Y-153169D01*
X-13880Y-153119D01*
X-13808Y-153075D01*
X-13741Y-153041D01*
X-13669Y-153014D01*
X-13542Y-152969D01*
X-13480Y-152953D01*
X-13425Y-152942D01*
X-13375Y-152936D01*
X-13336Y-152930D01*
X-13303Y-152925D01*
X-13253D01*
X-13159Y-152930D01*
X-13064Y-152947D01*
X-12981Y-152964D01*
X-12903Y-152986D01*
X-12842Y-153014D01*
X-12792Y-153030D01*
X-12759Y-153047D01*
X-12753Y-153052D01*
X-12748D01*
X-12864Y-152398D01*
X-14257D01*
Y-151709D01*
X-12309D01*
X-11932Y-153713D01*
D02*
G37*
G36*
X-10073Y-151765D02*
X-10001Y-151881D01*
X-9923Y-151992D01*
X-9845Y-152081D01*
X-9779Y-152153D01*
X-9718Y-152209D01*
X-9695Y-152231D01*
X-9679Y-152248D01*
X-9668Y-152253D01*
X-9662Y-152259D01*
X-9540Y-152348D01*
X-9423Y-152425D01*
X-9318Y-152486D01*
X-9224Y-152531D01*
X-9146Y-152564D01*
X-9090Y-152592D01*
X-9068Y-152597D01*
X-9052Y-152603D01*
X-9046Y-152608D01*
X-9040D01*
Y-153275D01*
X-9240Y-153197D01*
X-9418Y-153113D01*
X-9501Y-153069D01*
X-9579Y-153019D01*
X-9651Y-152975D01*
X-9718Y-152930D01*
X-9779Y-152886D01*
X-9834Y-152847D01*
X-9878Y-152814D01*
X-9917Y-152780D01*
X-9951Y-152753D01*
X-9973Y-152736D01*
X-9984Y-152725D01*
X-9989Y-152719D01*
Y-155500D01*
X-10728D01*
Y-151637D01*
X-10128D01*
X-10073Y-151765D01*
D02*
G37*
G36*
X-6648Y-151593D02*
X-6504Y-151609D01*
X-6376Y-151637D01*
X-6249Y-151671D01*
X-6138Y-151709D01*
X-6027Y-151754D01*
X-5932Y-151804D01*
X-5844Y-151854D01*
X-5760Y-151904D01*
X-5694Y-151953D01*
X-5633Y-151998D01*
X-5583Y-152037D01*
X-5544Y-152070D01*
X-5516Y-152098D01*
X-5500Y-152114D01*
X-5494Y-152120D01*
X-5405Y-152225D01*
X-5333Y-152337D01*
X-5266Y-152453D01*
X-5211Y-152575D01*
X-5161Y-152703D01*
X-5122Y-152825D01*
X-5089Y-152947D01*
X-5061Y-153064D01*
X-5039Y-153180D01*
X-5028Y-153280D01*
X-5017Y-153374D01*
X-5006Y-153452D01*
Y-153519D01*
X-5000Y-153569D01*
Y-153602D01*
Y-153607D01*
Y-153613D01*
X-5006Y-153779D01*
X-5022Y-153935D01*
X-5044Y-154085D01*
X-5078Y-154218D01*
X-5111Y-154346D01*
X-5155Y-154468D01*
X-5200Y-154573D01*
X-5244Y-154667D01*
X-5289Y-154756D01*
X-5333Y-154834D01*
X-5377Y-154895D01*
X-5411Y-154950D01*
X-5444Y-154989D01*
X-5466Y-155023D01*
X-5483Y-155039D01*
X-5488Y-155045D01*
X-5583Y-155139D01*
X-5683Y-155217D01*
X-5788Y-155289D01*
X-5894Y-155345D01*
X-5999Y-155395D01*
X-6104Y-155439D01*
X-6204Y-155472D01*
X-6299Y-155500D01*
X-6393Y-155522D01*
X-6476Y-155539D01*
X-6554Y-155550D01*
X-6615Y-155555D01*
X-6671Y-155561D01*
X-6709Y-155567D01*
X-6743D01*
X-6859Y-155561D01*
X-6965Y-155555D01*
X-7070Y-155539D01*
X-7164Y-155517D01*
X-7253Y-155494D01*
X-7337Y-155472D01*
X-7414Y-155445D01*
X-7486Y-155411D01*
X-7547Y-155383D01*
X-7603Y-155356D01*
X-7653Y-155333D01*
X-7692Y-155311D01*
X-7725Y-155289D01*
X-7747Y-155272D01*
X-7758Y-155267D01*
X-7764Y-155261D01*
X-7836Y-155200D01*
X-7903Y-155134D01*
X-8025Y-154984D01*
X-8125Y-154828D01*
X-8202Y-154679D01*
X-8236Y-154606D01*
X-8263Y-154540D01*
X-8286Y-154479D01*
X-8308Y-154429D01*
X-8325Y-154384D01*
X-8336Y-154351D01*
X-8341Y-154329D01*
Y-154323D01*
X-7586Y-154090D01*
X-7542Y-154240D01*
X-7492Y-154368D01*
X-7442Y-154473D01*
X-7386Y-154562D01*
X-7342Y-154629D01*
X-7303Y-154673D01*
X-7276Y-154701D01*
X-7264Y-154712D01*
X-7176Y-154779D01*
X-7087Y-154823D01*
X-6998Y-154856D01*
X-6920Y-154884D01*
X-6848Y-154895D01*
X-6787Y-154901D01*
X-6765Y-154906D01*
X-6737D01*
X-6659Y-154901D01*
X-6587Y-154895D01*
X-6454Y-154856D01*
X-6338Y-154812D01*
X-6243Y-154751D01*
X-6165Y-154695D01*
X-6110Y-154651D01*
X-6088Y-154629D01*
X-6071Y-154612D01*
X-6066Y-154606D01*
X-6060Y-154601D01*
X-6016Y-154540D01*
X-5977Y-154468D01*
X-5938Y-154390D01*
X-5910Y-154307D01*
X-5866Y-154135D01*
X-5833Y-153963D01*
X-5821Y-153879D01*
X-5816Y-153807D01*
X-5805Y-153735D01*
Y-153674D01*
X-5799Y-153630D01*
Y-153591D01*
Y-153563D01*
Y-153558D01*
X-5805Y-153430D01*
X-5810Y-153313D01*
X-5821Y-153208D01*
X-5838Y-153108D01*
X-5860Y-153019D01*
X-5883Y-152936D01*
X-5905Y-152864D01*
X-5932Y-152797D01*
X-5955Y-152742D01*
X-5977Y-152692D01*
X-5999Y-152653D01*
X-6021Y-152620D01*
X-6038Y-152592D01*
X-6049Y-152575D01*
X-6060Y-152564D01*
Y-152559D01*
X-6110Y-152503D01*
X-6165Y-152453D01*
X-6221Y-152414D01*
X-6282Y-152381D01*
X-6399Y-152325D01*
X-6510Y-152287D01*
X-6604Y-152264D01*
X-6648Y-152259D01*
X-6682Y-152253D01*
X-6715Y-152248D01*
X-6754D01*
X-6865Y-152253D01*
X-6965Y-152276D01*
X-7053Y-152303D01*
X-7131Y-152337D01*
X-7192Y-152370D01*
X-7237Y-152398D01*
X-7264Y-152420D01*
X-7276Y-152425D01*
X-7348Y-152492D01*
X-7414Y-152570D01*
X-7464Y-152647D01*
X-7503Y-152725D01*
X-7531Y-152792D01*
X-7547Y-152842D01*
X-7559Y-152864D01*
Y-152880D01*
X-7564Y-152886D01*
Y-152892D01*
X-8330Y-152708D01*
X-8275Y-152547D01*
X-8213Y-152409D01*
X-8147Y-152287D01*
X-8086Y-152187D01*
X-8025Y-152109D01*
X-8003Y-152076D01*
X-7980Y-152048D01*
X-7964Y-152031D01*
X-7947Y-152015D01*
X-7942Y-152004D01*
X-7936D01*
X-7853Y-151931D01*
X-7758Y-151865D01*
X-7670Y-151809D01*
X-7575Y-151765D01*
X-7475Y-151720D01*
X-7381Y-151687D01*
X-7287Y-151659D01*
X-7198Y-151637D01*
X-7114Y-151621D01*
X-7037Y-151609D01*
X-6970Y-151598D01*
X-6909Y-151593D01*
X-6859Y-151587D01*
X-6793D01*
X-6648Y-151593D01*
D02*
G37*
G36*
X-10073Y-134765D02*
X-10001Y-134881D01*
X-9923Y-134992D01*
X-9845Y-135081D01*
X-9779Y-135153D01*
X-9718Y-135209D01*
X-9695Y-135231D01*
X-9679Y-135248D01*
X-9668Y-135253D01*
X-9662Y-135259D01*
X-9540Y-135348D01*
X-9423Y-135425D01*
X-9318Y-135486D01*
X-9224Y-135531D01*
X-9146Y-135564D01*
X-9090Y-135592D01*
X-9068Y-135597D01*
X-9052Y-135603D01*
X-9046Y-135608D01*
X-9040D01*
Y-136275D01*
X-9240Y-136197D01*
X-9418Y-136114D01*
X-9501Y-136069D01*
X-9579Y-136019D01*
X-9651Y-135975D01*
X-9718Y-135930D01*
X-9779Y-135886D01*
X-9834Y-135847D01*
X-9878Y-135814D01*
X-9917Y-135781D01*
X-9951Y-135753D01*
X-9973Y-135736D01*
X-9984Y-135725D01*
X-9989Y-135720D01*
Y-138500D01*
X-10728D01*
Y-134637D01*
X-10128D01*
X-10073Y-134765D01*
D02*
G37*
G36*
X-6648Y-134593D02*
X-6504Y-134609D01*
X-6376Y-134637D01*
X-6249Y-134670D01*
X-6138Y-134709D01*
X-6027Y-134754D01*
X-5932Y-134804D01*
X-5844Y-134854D01*
X-5760Y-134904D01*
X-5694Y-134953D01*
X-5633Y-134998D01*
X-5583Y-135037D01*
X-5544Y-135070D01*
X-5516Y-135098D01*
X-5500Y-135115D01*
X-5494Y-135120D01*
X-5405Y-135225D01*
X-5333Y-135336D01*
X-5266Y-135453D01*
X-5211Y-135575D01*
X-5161Y-135703D01*
X-5122Y-135825D01*
X-5089Y-135947D01*
X-5061Y-136064D01*
X-5039Y-136180D01*
X-5028Y-136280D01*
X-5017Y-136374D01*
X-5006Y-136452D01*
Y-136519D01*
X-5000Y-136569D01*
Y-136602D01*
Y-136607D01*
Y-136613D01*
X-5006Y-136779D01*
X-5022Y-136935D01*
X-5044Y-137085D01*
X-5078Y-137218D01*
X-5111Y-137346D01*
X-5155Y-137468D01*
X-5200Y-137573D01*
X-5244Y-137668D01*
X-5289Y-137756D01*
X-5333Y-137834D01*
X-5377Y-137895D01*
X-5411Y-137951D01*
X-5444Y-137989D01*
X-5466Y-138023D01*
X-5483Y-138039D01*
X-5488Y-138045D01*
X-5583Y-138139D01*
X-5683Y-138217D01*
X-5788Y-138289D01*
X-5894Y-138345D01*
X-5999Y-138395D01*
X-6104Y-138439D01*
X-6204Y-138472D01*
X-6299Y-138500D01*
X-6393Y-138522D01*
X-6476Y-138539D01*
X-6554Y-138550D01*
X-6615Y-138556D01*
X-6671Y-138561D01*
X-6709Y-138567D01*
X-6743D01*
X-6859Y-138561D01*
X-6965Y-138556D01*
X-7070Y-138539D01*
X-7164Y-138517D01*
X-7253Y-138495D01*
X-7337Y-138472D01*
X-7414Y-138444D01*
X-7486Y-138411D01*
X-7547Y-138383D01*
X-7603Y-138356D01*
X-7653Y-138333D01*
X-7692Y-138311D01*
X-7725Y-138289D01*
X-7747Y-138273D01*
X-7758Y-138267D01*
X-7764Y-138261D01*
X-7836Y-138200D01*
X-7903Y-138134D01*
X-8025Y-137984D01*
X-8125Y-137828D01*
X-8202Y-137679D01*
X-8236Y-137606D01*
X-8263Y-137540D01*
X-8286Y-137479D01*
X-8308Y-137429D01*
X-8325Y-137384D01*
X-8336Y-137351D01*
X-8341Y-137329D01*
Y-137323D01*
X-7586Y-137090D01*
X-7542Y-137240D01*
X-7492Y-137368D01*
X-7442Y-137473D01*
X-7386Y-137562D01*
X-7342Y-137629D01*
X-7303Y-137673D01*
X-7276Y-137701D01*
X-7264Y-137712D01*
X-7176Y-137778D01*
X-7087Y-137823D01*
X-6998Y-137856D01*
X-6920Y-137884D01*
X-6848Y-137895D01*
X-6787Y-137901D01*
X-6765Y-137906D01*
X-6737D01*
X-6659Y-137901D01*
X-6587Y-137895D01*
X-6454Y-137856D01*
X-6338Y-137812D01*
X-6243Y-137751D01*
X-6165Y-137695D01*
X-6110Y-137651D01*
X-6088Y-137629D01*
X-6071Y-137612D01*
X-6066Y-137606D01*
X-6060Y-137601D01*
X-6016Y-137540D01*
X-5977Y-137468D01*
X-5938Y-137390D01*
X-5910Y-137307D01*
X-5866Y-137135D01*
X-5833Y-136963D01*
X-5821Y-136879D01*
X-5816Y-136807D01*
X-5805Y-136735D01*
Y-136674D01*
X-5799Y-136630D01*
Y-136591D01*
Y-136563D01*
Y-136557D01*
X-5805Y-136430D01*
X-5810Y-136313D01*
X-5821Y-136208D01*
X-5838Y-136108D01*
X-5860Y-136019D01*
X-5883Y-135936D01*
X-5905Y-135864D01*
X-5932Y-135797D01*
X-5955Y-135742D01*
X-5977Y-135692D01*
X-5999Y-135653D01*
X-6021Y-135620D01*
X-6038Y-135592D01*
X-6049Y-135575D01*
X-6060Y-135564D01*
Y-135558D01*
X-6110Y-135503D01*
X-6165Y-135453D01*
X-6221Y-135414D01*
X-6282Y-135381D01*
X-6399Y-135325D01*
X-6510Y-135287D01*
X-6604Y-135264D01*
X-6648Y-135259D01*
X-6682Y-135253D01*
X-6715Y-135248D01*
X-6754D01*
X-6865Y-135253D01*
X-6965Y-135275D01*
X-7053Y-135303D01*
X-7131Y-135336D01*
X-7192Y-135370D01*
X-7237Y-135398D01*
X-7264Y-135420D01*
X-7276Y-135425D01*
X-7348Y-135492D01*
X-7414Y-135570D01*
X-7464Y-135647D01*
X-7503Y-135725D01*
X-7531Y-135792D01*
X-7547Y-135842D01*
X-7559Y-135864D01*
Y-135880D01*
X-7564Y-135886D01*
Y-135891D01*
X-8330Y-135708D01*
X-8275Y-135547D01*
X-8213Y-135409D01*
X-8147Y-135287D01*
X-8086Y-135187D01*
X-8025Y-135109D01*
X-8003Y-135076D01*
X-7980Y-135048D01*
X-7964Y-135031D01*
X-7947Y-135015D01*
X-7942Y-135003D01*
X-7936D01*
X-7853Y-134931D01*
X-7758Y-134865D01*
X-7670Y-134809D01*
X-7575Y-134765D01*
X-7475Y-134721D01*
X-7381Y-134687D01*
X-7287Y-134659D01*
X-7198Y-134637D01*
X-7114Y-134621D01*
X-7037Y-134609D01*
X-6970Y-134598D01*
X-6909Y-134593D01*
X-6859Y-134587D01*
X-6793D01*
X-6648Y-134593D01*
D02*
G37*
G36*
X-11704Y-137090D02*
Y-137729D01*
X-13281D01*
Y-138500D01*
X-13991D01*
Y-137729D01*
X-14468D01*
Y-137085D01*
X-13991D01*
Y-134643D01*
X-13369D01*
X-11704Y-137090D01*
D02*
G37*
G36*
X176863Y-25886D02*
X176735Y-25941D01*
X176619Y-26013D01*
X176508Y-26091D01*
X176419Y-26169D01*
X176347Y-26236D01*
X176291Y-26297D01*
X176269Y-26319D01*
X176252Y-26335D01*
X176247Y-26347D01*
X176241Y-26352D01*
X176152Y-26474D01*
X176075Y-26591D01*
X176014Y-26696D01*
X175969Y-26791D01*
X175936Y-26868D01*
X175908Y-26924D01*
X175903Y-26946D01*
X175897Y-26963D01*
X175892Y-26968D01*
Y-26974D01*
X175225D01*
X175303Y-26774D01*
X175387Y-26596D01*
X175431Y-26513D01*
X175481Y-26435D01*
X175525Y-26363D01*
X175570Y-26297D01*
X175614Y-26236D01*
X175653Y-26180D01*
X175686Y-26136D01*
X175719Y-26097D01*
X175747Y-26063D01*
X175764Y-26041D01*
X175775Y-26030D01*
X175780Y-26025D01*
X173000D01*
Y-25286D01*
X176863D01*
Y-25886D01*
D02*
G37*
G36*
Y-28872D02*
X176735Y-28927D01*
X176619Y-29000D01*
X176508Y-29077D01*
X176419Y-29155D01*
X176347Y-29221D01*
X176291Y-29283D01*
X176269Y-29305D01*
X176252Y-29321D01*
X176247Y-29333D01*
X176241Y-29338D01*
X176152Y-29460D01*
X176075Y-29577D01*
X176014Y-29682D01*
X175969Y-29776D01*
X175936Y-29854D01*
X175908Y-29910D01*
X175903Y-29932D01*
X175897Y-29948D01*
X175892Y-29954D01*
Y-29960D01*
X175225D01*
X175303Y-29760D01*
X175387Y-29582D01*
X175431Y-29499D01*
X175481Y-29421D01*
X175525Y-29349D01*
X175570Y-29283D01*
X175614Y-29221D01*
X175653Y-29166D01*
X175686Y-29122D01*
X175719Y-29083D01*
X175747Y-29049D01*
X175764Y-29027D01*
X175775Y-29016D01*
X175780Y-29011D01*
X173000D01*
Y-28272D01*
X176863D01*
Y-28872D01*
D02*
G37*
G36*
X174410Y-31414D02*
X174260Y-31458D01*
X174132Y-31508D01*
X174027Y-31558D01*
X173938Y-31613D01*
X173871Y-31658D01*
X173827Y-31697D01*
X173799Y-31725D01*
X173788Y-31736D01*
X173722Y-31824D01*
X173677Y-31913D01*
X173644Y-32002D01*
X173616Y-32080D01*
X173605Y-32152D01*
X173599Y-32213D01*
X173594Y-32235D01*
Y-32263D01*
X173599Y-32341D01*
X173605Y-32413D01*
X173644Y-32546D01*
X173688Y-32662D01*
X173749Y-32757D01*
X173805Y-32835D01*
X173849Y-32890D01*
X173871Y-32912D01*
X173888Y-32929D01*
X173894Y-32934D01*
X173899Y-32940D01*
X173960Y-32984D01*
X174032Y-33023D01*
X174110Y-33062D01*
X174193Y-33090D01*
X174365Y-33134D01*
X174537Y-33167D01*
X174621Y-33179D01*
X174693Y-33184D01*
X174765Y-33195D01*
X174826D01*
X174870Y-33201D01*
X174909D01*
X174937D01*
X174943D01*
X175070Y-33195D01*
X175187Y-33190D01*
X175292Y-33179D01*
X175392Y-33162D01*
X175481Y-33140D01*
X175564Y-33117D01*
X175636Y-33095D01*
X175703Y-33068D01*
X175758Y-33045D01*
X175808Y-33023D01*
X175847Y-33001D01*
X175880Y-32979D01*
X175908Y-32962D01*
X175925Y-32951D01*
X175936Y-32940D01*
X175942D01*
X175997Y-32890D01*
X176047Y-32835D01*
X176086Y-32779D01*
X176119Y-32718D01*
X176175Y-32601D01*
X176213Y-32490D01*
X176236Y-32396D01*
X176241Y-32352D01*
X176247Y-32318D01*
X176252Y-32285D01*
Y-32246D01*
X176247Y-32135D01*
X176225Y-32035D01*
X176197Y-31947D01*
X176163Y-31869D01*
X176130Y-31808D01*
X176102Y-31763D01*
X176080Y-31736D01*
X176075Y-31725D01*
X176008Y-31652D01*
X175930Y-31586D01*
X175853Y-31536D01*
X175775Y-31497D01*
X175708Y-31469D01*
X175658Y-31453D01*
X175636Y-31441D01*
X175620D01*
X175614Y-31436D01*
X175609D01*
X175792Y-30670D01*
X175953Y-30725D01*
X176091Y-30786D01*
X176213Y-30853D01*
X176313Y-30914D01*
X176391Y-30975D01*
X176424Y-30997D01*
X176452Y-31020D01*
X176469Y-31036D01*
X176485Y-31053D01*
X176497Y-31058D01*
Y-31064D01*
X176569Y-31147D01*
X176635Y-31242D01*
X176691Y-31330D01*
X176735Y-31425D01*
X176779Y-31525D01*
X176813Y-31619D01*
X176841Y-31713D01*
X176863Y-31802D01*
X176879Y-31885D01*
X176891Y-31963D01*
X176902Y-32030D01*
X176907Y-32091D01*
X176913Y-32141D01*
Y-32207D01*
X176907Y-32352D01*
X176891Y-32496D01*
X176863Y-32624D01*
X176830Y-32751D01*
X176791Y-32862D01*
X176746Y-32973D01*
X176696Y-33068D01*
X176646Y-33156D01*
X176596Y-33240D01*
X176547Y-33306D01*
X176502Y-33367D01*
X176463Y-33417D01*
X176430Y-33456D01*
X176402Y-33484D01*
X176385Y-33500D01*
X176380Y-33506D01*
X176275Y-33595D01*
X176163Y-33667D01*
X176047Y-33734D01*
X175925Y-33789D01*
X175797Y-33839D01*
X175675Y-33878D01*
X175553Y-33911D01*
X175436Y-33939D01*
X175320Y-33961D01*
X175220Y-33972D01*
X175126Y-33983D01*
X175048Y-33994D01*
X174981D01*
X174931Y-34000D01*
X174898D01*
X174893D01*
X174887D01*
X174721Y-33994D01*
X174565Y-33978D01*
X174415Y-33956D01*
X174282Y-33922D01*
X174154Y-33889D01*
X174032Y-33845D01*
X173927Y-33800D01*
X173832Y-33756D01*
X173744Y-33711D01*
X173666Y-33667D01*
X173605Y-33623D01*
X173549Y-33589D01*
X173511Y-33556D01*
X173477Y-33534D01*
X173461Y-33517D01*
X173455Y-33512D01*
X173361Y-33417D01*
X173283Y-33317D01*
X173211Y-33212D01*
X173155Y-33106D01*
X173105Y-33001D01*
X173061Y-32895D01*
X173028Y-32796D01*
X173000Y-32701D01*
X172978Y-32607D01*
X172961Y-32524D01*
X172950Y-32446D01*
X172944Y-32385D01*
X172939Y-32329D01*
X172933Y-32291D01*
Y-32257D01*
X172939Y-32141D01*
X172944Y-32035D01*
X172961Y-31930D01*
X172983Y-31835D01*
X173005Y-31747D01*
X173028Y-31664D01*
X173056Y-31586D01*
X173089Y-31514D01*
X173117Y-31453D01*
X173144Y-31397D01*
X173167Y-31347D01*
X173189Y-31308D01*
X173211Y-31275D01*
X173228Y-31253D01*
X173233Y-31242D01*
X173239Y-31236D01*
X173300Y-31164D01*
X173366Y-31097D01*
X173516Y-30975D01*
X173672Y-30875D01*
X173821Y-30798D01*
X173894Y-30764D01*
X173960Y-30737D01*
X174021Y-30714D01*
X174071Y-30692D01*
X174116Y-30676D01*
X174149Y-30664D01*
X174171Y-30659D01*
X174177D01*
X174410Y-31414D01*
D02*
G37*
G36*
X185092Y-24681D02*
X185275Y-24693D01*
X185442Y-24709D01*
X185597Y-24737D01*
X185742Y-24765D01*
X185869Y-24792D01*
X185986Y-24831D01*
X186086Y-24865D01*
X186180Y-24898D01*
X186252Y-24931D01*
X186319Y-24965D01*
X186374Y-24992D01*
X186413Y-25020D01*
X186441Y-25037D01*
X186458Y-25048D01*
X186463Y-25053D01*
X186535Y-25114D01*
X186596Y-25181D01*
X186646Y-25253D01*
X186696Y-25325D01*
X186735Y-25398D01*
X186763Y-25470D01*
X186791Y-25536D01*
X186813Y-25608D01*
X186829Y-25675D01*
X186841Y-25730D01*
X186852Y-25786D01*
X186857Y-25830D01*
X186863Y-25869D01*
Y-25925D01*
X186857Y-26025D01*
X186846Y-26119D01*
X186824Y-26213D01*
X186802Y-26297D01*
X186768Y-26374D01*
X186735Y-26446D01*
X186702Y-26507D01*
X186663Y-26568D01*
X186624Y-26618D01*
X186591Y-26669D01*
X186557Y-26707D01*
X186524Y-26735D01*
X186502Y-26763D01*
X186480Y-26779D01*
X186469Y-26791D01*
X186463Y-26796D01*
X186369Y-26863D01*
X186258Y-26918D01*
X186141Y-26968D01*
X186019Y-27013D01*
X185892Y-27046D01*
X185758Y-27079D01*
X185631Y-27101D01*
X185503Y-27124D01*
X185381Y-27135D01*
X185270Y-27146D01*
X185164Y-27157D01*
X185076Y-27162D01*
X185003Y-27168D01*
X184948D01*
X184926D01*
X184909D01*
X184904D01*
X184898D01*
X184698Y-27162D01*
X184515Y-27151D01*
X184343Y-27135D01*
X184188Y-27112D01*
X184049Y-27090D01*
X183921Y-27062D01*
X183810Y-27029D01*
X183710Y-26996D01*
X183627Y-26968D01*
X183549Y-26935D01*
X183488Y-26907D01*
X183438Y-26879D01*
X183405Y-26863D01*
X183377Y-26846D01*
X183361Y-26835D01*
X183355Y-26829D01*
X183277Y-26763D01*
X183217Y-26691D01*
X183155Y-26618D01*
X183111Y-26541D01*
X183067Y-26469D01*
X183033Y-26391D01*
X183005Y-26319D01*
X182983Y-26247D01*
X182961Y-26180D01*
X182950Y-26119D01*
X182939Y-26063D01*
X182933Y-26019D01*
Y-25980D01*
X182928Y-25947D01*
Y-25925D01*
X182933Y-25825D01*
X182945Y-25730D01*
X182967Y-25636D01*
X182989Y-25553D01*
X183017Y-25475D01*
X183050Y-25403D01*
X183089Y-25342D01*
X183128Y-25281D01*
X183161Y-25231D01*
X183200Y-25181D01*
X183233Y-25142D01*
X183261Y-25109D01*
X183283Y-25087D01*
X183305Y-25070D01*
X183316Y-25059D01*
X183322Y-25053D01*
X183416Y-24987D01*
X183527Y-24931D01*
X183644Y-24876D01*
X183772Y-24837D01*
X183899Y-24798D01*
X184027Y-24770D01*
X184160Y-24743D01*
X184288Y-24720D01*
X184410Y-24709D01*
X184521Y-24698D01*
X184626Y-24687D01*
X184715Y-24681D01*
X184787Y-24676D01*
X184843D01*
X184865D01*
X184881D01*
X184887D01*
X184893D01*
X185092Y-24681D01*
D02*
G37*
G36*
X186863Y-28872D02*
X186735Y-28927D01*
X186619Y-29000D01*
X186508Y-29077D01*
X186419Y-29155D01*
X186347Y-29221D01*
X186291Y-29283D01*
X186269Y-29305D01*
X186252Y-29321D01*
X186247Y-29333D01*
X186241Y-29338D01*
X186152Y-29460D01*
X186075Y-29577D01*
X186014Y-29682D01*
X185969Y-29776D01*
X185936Y-29854D01*
X185908Y-29910D01*
X185903Y-29932D01*
X185897Y-29948D01*
X185892Y-29954D01*
Y-29960D01*
X185225D01*
X185303Y-29760D01*
X185387Y-29582D01*
X185431Y-29499D01*
X185481Y-29421D01*
X185525Y-29349D01*
X185570Y-29283D01*
X185614Y-29221D01*
X185653Y-29166D01*
X185686Y-29122D01*
X185720Y-29083D01*
X185747Y-29049D01*
X185764Y-29027D01*
X185775Y-29016D01*
X185781Y-29011D01*
X183000D01*
Y-28272D01*
X186863D01*
Y-28872D01*
D02*
G37*
G36*
X184410Y-31414D02*
X184260Y-31458D01*
X184132Y-31508D01*
X184027Y-31558D01*
X183938Y-31613D01*
X183871Y-31658D01*
X183827Y-31697D01*
X183799Y-31725D01*
X183788Y-31736D01*
X183721Y-31824D01*
X183677Y-31913D01*
X183644Y-32002D01*
X183616Y-32080D01*
X183605Y-32152D01*
X183599Y-32213D01*
X183594Y-32235D01*
Y-32263D01*
X183599Y-32341D01*
X183605Y-32413D01*
X183644Y-32546D01*
X183688Y-32662D01*
X183749Y-32757D01*
X183805Y-32835D01*
X183849Y-32890D01*
X183871Y-32912D01*
X183888Y-32929D01*
X183894Y-32934D01*
X183899Y-32940D01*
X183960Y-32984D01*
X184032Y-33023D01*
X184110Y-33062D01*
X184193Y-33090D01*
X184365Y-33134D01*
X184537Y-33167D01*
X184621Y-33179D01*
X184693Y-33184D01*
X184765Y-33195D01*
X184826D01*
X184870Y-33201D01*
X184909D01*
X184937D01*
X184942D01*
X185070Y-33195D01*
X185187Y-33190D01*
X185292Y-33179D01*
X185392Y-33162D01*
X185481Y-33140D01*
X185564Y-33117D01*
X185636Y-33095D01*
X185703Y-33068D01*
X185758Y-33045D01*
X185808Y-33023D01*
X185847Y-33001D01*
X185880Y-32979D01*
X185908Y-32962D01*
X185925Y-32951D01*
X185936Y-32940D01*
X185942D01*
X185997Y-32890D01*
X186047Y-32835D01*
X186086Y-32779D01*
X186119Y-32718D01*
X186175Y-32601D01*
X186213Y-32490D01*
X186236Y-32396D01*
X186241Y-32352D01*
X186247Y-32318D01*
X186252Y-32285D01*
Y-32246D01*
X186247Y-32135D01*
X186224Y-32035D01*
X186197Y-31947D01*
X186163Y-31869D01*
X186130Y-31808D01*
X186102Y-31763D01*
X186080Y-31736D01*
X186075Y-31725D01*
X186008Y-31652D01*
X185930Y-31586D01*
X185853Y-31536D01*
X185775Y-31497D01*
X185708Y-31469D01*
X185658Y-31453D01*
X185636Y-31441D01*
X185620D01*
X185614Y-31436D01*
X185608D01*
X185792Y-30670D01*
X185953Y-30725D01*
X186091Y-30786D01*
X186213Y-30853D01*
X186313Y-30914D01*
X186391Y-30975D01*
X186424Y-30997D01*
X186452Y-31020D01*
X186469Y-31036D01*
X186485Y-31053D01*
X186496Y-31058D01*
Y-31064D01*
X186569Y-31147D01*
X186635Y-31242D01*
X186691Y-31330D01*
X186735Y-31425D01*
X186779Y-31525D01*
X186813Y-31619D01*
X186841Y-31713D01*
X186863Y-31802D01*
X186879Y-31885D01*
X186891Y-31963D01*
X186902Y-32030D01*
X186907Y-32091D01*
X186913Y-32141D01*
Y-32207D01*
X186907Y-32352D01*
X186891Y-32496D01*
X186863Y-32624D01*
X186829Y-32751D01*
X186791Y-32862D01*
X186746Y-32973D01*
X186696Y-33068D01*
X186646Y-33156D01*
X186596Y-33240D01*
X186547Y-33306D01*
X186502Y-33367D01*
X186463Y-33417D01*
X186430Y-33456D01*
X186402Y-33484D01*
X186386Y-33500D01*
X186380Y-33506D01*
X186275Y-33595D01*
X186163Y-33667D01*
X186047Y-33734D01*
X185925Y-33789D01*
X185797Y-33839D01*
X185675Y-33878D01*
X185553Y-33911D01*
X185436Y-33939D01*
X185320Y-33961D01*
X185220Y-33972D01*
X185126Y-33983D01*
X185048Y-33994D01*
X184981D01*
X184931Y-34000D01*
X184898D01*
X184893D01*
X184887D01*
X184721Y-33994D01*
X184565Y-33978D01*
X184415Y-33956D01*
X184282Y-33922D01*
X184154Y-33889D01*
X184032Y-33845D01*
X183927Y-33800D01*
X183833Y-33756D01*
X183744Y-33711D01*
X183666Y-33667D01*
X183605Y-33623D01*
X183549Y-33589D01*
X183511Y-33556D01*
X183477Y-33534D01*
X183461Y-33517D01*
X183455Y-33512D01*
X183361Y-33417D01*
X183283Y-33317D01*
X183211Y-33212D01*
X183155Y-33106D01*
X183105Y-33001D01*
X183061Y-32895D01*
X183028Y-32796D01*
X183000Y-32701D01*
X182978Y-32607D01*
X182961Y-32524D01*
X182950Y-32446D01*
X182945Y-32385D01*
X182939Y-32329D01*
X182933Y-32291D01*
Y-32257D01*
X182939Y-32141D01*
X182945Y-32035D01*
X182961Y-31930D01*
X182983Y-31835D01*
X183005Y-31747D01*
X183028Y-31664D01*
X183055Y-31586D01*
X183089Y-31514D01*
X183117Y-31453D01*
X183144Y-31397D01*
X183167Y-31347D01*
X183189Y-31308D01*
X183211Y-31275D01*
X183228Y-31253D01*
X183233Y-31242D01*
X183239Y-31236D01*
X183300Y-31164D01*
X183366Y-31097D01*
X183516Y-30975D01*
X183672Y-30875D01*
X183821Y-30798D01*
X183894Y-30764D01*
X183960Y-30737D01*
X184021Y-30714D01*
X184071Y-30692D01*
X184116Y-30676D01*
X184149Y-30664D01*
X184171Y-30659D01*
X184177D01*
X184410Y-31414D01*
D02*
G37*
G36*
X70103Y-24651D02*
X70275Y-24662D01*
X70437Y-24679D01*
X70586Y-24706D01*
X70719Y-24734D01*
X70842Y-24762D01*
X70953Y-24801D01*
X71052Y-24834D01*
X71136Y-24867D01*
X71208Y-24901D01*
X71269Y-24934D01*
X71319Y-24962D01*
X71358Y-24989D01*
X71386Y-25006D01*
X71402Y-25017D01*
X71408Y-25023D01*
X71485Y-25095D01*
X71558Y-25172D01*
X71619Y-25250D01*
X71669Y-25328D01*
X71713Y-25411D01*
X71752Y-25489D01*
X71780Y-25567D01*
X71807Y-25644D01*
X71824Y-25711D01*
X71841Y-25777D01*
X71852Y-25833D01*
X71857Y-25883D01*
Y-25927D01*
X71863Y-25955D01*
Y-25983D01*
X71857Y-26083D01*
X71846Y-26171D01*
X71829Y-26260D01*
X71807Y-26344D01*
X71780Y-26421D01*
X71746Y-26493D01*
X71719Y-26566D01*
X71685Y-26621D01*
X71646Y-26676D01*
X71619Y-26726D01*
X71585Y-26765D01*
X71558Y-26804D01*
X71535Y-26832D01*
X71519Y-26849D01*
X71508Y-26860D01*
X71502Y-26865D01*
X71430Y-26926D01*
X71358Y-26976D01*
X71280Y-27026D01*
X71202Y-27065D01*
X71125Y-27098D01*
X71041Y-27126D01*
X70891Y-27165D01*
X70825Y-27182D01*
X70758Y-27193D01*
X70703Y-27198D01*
X70653Y-27204D01*
X70609Y-27209D01*
X70581D01*
X70559D01*
X70553D01*
X70453Y-27204D01*
X70353Y-27193D01*
X70259Y-27182D01*
X70176Y-27159D01*
X70092Y-27132D01*
X70020Y-27104D01*
X69948Y-27076D01*
X69887Y-27043D01*
X69832Y-27015D01*
X69782Y-26987D01*
X69743Y-26960D01*
X69704Y-26932D01*
X69682Y-26910D01*
X69660Y-26899D01*
X69648Y-26888D01*
X69643Y-26882D01*
X69582Y-26821D01*
X69526Y-26754D01*
X69482Y-26688D01*
X69443Y-26621D01*
X69410Y-26555D01*
X69376Y-26493D01*
X69337Y-26371D01*
X69310Y-26266D01*
X69304Y-26221D01*
X69299Y-26183D01*
X69293Y-26149D01*
Y-26105D01*
X69299Y-26027D01*
X69310Y-25955D01*
X69321Y-25888D01*
X69343Y-25822D01*
X69393Y-25700D01*
X69454Y-25600D01*
X69515Y-25522D01*
X69543Y-25489D01*
X69565Y-25461D01*
X69587Y-25439D01*
X69604Y-25422D01*
X69609Y-25417D01*
X69615Y-25411D01*
X69498Y-25422D01*
X69388Y-25433D01*
X69288Y-25444D01*
X69199Y-25461D01*
X69121Y-25478D01*
X69049Y-25494D01*
X68988Y-25511D01*
X68932Y-25528D01*
X68882Y-25550D01*
X68844Y-25561D01*
X68810Y-25578D01*
X68788Y-25589D01*
X68766Y-25600D01*
X68755Y-25611D01*
X68744Y-25616D01*
X68677Y-25678D01*
X68627Y-25744D01*
X68588Y-25805D01*
X68566Y-25866D01*
X68550Y-25922D01*
X68544Y-25961D01*
X68538Y-25988D01*
Y-26000D01*
X68544Y-26061D01*
X68555Y-26122D01*
X68572Y-26166D01*
X68588Y-26210D01*
X68605Y-26244D01*
X68622Y-26266D01*
X68633Y-26283D01*
X68638Y-26288D01*
X68683Y-26327D01*
X68733Y-26355D01*
X68788Y-26377D01*
X68844Y-26393D01*
X68888Y-26410D01*
X68927Y-26416D01*
X68955Y-26421D01*
X68966D01*
X68882Y-27132D01*
X68794Y-27115D01*
X68716Y-27093D01*
X68638Y-27071D01*
X68572Y-27043D01*
X68505Y-27015D01*
X68444Y-26987D01*
X68394Y-26954D01*
X68344Y-26926D01*
X68305Y-26893D01*
X68266Y-26871D01*
X68239Y-26843D01*
X68211Y-26821D01*
X68194Y-26804D01*
X68178Y-26787D01*
X68172Y-26782D01*
X68167Y-26776D01*
X68122Y-26721D01*
X68089Y-26665D01*
X68028Y-26543D01*
X67989Y-26427D01*
X67956Y-26310D01*
X67939Y-26205D01*
X67933Y-26160D01*
Y-26122D01*
X67928Y-26094D01*
Y-26049D01*
X67933Y-25933D01*
X67950Y-25827D01*
X67972Y-25727D01*
X68000Y-25628D01*
X68039Y-25539D01*
X68078Y-25455D01*
X68116Y-25378D01*
X68161Y-25311D01*
X68205Y-25250D01*
X68244Y-25195D01*
X68289Y-25150D01*
X68322Y-25111D01*
X68350Y-25078D01*
X68372Y-25056D01*
X68388Y-25045D01*
X68394Y-25039D01*
X68488Y-24967D01*
X68594Y-24912D01*
X68710Y-24856D01*
X68827Y-24812D01*
X68955Y-24773D01*
X69082Y-24740D01*
X69204Y-24717D01*
X69332Y-24695D01*
X69449Y-24679D01*
X69554Y-24667D01*
X69654Y-24656D01*
X69743Y-24651D01*
X69815Y-24645D01*
X69870D01*
X69887D01*
X69904D01*
X69909D01*
X69915D01*
X70103Y-24651D01*
D02*
G37*
G36*
X69410Y-28414D02*
X69260Y-28458D01*
X69132Y-28508D01*
X69027Y-28558D01*
X68938Y-28613D01*
X68871Y-28658D01*
X68827Y-28697D01*
X68799Y-28725D01*
X68788Y-28736D01*
X68721Y-28824D01*
X68677Y-28913D01*
X68644Y-29002D01*
X68616Y-29080D01*
X68605Y-29152D01*
X68599Y-29213D01*
X68594Y-29235D01*
Y-29263D01*
X68599Y-29341D01*
X68605Y-29413D01*
X68644Y-29546D01*
X68688Y-29662D01*
X68749Y-29757D01*
X68805Y-29834D01*
X68849Y-29890D01*
X68871Y-29912D01*
X68888Y-29929D01*
X68894Y-29934D01*
X68899Y-29940D01*
X68960Y-29984D01*
X69032Y-30023D01*
X69110Y-30062D01*
X69193Y-30090D01*
X69365Y-30134D01*
X69537Y-30167D01*
X69621Y-30179D01*
X69693Y-30184D01*
X69765Y-30195D01*
X69826D01*
X69870Y-30201D01*
X69909D01*
X69937D01*
X69942D01*
X70070Y-30195D01*
X70187Y-30190D01*
X70292Y-30179D01*
X70392Y-30162D01*
X70481Y-30140D01*
X70564Y-30117D01*
X70636Y-30095D01*
X70703Y-30068D01*
X70758Y-30045D01*
X70808Y-30023D01*
X70847Y-30001D01*
X70880Y-29979D01*
X70908Y-29962D01*
X70925Y-29951D01*
X70936Y-29940D01*
X70942D01*
X70997Y-29890D01*
X71047Y-29834D01*
X71086Y-29779D01*
X71119Y-29718D01*
X71175Y-29601D01*
X71214Y-29490D01*
X71236Y-29396D01*
X71241Y-29352D01*
X71247Y-29318D01*
X71252Y-29285D01*
Y-29246D01*
X71247Y-29135D01*
X71224Y-29035D01*
X71197Y-28947D01*
X71163Y-28869D01*
X71130Y-28808D01*
X71102Y-28763D01*
X71080Y-28736D01*
X71075Y-28725D01*
X71008Y-28652D01*
X70930Y-28586D01*
X70853Y-28536D01*
X70775Y-28497D01*
X70708Y-28469D01*
X70658Y-28453D01*
X70636Y-28441D01*
X70620D01*
X70614Y-28436D01*
X70609D01*
X70792Y-27670D01*
X70953Y-27725D01*
X71091Y-27786D01*
X71214Y-27853D01*
X71313Y-27914D01*
X71391Y-27975D01*
X71424Y-27997D01*
X71452Y-28020D01*
X71469Y-28036D01*
X71485Y-28053D01*
X71496Y-28058D01*
Y-28064D01*
X71569Y-28147D01*
X71635Y-28242D01*
X71691Y-28330D01*
X71735Y-28425D01*
X71780Y-28525D01*
X71813Y-28619D01*
X71841Y-28713D01*
X71863Y-28802D01*
X71879Y-28885D01*
X71890Y-28963D01*
X71902Y-29030D01*
X71907Y-29091D01*
X71913Y-29141D01*
Y-29207D01*
X71907Y-29352D01*
X71890Y-29496D01*
X71863Y-29624D01*
X71829Y-29751D01*
X71791Y-29862D01*
X71746Y-29973D01*
X71696Y-30068D01*
X71646Y-30156D01*
X71596Y-30240D01*
X71547Y-30306D01*
X71502Y-30367D01*
X71463Y-30417D01*
X71430Y-30456D01*
X71402Y-30484D01*
X71386Y-30501D01*
X71380Y-30506D01*
X71275Y-30595D01*
X71163Y-30667D01*
X71047Y-30734D01*
X70925Y-30789D01*
X70797Y-30839D01*
X70675Y-30878D01*
X70553Y-30911D01*
X70437Y-30939D01*
X70320Y-30961D01*
X70220Y-30972D01*
X70126Y-30983D01*
X70048Y-30994D01*
X69981D01*
X69931Y-31000D01*
X69898D01*
X69893D01*
X69887D01*
X69721Y-30994D01*
X69565Y-30978D01*
X69415Y-30956D01*
X69282Y-30922D01*
X69154Y-30889D01*
X69032Y-30845D01*
X68927Y-30800D01*
X68832Y-30756D01*
X68744Y-30711D01*
X68666Y-30667D01*
X68605Y-30623D01*
X68550Y-30589D01*
X68511Y-30556D01*
X68477Y-30534D01*
X68461Y-30517D01*
X68455Y-30512D01*
X68361Y-30417D01*
X68283Y-30317D01*
X68211Y-30212D01*
X68155Y-30106D01*
X68105Y-30001D01*
X68061Y-29895D01*
X68028Y-29796D01*
X68000Y-29701D01*
X67978Y-29607D01*
X67961Y-29524D01*
X67950Y-29446D01*
X67945Y-29385D01*
X67939Y-29329D01*
X67933Y-29291D01*
Y-29257D01*
X67939Y-29141D01*
X67945Y-29035D01*
X67961Y-28930D01*
X67983Y-28835D01*
X68006Y-28747D01*
X68028Y-28664D01*
X68055Y-28586D01*
X68089Y-28514D01*
X68116Y-28453D01*
X68144Y-28397D01*
X68167Y-28347D01*
X68189Y-28308D01*
X68211Y-28275D01*
X68227Y-28253D01*
X68233Y-28242D01*
X68239Y-28236D01*
X68300Y-28164D01*
X68366Y-28097D01*
X68516Y-27975D01*
X68672Y-27875D01*
X68821Y-27798D01*
X68894Y-27764D01*
X68960Y-27737D01*
X69021Y-27714D01*
X69071Y-27692D01*
X69116Y-27676D01*
X69149Y-27664D01*
X69171Y-27659D01*
X69177D01*
X69410Y-28414D01*
D02*
G37*
G36*
X33893Y-24562D02*
X33993Y-24573D01*
X34087Y-24590D01*
X34176Y-24612D01*
X34254Y-24634D01*
X34332Y-24667D01*
X34404Y-24695D01*
X34465Y-24728D01*
X34520Y-24762D01*
X34570Y-24790D01*
X34615Y-24823D01*
X34648Y-24845D01*
X34676Y-24867D01*
X34698Y-24884D01*
X34709Y-24895D01*
X34714Y-24901D01*
X34776Y-24967D01*
X34831Y-25034D01*
X34881Y-25106D01*
X34925Y-25178D01*
X34959Y-25245D01*
X34986Y-25317D01*
X35031Y-25444D01*
X35047Y-25506D01*
X35059Y-25561D01*
X35064Y-25611D01*
X35070Y-25650D01*
X35075Y-25683D01*
Y-25733D01*
X35070Y-25827D01*
X35053Y-25922D01*
X35036Y-26005D01*
X35014Y-26083D01*
X34986Y-26144D01*
X34970Y-26194D01*
X34953Y-26227D01*
X34948Y-26232D01*
Y-26238D01*
X35602Y-26122D01*
Y-24728D01*
X36291D01*
Y-26676D01*
X34287Y-27054D01*
X34204Y-26460D01*
X34254Y-26410D01*
X34298Y-26360D01*
X34337Y-26310D01*
X34370Y-26260D01*
X34420Y-26166D01*
X34454Y-26077D01*
X34470Y-26000D01*
X34481Y-25944D01*
X34487Y-25922D01*
Y-25888D01*
X34481Y-25800D01*
X34459Y-25716D01*
X34431Y-25644D01*
X34398Y-25583D01*
X34359Y-25539D01*
X34332Y-25500D01*
X34309Y-25478D01*
X34304Y-25472D01*
X34232Y-25417D01*
X34148Y-25378D01*
X34060Y-25350D01*
X33971Y-25333D01*
X33893Y-25317D01*
X33832Y-25311D01*
X33804D01*
X33788D01*
X33777D01*
X33771D01*
X33638Y-25317D01*
X33521Y-25333D01*
X33427Y-25361D01*
X33349Y-25389D01*
X33283Y-25422D01*
X33238Y-25444D01*
X33216Y-25467D01*
X33205Y-25472D01*
X33144Y-25533D01*
X33094Y-25600D01*
X33061Y-25666D01*
X33038Y-25727D01*
X33027Y-25783D01*
X33022Y-25827D01*
X33016Y-25855D01*
Y-25866D01*
X33022Y-25938D01*
X33038Y-26011D01*
X33061Y-26072D01*
X33088Y-26122D01*
X33116Y-26166D01*
X33138Y-26199D01*
X33155Y-26221D01*
X33160Y-26227D01*
X33222Y-26277D01*
X33283Y-26321D01*
X33349Y-26355D01*
X33410Y-26377D01*
X33466Y-26393D01*
X33516Y-26405D01*
X33543Y-26410D01*
X33555D01*
X33477Y-27143D01*
X33388Y-27126D01*
X33305Y-27109D01*
X33155Y-27054D01*
X33022Y-26993D01*
X32966Y-26960D01*
X32911Y-26921D01*
X32866Y-26888D01*
X32827Y-26860D01*
X32794Y-26826D01*
X32761Y-26804D01*
X32739Y-26782D01*
X32722Y-26765D01*
X32716Y-26754D01*
X32711Y-26749D01*
X32661Y-26682D01*
X32617Y-26616D01*
X32578Y-26543D01*
X32550Y-26471D01*
X32495Y-26321D01*
X32461Y-26188D01*
X32450Y-26122D01*
X32445Y-26066D01*
X32439Y-26011D01*
X32433Y-25966D01*
X32428Y-25927D01*
Y-25877D01*
X32433Y-25755D01*
X32450Y-25639D01*
X32472Y-25533D01*
X32506Y-25433D01*
X32544Y-25339D01*
X32589Y-25256D01*
X32633Y-25178D01*
X32683Y-25106D01*
X32728Y-25045D01*
X32772Y-24989D01*
X32816Y-24939D01*
X32855Y-24901D01*
X32888Y-24873D01*
X32911Y-24851D01*
X32927Y-24839D01*
X32933Y-24834D01*
X33005Y-24784D01*
X33077Y-24740D01*
X33149Y-24706D01*
X33227Y-24673D01*
X33371Y-24623D01*
X33505Y-24590D01*
X33560Y-24579D01*
X33616Y-24573D01*
X33665Y-24562D01*
X33710D01*
X33743Y-24556D01*
X33765D01*
X33782D01*
X33788D01*
X33893Y-24562D01*
D02*
G37*
G36*
X33910Y-28414D02*
X33760Y-28458D01*
X33632Y-28508D01*
X33527Y-28558D01*
X33438Y-28613D01*
X33371Y-28658D01*
X33327Y-28697D01*
X33299Y-28725D01*
X33288Y-28736D01*
X33222Y-28824D01*
X33177Y-28913D01*
X33144Y-29002D01*
X33116Y-29080D01*
X33105Y-29152D01*
X33099Y-29213D01*
X33094Y-29235D01*
Y-29263D01*
X33099Y-29341D01*
X33105Y-29413D01*
X33144Y-29546D01*
X33188Y-29662D01*
X33249Y-29757D01*
X33305Y-29834D01*
X33349Y-29890D01*
X33371Y-29912D01*
X33388Y-29929D01*
X33393Y-29934D01*
X33399Y-29940D01*
X33460Y-29984D01*
X33532Y-30023D01*
X33610Y-30062D01*
X33693Y-30090D01*
X33865Y-30134D01*
X34037Y-30167D01*
X34121Y-30179D01*
X34193Y-30184D01*
X34265Y-30195D01*
X34326D01*
X34370Y-30201D01*
X34409D01*
X34437D01*
X34442D01*
X34570Y-30195D01*
X34687Y-30190D01*
X34792Y-30179D01*
X34892Y-30162D01*
X34981Y-30140D01*
X35064Y-30117D01*
X35136Y-30095D01*
X35203Y-30068D01*
X35258Y-30045D01*
X35308Y-30023D01*
X35347Y-30001D01*
X35381Y-29979D01*
X35408Y-29962D01*
X35425Y-29951D01*
X35436Y-29940D01*
X35441D01*
X35497Y-29890D01*
X35547Y-29834D01*
X35586Y-29779D01*
X35619Y-29718D01*
X35675Y-29601D01*
X35713Y-29490D01*
X35736Y-29396D01*
X35741Y-29352D01*
X35747Y-29318D01*
X35752Y-29285D01*
Y-29246D01*
X35747Y-29135D01*
X35724Y-29035D01*
X35697Y-28947D01*
X35664Y-28869D01*
X35630Y-28808D01*
X35602Y-28763D01*
X35580Y-28736D01*
X35575Y-28725D01*
X35508Y-28652D01*
X35430Y-28586D01*
X35353Y-28536D01*
X35275Y-28497D01*
X35208Y-28469D01*
X35158Y-28453D01*
X35136Y-28441D01*
X35120D01*
X35114Y-28436D01*
X35109D01*
X35292Y-27670D01*
X35453Y-27725D01*
X35591Y-27786D01*
X35713Y-27853D01*
X35813Y-27914D01*
X35891Y-27975D01*
X35924Y-27997D01*
X35952Y-28020D01*
X35969Y-28036D01*
X35985Y-28053D01*
X35996Y-28058D01*
Y-28064D01*
X36069Y-28147D01*
X36135Y-28242D01*
X36191Y-28330D01*
X36235Y-28425D01*
X36280Y-28525D01*
X36313Y-28619D01*
X36341Y-28713D01*
X36363Y-28802D01*
X36380Y-28885D01*
X36391Y-28963D01*
X36402Y-29030D01*
X36407Y-29091D01*
X36413Y-29141D01*
Y-29207D01*
X36407Y-29352D01*
X36391Y-29496D01*
X36363Y-29624D01*
X36329Y-29751D01*
X36291Y-29862D01*
X36246Y-29973D01*
X36196Y-30068D01*
X36146Y-30156D01*
X36096Y-30240D01*
X36046Y-30306D01*
X36002Y-30367D01*
X35963Y-30417D01*
X35930Y-30456D01*
X35902Y-30484D01*
X35886Y-30501D01*
X35880Y-30506D01*
X35774Y-30595D01*
X35664Y-30667D01*
X35547Y-30734D01*
X35425Y-30789D01*
X35297Y-30839D01*
X35175Y-30878D01*
X35053Y-30911D01*
X34936Y-30939D01*
X34820Y-30961D01*
X34720Y-30972D01*
X34626Y-30983D01*
X34548Y-30994D01*
X34481D01*
X34431Y-31000D01*
X34398D01*
X34392D01*
X34387D01*
X34220Y-30994D01*
X34065Y-30978D01*
X33915Y-30956D01*
X33782Y-30922D01*
X33654Y-30889D01*
X33532Y-30845D01*
X33427Y-30800D01*
X33332Y-30756D01*
X33244Y-30711D01*
X33166Y-30667D01*
X33105Y-30623D01*
X33049Y-30589D01*
X33011Y-30556D01*
X32977Y-30534D01*
X32961Y-30517D01*
X32955Y-30512D01*
X32861Y-30417D01*
X32783Y-30317D01*
X32711Y-30212D01*
X32655Y-30106D01*
X32605Y-30001D01*
X32561Y-29895D01*
X32528Y-29796D01*
X32500Y-29701D01*
X32478Y-29607D01*
X32461Y-29524D01*
X32450Y-29446D01*
X32445Y-29385D01*
X32439Y-29329D01*
X32433Y-29291D01*
Y-29257D01*
X32439Y-29141D01*
X32445Y-29035D01*
X32461Y-28930D01*
X32483Y-28835D01*
X32506Y-28747D01*
X32528Y-28664D01*
X32555Y-28586D01*
X32589Y-28514D01*
X32617Y-28453D01*
X32644Y-28397D01*
X32667Y-28347D01*
X32689Y-28308D01*
X32711Y-28275D01*
X32728Y-28253D01*
X32733Y-28242D01*
X32739Y-28236D01*
X32800Y-28164D01*
X32866Y-28097D01*
X33016Y-27975D01*
X33172Y-27875D01*
X33321Y-27798D01*
X33393Y-27764D01*
X33460Y-27737D01*
X33521Y-27714D01*
X33571Y-27692D01*
X33616Y-27676D01*
X33649Y-27664D01*
X33671Y-27659D01*
X33677D01*
X33910Y-28414D01*
D02*
G37*
G36*
X-9223Y-24640D02*
X-9112Y-24662D01*
X-9007Y-24690D01*
X-8924Y-24728D01*
X-8852Y-24767D01*
X-8802Y-24795D01*
X-8768Y-24817D01*
X-8757Y-24828D01*
X-8674Y-24906D01*
X-8602Y-24995D01*
X-8546Y-25084D01*
X-8502Y-25167D01*
X-8469Y-25239D01*
X-8452Y-25300D01*
X-8441Y-25322D01*
Y-25339D01*
X-8435Y-25350D01*
Y-25356D01*
X-8374Y-25256D01*
X-8313Y-25172D01*
X-8247Y-25100D01*
X-8180Y-25034D01*
X-8113Y-24978D01*
X-8047Y-24934D01*
X-7980Y-24901D01*
X-7919Y-24867D01*
X-7858Y-24845D01*
X-7803Y-24828D01*
X-7753Y-24817D01*
X-7708Y-24812D01*
X-7675Y-24806D01*
X-7647Y-24801D01*
X-7631D01*
X-7625D01*
X-7559Y-24806D01*
X-7497Y-24812D01*
X-7375Y-24845D01*
X-7264Y-24884D01*
X-7170Y-24934D01*
X-7092Y-24984D01*
X-7037Y-25028D01*
X-7015Y-25045D01*
X-6998Y-25062D01*
X-6992Y-25067D01*
X-6987Y-25073D01*
X-6926Y-25134D01*
X-6870Y-25206D01*
X-6826Y-25272D01*
X-6787Y-25345D01*
X-6748Y-25422D01*
X-6720Y-25494D01*
X-6682Y-25633D01*
X-6665Y-25694D01*
X-6654Y-25755D01*
X-6648Y-25805D01*
X-6643Y-25855D01*
X-6637Y-25894D01*
Y-25944D01*
X-6643Y-26061D01*
X-6654Y-26166D01*
X-6676Y-26266D01*
X-6698Y-26349D01*
X-6720Y-26416D01*
X-6743Y-26471D01*
X-6754Y-26504D01*
X-6759Y-26510D01*
Y-26516D01*
X-6809Y-26604D01*
X-6865Y-26688D01*
X-6920Y-26754D01*
X-6970Y-26810D01*
X-7020Y-26854D01*
X-7059Y-26888D01*
X-7081Y-26910D01*
X-7092Y-26915D01*
X-7175Y-26965D01*
X-7264Y-27010D01*
X-7359Y-27043D01*
X-7447Y-27076D01*
X-7531Y-27098D01*
X-7592Y-27115D01*
X-7620Y-27121D01*
X-7636D01*
X-7647Y-27126D01*
X-7653D01*
X-7764Y-26449D01*
X-7675Y-26432D01*
X-7597Y-26410D01*
X-7531Y-26388D01*
X-7481Y-26360D01*
X-7436Y-26333D01*
X-7403Y-26310D01*
X-7386Y-26294D01*
X-7381Y-26288D01*
X-7337Y-26238D01*
X-7303Y-26183D01*
X-7281Y-26127D01*
X-7264Y-26077D01*
X-7253Y-26033D01*
X-7248Y-26000D01*
Y-25966D01*
X-7253Y-25899D01*
X-7264Y-25833D01*
X-7287Y-25783D01*
X-7303Y-25739D01*
X-7325Y-25700D01*
X-7348Y-25678D01*
X-7359Y-25661D01*
X-7364Y-25655D01*
X-7409Y-25616D01*
X-7464Y-25589D01*
X-7514Y-25567D01*
X-7564Y-25555D01*
X-7609Y-25544D01*
X-7642Y-25539D01*
X-7664D01*
X-7675D01*
X-7758Y-25544D01*
X-7830Y-25561D01*
X-7891Y-25589D01*
X-7942Y-25616D01*
X-7986Y-25650D01*
X-8014Y-25672D01*
X-8036Y-25694D01*
X-8041Y-25700D01*
X-8086Y-25766D01*
X-8119Y-25839D01*
X-8141Y-25916D01*
X-8158Y-25988D01*
X-8163Y-26055D01*
X-8169Y-26110D01*
Y-26160D01*
X-8763Y-26238D01*
X-8746Y-26166D01*
X-8730Y-26105D01*
X-8718Y-26044D01*
X-8713Y-25994D01*
X-8707Y-25955D01*
Y-25899D01*
X-8713Y-25822D01*
X-8735Y-25755D01*
X-8757Y-25694D01*
X-8791Y-25639D01*
X-8818Y-25600D01*
X-8846Y-25567D01*
X-8868Y-25544D01*
X-8874Y-25539D01*
X-8940Y-25489D01*
X-9013Y-25450D01*
X-9085Y-25422D01*
X-9157Y-25400D01*
X-9223Y-25389D01*
X-9273Y-25383D01*
X-9307D01*
X-9312D01*
X-9318D01*
X-9423Y-25389D01*
X-9518Y-25406D01*
X-9601Y-25433D01*
X-9668Y-25461D01*
X-9717Y-25494D01*
X-9756Y-25517D01*
X-9784Y-25539D01*
X-9790Y-25544D01*
X-9845Y-25605D01*
X-9889Y-25672D01*
X-9917Y-25733D01*
X-9939Y-25794D01*
X-9950Y-25850D01*
X-9956Y-25888D01*
X-9962Y-25916D01*
Y-25927D01*
X-9956Y-26005D01*
X-9939Y-26072D01*
X-9917Y-26133D01*
X-9889Y-26188D01*
X-9867Y-26227D01*
X-9845Y-26260D01*
X-9828Y-26283D01*
X-9823Y-26288D01*
X-9762Y-26338D01*
X-9695Y-26382D01*
X-9623Y-26410D01*
X-9556Y-26438D01*
X-9495Y-26455D01*
X-9445Y-26466D01*
X-9412Y-26471D01*
X-9407D01*
X-9401D01*
X-9490Y-27182D01*
X-9579Y-27171D01*
X-9662Y-27148D01*
X-9817Y-27098D01*
X-9950Y-27037D01*
X-10006Y-26998D01*
X-10062Y-26965D01*
X-10112Y-26932D01*
X-10150Y-26899D01*
X-10189Y-26871D01*
X-10217Y-26843D01*
X-10239Y-26821D01*
X-10256Y-26804D01*
X-10267Y-26793D01*
X-10272Y-26787D01*
X-10322Y-26721D01*
X-10372Y-26649D01*
X-10411Y-26582D01*
X-10445Y-26504D01*
X-10500Y-26360D01*
X-10533Y-26227D01*
X-10544Y-26160D01*
X-10555Y-26105D01*
X-10561Y-26055D01*
X-10567Y-26011D01*
X-10572Y-25972D01*
Y-25922D01*
X-10567Y-25822D01*
X-10555Y-25722D01*
X-10539Y-25633D01*
X-10517Y-25544D01*
X-10489Y-25467D01*
X-10461Y-25389D01*
X-10428Y-25317D01*
X-10395Y-25256D01*
X-10361Y-25200D01*
X-10328Y-25145D01*
X-10300Y-25106D01*
X-10272Y-25067D01*
X-10250Y-25039D01*
X-10234Y-25017D01*
X-10222Y-25006D01*
X-10217Y-25001D01*
X-10150Y-24934D01*
X-10078Y-24878D01*
X-10006Y-24828D01*
X-9934Y-24784D01*
X-9856Y-24751D01*
X-9784Y-24717D01*
X-9651Y-24673D01*
X-9590Y-24662D01*
X-9529Y-24651D01*
X-9479Y-24640D01*
X-9434Y-24634D01*
X-9401Y-24629D01*
X-9373D01*
X-9357D01*
X-9351D01*
X-9223Y-24640D01*
D02*
G37*
G36*
X-9090Y-28414D02*
X-9240Y-28458D01*
X-9368Y-28508D01*
X-9473Y-28558D01*
X-9562Y-28613D01*
X-9629Y-28658D01*
X-9673Y-28697D01*
X-9701Y-28725D01*
X-9712Y-28736D01*
X-9779Y-28824D01*
X-9823Y-28913D01*
X-9856Y-29002D01*
X-9884Y-29080D01*
X-9895Y-29152D01*
X-9901Y-29213D01*
X-9906Y-29235D01*
Y-29263D01*
X-9901Y-29341D01*
X-9895Y-29413D01*
X-9856Y-29546D01*
X-9812Y-29662D01*
X-9751Y-29757D01*
X-9695Y-29834D01*
X-9651Y-29890D01*
X-9629Y-29912D01*
X-9612Y-29929D01*
X-9606Y-29934D01*
X-9601Y-29940D01*
X-9540Y-29984D01*
X-9468Y-30023D01*
X-9390Y-30062D01*
X-9307Y-30090D01*
X-9135Y-30134D01*
X-8963Y-30167D01*
X-8879Y-30179D01*
X-8807Y-30184D01*
X-8735Y-30195D01*
X-8674D01*
X-8630Y-30201D01*
X-8591D01*
X-8563D01*
X-8557D01*
X-8430Y-30195D01*
X-8313Y-30190D01*
X-8208Y-30179D01*
X-8108Y-30162D01*
X-8019Y-30140D01*
X-7936Y-30117D01*
X-7864Y-30095D01*
X-7797Y-30068D01*
X-7742Y-30045D01*
X-7692Y-30023D01*
X-7653Y-30001D01*
X-7620Y-29979D01*
X-7592Y-29962D01*
X-7575Y-29951D01*
X-7564Y-29940D01*
X-7559D01*
X-7503Y-29890D01*
X-7453Y-29834D01*
X-7414Y-29779D01*
X-7381Y-29718D01*
X-7325Y-29601D01*
X-7287Y-29490D01*
X-7264Y-29396D01*
X-7259Y-29352D01*
X-7253Y-29318D01*
X-7248Y-29285D01*
Y-29246D01*
X-7253Y-29135D01*
X-7275Y-29035D01*
X-7303Y-28947D01*
X-7337Y-28869D01*
X-7370Y-28808D01*
X-7397Y-28763D01*
X-7420Y-28736D01*
X-7425Y-28725D01*
X-7492Y-28652D01*
X-7570Y-28586D01*
X-7647Y-28536D01*
X-7725Y-28497D01*
X-7792Y-28469D01*
X-7841Y-28453D01*
X-7864Y-28441D01*
X-7880D01*
X-7886Y-28436D01*
X-7891D01*
X-7708Y-27670D01*
X-7547Y-27725D01*
X-7409Y-27786D01*
X-7287Y-27853D01*
X-7187Y-27914D01*
X-7109Y-27975D01*
X-7076Y-27997D01*
X-7048Y-28020D01*
X-7031Y-28036D01*
X-7015Y-28053D01*
X-7004Y-28058D01*
Y-28064D01*
X-6931Y-28147D01*
X-6865Y-28242D01*
X-6809Y-28330D01*
X-6765Y-28425D01*
X-6720Y-28525D01*
X-6687Y-28619D01*
X-6659Y-28713D01*
X-6637Y-28802D01*
X-6621Y-28885D01*
X-6609Y-28963D01*
X-6598Y-29030D01*
X-6593Y-29091D01*
X-6587Y-29141D01*
Y-29207D01*
X-6593Y-29352D01*
X-6609Y-29496D01*
X-6637Y-29624D01*
X-6671Y-29751D01*
X-6709Y-29862D01*
X-6754Y-29973D01*
X-6804Y-30068D01*
X-6854Y-30156D01*
X-6904Y-30240D01*
X-6954Y-30306D01*
X-6998Y-30367D01*
X-7037Y-30417D01*
X-7070Y-30456D01*
X-7098Y-30484D01*
X-7114Y-30501D01*
X-7120Y-30506D01*
X-7226Y-30595D01*
X-7337Y-30667D01*
X-7453Y-30734D01*
X-7575Y-30789D01*
X-7703Y-30839D01*
X-7825Y-30878D01*
X-7947Y-30911D01*
X-8063Y-30939D01*
X-8180Y-30961D01*
X-8280Y-30972D01*
X-8374Y-30983D01*
X-8452Y-30994D01*
X-8519D01*
X-8569Y-31000D01*
X-8602D01*
X-8608D01*
X-8613D01*
X-8779Y-30994D01*
X-8935Y-30978D01*
X-9085Y-30956D01*
X-9218Y-30922D01*
X-9346Y-30889D01*
X-9468Y-30845D01*
X-9573Y-30800D01*
X-9668Y-30756D01*
X-9756Y-30711D01*
X-9834Y-30667D01*
X-9895Y-30623D01*
X-9950Y-30589D01*
X-9989Y-30556D01*
X-10023Y-30534D01*
X-10039Y-30517D01*
X-10045Y-30512D01*
X-10139Y-30417D01*
X-10217Y-30317D01*
X-10289Y-30212D01*
X-10345Y-30106D01*
X-10395Y-30001D01*
X-10439Y-29895D01*
X-10472Y-29796D01*
X-10500Y-29701D01*
X-10522Y-29607D01*
X-10539Y-29524D01*
X-10550Y-29446D01*
X-10555Y-29385D01*
X-10561Y-29329D01*
X-10567Y-29291D01*
Y-29257D01*
X-10561Y-29141D01*
X-10555Y-29035D01*
X-10539Y-28930D01*
X-10517Y-28835D01*
X-10494Y-28747D01*
X-10472Y-28664D01*
X-10445Y-28586D01*
X-10411Y-28514D01*
X-10384Y-28453D01*
X-10356Y-28397D01*
X-10334Y-28347D01*
X-10311Y-28308D01*
X-10289Y-28275D01*
X-10272Y-28253D01*
X-10267Y-28242D01*
X-10261Y-28236D01*
X-10200Y-28164D01*
X-10134Y-28097D01*
X-9984Y-27975D01*
X-9828Y-27875D01*
X-9679Y-27798D01*
X-9606Y-27764D01*
X-9540Y-27737D01*
X-9479Y-27714D01*
X-9429Y-27692D01*
X-9384Y-27676D01*
X-9351Y-27664D01*
X-9329Y-27659D01*
X-9323D01*
X-9090Y-28414D01*
D02*
G37*
G36*
X25869Y-24673D02*
X25953Y-24684D01*
X26030Y-24695D01*
X26102Y-24717D01*
X26230Y-24773D01*
X26341Y-24828D01*
X26391Y-24862D01*
X26430Y-24889D01*
X26469Y-24917D01*
X26496Y-24945D01*
X26519Y-24967D01*
X26541Y-24978D01*
X26546Y-24989D01*
X26552Y-24995D01*
X26607Y-25056D01*
X26658Y-25128D01*
X26696Y-25195D01*
X26730Y-25272D01*
X26785Y-25417D01*
X26824Y-25561D01*
X26835Y-25628D01*
X26846Y-25689D01*
X26852Y-25744D01*
X26857Y-25794D01*
X26863Y-25833D01*
Y-25888D01*
X26857Y-25983D01*
X26852Y-26072D01*
X26824Y-26244D01*
X26780Y-26388D01*
X26757Y-26455D01*
X26730Y-26516D01*
X26707Y-26571D01*
X26680Y-26616D01*
X26658Y-26660D01*
X26641Y-26693D01*
X26619Y-26721D01*
X26607Y-26738D01*
X26602Y-26749D01*
X26596Y-26754D01*
X26541Y-26815D01*
X26485Y-26871D01*
X26419Y-26921D01*
X26347Y-26965D01*
X26202Y-27032D01*
X26064Y-27087D01*
X25991Y-27104D01*
X25930Y-27121D01*
X25875Y-27137D01*
X25825Y-27143D01*
X25780Y-27154D01*
X25753D01*
X25731Y-27159D01*
X25725D01*
X25653Y-26427D01*
X25764Y-26416D01*
X25858Y-26393D01*
X25942Y-26371D01*
X26003Y-26344D01*
X26052Y-26321D01*
X26086Y-26299D01*
X26108Y-26283D01*
X26114Y-26277D01*
X26158Y-26221D01*
X26191Y-26160D01*
X26219Y-26099D01*
X26236Y-26038D01*
X26247Y-25988D01*
X26252Y-25944D01*
Y-25905D01*
X26247Y-25822D01*
X26230Y-25750D01*
X26208Y-25689D01*
X26186Y-25633D01*
X26164Y-25594D01*
X26141Y-25561D01*
X26125Y-25544D01*
X26119Y-25539D01*
X26064Y-25494D01*
X26003Y-25461D01*
X25942Y-25439D01*
X25881Y-25422D01*
X25825Y-25411D01*
X25775Y-25406D01*
X25747D01*
X25742D01*
X25736D01*
X25653Y-25411D01*
X25575Y-25428D01*
X25497Y-25455D01*
X25431Y-25483D01*
X25370Y-25511D01*
X25326Y-25539D01*
X25298Y-25555D01*
X25287Y-25561D01*
X25253Y-25583D01*
X25214Y-25616D01*
X25164Y-25661D01*
X25120Y-25705D01*
X25015Y-25805D01*
X24909Y-25905D01*
X24809Y-26005D01*
X24765Y-26049D01*
X24732Y-26094D01*
X24698Y-26127D01*
X24676Y-26149D01*
X24659Y-26166D01*
X24654Y-26171D01*
X24548Y-26283D01*
X24449Y-26382D01*
X24354Y-26477D01*
X24271Y-26560D01*
X24188Y-26638D01*
X24110Y-26704D01*
X24043Y-26765D01*
X23977Y-26815D01*
X23921Y-26860D01*
X23871Y-26899D01*
X23832Y-26932D01*
X23794Y-26954D01*
X23771Y-26976D01*
X23749Y-26987D01*
X23738Y-26998D01*
X23733D01*
X23605Y-27071D01*
X23472Y-27126D01*
X23350Y-27171D01*
X23239Y-27204D01*
X23139Y-27226D01*
X23100Y-27231D01*
X23067Y-27237D01*
X23039Y-27243D01*
X23017Y-27248D01*
X23006D01*
X23000D01*
Y-24667D01*
X23683D01*
Y-26133D01*
X23755Y-26088D01*
X23816Y-26038D01*
X23844Y-26016D01*
X23866Y-26000D01*
X23877Y-25988D01*
X23882Y-25983D01*
X23905Y-25961D01*
X23932Y-25938D01*
X23993Y-25872D01*
X24066Y-25800D01*
X24138Y-25727D01*
X24204Y-25655D01*
X24260Y-25594D01*
X24282Y-25572D01*
X24299Y-25555D01*
X24304Y-25544D01*
X24310Y-25539D01*
X24426Y-25417D01*
X24521Y-25317D01*
X24610Y-25234D01*
X24676Y-25167D01*
X24732Y-25117D01*
X24770Y-25084D01*
X24798Y-25062D01*
X24804Y-25056D01*
X24898Y-24984D01*
X24987Y-24923D01*
X25070Y-24873D01*
X25142Y-24834D01*
X25203Y-24801D01*
X25253Y-24779D01*
X25281Y-24767D01*
X25292Y-24762D01*
X25381Y-24728D01*
X25470Y-24706D01*
X25553Y-24690D01*
X25631Y-24679D01*
X25692Y-24673D01*
X25742Y-24667D01*
X25775D01*
X25786D01*
X25869Y-24673D01*
D02*
G37*
G36*
X24410Y-28414D02*
X24260Y-28458D01*
X24132Y-28508D01*
X24027Y-28558D01*
X23938Y-28613D01*
X23871Y-28658D01*
X23827Y-28697D01*
X23799Y-28725D01*
X23788Y-28736D01*
X23721Y-28824D01*
X23677Y-28913D01*
X23644Y-29002D01*
X23616Y-29080D01*
X23605Y-29152D01*
X23599Y-29213D01*
X23594Y-29235D01*
Y-29263D01*
X23599Y-29341D01*
X23605Y-29413D01*
X23644Y-29546D01*
X23688Y-29662D01*
X23749Y-29757D01*
X23805Y-29834D01*
X23849Y-29890D01*
X23871Y-29912D01*
X23888Y-29929D01*
X23893Y-29934D01*
X23899Y-29940D01*
X23960Y-29984D01*
X24032Y-30023D01*
X24110Y-30062D01*
X24193Y-30090D01*
X24365Y-30134D01*
X24537Y-30167D01*
X24621Y-30179D01*
X24693Y-30184D01*
X24765Y-30195D01*
X24826D01*
X24870Y-30201D01*
X24909D01*
X24937D01*
X24942D01*
X25070Y-30195D01*
X25187Y-30190D01*
X25292Y-30179D01*
X25392Y-30162D01*
X25481Y-30140D01*
X25564Y-30117D01*
X25636Y-30095D01*
X25703Y-30068D01*
X25758Y-30045D01*
X25808Y-30023D01*
X25847Y-30001D01*
X25881Y-29979D01*
X25908Y-29962D01*
X25925Y-29951D01*
X25936Y-29940D01*
X25942D01*
X25997Y-29890D01*
X26047Y-29834D01*
X26086Y-29779D01*
X26119Y-29718D01*
X26175Y-29601D01*
X26213Y-29490D01*
X26236Y-29396D01*
X26241Y-29352D01*
X26247Y-29318D01*
X26252Y-29285D01*
Y-29246D01*
X26247Y-29135D01*
X26224Y-29035D01*
X26197Y-28947D01*
X26164Y-28869D01*
X26130Y-28808D01*
X26102Y-28763D01*
X26080Y-28736D01*
X26075Y-28725D01*
X26008Y-28652D01*
X25930Y-28586D01*
X25853Y-28536D01*
X25775Y-28497D01*
X25708Y-28469D01*
X25658Y-28453D01*
X25636Y-28441D01*
X25620D01*
X25614Y-28436D01*
X25609D01*
X25792Y-27670D01*
X25953Y-27725D01*
X26091Y-27786D01*
X26213Y-27853D01*
X26313Y-27914D01*
X26391Y-27975D01*
X26424Y-27997D01*
X26452Y-28020D01*
X26469Y-28036D01*
X26485Y-28053D01*
X26496Y-28058D01*
Y-28064D01*
X26569Y-28147D01*
X26635Y-28242D01*
X26691Y-28330D01*
X26735Y-28425D01*
X26780Y-28525D01*
X26813Y-28619D01*
X26841Y-28713D01*
X26863Y-28802D01*
X26880Y-28885D01*
X26891Y-28963D01*
X26902Y-29030D01*
X26907Y-29091D01*
X26913Y-29141D01*
Y-29207D01*
X26907Y-29352D01*
X26891Y-29496D01*
X26863Y-29624D01*
X26829Y-29751D01*
X26791Y-29862D01*
X26746Y-29973D01*
X26696Y-30068D01*
X26646Y-30156D01*
X26596Y-30240D01*
X26546Y-30306D01*
X26502Y-30367D01*
X26463Y-30417D01*
X26430Y-30456D01*
X26402Y-30484D01*
X26386Y-30501D01*
X26380Y-30506D01*
X26274Y-30595D01*
X26164Y-30667D01*
X26047Y-30734D01*
X25925Y-30789D01*
X25797Y-30839D01*
X25675Y-30878D01*
X25553Y-30911D01*
X25436Y-30939D01*
X25320Y-30961D01*
X25220Y-30972D01*
X25126Y-30983D01*
X25048Y-30994D01*
X24981D01*
X24931Y-31000D01*
X24898D01*
X24893D01*
X24887D01*
X24721Y-30994D01*
X24565Y-30978D01*
X24415Y-30956D01*
X24282Y-30922D01*
X24154Y-30889D01*
X24032Y-30845D01*
X23927Y-30800D01*
X23832Y-30756D01*
X23744Y-30711D01*
X23666Y-30667D01*
X23605Y-30623D01*
X23549Y-30589D01*
X23511Y-30556D01*
X23477Y-30534D01*
X23461Y-30517D01*
X23455Y-30512D01*
X23361Y-30417D01*
X23283Y-30317D01*
X23211Y-30212D01*
X23155Y-30106D01*
X23105Y-30001D01*
X23061Y-29895D01*
X23028Y-29796D01*
X23000Y-29701D01*
X22978Y-29607D01*
X22961Y-29524D01*
X22950Y-29446D01*
X22944Y-29385D01*
X22939Y-29329D01*
X22933Y-29291D01*
Y-29257D01*
X22939Y-29141D01*
X22944Y-29035D01*
X22961Y-28930D01*
X22983Y-28835D01*
X23006Y-28747D01*
X23028Y-28664D01*
X23055Y-28586D01*
X23089Y-28514D01*
X23117Y-28453D01*
X23144Y-28397D01*
X23167Y-28347D01*
X23189Y-28308D01*
X23211Y-28275D01*
X23227Y-28253D01*
X23233Y-28242D01*
X23239Y-28236D01*
X23300Y-28164D01*
X23366Y-28097D01*
X23516Y-27975D01*
X23672Y-27875D01*
X23821Y-27798D01*
X23893Y-27764D01*
X23960Y-27737D01*
X24021Y-27714D01*
X24071Y-27692D01*
X24115Y-27676D01*
X24149Y-27664D01*
X24171Y-27659D01*
X24177D01*
X24410Y-28414D01*
D02*
G37*
G36*
X87154Y-9765D02*
X87226Y-9881D01*
X87304Y-9992D01*
X87382Y-10081D01*
X87449Y-10153D01*
X87510Y-10209D01*
X87532Y-10231D01*
X87548Y-10248D01*
X87559Y-10253D01*
X87565Y-10259D01*
X87687Y-10348D01*
X87804Y-10425D01*
X87909Y-10486D01*
X88003Y-10531D01*
X88081Y-10564D01*
X88137Y-10592D01*
X88159Y-10597D01*
X88175Y-10603D01*
X88181Y-10609D01*
X88187D01*
Y-11275D01*
X87987Y-11197D01*
X87809Y-11113D01*
X87726Y-11069D01*
X87648Y-11019D01*
X87576Y-10975D01*
X87510Y-10930D01*
X87449Y-10886D01*
X87393Y-10847D01*
X87349Y-10814D01*
X87310Y-10780D01*
X87276Y-10753D01*
X87254Y-10736D01*
X87243Y-10725D01*
X87238Y-10719D01*
Y-13500D01*
X86500D01*
Y-9637D01*
X87099D01*
X87154Y-9765D01*
D02*
G37*
G36*
X89818Y-12151D02*
Y-12235D01*
X89824Y-12312D01*
X89829Y-12379D01*
X89835Y-12445D01*
X89846Y-12501D01*
X89852Y-12551D01*
X89863Y-12595D01*
X89874Y-12634D01*
X89896Y-12695D01*
X89913Y-12734D01*
X89924Y-12762D01*
X89929Y-12767D01*
X89974Y-12817D01*
X90029Y-12851D01*
X90090Y-12878D01*
X90151Y-12895D01*
X90201Y-12906D01*
X90246Y-12912D01*
X90290D01*
X90379Y-12901D01*
X90457Y-12878D01*
X90523Y-12845D01*
X90573Y-12806D01*
X90618Y-12773D01*
X90645Y-12740D01*
X90662Y-12717D01*
X90667Y-12706D01*
X90695Y-12645D01*
X90717Y-12579D01*
X90734Y-12501D01*
X90745Y-12423D01*
X90756Y-12351D01*
Y-12296D01*
X90762Y-12273D01*
Y-12257D01*
Y-12246D01*
Y-12240D01*
X91500Y-12323D01*
X91494Y-12434D01*
X91489Y-12540D01*
X91472Y-12640D01*
X91450Y-12729D01*
X91428Y-12812D01*
X91406Y-12889D01*
X91378Y-12956D01*
X91345Y-13023D01*
X91317Y-13073D01*
X91289Y-13123D01*
X91267Y-13161D01*
X91245Y-13195D01*
X91223Y-13223D01*
X91206Y-13239D01*
X91200Y-13250D01*
X91195Y-13256D01*
X91134Y-13311D01*
X91067Y-13361D01*
X91000Y-13400D01*
X90928Y-13439D01*
X90856Y-13467D01*
X90784Y-13495D01*
X90640Y-13533D01*
X90573Y-13544D01*
X90512Y-13555D01*
X90462Y-13561D01*
X90412Y-13567D01*
X90373Y-13572D01*
X90318D01*
X90146Y-13561D01*
X89990Y-13539D01*
X89857Y-13511D01*
X89802Y-13489D01*
X89746Y-13472D01*
X89702Y-13456D01*
X89657Y-13433D01*
X89624Y-13417D01*
X89596Y-13406D01*
X89569Y-13389D01*
X89552Y-13383D01*
X89546Y-13372D01*
X89541D01*
X89435Y-13289D01*
X89352Y-13200D01*
X89280Y-13112D01*
X89224Y-13028D01*
X89180Y-12951D01*
X89152Y-12889D01*
X89141Y-12867D01*
X89136Y-12851D01*
X89130Y-12840D01*
Y-12834D01*
X89102Y-12729D01*
X89080Y-12606D01*
X89064Y-12484D01*
X89052Y-12368D01*
X89047Y-12262D01*
X89041Y-12212D01*
Y-12174D01*
Y-12140D01*
Y-12118D01*
Y-12101D01*
Y-12096D01*
Y-9659D01*
X89818D01*
Y-12151D01*
D02*
G37*
G36*
X62603Y-135185D02*
X62675Y-135302D01*
X62753Y-135413D01*
X62831Y-135502D01*
X62897Y-135574D01*
X62958Y-135629D01*
X62981Y-135651D01*
X62997Y-135668D01*
X63008Y-135674D01*
X63014Y-135679D01*
X63136Y-135768D01*
X63253Y-135846D01*
X63358Y-135907D01*
X63452Y-135951D01*
X63530Y-135984D01*
X63586Y-136012D01*
X63608Y-136018D01*
X63624Y-136023D01*
X63630Y-136029D01*
X63635D01*
Y-136695D01*
X63436Y-136617D01*
X63258Y-136534D01*
X63175Y-136489D01*
X63097Y-136440D01*
X63025Y-136395D01*
X62958Y-136351D01*
X62897Y-136306D01*
X62842Y-136267D01*
X62797Y-136234D01*
X62759Y-136201D01*
X62725Y-136173D01*
X62703Y-136156D01*
X62692Y-136145D01*
X62686Y-136140D01*
Y-138920D01*
X61948D01*
Y-135057D01*
X62548D01*
X62603Y-135185D01*
D02*
G37*
G36*
X66027Y-135013D02*
X66172Y-135030D01*
X66299Y-135057D01*
X66427Y-135091D01*
X66538Y-135130D01*
X66649Y-135174D01*
X66743Y-135224D01*
X66832Y-135274D01*
X66916Y-135324D01*
X66982Y-135374D01*
X67043Y-135418D01*
X67093Y-135457D01*
X67132Y-135490D01*
X67160Y-135518D01*
X67176Y-135535D01*
X67182Y-135540D01*
X67271Y-135646D01*
X67343Y-135757D01*
X67409Y-135873D01*
X67465Y-135995D01*
X67515Y-136123D01*
X67554Y-136245D01*
X67587Y-136367D01*
X67615Y-136484D01*
X67637Y-136600D01*
X67648Y-136700D01*
X67659Y-136795D01*
X67670Y-136872D01*
Y-136939D01*
X67676Y-136989D01*
Y-137022D01*
Y-137028D01*
Y-137033D01*
X67670Y-137200D01*
X67654Y-137355D01*
X67632Y-137505D01*
X67598Y-137638D01*
X67565Y-137766D01*
X67520Y-137888D01*
X67476Y-137994D01*
X67432Y-138088D01*
X67387Y-138177D01*
X67343Y-138254D01*
X67299Y-138315D01*
X67265Y-138371D01*
X67232Y-138410D01*
X67210Y-138443D01*
X67193Y-138460D01*
X67188Y-138465D01*
X67093Y-138559D01*
X66993Y-138637D01*
X66888Y-138709D01*
X66782Y-138765D01*
X66677Y-138815D01*
X66571Y-138859D01*
X66471Y-138893D01*
X66377Y-138920D01*
X66283Y-138943D01*
X66200Y-138959D01*
X66122Y-138970D01*
X66061Y-138976D01*
X66005Y-138981D01*
X65966Y-138987D01*
X65933D01*
X65817Y-138981D01*
X65711Y-138976D01*
X65606Y-138959D01*
X65511Y-138937D01*
X65423Y-138915D01*
X65339Y-138893D01*
X65262Y-138865D01*
X65189Y-138831D01*
X65128Y-138804D01*
X65073Y-138776D01*
X65023Y-138754D01*
X64984Y-138732D01*
X64951Y-138709D01*
X64929Y-138693D01*
X64917Y-138687D01*
X64912Y-138682D01*
X64840Y-138621D01*
X64773Y-138554D01*
X64651Y-138404D01*
X64551Y-138249D01*
X64473Y-138099D01*
X64440Y-138027D01*
X64412Y-137960D01*
X64390Y-137899D01*
X64368Y-137849D01*
X64351Y-137805D01*
X64340Y-137771D01*
X64335Y-137749D01*
Y-137744D01*
X65090Y-137511D01*
X65134Y-137660D01*
X65184Y-137788D01*
X65234Y-137894D01*
X65289Y-137982D01*
X65334Y-138049D01*
X65373Y-138093D01*
X65400Y-138121D01*
X65412Y-138132D01*
X65500Y-138199D01*
X65589Y-138243D01*
X65678Y-138277D01*
X65756Y-138304D01*
X65828Y-138315D01*
X65889Y-138321D01*
X65911Y-138326D01*
X65939D01*
X66016Y-138321D01*
X66089Y-138315D01*
X66222Y-138277D01*
X66338Y-138232D01*
X66433Y-138171D01*
X66510Y-138116D01*
X66566Y-138071D01*
X66588Y-138049D01*
X66605Y-138032D01*
X66610Y-138027D01*
X66616Y-138021D01*
X66660Y-137960D01*
X66699Y-137888D01*
X66738Y-137810D01*
X66766Y-137727D01*
X66810Y-137555D01*
X66843Y-137383D01*
X66855Y-137300D01*
X66860Y-137227D01*
X66871Y-137155D01*
Y-137094D01*
X66877Y-137050D01*
Y-137011D01*
Y-136983D01*
Y-136978D01*
X66871Y-136850D01*
X66866Y-136734D01*
X66855Y-136628D01*
X66838Y-136528D01*
X66816Y-136440D01*
X66793Y-136356D01*
X66771Y-136284D01*
X66743Y-136217D01*
X66721Y-136162D01*
X66699Y-136112D01*
X66677Y-136073D01*
X66655Y-136040D01*
X66638Y-136012D01*
X66627Y-135995D01*
X66616Y-135984D01*
Y-135979D01*
X66566Y-135923D01*
X66510Y-135873D01*
X66455Y-135835D01*
X66394Y-135801D01*
X66277Y-135746D01*
X66166Y-135707D01*
X66072Y-135685D01*
X66027Y-135679D01*
X65994Y-135674D01*
X65961Y-135668D01*
X65922D01*
X65811Y-135674D01*
X65711Y-135696D01*
X65622Y-135723D01*
X65545Y-135757D01*
X65484Y-135790D01*
X65439Y-135818D01*
X65412Y-135840D01*
X65400Y-135846D01*
X65328Y-135912D01*
X65262Y-135990D01*
X65212Y-136068D01*
X65173Y-136145D01*
X65145Y-136212D01*
X65128Y-136262D01*
X65117Y-136284D01*
Y-136301D01*
X65112Y-136306D01*
Y-136312D01*
X64346Y-136129D01*
X64401Y-135968D01*
X64462Y-135829D01*
X64529Y-135707D01*
X64590Y-135607D01*
X64651Y-135529D01*
X64673Y-135496D01*
X64696Y-135468D01*
X64712Y-135451D01*
X64729Y-135435D01*
X64734Y-135424D01*
X64740D01*
X64823Y-135352D01*
X64917Y-135285D01*
X65006Y-135230D01*
X65101Y-135185D01*
X65201Y-135141D01*
X65295Y-135107D01*
X65389Y-135080D01*
X65478Y-135057D01*
X65561Y-135041D01*
X65639Y-135030D01*
X65706Y-135019D01*
X65767Y-135013D01*
X65817Y-135008D01*
X65883D01*
X66027Y-135013D01*
D02*
G37*
G36*
X59706Y-135063D02*
X59800Y-135069D01*
X59889Y-135085D01*
X59973Y-135102D01*
X60050Y-135124D01*
X60122Y-135146D01*
X60183Y-135174D01*
X60239Y-135196D01*
X60294Y-135224D01*
X60339Y-135252D01*
X60372Y-135274D01*
X60405Y-135296D01*
X60428Y-135313D01*
X60444Y-135329D01*
X60455Y-135335D01*
X60461Y-135341D01*
X60511Y-135396D01*
X60561Y-135451D01*
X60600Y-135513D01*
X60633Y-135568D01*
X60688Y-135690D01*
X60722Y-135801D01*
X60744Y-135901D01*
X60750Y-135945D01*
X60755Y-135979D01*
X60761Y-136012D01*
Y-136034D01*
Y-136045D01*
Y-136051D01*
X60755Y-136145D01*
X60738Y-136229D01*
X60722Y-136312D01*
X60694Y-136378D01*
X60672Y-136440D01*
X60655Y-136478D01*
X60638Y-136506D01*
X60633Y-136517D01*
X60577Y-136589D01*
X60511Y-136656D01*
X60444Y-136711D01*
X60372Y-136761D01*
X60311Y-136795D01*
X60261Y-136822D01*
X60228Y-136839D01*
X60222Y-136845D01*
X60217D01*
X60333Y-136906D01*
X60433Y-136967D01*
X60516Y-137033D01*
X60583Y-137100D01*
X60638Y-137161D01*
X60677Y-137205D01*
X60699Y-137239D01*
X60705Y-137244D01*
Y-137250D01*
X60755Y-137350D01*
X60794Y-137450D01*
X60816Y-137549D01*
X60838Y-137638D01*
X60849Y-137710D01*
X60855Y-137771D01*
Y-137794D01*
Y-137810D01*
Y-137821D01*
Y-137827D01*
X60849Y-137932D01*
X60838Y-138027D01*
X60816Y-138121D01*
X60788Y-138204D01*
X60761Y-138288D01*
X60727Y-138360D01*
X60688Y-138426D01*
X60650Y-138487D01*
X60611Y-138537D01*
X60572Y-138587D01*
X60539Y-138626D01*
X60511Y-138659D01*
X60483Y-138687D01*
X60461Y-138704D01*
X60450Y-138715D01*
X60444Y-138721D01*
X60378Y-138770D01*
X60306Y-138809D01*
X60233Y-138848D01*
X60161Y-138876D01*
X60017Y-138926D01*
X59878Y-138959D01*
X59812Y-138970D01*
X59756Y-138976D01*
X59706Y-138981D01*
X59662Y-138987D01*
X59623Y-138993D01*
X59573D01*
X59467Y-138987D01*
X59373Y-138976D01*
X59279Y-138959D01*
X59190Y-138943D01*
X59112Y-138915D01*
X59040Y-138887D01*
X58968Y-138859D01*
X58907Y-138826D01*
X58851Y-138793D01*
X58807Y-138765D01*
X58763Y-138737D01*
X58729Y-138709D01*
X58701Y-138693D01*
X58685Y-138676D01*
X58674Y-138665D01*
X58668Y-138659D01*
X58607Y-138593D01*
X58557Y-138526D01*
X58507Y-138454D01*
X58468Y-138382D01*
X58435Y-138310D01*
X58407Y-138238D01*
X58368Y-138099D01*
X58352Y-138038D01*
X58341Y-137982D01*
X58335Y-137927D01*
X58330Y-137882D01*
X58324Y-137844D01*
Y-137816D01*
Y-137799D01*
Y-137794D01*
X58330Y-137677D01*
X58352Y-137572D01*
X58374Y-137472D01*
X58407Y-137389D01*
X58435Y-137322D01*
X58463Y-137272D01*
X58485Y-137239D01*
X58491Y-137227D01*
X58557Y-137139D01*
X58635Y-137061D01*
X58718Y-136995D01*
X58796Y-136944D01*
X58868Y-136900D01*
X58924Y-136867D01*
X58946Y-136856D01*
X58962Y-136850D01*
X58973Y-136845D01*
X58979D01*
X58890Y-136800D01*
X58812Y-136750D01*
X58746Y-136700D01*
X58690Y-136645D01*
X58646Y-136600D01*
X58618Y-136562D01*
X58596Y-136539D01*
X58591Y-136528D01*
X58541Y-136445D01*
X58507Y-136362D01*
X58479Y-136284D01*
X58463Y-136212D01*
X58452Y-136145D01*
X58446Y-136095D01*
Y-136062D01*
Y-136056D01*
Y-136051D01*
X58452Y-135973D01*
X58457Y-135896D01*
X58496Y-135757D01*
X58541Y-135640D01*
X58596Y-135535D01*
X58657Y-135451D01*
X58679Y-135418D01*
X58701Y-135390D01*
X58724Y-135368D01*
X58740Y-135352D01*
X58746Y-135346D01*
X58751Y-135341D01*
X58812Y-135291D01*
X58874Y-135246D01*
X58946Y-135207D01*
X59012Y-135174D01*
X59157Y-135124D01*
X59295Y-135091D01*
X59356Y-135080D01*
X59417Y-135074D01*
X59467Y-135069D01*
X59517Y-135063D01*
X59551Y-135057D01*
X59606D01*
X59706Y-135063D01*
D02*
G37*
G36*
X62598Y-152185D02*
X62670Y-152302D01*
X62748Y-152413D01*
X62825Y-152501D01*
X62892Y-152574D01*
X62953Y-152629D01*
X62975Y-152651D01*
X62992Y-152668D01*
X63003Y-152674D01*
X63008Y-152679D01*
X63130Y-152768D01*
X63247Y-152846D01*
X63352Y-152907D01*
X63447Y-152951D01*
X63525Y-152984D01*
X63580Y-153012D01*
X63602Y-153018D01*
X63619Y-153023D01*
X63624Y-153029D01*
X63630D01*
Y-153695D01*
X63430Y-153617D01*
X63253Y-153534D01*
X63169Y-153489D01*
X63092Y-153439D01*
X63019Y-153395D01*
X62953Y-153351D01*
X62892Y-153306D01*
X62836Y-153267D01*
X62792Y-153234D01*
X62753Y-153201D01*
X62720Y-153173D01*
X62697Y-153156D01*
X62686Y-153145D01*
X62681Y-153140D01*
Y-155920D01*
X61943D01*
Y-152058D01*
X62542D01*
X62598Y-152185D01*
D02*
G37*
G36*
X59767Y-152063D02*
X59856Y-152074D01*
X59945Y-152091D01*
X60028Y-152113D01*
X60106Y-152141D01*
X60178Y-152174D01*
X60250Y-152202D01*
X60306Y-152235D01*
X60361Y-152274D01*
X60411Y-152302D01*
X60450Y-152335D01*
X60489Y-152363D01*
X60516Y-152385D01*
X60533Y-152402D01*
X60544Y-152413D01*
X60550Y-152418D01*
X60611Y-152490D01*
X60661Y-152563D01*
X60711Y-152640D01*
X60750Y-152718D01*
X60783Y-152796D01*
X60811Y-152879D01*
X60849Y-153029D01*
X60866Y-153095D01*
X60877Y-153162D01*
X60883Y-153217D01*
X60888Y-153267D01*
X60894Y-153312D01*
Y-153340D01*
Y-153362D01*
Y-153367D01*
X60888Y-153467D01*
X60877Y-153567D01*
X60866Y-153661D01*
X60844Y-153745D01*
X60816Y-153828D01*
X60788Y-153900D01*
X60761Y-153972D01*
X60727Y-154033D01*
X60699Y-154089D01*
X60672Y-154139D01*
X60644Y-154178D01*
X60616Y-154217D01*
X60594Y-154239D01*
X60583Y-154261D01*
X60572Y-154272D01*
X60566Y-154278D01*
X60505Y-154339D01*
X60439Y-154394D01*
X60372Y-154438D01*
X60306Y-154477D01*
X60239Y-154511D01*
X60178Y-154544D01*
X60056Y-154583D01*
X59950Y-154611D01*
X59906Y-154616D01*
X59867Y-154622D01*
X59834Y-154627D01*
X59789D01*
X59712Y-154622D01*
X59640Y-154611D01*
X59573Y-154599D01*
X59506Y-154577D01*
X59384Y-154527D01*
X59284Y-154466D01*
X59207Y-154405D01*
X59173Y-154377D01*
X59145Y-154355D01*
X59123Y-154333D01*
X59107Y-154316D01*
X59101Y-154311D01*
X59096Y-154305D01*
X59107Y-154422D01*
X59118Y-154533D01*
X59129Y-154633D01*
X59145Y-154721D01*
X59162Y-154799D01*
X59179Y-154871D01*
X59196Y-154932D01*
X59212Y-154988D01*
X59234Y-155038D01*
X59245Y-155077D01*
X59262Y-155110D01*
X59273Y-155132D01*
X59284Y-155154D01*
X59295Y-155166D01*
X59301Y-155177D01*
X59362Y-155243D01*
X59429Y-155293D01*
X59490Y-155332D01*
X59551Y-155354D01*
X59606Y-155371D01*
X59645Y-155376D01*
X59673Y-155382D01*
X59684D01*
X59745Y-155376D01*
X59806Y-155365D01*
X59850Y-155349D01*
X59895Y-155332D01*
X59928Y-155315D01*
X59950Y-155299D01*
X59967Y-155288D01*
X59973Y-155282D01*
X60011Y-155238D01*
X60039Y-155188D01*
X60061Y-155132D01*
X60078Y-155077D01*
X60095Y-155032D01*
X60100Y-154993D01*
X60106Y-154966D01*
Y-154955D01*
X60816Y-155038D01*
X60799Y-155127D01*
X60777Y-155204D01*
X60755Y-155282D01*
X60727Y-155349D01*
X60699Y-155415D01*
X60672Y-155476D01*
X60638Y-155526D01*
X60611Y-155576D01*
X60577Y-155615D01*
X60555Y-155654D01*
X60527Y-155682D01*
X60505Y-155709D01*
X60489Y-155726D01*
X60472Y-155743D01*
X60466Y-155748D01*
X60461Y-155754D01*
X60405Y-155798D01*
X60350Y-155832D01*
X60228Y-155893D01*
X60111Y-155931D01*
X59995Y-155965D01*
X59889Y-155981D01*
X59845Y-155987D01*
X59806D01*
X59778Y-155992D01*
X59734D01*
X59617Y-155987D01*
X59512Y-155970D01*
X59412Y-155948D01*
X59312Y-155920D01*
X59223Y-155881D01*
X59140Y-155843D01*
X59062Y-155804D01*
X58996Y-155759D01*
X58935Y-155715D01*
X58879Y-155676D01*
X58835Y-155632D01*
X58796Y-155598D01*
X58763Y-155571D01*
X58740Y-155549D01*
X58729Y-155532D01*
X58724Y-155526D01*
X58652Y-155432D01*
X58596Y-155326D01*
X58541Y-155210D01*
X58496Y-155093D01*
X58457Y-154966D01*
X58424Y-154838D01*
X58402Y-154716D01*
X58380Y-154588D01*
X58363Y-154472D01*
X58352Y-154366D01*
X58341Y-154266D01*
X58335Y-154178D01*
X58330Y-154105D01*
Y-154050D01*
Y-154033D01*
Y-154017D01*
Y-154011D01*
Y-154006D01*
X58335Y-153817D01*
X58346Y-153645D01*
X58363Y-153484D01*
X58391Y-153334D01*
X58419Y-153201D01*
X58446Y-153079D01*
X58485Y-152968D01*
X58518Y-152868D01*
X58552Y-152785D01*
X58585Y-152712D01*
X58618Y-152651D01*
X58646Y-152601D01*
X58674Y-152563D01*
X58690Y-152535D01*
X58701Y-152518D01*
X58707Y-152513D01*
X58779Y-152435D01*
X58857Y-152363D01*
X58935Y-152302D01*
X59012Y-152252D01*
X59096Y-152207D01*
X59173Y-152169D01*
X59251Y-152141D01*
X59329Y-152113D01*
X59395Y-152096D01*
X59462Y-152080D01*
X59517Y-152069D01*
X59567Y-152063D01*
X59612D01*
X59640Y-152058D01*
X59667D01*
X59767Y-152063D01*
D02*
G37*
G36*
X66022Y-152013D02*
X66166Y-152030D01*
X66294Y-152058D01*
X66422Y-152091D01*
X66533Y-152130D01*
X66644Y-152174D01*
X66738Y-152224D01*
X66827Y-152274D01*
X66910Y-152324D01*
X66977Y-152374D01*
X67038Y-152418D01*
X67088Y-152457D01*
X67126Y-152490D01*
X67154Y-152518D01*
X67171Y-152535D01*
X67176Y-152540D01*
X67265Y-152646D01*
X67337Y-152757D01*
X67404Y-152873D01*
X67459Y-152996D01*
X67509Y-153123D01*
X67548Y-153245D01*
X67581Y-153367D01*
X67609Y-153484D01*
X67632Y-153600D01*
X67643Y-153700D01*
X67654Y-153795D01*
X67665Y-153872D01*
Y-153939D01*
X67670Y-153989D01*
Y-154022D01*
Y-154028D01*
Y-154033D01*
X67665Y-154200D01*
X67648Y-154355D01*
X67626Y-154505D01*
X67593Y-154638D01*
X67559Y-154766D01*
X67515Y-154888D01*
X67471Y-154993D01*
X67426Y-155088D01*
X67382Y-155177D01*
X67337Y-155254D01*
X67293Y-155315D01*
X67260Y-155371D01*
X67226Y-155410D01*
X67204Y-155443D01*
X67188Y-155460D01*
X67182Y-155465D01*
X67088Y-155560D01*
X66988Y-155637D01*
X66882Y-155709D01*
X66777Y-155765D01*
X66671Y-155815D01*
X66566Y-155859D01*
X66466Y-155893D01*
X66372Y-155920D01*
X66277Y-155942D01*
X66194Y-155959D01*
X66116Y-155970D01*
X66055Y-155976D01*
X66000Y-155981D01*
X65961Y-155987D01*
X65928D01*
X65811Y-155981D01*
X65706Y-155976D01*
X65600Y-155959D01*
X65506Y-155937D01*
X65417Y-155915D01*
X65334Y-155893D01*
X65256Y-155865D01*
X65184Y-155832D01*
X65123Y-155804D01*
X65067Y-155776D01*
X65017Y-155754D01*
X64979Y-155732D01*
X64945Y-155709D01*
X64923Y-155693D01*
X64912Y-155687D01*
X64906Y-155682D01*
X64834Y-155621D01*
X64768Y-155554D01*
X64646Y-155404D01*
X64546Y-155249D01*
X64468Y-155099D01*
X64435Y-155027D01*
X64407Y-154960D01*
X64385Y-154899D01*
X64363Y-154849D01*
X64346Y-154805D01*
X64335Y-154771D01*
X64329Y-154749D01*
Y-154744D01*
X65084Y-154511D01*
X65128Y-154660D01*
X65178Y-154788D01*
X65228Y-154894D01*
X65284Y-154982D01*
X65328Y-155049D01*
X65367Y-155093D01*
X65395Y-155121D01*
X65406Y-155132D01*
X65495Y-155199D01*
X65583Y-155243D01*
X65672Y-155277D01*
X65750Y-155304D01*
X65822Y-155315D01*
X65883Y-155321D01*
X65905Y-155326D01*
X65933D01*
X66011Y-155321D01*
X66083Y-155315D01*
X66216Y-155277D01*
X66333Y-155232D01*
X66427Y-155171D01*
X66505Y-155116D01*
X66560Y-155071D01*
X66583Y-155049D01*
X66599Y-155032D01*
X66605Y-155027D01*
X66610Y-155021D01*
X66655Y-154960D01*
X66694Y-154888D01*
X66732Y-154810D01*
X66760Y-154727D01*
X66804Y-154555D01*
X66838Y-154383D01*
X66849Y-154300D01*
X66855Y-154227D01*
X66866Y-154155D01*
Y-154094D01*
X66871Y-154050D01*
Y-154011D01*
Y-153983D01*
Y-153978D01*
X66866Y-153850D01*
X66860Y-153734D01*
X66849Y-153628D01*
X66832Y-153528D01*
X66810Y-153439D01*
X66788Y-153356D01*
X66766Y-153284D01*
X66738Y-153217D01*
X66716Y-153162D01*
X66694Y-153112D01*
X66671Y-153073D01*
X66649Y-153040D01*
X66632Y-153012D01*
X66621Y-152996D01*
X66610Y-152984D01*
Y-152979D01*
X66560Y-152923D01*
X66505Y-152873D01*
X66449Y-152834D01*
X66388Y-152801D01*
X66272Y-152746D01*
X66161Y-152707D01*
X66066Y-152685D01*
X66022Y-152679D01*
X65989Y-152674D01*
X65955Y-152668D01*
X65917D01*
X65806Y-152674D01*
X65706Y-152696D01*
X65617Y-152724D01*
X65539Y-152757D01*
X65478Y-152790D01*
X65434Y-152818D01*
X65406Y-152840D01*
X65395Y-152846D01*
X65323Y-152912D01*
X65256Y-152990D01*
X65206Y-153068D01*
X65167Y-153145D01*
X65140Y-153212D01*
X65123Y-153262D01*
X65112Y-153284D01*
Y-153301D01*
X65106Y-153306D01*
Y-153312D01*
X64340Y-153129D01*
X64396Y-152968D01*
X64457Y-152829D01*
X64524Y-152707D01*
X64584Y-152607D01*
X64646Y-152529D01*
X64668Y-152496D01*
X64690Y-152468D01*
X64707Y-152452D01*
X64723Y-152435D01*
X64729Y-152424D01*
X64734D01*
X64818Y-152352D01*
X64912Y-152285D01*
X65001Y-152229D01*
X65095Y-152185D01*
X65195Y-152141D01*
X65289Y-152107D01*
X65384Y-152080D01*
X65473Y-152058D01*
X65556Y-152041D01*
X65633Y-152030D01*
X65700Y-152019D01*
X65761Y-152013D01*
X65811Y-152007D01*
X65878D01*
X66022Y-152013D01*
D02*
G37*
G36*
X65635Y-143538D02*
X65724Y-143549D01*
X65812Y-143566D01*
X65896Y-143588D01*
X65973Y-143616D01*
X66045Y-143649D01*
X66118Y-143677D01*
X66173Y-143710D01*
X66228Y-143749D01*
X66278Y-143777D01*
X66317Y-143810D01*
X66356Y-143838D01*
X66384Y-143860D01*
X66401Y-143877D01*
X66412Y-143888D01*
X66417Y-143893D01*
X66478Y-143965D01*
X66528Y-144038D01*
X66578Y-144115D01*
X66617Y-144193D01*
X66650Y-144271D01*
X66678Y-144354D01*
X66717Y-144504D01*
X66734Y-144570D01*
X66745Y-144637D01*
X66750Y-144693D01*
X66756Y-144742D01*
X66761Y-144787D01*
Y-144815D01*
Y-144837D01*
Y-144842D01*
X66756Y-144942D01*
X66745Y-145042D01*
X66734Y-145136D01*
X66711Y-145220D01*
X66684Y-145303D01*
X66656Y-145375D01*
X66628Y-145447D01*
X66595Y-145508D01*
X66567Y-145564D01*
X66539Y-145614D01*
X66512Y-145653D01*
X66484Y-145692D01*
X66462Y-145714D01*
X66451Y-145736D01*
X66439Y-145747D01*
X66434Y-145753D01*
X66373Y-145814D01*
X66306Y-145869D01*
X66240Y-145914D01*
X66173Y-145952D01*
X66106Y-145986D01*
X66045Y-146019D01*
X65923Y-146058D01*
X65818Y-146086D01*
X65773Y-146091D01*
X65735Y-146097D01*
X65701Y-146102D01*
X65657D01*
X65579Y-146097D01*
X65507Y-146086D01*
X65440Y-146074D01*
X65374Y-146052D01*
X65252Y-146002D01*
X65152Y-145941D01*
X65074Y-145880D01*
X65041Y-145852D01*
X65013Y-145830D01*
X64991Y-145808D01*
X64974Y-145791D01*
X64969Y-145786D01*
X64963Y-145780D01*
X64974Y-145897D01*
X64985Y-146008D01*
X64996Y-146108D01*
X65013Y-146196D01*
X65030Y-146274D01*
X65046Y-146346D01*
X65063Y-146407D01*
X65080Y-146463D01*
X65102Y-146513D01*
X65113Y-146552D01*
X65130Y-146585D01*
X65141Y-146607D01*
X65152Y-146629D01*
X65163Y-146641D01*
X65168Y-146652D01*
X65229Y-146718D01*
X65296Y-146768D01*
X65357Y-146807D01*
X65418Y-146829D01*
X65474Y-146846D01*
X65513Y-146851D01*
X65540Y-146857D01*
X65551D01*
X65613Y-146851D01*
X65674Y-146840D01*
X65718Y-146824D01*
X65762Y-146807D01*
X65796Y-146790D01*
X65818Y-146774D01*
X65834Y-146763D01*
X65840Y-146757D01*
X65879Y-146713D01*
X65907Y-146663D01*
X65929Y-146607D01*
X65946Y-146552D01*
X65962Y-146507D01*
X65968Y-146468D01*
X65973Y-146441D01*
Y-146430D01*
X66684Y-146513D01*
X66667Y-146602D01*
X66645Y-146679D01*
X66623Y-146757D01*
X66595Y-146824D01*
X66567Y-146890D01*
X66539Y-146951D01*
X66506Y-147001D01*
X66478Y-147051D01*
X66445Y-147090D01*
X66423Y-147129D01*
X66395Y-147157D01*
X66373Y-147184D01*
X66356Y-147201D01*
X66339Y-147218D01*
X66334Y-147223D01*
X66328Y-147229D01*
X66273Y-147273D01*
X66217Y-147307D01*
X66095Y-147368D01*
X65979Y-147406D01*
X65862Y-147440D01*
X65757Y-147456D01*
X65712Y-147462D01*
X65674D01*
X65646Y-147468D01*
X65601D01*
X65485Y-147462D01*
X65379Y-147445D01*
X65280Y-147423D01*
X65180Y-147395D01*
X65091Y-147356D01*
X65008Y-147318D01*
X64930Y-147279D01*
X64863Y-147234D01*
X64802Y-147190D01*
X64747Y-147151D01*
X64702Y-147107D01*
X64663Y-147073D01*
X64630Y-147046D01*
X64608Y-147023D01*
X64597Y-147007D01*
X64591Y-147001D01*
X64519Y-146907D01*
X64464Y-146801D01*
X64408Y-146685D01*
X64364Y-146568D01*
X64325Y-146441D01*
X64292Y-146313D01*
X64269Y-146191D01*
X64247Y-146063D01*
X64231Y-145947D01*
X64219Y-145841D01*
X64208Y-145741D01*
X64203Y-145653D01*
X64197Y-145580D01*
Y-145525D01*
Y-145508D01*
Y-145492D01*
Y-145486D01*
Y-145481D01*
X64203Y-145292D01*
X64214Y-145120D01*
X64231Y-144959D01*
X64258Y-144809D01*
X64286Y-144676D01*
X64314Y-144554D01*
X64353Y-144443D01*
X64386Y-144343D01*
X64419Y-144260D01*
X64452Y-144187D01*
X64486Y-144126D01*
X64514Y-144076D01*
X64541Y-144038D01*
X64558Y-144010D01*
X64569Y-143993D01*
X64575Y-143988D01*
X64647Y-143910D01*
X64724Y-143838D01*
X64802Y-143777D01*
X64880Y-143727D01*
X64963Y-143682D01*
X65041Y-143643D01*
X65119Y-143616D01*
X65196Y-143588D01*
X65263Y-143571D01*
X65329Y-143555D01*
X65385Y-143544D01*
X65435Y-143538D01*
X65479D01*
X65507Y-143533D01*
X65535D01*
X65635Y-143538D01*
D02*
G37*
G36*
X69803Y-147395D02*
X67094D01*
Y-146746D01*
X69026D01*
Y-143582D01*
X69803D01*
Y-147395D01*
D02*
G37*
%LPC*%
G36*
X204188Y-12248D02*
X204155D01*
X204077Y-12259D01*
X204005Y-12281D01*
X203938Y-12309D01*
X203883Y-12348D01*
X203838Y-12387D01*
X203805Y-12414D01*
X203783Y-12436D01*
X203777Y-12448D01*
X203722Y-12531D01*
X203683Y-12619D01*
X203650Y-12714D01*
X203633Y-12803D01*
X203622Y-12886D01*
X203611Y-12947D01*
Y-12975D01*
Y-12991D01*
Y-13002D01*
Y-13008D01*
X203616Y-13125D01*
X203633Y-13225D01*
X203661Y-13308D01*
X203683Y-13380D01*
X203711Y-13430D01*
X203739Y-13469D01*
X203755Y-13496D01*
X203761Y-13502D01*
X203816Y-13557D01*
X203877Y-13596D01*
X203938Y-13630D01*
X203994Y-13646D01*
X204044Y-13657D01*
X204083Y-13663D01*
X204105Y-13668D01*
X204116D01*
X204194Y-13663D01*
X204266Y-13641D01*
X204327Y-13613D01*
X204382Y-13580D01*
X204427Y-13552D01*
X204454Y-13524D01*
X204477Y-13502D01*
X204482Y-13496D01*
X204532Y-13424D01*
X204566Y-13336D01*
X204593Y-13247D01*
X204610Y-13152D01*
X204621Y-13075D01*
X204627Y-13008D01*
Y-12980D01*
Y-12964D01*
Y-12953D01*
Y-12947D01*
X204621Y-12819D01*
X204604Y-12708D01*
X204582Y-12614D01*
X204560Y-12542D01*
X204538Y-12486D01*
X204516Y-12448D01*
X204499Y-12420D01*
X204493Y-12414D01*
X204438Y-12359D01*
X204382Y-12320D01*
X204327Y-12286D01*
X204271Y-12270D01*
X204227Y-12259D01*
X204188Y-12248D01*
D02*
G37*
G36*
X208223Y-12309D02*
X207335D01*
X207285Y-12314D01*
X207163D01*
X207113Y-12320D01*
X207080D01*
X207063Y-12325D01*
X207057D01*
X206991Y-12342D01*
X206930Y-12364D01*
X206880Y-12387D01*
X206841Y-12414D01*
X206808Y-12442D01*
X206780Y-12459D01*
X206769Y-12475D01*
X206763Y-12481D01*
X206730Y-12525D01*
X206702Y-12581D01*
X206686Y-12631D01*
X206669Y-12681D01*
X206663Y-12725D01*
X206658Y-12758D01*
Y-12780D01*
Y-12792D01*
X206663Y-12853D01*
X206669Y-12908D01*
X206686Y-12958D01*
X206697Y-13002D01*
X206713Y-13036D01*
X206730Y-13058D01*
X206736Y-13075D01*
X206741Y-13080D01*
X206774Y-13119D01*
X206808Y-13152D01*
X206880Y-13202D01*
X206908Y-13219D01*
X206935Y-13230D01*
X206952Y-13241D01*
X206958D01*
X206985Y-13247D01*
X207030Y-13258D01*
X207074Y-13263D01*
X207124Y-13269D01*
X207241Y-13274D01*
X207357Y-13280D01*
X207468Y-13286D01*
X208223D01*
Y-12309D01*
D02*
G37*
G36*
X180696Y-144248D02*
X180674D01*
X180624Y-144253D01*
X180580Y-144259D01*
X180541Y-144275D01*
X180508Y-144292D01*
X180480Y-144309D01*
X180457Y-144320D01*
X180447Y-144331D01*
X180441Y-144336D01*
X180408Y-144375D01*
X180374Y-144425D01*
X180347Y-144481D01*
X180319Y-144536D01*
X180302Y-144592D01*
X180286Y-144636D01*
X180280Y-144664D01*
X180274Y-144669D01*
Y-144675D01*
X180263Y-144725D01*
X180252Y-144786D01*
X180241Y-144858D01*
X180230Y-144930D01*
X180219Y-145080D01*
X180213Y-145236D01*
X180208Y-145308D01*
Y-145380D01*
X180202Y-145441D01*
Y-145496D01*
Y-145541D01*
Y-145580D01*
Y-145602D01*
Y-145607D01*
Y-145729D01*
X180208Y-145846D01*
Y-145951D01*
X180213Y-146046D01*
X180219Y-146135D01*
X180225Y-146212D01*
X180236Y-146284D01*
X180241Y-146346D01*
X180247Y-146401D01*
X180258Y-146446D01*
X180263Y-146484D01*
X180269Y-146518D01*
X180274Y-146540D01*
Y-146562D01*
X180280Y-146568D01*
Y-146573D01*
X180302Y-146651D01*
X180330Y-146712D01*
X180358Y-146767D01*
X180380Y-146806D01*
X180402Y-146840D01*
X180424Y-146862D01*
X180435Y-146873D01*
X180441Y-146878D01*
X180480Y-146906D01*
X180519Y-146928D01*
X180557Y-146940D01*
X180596Y-146950D01*
X180624Y-146956D01*
X180652Y-146962D01*
X180674D01*
X180724Y-146956D01*
X180768Y-146950D01*
X180807Y-146934D01*
X180841Y-146917D01*
X180868Y-146906D01*
X180891Y-146889D01*
X180902Y-146884D01*
X180907Y-146878D01*
X180940Y-146840D01*
X180974Y-146790D01*
X181001Y-146734D01*
X181029Y-146679D01*
X181046Y-146629D01*
X181062Y-146584D01*
X181068Y-146556D01*
X181074Y-146545D01*
X181085Y-146490D01*
X181096Y-146429D01*
X181107Y-146362D01*
X181112Y-146290D01*
X181124Y-146135D01*
X181129Y-145979D01*
X181135Y-145907D01*
Y-145835D01*
X181140Y-145774D01*
Y-145719D01*
Y-145674D01*
Y-145635D01*
Y-145613D01*
Y-145607D01*
Y-145485D01*
X181135Y-145369D01*
Y-145269D01*
X181129Y-145169D01*
X181124Y-145086D01*
X181118Y-145002D01*
X181112Y-144936D01*
X181101Y-144869D01*
X181096Y-144814D01*
X181090Y-144769D01*
X181085Y-144730D01*
X181079Y-144697D01*
X181074Y-144675D01*
Y-144653D01*
X181068Y-144647D01*
Y-144642D01*
X181046Y-144564D01*
X181018Y-144498D01*
X180996Y-144448D01*
X180968Y-144403D01*
X180946Y-144375D01*
X180929Y-144353D01*
X180918Y-144342D01*
X180913Y-144336D01*
X180874Y-144309D01*
X180829Y-144287D01*
X180791Y-144270D01*
X180752Y-144259D01*
X180724Y-144253D01*
X180696Y-144248D01*
D02*
G37*
G36*
X110193Y-144220D02*
X110160D01*
X110088Y-144226D01*
X110021Y-144242D01*
X109966Y-144259D01*
X109916Y-144281D01*
X109877Y-144309D01*
X109849Y-144325D01*
X109832Y-144342D01*
X109827Y-144348D01*
X109783Y-144398D01*
X109755Y-144453D01*
X109732Y-144509D01*
X109716Y-144564D01*
X109705Y-144608D01*
X109699Y-144647D01*
Y-144669D01*
Y-144681D01*
X109705Y-144758D01*
X109722Y-144830D01*
X109738Y-144886D01*
X109760Y-144936D01*
X109788Y-144980D01*
X109805Y-145008D01*
X109821Y-145025D01*
X109827Y-145030D01*
X109877Y-145069D01*
X109932Y-145102D01*
X109988Y-145125D01*
X110043Y-145136D01*
X110093Y-145147D01*
X110132Y-145152D01*
X110166D01*
X110238Y-145147D01*
X110304Y-145136D01*
X110360Y-145114D01*
X110410Y-145091D01*
X110449Y-145069D01*
X110476Y-145047D01*
X110493Y-145036D01*
X110498Y-145030D01*
X110537Y-144980D01*
X110571Y-144925D01*
X110593Y-144869D01*
X110604Y-144814D01*
X110615Y-144764D01*
X110621Y-144725D01*
Y-144697D01*
Y-144686D01*
X110615Y-144608D01*
X110604Y-144542D01*
X110582Y-144486D01*
X110559Y-144436D01*
X110537Y-144398D01*
X110515Y-144370D01*
X110504Y-144353D01*
X110498Y-144348D01*
X110449Y-144303D01*
X110393Y-144275D01*
X110337Y-144253D01*
X110282Y-144237D01*
X110232Y-144226D01*
X110193Y-144220D01*
D02*
G37*
G36*
X110199Y-145735D02*
X110154D01*
X110071Y-145741D01*
X109993Y-145763D01*
X109927Y-145785D01*
X109871Y-145818D01*
X109827Y-145846D01*
X109794Y-145874D01*
X109771Y-145896D01*
X109766Y-145902D01*
X109716Y-145968D01*
X109677Y-146040D01*
X109649Y-146113D01*
X109627Y-146185D01*
X109616Y-146246D01*
X109610Y-146296D01*
Y-146329D01*
Y-146335D01*
Y-146340D01*
X109616Y-146451D01*
X109633Y-146545D01*
X109660Y-146629D01*
X109688Y-146695D01*
X109716Y-146751D01*
X109744Y-146784D01*
X109760Y-146812D01*
X109766Y-146817D01*
X109827Y-146873D01*
X109888Y-146912D01*
X109949Y-146940D01*
X110010Y-146956D01*
X110066Y-146967D01*
X110104Y-146978D01*
X110143D01*
X110227Y-146973D01*
X110304Y-146950D01*
X110371Y-146923D01*
X110426Y-146895D01*
X110471Y-146862D01*
X110504Y-146840D01*
X110526Y-146817D01*
X110532Y-146812D01*
X110582Y-146740D01*
X110621Y-146662D01*
X110648Y-146584D01*
X110665Y-146507D01*
X110676Y-146434D01*
X110687Y-146379D01*
Y-146357D01*
Y-146340D01*
Y-146335D01*
Y-146329D01*
X110682Y-146251D01*
X110665Y-146174D01*
X110648Y-146107D01*
X110621Y-146046D01*
X110598Y-145996D01*
X110582Y-145957D01*
X110565Y-145935D01*
X110559Y-145924D01*
X110504Y-145863D01*
X110437Y-145813D01*
X110371Y-145780D01*
X110304Y-145757D01*
X110249Y-145746D01*
X110199Y-145735D01*
D02*
G37*
G36*
X78869Y-177546D02*
X78836D01*
X78758Y-177552D01*
X78686Y-177574D01*
X78625Y-177602D01*
X78570Y-177635D01*
X78525Y-177668D01*
X78497Y-177696D01*
X78475Y-177718D01*
X78470Y-177724D01*
X78420Y-177796D01*
X78381Y-177885D01*
X78359Y-177979D01*
X78337Y-178068D01*
X78325Y-178151D01*
X78320Y-178218D01*
Y-178240D01*
Y-178262D01*
Y-178273D01*
Y-178279D01*
X78325Y-178407D01*
X78342Y-178518D01*
X78364Y-178606D01*
X78386Y-178679D01*
X78414Y-178734D01*
X78436Y-178773D01*
X78453Y-178801D01*
X78459Y-178806D01*
X78514Y-178856D01*
X78570Y-178895D01*
X78631Y-178923D01*
X78681Y-178939D01*
X78730Y-178951D01*
X78769Y-178962D01*
X78803D01*
X78880Y-178951D01*
X78952Y-178928D01*
X79014Y-178901D01*
X79069Y-178862D01*
X79114Y-178828D01*
X79152Y-178795D01*
X79175Y-178773D01*
X79180Y-178767D01*
X79236Y-178690D01*
X79274Y-178601D01*
X79302Y-178507D01*
X79319Y-178418D01*
X79330Y-178334D01*
X79341Y-178273D01*
Y-178246D01*
Y-178229D01*
Y-178218D01*
Y-178212D01*
X79335Y-178096D01*
X79319Y-177996D01*
X79297Y-177913D01*
X79269Y-177841D01*
X79241Y-177791D01*
X79219Y-177752D01*
X79202Y-177724D01*
X79197Y-177718D01*
X79141Y-177663D01*
X79080Y-177619D01*
X79019Y-177591D01*
X78964Y-177569D01*
X78914Y-177558D01*
X78869Y-177546D01*
D02*
G37*
G36*
X28719Y-135764D02*
Y-137085D01*
X29613D01*
X28719Y-135764D01*
D02*
G37*
G36*
X111369Y-154046D02*
X111336D01*
X111258Y-154052D01*
X111186Y-154074D01*
X111125Y-154102D01*
X111070Y-154135D01*
X111025Y-154168D01*
X110997Y-154196D01*
X110975Y-154218D01*
X110970Y-154224D01*
X110920Y-154296D01*
X110881Y-154385D01*
X110859Y-154479D01*
X110836Y-154568D01*
X110825Y-154651D01*
X110820Y-154718D01*
Y-154740D01*
Y-154762D01*
Y-154773D01*
Y-154779D01*
X110825Y-154907D01*
X110842Y-155018D01*
X110864Y-155106D01*
X110886Y-155179D01*
X110914Y-155234D01*
X110936Y-155273D01*
X110953Y-155301D01*
X110959Y-155306D01*
X111014Y-155356D01*
X111070Y-155395D01*
X111131Y-155423D01*
X111180Y-155439D01*
X111231Y-155450D01*
X111269Y-155462D01*
X111303D01*
X111380Y-155450D01*
X111452Y-155428D01*
X111514Y-155401D01*
X111569Y-155362D01*
X111613Y-155328D01*
X111652Y-155295D01*
X111674Y-155273D01*
X111680Y-155267D01*
X111735Y-155190D01*
X111774Y-155101D01*
X111802Y-155007D01*
X111819Y-154918D01*
X111830Y-154834D01*
X111841Y-154773D01*
Y-154746D01*
Y-154729D01*
Y-154718D01*
Y-154712D01*
X111835Y-154596D01*
X111819Y-154496D01*
X111797Y-154413D01*
X111769Y-154341D01*
X111741Y-154291D01*
X111719Y-154252D01*
X111702Y-154224D01*
X111697Y-154218D01*
X111641Y-154163D01*
X111580Y-154119D01*
X111519Y-154091D01*
X111464Y-154069D01*
X111414Y-154058D01*
X111369Y-154046D01*
D02*
G37*
G36*
X-13281Y-135764D02*
Y-137085D01*
X-12387D01*
X-13281Y-135764D01*
D02*
G37*
G36*
X185059Y-25453D02*
X185003D01*
X184959D01*
X184920D01*
X184898D01*
X184893D01*
X184771D01*
X184654Y-25458D01*
X184548D01*
X184454Y-25464D01*
X184365Y-25470D01*
X184288Y-25475D01*
X184215Y-25486D01*
X184154Y-25492D01*
X184099Y-25497D01*
X184055Y-25508D01*
X184016Y-25514D01*
X183982Y-25520D01*
X183960Y-25525D01*
X183938D01*
X183932Y-25531D01*
X183927D01*
X183849Y-25553D01*
X183788Y-25581D01*
X183733Y-25608D01*
X183694Y-25631D01*
X183660Y-25653D01*
X183638Y-25675D01*
X183627Y-25686D01*
X183622Y-25692D01*
X183594Y-25730D01*
X183572Y-25769D01*
X183561Y-25808D01*
X183549Y-25847D01*
X183544Y-25875D01*
X183538Y-25903D01*
Y-25925D01*
X183544Y-25975D01*
X183549Y-26019D01*
X183566Y-26058D01*
X183583Y-26091D01*
X183594Y-26119D01*
X183610Y-26141D01*
X183616Y-26152D01*
X183622Y-26158D01*
X183660Y-26191D01*
X183710Y-26224D01*
X183766Y-26252D01*
X183821Y-26280D01*
X183871Y-26297D01*
X183916Y-26313D01*
X183943Y-26319D01*
X183955Y-26324D01*
X184010Y-26335D01*
X184071Y-26347D01*
X184138Y-26358D01*
X184210Y-26363D01*
X184365Y-26374D01*
X184521Y-26380D01*
X184593Y-26385D01*
X184665D01*
X184726Y-26391D01*
X184782D01*
X184826D01*
X184865D01*
X184887D01*
X184893D01*
X185015D01*
X185131Y-26385D01*
X185231D01*
X185331Y-26380D01*
X185414Y-26374D01*
X185497Y-26369D01*
X185564Y-26363D01*
X185631Y-26352D01*
X185686Y-26347D01*
X185731Y-26341D01*
X185769Y-26335D01*
X185803Y-26330D01*
X185825Y-26324D01*
X185847D01*
X185853Y-26319D01*
X185858D01*
X185936Y-26297D01*
X186003Y-26269D01*
X186053Y-26247D01*
X186097Y-26219D01*
X186125Y-26197D01*
X186147Y-26180D01*
X186158Y-26169D01*
X186163Y-26163D01*
X186191Y-26125D01*
X186213Y-26080D01*
X186230Y-26041D01*
X186241Y-26002D01*
X186247Y-25975D01*
X186252Y-25947D01*
Y-25925D01*
X186247Y-25875D01*
X186241Y-25830D01*
X186224Y-25792D01*
X186208Y-25758D01*
X186191Y-25730D01*
X186180Y-25708D01*
X186169Y-25697D01*
X186163Y-25692D01*
X186125Y-25658D01*
X186075Y-25625D01*
X186019Y-25597D01*
X185964Y-25570D01*
X185908Y-25553D01*
X185864Y-25536D01*
X185836Y-25531D01*
X185830Y-25525D01*
X185825D01*
X185775Y-25514D01*
X185714Y-25503D01*
X185642Y-25492D01*
X185570Y-25481D01*
X185420Y-25470D01*
X185264Y-25464D01*
X185192Y-25458D01*
X185120D01*
X185059Y-25453D01*
D02*
G37*
G36*
X70553Y-25472D02*
X70525D01*
X70509D01*
X70498D01*
X70492D01*
X70375Y-25478D01*
X70275Y-25494D01*
X70192Y-25522D01*
X70120Y-25544D01*
X70070Y-25572D01*
X70031Y-25600D01*
X70003Y-25616D01*
X69998Y-25622D01*
X69942Y-25678D01*
X69904Y-25739D01*
X69870Y-25800D01*
X69854Y-25855D01*
X69843Y-25905D01*
X69837Y-25944D01*
X69832Y-25966D01*
Y-25977D01*
X69837Y-26055D01*
X69859Y-26127D01*
X69887Y-26188D01*
X69920Y-26244D01*
X69948Y-26288D01*
X69976Y-26316D01*
X69998Y-26338D01*
X70003Y-26344D01*
X70076Y-26393D01*
X70165Y-26427D01*
X70253Y-26455D01*
X70348Y-26471D01*
X70425Y-26482D01*
X70492Y-26488D01*
X70520D01*
X70536D01*
X70547D01*
X70553D01*
X70681Y-26482D01*
X70792Y-26466D01*
X70886Y-26443D01*
X70958Y-26421D01*
X71014Y-26399D01*
X71052Y-26377D01*
X71080Y-26360D01*
X71086Y-26355D01*
X71141Y-26299D01*
X71180Y-26244D01*
X71214Y-26188D01*
X71230Y-26133D01*
X71241Y-26088D01*
X71252Y-26049D01*
Y-26016D01*
X71241Y-25938D01*
X71219Y-25866D01*
X71191Y-25800D01*
X71152Y-25744D01*
X71114Y-25700D01*
X71086Y-25666D01*
X71064Y-25644D01*
X71052Y-25639D01*
X70969Y-25583D01*
X70880Y-25544D01*
X70786Y-25511D01*
X70697Y-25494D01*
X70614Y-25483D01*
X70553Y-25472D01*
D02*
G37*
G36*
X59634Y-135640D02*
X59601D01*
X59528Y-135646D01*
X59462Y-135662D01*
X59406Y-135679D01*
X59356Y-135701D01*
X59318Y-135729D01*
X59290Y-135746D01*
X59273Y-135762D01*
X59268Y-135768D01*
X59223Y-135818D01*
X59196Y-135873D01*
X59173Y-135929D01*
X59157Y-135984D01*
X59145Y-136029D01*
X59140Y-136068D01*
Y-136090D01*
Y-136101D01*
X59145Y-136179D01*
X59162Y-136251D01*
X59179Y-136306D01*
X59201Y-136356D01*
X59229Y-136401D01*
X59245Y-136428D01*
X59262Y-136445D01*
X59268Y-136451D01*
X59318Y-136489D01*
X59373Y-136523D01*
X59429Y-136545D01*
X59484Y-136556D01*
X59534Y-136567D01*
X59573Y-136573D01*
X59606D01*
X59678Y-136567D01*
X59745Y-136556D01*
X59800Y-136534D01*
X59850Y-136512D01*
X59889Y-136489D01*
X59917Y-136467D01*
X59934Y-136456D01*
X59939Y-136451D01*
X59978Y-136401D01*
X60011Y-136345D01*
X60034Y-136290D01*
X60045Y-136234D01*
X60056Y-136184D01*
X60061Y-136145D01*
Y-136118D01*
Y-136106D01*
X60056Y-136029D01*
X60045Y-135962D01*
X60022Y-135907D01*
X60000Y-135857D01*
X59978Y-135818D01*
X59956Y-135790D01*
X59945Y-135774D01*
X59939Y-135768D01*
X59889Y-135723D01*
X59834Y-135696D01*
X59778Y-135674D01*
X59723Y-135657D01*
X59673Y-135646D01*
X59634Y-135640D01*
D02*
G37*
G36*
X59640Y-137155D02*
X59595D01*
X59512Y-137161D01*
X59434Y-137183D01*
X59368Y-137205D01*
X59312Y-137239D01*
X59268Y-137266D01*
X59234Y-137294D01*
X59212Y-137316D01*
X59207Y-137322D01*
X59157Y-137389D01*
X59118Y-137461D01*
X59090Y-137533D01*
X59068Y-137605D01*
X59057Y-137666D01*
X59051Y-137716D01*
Y-137749D01*
Y-137755D01*
Y-137760D01*
X59057Y-137871D01*
X59073Y-137966D01*
X59101Y-138049D01*
X59129Y-138116D01*
X59157Y-138171D01*
X59184Y-138204D01*
X59201Y-138232D01*
X59207Y-138238D01*
X59268Y-138293D01*
X59329Y-138332D01*
X59390Y-138360D01*
X59451Y-138376D01*
X59506Y-138388D01*
X59545Y-138399D01*
X59584D01*
X59667Y-138393D01*
X59745Y-138371D01*
X59812Y-138343D01*
X59867Y-138315D01*
X59911Y-138282D01*
X59945Y-138260D01*
X59967Y-138238D01*
X59973Y-138232D01*
X60022Y-138160D01*
X60061Y-138082D01*
X60089Y-138005D01*
X60106Y-137927D01*
X60117Y-137855D01*
X60128Y-137799D01*
Y-137777D01*
Y-137760D01*
Y-137755D01*
Y-137749D01*
X60122Y-137672D01*
X60106Y-137594D01*
X60089Y-137527D01*
X60061Y-137466D01*
X60039Y-137416D01*
X60022Y-137377D01*
X60006Y-137355D01*
X60000Y-137344D01*
X59945Y-137283D01*
X59878Y-137233D01*
X59812Y-137200D01*
X59745Y-137178D01*
X59689Y-137167D01*
X59640Y-137155D01*
D02*
G37*
G36*
X59734Y-152668D02*
X59701D01*
X59623Y-152679D01*
X59551Y-152701D01*
X59484Y-152729D01*
X59429Y-152768D01*
X59384Y-152807D01*
X59351Y-152834D01*
X59329Y-152857D01*
X59323Y-152868D01*
X59268Y-152951D01*
X59229Y-153040D01*
X59196Y-153134D01*
X59179Y-153223D01*
X59168Y-153306D01*
X59157Y-153367D01*
Y-153395D01*
Y-153412D01*
Y-153423D01*
Y-153428D01*
X59162Y-153545D01*
X59179Y-153645D01*
X59207Y-153728D01*
X59229Y-153800D01*
X59257Y-153850D01*
X59284Y-153889D01*
X59301Y-153917D01*
X59307Y-153922D01*
X59362Y-153978D01*
X59423Y-154017D01*
X59484Y-154050D01*
X59540Y-154067D01*
X59589Y-154078D01*
X59628Y-154083D01*
X59651Y-154089D01*
X59662D01*
X59739Y-154083D01*
X59812Y-154061D01*
X59873Y-154033D01*
X59928Y-154000D01*
X59973Y-153972D01*
X60000Y-153945D01*
X60022Y-153922D01*
X60028Y-153917D01*
X60078Y-153845D01*
X60111Y-153756D01*
X60139Y-153667D01*
X60156Y-153573D01*
X60167Y-153495D01*
X60172Y-153428D01*
Y-153401D01*
Y-153384D01*
Y-153373D01*
Y-153367D01*
X60167Y-153240D01*
X60150Y-153129D01*
X60128Y-153034D01*
X60106Y-152962D01*
X60084Y-152907D01*
X60061Y-152868D01*
X60045Y-152840D01*
X60039Y-152834D01*
X59984Y-152779D01*
X59928Y-152740D01*
X59873Y-152707D01*
X59817Y-152690D01*
X59773Y-152679D01*
X59734Y-152668D01*
D02*
G37*
G36*
X65601Y-144143D02*
X65568D01*
X65490Y-144154D01*
X65418Y-144176D01*
X65352Y-144204D01*
X65296Y-144243D01*
X65252Y-144282D01*
X65218Y-144309D01*
X65196Y-144332D01*
X65191Y-144343D01*
X65135Y-144426D01*
X65096Y-144515D01*
X65063Y-144609D01*
X65046Y-144698D01*
X65035Y-144781D01*
X65024Y-144842D01*
Y-144870D01*
Y-144887D01*
Y-144898D01*
Y-144903D01*
X65030Y-145020D01*
X65046Y-145120D01*
X65074Y-145203D01*
X65096Y-145275D01*
X65124Y-145325D01*
X65152Y-145364D01*
X65168Y-145392D01*
X65174Y-145397D01*
X65229Y-145453D01*
X65291Y-145492D01*
X65352Y-145525D01*
X65407Y-145542D01*
X65457Y-145553D01*
X65496Y-145558D01*
X65518Y-145564D01*
X65529D01*
X65607Y-145558D01*
X65679Y-145536D01*
X65740Y-145508D01*
X65796Y-145475D01*
X65840Y-145447D01*
X65868Y-145420D01*
X65890Y-145397D01*
X65896Y-145392D01*
X65946Y-145320D01*
X65979Y-145231D01*
X66007Y-145142D01*
X66023Y-145048D01*
X66034Y-144970D01*
X66040Y-144903D01*
Y-144876D01*
Y-144859D01*
Y-144848D01*
Y-144842D01*
X66034Y-144715D01*
X66018Y-144604D01*
X65996Y-144509D01*
X65973Y-144437D01*
X65951Y-144382D01*
X65929Y-144343D01*
X65912Y-144315D01*
X65907Y-144309D01*
X65851Y-144254D01*
X65796Y-144215D01*
X65740Y-144182D01*
X65685Y-144165D01*
X65640Y-144154D01*
X65601Y-144143D01*
D02*
G37*
%LPD*%
D10*
X-5000Y-6000D02*
X197000D01*
Y16000D01*
X-7000D02*
X197000D01*
X-7000Y-6000D02*
Y16000D01*
Y-6000D02*
X-4000D01*
D12*
X190500Y-23000D02*
X198500D01*
Y-18000D01*
X190500Y-23000D02*
Y-18000D01*
X198500Y-13000D02*
Y-8000D01*
X190500Y-13000D02*
Y-8000D01*
X198500D01*
X15700Y-14600D02*
Y-8400D01*
X12200D02*
X15700D01*
X12200Y-14600D02*
X15700D01*
X4300Y-8400D02*
X7800D01*
X4300Y-14600D02*
X7800D01*
X4300D02*
Y-8400D01*
X21000Y-23000D02*
X29000D01*
Y-18000D01*
X21000Y-23000D02*
Y-18000D01*
X29000Y-13000D02*
Y-8000D01*
X21000Y-13000D02*
Y-8000D01*
X29000D01*
X-12500Y-23000D02*
X-4500D01*
Y-18000D01*
X-12500Y-23000D02*
Y-18000D01*
X-4500Y-13000D02*
Y-8000D01*
X-12500Y-13000D02*
Y-8000D01*
X-4500D01*
X171000Y-23000D02*
X179000D01*
Y-18000D01*
X171000Y-23000D02*
Y-18000D01*
X179000Y-13000D02*
Y-8000D01*
X171000Y-13000D02*
Y-8000D01*
X179000D01*
X181000Y-23000D02*
X189000D01*
Y-18000D01*
X181000Y-23000D02*
Y-18000D01*
X189000Y-13000D02*
Y-8000D01*
X181000Y-13000D02*
Y-8000D01*
X189000D01*
X66000Y-23000D02*
X74000D01*
Y-18000D01*
X66000Y-23000D02*
Y-18000D01*
X74000Y-13000D02*
Y-8000D01*
X66000Y-13000D02*
Y-8000D01*
X74000D01*
X30500Y-23000D02*
X38500D01*
Y-18000D01*
X30500Y-23000D02*
Y-18000D01*
X38500Y-13000D02*
Y-8000D01*
X30500Y-13000D02*
Y-8000D01*
X38500D01*
X64200Y-177100D02*
Y-170900D01*
X60700D02*
X64200D01*
X60700Y-177100D02*
X64200D01*
X52800Y-170900D02*
X56300D01*
X52800Y-177100D02*
X56300D01*
X52800D02*
Y-170900D01*
X51582Y-148600D02*
Y-142400D01*
X48082D02*
X51582D01*
X48082Y-148600D02*
X51582D01*
X40182Y-142400D02*
X43682D01*
X40182Y-148600D02*
X43682D01*
X40182D02*
Y-142400D01*
X189800Y-148600D02*
Y-142400D01*
Y-148600D02*
X193300D01*
X189800Y-142400D02*
X193300D01*
X197700Y-148600D02*
X201200D01*
X197700Y-142400D02*
X201200D01*
Y-148600D02*
Y-142400D01*
X95300Y-148600D02*
Y-142400D01*
Y-148600D02*
X98800D01*
X95300Y-142400D02*
X98800D01*
X103200Y-148600D02*
X106700D01*
X103200Y-142400D02*
X106700D01*
Y-148600D02*
Y-142400D01*
X9731Y-148568D02*
Y-142368D01*
X6231D02*
X9731D01*
X6231Y-148568D02*
X9731D01*
X-1668Y-142368D02*
X1832D01*
X-1668Y-148568D02*
X1832D01*
X-1668D02*
Y-142368D01*
X68500Y-185500D02*
X76500D01*
Y-180500D01*
X68500Y-185500D02*
Y-180500D01*
X76500Y-175500D02*
Y-170500D01*
X68500Y-175500D02*
Y-170500D01*
X76500D01*
X50000Y-198000D02*
Y-190000D01*
Y-198000D02*
X55000D01*
X50000Y-190000D02*
X55000D01*
X60000Y-198000D02*
X65000D01*
X60000Y-190000D02*
X65000D01*
Y-198000D02*
Y-190000D01*
X188000Y-141000D02*
Y-133000D01*
Y-141000D02*
X193000D01*
X188000Y-133000D02*
X193000D01*
X198000Y-141000D02*
X203000D01*
X198000Y-133000D02*
X203000D01*
Y-141000D02*
Y-133000D01*
X38382Y-141000D02*
Y-133000D01*
Y-141000D02*
X43382D01*
X38382Y-133000D02*
X43382D01*
X48382Y-141000D02*
X53382D01*
X48382Y-133000D02*
X53382D01*
Y-141000D02*
Y-133000D01*
X53350Y-158031D02*
Y-150031D01*
X48350D02*
X53350D01*
X48350Y-158031D02*
X53350D01*
X38350Y-150031D02*
X43350D01*
X38350Y-158031D02*
X43350D01*
X38350D02*
Y-150031D01*
X203000Y-158000D02*
Y-150000D01*
X198000D02*
X203000D01*
X198000Y-158000D02*
X203000D01*
X188000Y-150000D02*
X193000D01*
X188000Y-158000D02*
X193000D01*
X188000D02*
Y-150000D01*
X93500Y-141000D02*
Y-133000D01*
Y-141000D02*
X98500D01*
X93500Y-133000D02*
X98500D01*
X103500Y-141000D02*
X108500D01*
X103500Y-133000D02*
X108500D01*
Y-141000D02*
Y-133000D01*
X108500Y-158000D02*
Y-150000D01*
X103500D02*
X108500D01*
X103500Y-158000D02*
X108500D01*
X93500Y-150000D02*
X98500D01*
X93500Y-158000D02*
X98500D01*
X93500D02*
Y-150000D01*
X84700Y-158000D02*
Y-150000D01*
X79700D02*
X84700D01*
X79700Y-158000D02*
X84700D01*
X69700Y-150000D02*
X74700D01*
X69700Y-158000D02*
X74700D01*
X69700D02*
Y-150000D01*
X82920Y-148620D02*
Y-142420D01*
X79421D02*
X82920D01*
X79421Y-148620D02*
X82920D01*
X71521Y-142420D02*
X75020D01*
X71521Y-148620D02*
X75020D01*
X71521D02*
Y-142420D01*
X69721Y-141021D02*
Y-133020D01*
Y-141021D02*
X74720D01*
X69721Y-133020D02*
X74720D01*
X79720Y-141021D02*
X84720D01*
X79720Y-133020D02*
X84720D01*
Y-141021D02*
Y-133020D01*
X11531Y-140969D02*
Y-132968D01*
X6532D02*
X11531D01*
X6532Y-140969D02*
X11531D01*
X-3468Y-132968D02*
X1531D01*
X-3468Y-140969D02*
X1531D01*
X-3468D02*
Y-132968D01*
X-3500Y-158000D02*
Y-150000D01*
Y-158000D02*
X1500D01*
X-3500Y-150000D02*
X1500D01*
X6500Y-158000D02*
X11500D01*
X6500Y-150000D02*
X11500D01*
Y-158000D02*
Y-150000D01*
M02*
