G04*
G04 #@! TF.GenerationSoftware,Altium Limited,Altium Designer,20.2.4 (192)*
G04*
G04 Layer_Color=8388736*
%FSLAX25Y25*%
%MOIN*%
G70*
G04*
G04 #@! TF.SameCoordinates,F9DD2519-DED0-4D21-AB53-5B03216E6D2C*
G04*
G04*
G04 #@! TF.FilePolarity,Negative*
G04*
G01*
G75*
%ADD25R,0.03800X0.03800*%
%ADD26R,0.04200X0.05000*%
%ADD27R,0.04800X0.06300*%
%ADD28R,0.11233X0.07887*%
%ADD29R,0.05000X0.04200*%
%ADD30R,0.03800X0.03800*%
%ADD31R,0.06300X0.04800*%
%ADD32R,0.07887X0.09580*%
%ADD33R,0.07887X0.09595*%
%ADD34R,0.04737X0.05131*%
%ADD35R,0.06900X0.06000*%
%ADD36C,0.05800*%
%ADD37C,0.08800*%
%ADD38C,0.00800*%
%ADD39C,0.07800*%
G04:AMPARAMS|DCode=40|XSize=78mil|YSize=78mil|CornerRadius=21.5mil|HoleSize=0mil|Usage=FLASHONLY|Rotation=0.000|XOffset=0mil|YOffset=0mil|HoleType=Round|Shape=RoundedRectangle|*
%AMROUNDEDRECTD40*
21,1,0.07800,0.03500,0,0,0.0*
21,1,0.03500,0.07800,0,0,0.0*
1,1,0.04300,0.01750,-0.01750*
1,1,0.04300,-0.01750,-0.01750*
1,1,0.04300,-0.01750,0.01750*
1,1,0.04300,0.01750,0.01750*
%
%ADD40ROUNDEDRECTD40*%
%ADD41C,0.08600*%
D25*
X165500Y-35750D02*
D03*
X174500Y-39500D02*
D03*
X165500Y-43250D02*
D03*
D26*
X25000Y-91000D02*
D03*
X19000D02*
D03*
D27*
X26000Y-100000D02*
D03*
X18000D02*
D03*
Y-72000D02*
D03*
X26000D02*
D03*
Y-82000D02*
D03*
X18000D02*
D03*
X26000Y-131000D02*
D03*
X18000D02*
D03*
Y-111000D02*
D03*
X26000D02*
D03*
X18000Y-121000D02*
D03*
X26000D02*
D03*
X182000Y-36000D02*
D03*
X190000D02*
D03*
D28*
X119339Y-79500D02*
D03*
X136661D02*
D03*
X168161D02*
D03*
X150839D02*
D03*
D29*
X185000Y-18500D02*
D03*
Y-12500D02*
D03*
X175000Y-18500D02*
D03*
Y-12500D02*
D03*
X70000D02*
D03*
Y-18500D02*
D03*
X34500Y-12500D02*
D03*
Y-18500D02*
D03*
D30*
X36250Y-72000D02*
D03*
X40000Y-63000D02*
D03*
X43750Y-72000D02*
D03*
X36250Y-91000D02*
D03*
X40000Y-82000D02*
D03*
X43750Y-91000D02*
D03*
X57250Y-109000D02*
D03*
X61000Y-100000D02*
D03*
X64750Y-109000D02*
D03*
X36250D02*
D03*
X40000Y-100000D02*
D03*
X43750Y-109000D02*
D03*
X86250D02*
D03*
X82500Y-100000D02*
D03*
X78750Y-109000D02*
D03*
D31*
X58000Y-74000D02*
D03*
Y-82000D02*
D03*
X68000D02*
D03*
Y-74000D02*
D03*
X79500Y-29000D02*
D03*
Y-37000D02*
D03*
X194500Y-19500D02*
D03*
Y-11500D02*
D03*
X165500Y-19500D02*
D03*
Y-11500D02*
D03*
X79500Y-19500D02*
D03*
Y-11500D02*
D03*
X25000D02*
D03*
Y-19500D02*
D03*
X65000Y-125000D02*
D03*
Y-117000D02*
D03*
X44000Y-11500D02*
D03*
Y-19500D02*
D03*
D32*
X37000Y-121000D02*
D03*
D33*
X53000D02*
D03*
D34*
X87437Y-82000D02*
D03*
X79563D02*
D03*
X87437Y-51500D02*
D03*
X79563D02*
D03*
X207437Y-36000D02*
D03*
X199563D02*
D03*
X87437Y-125000D02*
D03*
X79563D02*
D03*
D35*
X20350Y-49858D02*
D03*
Y-32142D02*
D03*
X51650D02*
D03*
Y-49858D02*
D03*
D36*
X161500Y-127500D02*
D03*
X181500D02*
D03*
X171500Y-107500D02*
D03*
X107000Y-127500D02*
D03*
X127000D02*
D03*
X117000Y-107500D02*
D03*
D37*
X152087Y-164291D02*
D03*
X191457D02*
D03*
X171772Y-183976D02*
D03*
X96969Y-164291D02*
D03*
X136339D02*
D03*
X116654Y-183976D02*
D03*
X41850Y-164291D02*
D03*
X81221D02*
D03*
X61535Y-183976D02*
D03*
X4449Y-20197D02*
D03*
X-3425Y-46181D02*
D03*
X26102Y-172165D02*
D03*
X118Y-164291D02*
D03*
D38*
X171772Y-164291D02*
D03*
X152087Y-193819D02*
D03*
X191457D02*
D03*
X152087Y-183976D02*
D03*
X191457D02*
D03*
X116654Y-164291D02*
D03*
X96969Y-193819D02*
D03*
X136339D02*
D03*
X96969Y-183976D02*
D03*
X136339D02*
D03*
X61535Y-164291D02*
D03*
X41850Y-193819D02*
D03*
X81221D02*
D03*
X41850Y-183976D02*
D03*
X81221D02*
D03*
X209173Y5000D02*
D03*
X-19173D02*
D03*
X209173Y-187913D02*
D03*
X-19173D02*
D03*
X-17205Y-44213D02*
D03*
Y-24528D02*
D03*
X4449Y-185945D02*
D03*
X24134D02*
D03*
D39*
X0Y10000D02*
D03*
X10000D02*
D03*
X20000D02*
D03*
X30000D02*
D03*
X40000D02*
D03*
X50000D02*
D03*
X60000D02*
D03*
X70000D02*
D03*
X80000D02*
D03*
X90000D02*
D03*
X100000D02*
D03*
X110000D02*
D03*
X120000D02*
D03*
X130000D02*
D03*
X140000D02*
D03*
X150000D02*
D03*
X160000D02*
D03*
X170000D02*
D03*
X180000D02*
D03*
X190000D02*
D03*
X10000Y0D02*
D03*
X20000D02*
D03*
X30000D02*
D03*
X40000D02*
D03*
X50000D02*
D03*
X60000D02*
D03*
X70000D02*
D03*
X80000D02*
D03*
X90000D02*
D03*
X100000D02*
D03*
X110000D02*
D03*
X120000D02*
D03*
X130000D02*
D03*
X140000D02*
D03*
X150000D02*
D03*
X160000D02*
D03*
X170000D02*
D03*
X180000D02*
D03*
X190000D02*
D03*
D40*
X0D02*
D03*
D41*
X-19173Y-36339D02*
D03*
X16260Y-187913D02*
D03*
M02*
