G04*
G04 #@! TF.GenerationSoftware,Altium Limited,Altium Designer,20.2.4 (192)*
G04*
G04 Layer_Color=128*
%FSLAX25Y25*%
%MOIN*%
G70*
G04*
G04 #@! TF.SameCoordinates,F9DD2519-DED0-4D21-AB53-5B03216E6D2C*
G04*
G04*
G04 #@! TF.FilePolarity,Positive*
G04*
G01*
G75*
%ADD49C,0.00200*%
D49*
X160100Y-127500D02*
X162900D01*
X161500Y-128900D02*
Y-126100D01*
X180100Y-127500D02*
X182900D01*
X181500Y-128900D02*
Y-126100D01*
X170100Y-107500D02*
X172900D01*
X171500Y-108900D02*
Y-106100D01*
X105600Y-127500D02*
X108400D01*
X107000Y-128900D02*
Y-126100D01*
X125600Y-127500D02*
X128400D01*
X127000Y-128900D02*
Y-126100D01*
X115600Y-107500D02*
X118400D01*
X117000Y-108900D02*
Y-106100D01*
X149937Y-164291D02*
X154237D01*
X152087Y-166441D02*
Y-162141D01*
X189307Y-164291D02*
X193607D01*
X191457Y-166441D02*
Y-162141D01*
X169622Y-183976D02*
X173922D01*
X171772Y-186126D02*
Y-181826D01*
X169410Y-164291D02*
X174134D01*
X171772Y-166654D02*
Y-161929D01*
X149724Y-193819D02*
X154449D01*
X152087Y-196181D02*
Y-191457D01*
X189094Y-193819D02*
X193819D01*
X191457Y-196181D02*
Y-191457D01*
X149724Y-183976D02*
X154449D01*
X152087Y-186339D02*
Y-181614D01*
X189094Y-183976D02*
X193819D01*
X191457Y-186339D02*
Y-181614D01*
X94819Y-164291D02*
X99119D01*
X96969Y-166441D02*
Y-162141D01*
X134189Y-164291D02*
X138489D01*
X136339Y-166441D02*
Y-162141D01*
X114504Y-183976D02*
X118804D01*
X116654Y-186126D02*
Y-181826D01*
X114291Y-164291D02*
X119016D01*
X116654Y-166654D02*
Y-161929D01*
X94606Y-193819D02*
X99331D01*
X96969Y-196181D02*
Y-191457D01*
X133976Y-193819D02*
X138701D01*
X136339Y-196181D02*
Y-191457D01*
X94606Y-183976D02*
X99331D01*
X96969Y-186339D02*
Y-181614D01*
X133976Y-183976D02*
X138701D01*
X136339Y-186339D02*
Y-181614D01*
X39700Y-164291D02*
X44000D01*
X41850Y-166441D02*
Y-162141D01*
X79071Y-164291D02*
X83371D01*
X81221Y-166441D02*
Y-162141D01*
X59385Y-183976D02*
X63685D01*
X61535Y-186126D02*
Y-181826D01*
X59173Y-164291D02*
X63898D01*
X61535Y-166654D02*
Y-161929D01*
X39488Y-193819D02*
X44213D01*
X41850Y-196181D02*
Y-191457D01*
X78858Y-193819D02*
X83583D01*
X81221Y-196181D02*
Y-191457D01*
X39488Y-183976D02*
X44213D01*
X41850Y-186339D02*
Y-181614D01*
X78858Y-183976D02*
X83583D01*
X81221Y-186339D02*
Y-181614D01*
X-2050Y10000D02*
X2050D01*
X0Y7950D02*
Y12050D01*
X7950Y10000D02*
X12050D01*
X10000Y7950D02*
Y12050D01*
X17950Y10000D02*
X22050D01*
X20000Y7950D02*
Y12050D01*
X27950Y10000D02*
X32050D01*
X30000Y7950D02*
Y12050D01*
X37950Y10000D02*
X42050D01*
X40000Y7950D02*
Y12050D01*
X47950Y10000D02*
X52050D01*
X50000Y7950D02*
Y12050D01*
X57950Y10000D02*
X62050D01*
X60000Y7950D02*
Y12050D01*
X67950Y10000D02*
X72050D01*
X70000Y7950D02*
Y12050D01*
X77950Y10000D02*
X82050D01*
X80000Y7950D02*
Y12050D01*
X87950Y10000D02*
X92050D01*
X90000Y7950D02*
Y12050D01*
X97950Y10000D02*
X102050D01*
X100000Y7950D02*
Y12050D01*
X107950Y10000D02*
X112050D01*
X110000Y7950D02*
Y12050D01*
X117950Y10000D02*
X122050D01*
X120000Y7950D02*
Y12050D01*
X127950Y10000D02*
X132050D01*
X130000Y7950D02*
Y12050D01*
X137950Y10000D02*
X142050D01*
X140000Y7950D02*
Y12050D01*
X147950Y10000D02*
X152050D01*
X150000Y7950D02*
Y12050D01*
X157950Y10000D02*
X162050D01*
X160000Y7950D02*
Y12050D01*
X167950Y10000D02*
X172050D01*
X170000Y7950D02*
Y12050D01*
X177950Y10000D02*
X182050D01*
X180000Y7950D02*
Y12050D01*
X187950Y10000D02*
X192050D01*
X190000Y7950D02*
Y12050D01*
X-2050Y0D02*
X2050D01*
X0Y-2050D02*
Y2050D01*
X7950Y0D02*
X12050D01*
X10000Y-2050D02*
Y2050D01*
X17950Y0D02*
X22050D01*
X20000Y-2050D02*
Y2050D01*
X27950Y0D02*
X32050D01*
X30000Y-2050D02*
Y2050D01*
X37950Y0D02*
X42050D01*
X40000Y-2050D02*
Y2050D01*
X47950Y0D02*
X52050D01*
X50000Y-2050D02*
Y2050D01*
X57950Y0D02*
X62050D01*
X60000Y-2050D02*
Y2050D01*
X67950Y0D02*
X72050D01*
X70000Y-2050D02*
Y2050D01*
X77950Y0D02*
X82050D01*
X80000Y-2050D02*
Y2050D01*
X87950Y0D02*
X92050D01*
X90000Y-2050D02*
Y2050D01*
X97950Y0D02*
X102050D01*
X100000Y-2050D02*
Y2050D01*
X107950Y0D02*
X112050D01*
X110000Y-2050D02*
Y2050D01*
X117950Y0D02*
X122050D01*
X120000Y-2050D02*
Y2050D01*
X127950Y0D02*
X132050D01*
X130000Y-2050D02*
Y2050D01*
X137950Y0D02*
X142050D01*
X140000Y-2050D02*
Y2050D01*
X147950Y0D02*
X152050D01*
X150000Y-2050D02*
Y2050D01*
X157950Y0D02*
X162050D01*
X160000Y-2050D02*
Y2050D01*
X167950Y0D02*
X172050D01*
X170000Y-2050D02*
Y2050D01*
X177950Y0D02*
X182050D01*
X180000Y-2050D02*
Y2050D01*
X187950Y0D02*
X192050D01*
X190000Y-2050D02*
Y2050D01*
X203760Y5000D02*
X214587D01*
X209173Y-413D02*
Y10413D01*
X-24587Y5000D02*
X-13760D01*
X-19173Y-413D02*
Y10413D01*
X203760Y-187913D02*
X214587D01*
X209173Y-193327D02*
Y-182500D01*
X-24587Y-187913D02*
X-13760D01*
X-19173Y-193327D02*
Y-182500D01*
X2299Y-20197D02*
X6599D01*
X4449Y-22347D02*
Y-18047D01*
X-5575Y-46181D02*
X-1275D01*
X-3425Y-48331D02*
Y-44031D01*
X-21323Y-36339D02*
X-17023D01*
X-19173Y-38489D02*
Y-34189D01*
X-20355Y-44213D02*
X-14055D01*
X-17205Y-47363D02*
Y-41063D01*
X-20355Y-24528D02*
X-14055D01*
X-17205Y-27678D02*
Y-21378D01*
X1299Y-185945D02*
X7599D01*
X4449Y-189095D02*
Y-182795D01*
X20984Y-185945D02*
X27284D01*
X24134Y-189095D02*
Y-182795D01*
X14110Y-187913D02*
X18410D01*
X16260Y-190063D02*
Y-185763D01*
X23952Y-172165D02*
X28252D01*
X26102Y-174315D02*
Y-170015D01*
X-2032Y-164291D02*
X2268D01*
X118Y-166441D02*
Y-162141D01*
X193900Y-26000D02*
X195100D01*
X194500Y-26600D02*
Y-25400D01*
X9150Y-77250D02*
X10350D01*
X9750Y-77850D02*
Y-76650D01*
X173900Y-56500D02*
X175100D01*
X174500Y-57100D02*
Y-55900D01*
X164900Y-30000D02*
X166100D01*
X165500Y-30600D02*
Y-29400D01*
X200900Y-19500D02*
X202100D01*
X201500Y-20100D02*
Y-18900D01*
X157900Y-19500D02*
X159100D01*
X158500Y-20100D02*
Y-18900D01*
X17900Y-11500D02*
X19100D01*
X18500Y-12100D02*
Y-10900D01*
X198900Y-130500D02*
X200100D01*
X199500Y-131100D02*
Y-129900D01*
X43150Y-77000D02*
X44350D01*
X43750Y-77600D02*
Y-76400D01*
X70900Y-111000D02*
X72100D01*
X71500Y-111600D02*
Y-110400D01*
X72620Y-121721D02*
X73821D01*
X73220Y-122320D02*
Y-121121D01*
X17400Y-138000D02*
X18600D01*
X18000Y-138600D02*
Y-137400D01*
M02*
