G04*
G04 #@! TF.GenerationSoftware,Altium Limited,Altium Designer,20.2.4 (192)*
G04*
G04 Layer_Color=8421504*
%FSLAX25Y25*%
%MOIN*%
G70*
G04*
G04 #@! TF.SameCoordinates,F9DD2519-DED0-4D21-AB53-5B03216E6D2C*
G04*
G04*
G04 #@! TF.FilePolarity,Positive*
G04*
G01*
G75*
%ADD14R,0.03000X0.03000*%
%ADD15R,0.03400X0.04200*%
%ADD16R,0.04000X0.05500*%
%ADD17R,0.10433X0.07087*%
%ADD18R,0.04200X0.03400*%
%ADD19R,0.03000X0.03000*%
%ADD20R,0.05500X0.04000*%
%ADD21R,0.07087X0.08780*%
%ADD22R,0.07087X0.08795*%
%ADD23R,0.03937X0.04331*%
%ADD24R,0.06100X0.05200*%
D14*
X165500Y-35750D02*
D03*
X174500Y-39500D02*
D03*
X165500Y-43250D02*
D03*
D15*
X25000Y-91000D02*
D03*
X19000D02*
D03*
D16*
X26000Y-100000D02*
D03*
X18000D02*
D03*
Y-72000D02*
D03*
X26000D02*
D03*
Y-82000D02*
D03*
X18000D02*
D03*
X26000Y-131000D02*
D03*
X18000D02*
D03*
Y-111000D02*
D03*
X26000D02*
D03*
X18000Y-121000D02*
D03*
X26000D02*
D03*
X182000Y-36000D02*
D03*
X190000D02*
D03*
D17*
X119339Y-79500D02*
D03*
X136661D02*
D03*
X168161D02*
D03*
X150839D02*
D03*
D18*
X185000Y-18500D02*
D03*
Y-12500D02*
D03*
X175000Y-18500D02*
D03*
Y-12500D02*
D03*
X70000D02*
D03*
Y-18500D02*
D03*
X34500Y-12500D02*
D03*
Y-18500D02*
D03*
D19*
X36250Y-72000D02*
D03*
X40000Y-63000D02*
D03*
X43750Y-72000D02*
D03*
X36250Y-91000D02*
D03*
X40000Y-82000D02*
D03*
X43750Y-91000D02*
D03*
X57250Y-109000D02*
D03*
X61000Y-100000D02*
D03*
X64750Y-109000D02*
D03*
X36250D02*
D03*
X40000Y-100000D02*
D03*
X43750Y-109000D02*
D03*
X86250D02*
D03*
X82500Y-100000D02*
D03*
X78750Y-109000D02*
D03*
D20*
X58000Y-74000D02*
D03*
Y-82000D02*
D03*
X68000D02*
D03*
Y-74000D02*
D03*
X79500Y-29000D02*
D03*
Y-37000D02*
D03*
X194500Y-19500D02*
D03*
Y-11500D02*
D03*
X165500Y-19500D02*
D03*
Y-11500D02*
D03*
X79500Y-19500D02*
D03*
Y-11500D02*
D03*
X25000D02*
D03*
Y-19500D02*
D03*
X65000Y-125000D02*
D03*
Y-117000D02*
D03*
X44000Y-11500D02*
D03*
Y-19500D02*
D03*
D21*
X37000Y-121000D02*
D03*
D22*
X53000D02*
D03*
D23*
X87437Y-82000D02*
D03*
X79563D02*
D03*
X87437Y-51500D02*
D03*
X79563D02*
D03*
X207437Y-36000D02*
D03*
X199563D02*
D03*
X87437Y-125000D02*
D03*
X79563D02*
D03*
D24*
X20350Y-49858D02*
D03*
Y-32142D02*
D03*
X51650D02*
D03*
Y-49858D02*
D03*
M02*
