G04*
G04 #@! TF.GenerationSoftware,Altium Limited,Altium Designer,20.2.4 (192)*
G04*
G04 Layer_Color=255*
%FSLAX25Y25*%
%MOIN*%
G70*
G04*
G04 #@! TF.SameCoordinates,F9DD2519-DED0-4D21-AB53-5B03216E6D2C*
G04*
G04*
G04 #@! TF.FilePolarity,Positive*
G04*
G01*
G75*
%ADD15R,0.03400X0.04200*%
%ADD16R,0.04000X0.05500*%
%ADD20R,0.05500X0.04000*%
%ADD39C,0.07800*%
%ADD43C,0.05000*%
%ADD44C,0.08000*%
%ADD45C,0.07000*%
G04:AMPARAMS|DCode=46|XSize=70mil|YSize=70mil|CornerRadius=17.5mil|HoleSize=0mil|Usage=FLASHONLY|Rotation=0.000|XOffset=0mil|YOffset=0mil|HoleType=Round|Shape=RoundedRectangle|*
%AMROUNDEDRECTD46*
21,1,0.07000,0.03500,0,0,0.0*
21,1,0.03500,0.07000,0,0,0.0*
1,1,0.03500,0.01750,-0.01750*
1,1,0.03500,-0.01750,-0.01750*
1,1,0.03500,-0.01750,0.01750*
1,1,0.03500,0.01750,0.01750*
%
%ADD46ROUNDEDRECTD46*%
D15*
X7000Y-11500D02*
D03*
X13000D02*
D03*
X55500Y-174000D02*
D03*
X61500D02*
D03*
X42882Y-145500D02*
D03*
X48882D02*
D03*
X198500D02*
D03*
X192500D02*
D03*
X104000D02*
D03*
X98000D02*
D03*
X1032Y-145468D02*
D03*
X7032D02*
D03*
X74221Y-145520D02*
D03*
X80221D02*
D03*
D16*
X61500Y-194000D02*
D03*
X53500D02*
D03*
X199500Y-137000D02*
D03*
X191500D02*
D03*
X49882D02*
D03*
X41882D02*
D03*
X41850Y-154032D02*
D03*
X49850D02*
D03*
X191500Y-154000D02*
D03*
X199500D02*
D03*
X105000Y-137000D02*
D03*
X97000D02*
D03*
Y-154000D02*
D03*
X105000D02*
D03*
X73200D02*
D03*
X81200D02*
D03*
X81221Y-137021D02*
D03*
X73220D02*
D03*
X32Y-136969D02*
D03*
X8032D02*
D03*
X8000Y-154000D02*
D03*
X0D02*
D03*
D20*
X194500Y-19500D02*
D03*
Y-11500D02*
D03*
X25000D02*
D03*
Y-19500D02*
D03*
X-8500Y-11500D02*
D03*
Y-19500D02*
D03*
X175000Y-11500D02*
D03*
Y-19500D02*
D03*
X185000Y-11500D02*
D03*
Y-19500D02*
D03*
X70000Y-11500D02*
D03*
Y-19500D02*
D03*
X34500Y-11500D02*
D03*
Y-19500D02*
D03*
X72500Y-174000D02*
D03*
Y-182000D02*
D03*
D39*
X-19173Y-36339D02*
D03*
X16260Y-187913D02*
D03*
D43*
X161500Y-127500D02*
D03*
X181500D02*
D03*
X171500Y-107500D02*
D03*
X107000Y-127500D02*
D03*
X127000D02*
D03*
X117000Y-107500D02*
D03*
D44*
X152087Y-164291D02*
D03*
X191457D02*
D03*
X171772Y-183976D02*
D03*
X96969Y-164291D02*
D03*
X136339D02*
D03*
X116654Y-183976D02*
D03*
X41850Y-164291D02*
D03*
X81221D02*
D03*
X61535Y-183976D02*
D03*
X4449Y-20197D02*
D03*
X-3425Y-46181D02*
D03*
X26102Y-172165D02*
D03*
X118Y-164291D02*
D03*
D45*
X0Y10000D02*
D03*
X10000D02*
D03*
X20000D02*
D03*
X30000D02*
D03*
X40000D02*
D03*
X50000D02*
D03*
X60000D02*
D03*
X70000D02*
D03*
X80000D02*
D03*
X90000D02*
D03*
X100000D02*
D03*
X110000D02*
D03*
X120000D02*
D03*
X130000D02*
D03*
X140000D02*
D03*
X150000D02*
D03*
X160000D02*
D03*
X170000D02*
D03*
X180000D02*
D03*
X190000D02*
D03*
X10000Y0D02*
D03*
X20000D02*
D03*
X30000D02*
D03*
X40000D02*
D03*
X50000D02*
D03*
X60000D02*
D03*
X70000D02*
D03*
X80000D02*
D03*
X90000D02*
D03*
X100000D02*
D03*
X110000D02*
D03*
X120000D02*
D03*
X130000D02*
D03*
X140000D02*
D03*
X150000D02*
D03*
X160000D02*
D03*
X170000D02*
D03*
X180000D02*
D03*
X190000D02*
D03*
D46*
X0D02*
D03*
M02*
