G04*
G04 #@! TF.GenerationSoftware,Altium Limited,Altium Designer,20.2.4 (192)*
G04*
G04 Layer_Color=128*
%FSLAX25Y25*%
%MOIN*%
G70*
G04*
G04 #@! TF.SameCoordinates,F9DD2519-DED0-4D21-AB53-5B03216E6D2C*
G04*
G04*
G04 #@! TF.FilePolarity,Positive*
G04*
G01*
G75*
%ADD15R,0.03400X0.04200*%
%ADD16R,0.04000X0.05500*%
%ADD20R,0.05500X0.04000*%
D15*
X7000Y-11500D02*
D03*
X13000D02*
D03*
X55500Y-174000D02*
D03*
X61500D02*
D03*
X42882Y-145500D02*
D03*
X48882D02*
D03*
X198500D02*
D03*
X192500D02*
D03*
X104000D02*
D03*
X98000D02*
D03*
X1032Y-145468D02*
D03*
X7032D02*
D03*
X74221Y-145520D02*
D03*
X80221D02*
D03*
D16*
X61500Y-194000D02*
D03*
X53500D02*
D03*
X199500Y-137000D02*
D03*
X191500D02*
D03*
X49882D02*
D03*
X41882D02*
D03*
X41850Y-154032D02*
D03*
X49850D02*
D03*
X191500Y-154000D02*
D03*
X199500D02*
D03*
X105000Y-137000D02*
D03*
X97000D02*
D03*
Y-154000D02*
D03*
X105000D02*
D03*
X73200D02*
D03*
X81200D02*
D03*
X81221Y-137021D02*
D03*
X73220D02*
D03*
X32Y-136969D02*
D03*
X8032D02*
D03*
X8000Y-154000D02*
D03*
X0D02*
D03*
D20*
X194500Y-19500D02*
D03*
Y-11500D02*
D03*
X25000D02*
D03*
Y-19500D02*
D03*
X-8500Y-11500D02*
D03*
Y-19500D02*
D03*
X175000Y-11500D02*
D03*
Y-19500D02*
D03*
X185000Y-11500D02*
D03*
Y-19500D02*
D03*
X70000Y-11500D02*
D03*
Y-19500D02*
D03*
X34500Y-11500D02*
D03*
Y-19500D02*
D03*
X72500Y-174000D02*
D03*
Y-182000D02*
D03*
M02*
