M48
;Layer_Color=9474304
;FILE_FORMAT=2:5
INCH,LZ
;TYPE=PLATED
T1F00S00C0.01200
T2F00S00C0.02800
T3F00S00C0.04100
T4F00S00C0.04300
;TYPE=NON_PLATED
T5F00S00C0.04724
T6F00S00C0.06300
T7F00S00C0.10827
%
T01
X0018Y-0138
X01995Y-01305
X02015Y-00195
X01945Y-0026
X01655Y-003
X01585Y-00195
X01745Y-00565
X004375Y-0077
X00715Y-0111
X007322Y-0121721
X000975Y-007725
X00185Y-00115
T02
X0107Y-01275
X0127
X01615
X01815
X01715Y-01075
X0117
T03
X005Y0
Y001
X006
X007
X008
X009
X01
X011
X012
X013
X014
X015
X016
X017
X018
X019
Y0
X018
X017
X016
X015
X014
X013
X012
X011
X01
X009
X008
X007
X006
X004
Y001
X003
X002
X001
X0
Y0
X001
X002
X003
T04
X001626Y-0187913
X0026102Y-0172165
X004185Y-0164291
X0000118Y-0164291
X0061535Y-0183976
X0081221Y-0164291
X0096969
X0136339
X0152087
X0191457
X0171772Y-0183976
X0116654
X-0003425Y-0046181
X-0019173Y-0036339
X0004449Y-0020197
T05
X004185Y-0193819
Y-0183976
X0061535Y-0164291
X0081221Y-0183976
Y-0193819
X0096969
Y-0183976
X0116654Y-0164291
X0136339Y-0183976
Y-0193819
X0152087
Y-0183976
X0171772Y-0164291
X0191457Y-0183976
Y-0193819
T06
X0004449Y-0185945
X0024134
X-0017205Y-0044213
Y-0024528
T07
X-0019173Y-0187913
X0209173
Y0005
X-0019173
M30
