G04*
G04 #@! TF.GenerationSoftware,Altium Limited,Altium Designer,20.2.4 (192)*
G04*
G04 Layer_Physical_Order=1*
G04 Layer_Color=255*
%FSLAX25Y25*%
%MOIN*%
G70*
G04*
G04 #@! TF.SameCoordinates,F9DD2519-DED0-4D21-AB53-5B03216E6D2C*
G04*
G04*
G04 #@! TF.FilePolarity,Positive*
G04*
G01*
G75*
%ADD11C,0.01000*%
%ADD14R,0.03000X0.03000*%
%ADD15R,0.03400X0.04200*%
%ADD16R,0.04000X0.05500*%
%ADD17R,0.10433X0.07087*%
%ADD18R,0.04200X0.03400*%
%ADD19R,0.03000X0.03000*%
%ADD20R,0.05500X0.04000*%
%ADD21R,0.07087X0.08780*%
%ADD22R,0.07087X0.08795*%
%ADD23R,0.03937X0.04331*%
%ADD24R,0.06100X0.05200*%
%ADD39C,0.07800*%
%ADD42C,0.01500*%
%ADD43C,0.05000*%
%ADD44C,0.08000*%
%ADD45C,0.07000*%
G04:AMPARAMS|DCode=46|XSize=70mil|YSize=70mil|CornerRadius=17.5mil|HoleSize=0mil|Usage=FLASHONLY|Rotation=0.000|XOffset=0mil|YOffset=0mil|HoleType=Round|Shape=RoundedRectangle|*
%AMROUNDEDRECTD46*
21,1,0.07000,0.03500,0,0,0.0*
21,1,0.03500,0.07000,0,0,0.0*
1,1,0.03500,0.01750,-0.01750*
1,1,0.03500,-0.01750,-0.01750*
1,1,0.03500,-0.01750,0.01750*
1,1,0.03500,0.01750,0.01750*
%
%ADD46ROUNDEDRECTD46*%
%ADD47C,0.02800*%
G36*
X212807Y19450D02*
X214431Y19060D01*
X215974Y18421D01*
X217398Y17548D01*
X218668Y16463D01*
X219753Y15193D01*
X220625Y13769D01*
X221265Y12226D01*
X221655Y10602D01*
X221784Y8956D01*
X221780Y8937D01*
Y-189882D01*
X221784Y-189901D01*
X221655Y-191547D01*
X221265Y-193171D01*
X220625Y-194714D01*
X219753Y-196138D01*
X218668Y-197408D01*
X217398Y-198493D01*
X215974Y-199366D01*
X214431Y-200005D01*
X212807Y-200395D01*
X211161Y-200524D01*
X211142Y-200520D01*
X-21142D01*
X-21161Y-200524D01*
X-22807Y-200395D01*
X-24431Y-200005D01*
X-25974Y-199366D01*
X-27398Y-198493D01*
X-28668Y-197408D01*
X-29753Y-196138D01*
X-30626Y-194714D01*
X-31265Y-193171D01*
X-31655Y-191547D01*
X-31784Y-189901D01*
X-31780Y-189882D01*
Y-128858D01*
X-31776D01*
X-31682Y-128144D01*
X-31407Y-127478D01*
X-30968Y-126906D01*
X-30396Y-126468D01*
X-29730Y-126192D01*
X-29016Y-126098D01*
Y-126094D01*
X-17205D01*
Y-126115D01*
X-15877Y-125940D01*
X-14639Y-125428D01*
X-13577Y-124612D01*
X-12761Y-123550D01*
X-12249Y-122312D01*
X-12074Y-120984D01*
X-12095Y-120984D01*
Y-61929D01*
X-12074Y-61929D01*
X-12249Y-60601D01*
X-12761Y-59364D01*
X-13577Y-58301D01*
X-14639Y-57486D01*
X-15877Y-56973D01*
X-17205Y-56798D01*
Y-56820D01*
X-17205Y-56820D01*
X-29016D01*
Y-56816D01*
X-29730Y-56722D01*
X-30396Y-56446D01*
X-30968Y-56007D01*
X-31407Y-55436D01*
X-31682Y-54770D01*
X-31776Y-54055D01*
X-31780D01*
Y8937D01*
X-31784Y8956D01*
X-31655Y10602D01*
X-31265Y12226D01*
X-30626Y13769D01*
X-29753Y15193D01*
X-28668Y16463D01*
X-27398Y17548D01*
X-25974Y18421D01*
X-24431Y19060D01*
X-22807Y19450D01*
X-21161Y19579D01*
X-21142Y19576D01*
X211142D01*
X211161Y19579D01*
X212807Y19450D01*
D02*
G37*
%LPC*%
G36*
X190000Y14539D02*
X188825Y14384D01*
X187731Y13931D01*
X186791Y13209D01*
X186069Y12269D01*
X185616Y11175D01*
X185547Y10655D01*
X185504Y10328D01*
X184496D01*
X184453Y10655D01*
X184384Y11175D01*
X183931Y12269D01*
X183209Y13209D01*
X182269Y13931D01*
X181175Y14384D01*
X180000Y14539D01*
X178825Y14384D01*
X177731Y13931D01*
X176791Y13209D01*
X176069Y12269D01*
X175616Y11175D01*
X175547Y10655D01*
X175504Y10328D01*
X174496D01*
X174453Y10655D01*
X174384Y11175D01*
X173931Y12269D01*
X173209Y13209D01*
X172269Y13931D01*
X171175Y14384D01*
X170000Y14539D01*
X168825Y14384D01*
X167731Y13931D01*
X166791Y13209D01*
X166069Y12269D01*
X165616Y11175D01*
X165547Y10655D01*
X165504Y10328D01*
X164496D01*
X164453Y10655D01*
X164384Y11175D01*
X163931Y12269D01*
X163209Y13209D01*
X162269Y13931D01*
X161175Y14384D01*
X160500Y14473D01*
Y10000D01*
X159500D01*
Y14473D01*
X158825Y14384D01*
X157731Y13931D01*
X156791Y13209D01*
X156069Y12269D01*
X155616Y11175D01*
X155547Y10655D01*
X155504Y10328D01*
X154496D01*
X154453Y10655D01*
X154384Y11175D01*
X153931Y12269D01*
X153209Y13209D01*
X152269Y13931D01*
X151175Y14384D01*
X150000Y14539D01*
X148825Y14384D01*
X147731Y13931D01*
X146791Y13209D01*
X146069Y12269D01*
X145616Y11175D01*
X145547Y10655D01*
X145504Y10328D01*
X144496D01*
X144453Y10655D01*
X144384Y11175D01*
X143931Y12269D01*
X143209Y13209D01*
X142269Y13931D01*
X141175Y14384D01*
X140500Y14473D01*
Y10000D01*
X139500D01*
Y14473D01*
X138825Y14384D01*
X137731Y13931D01*
X136791Y13209D01*
X136069Y12269D01*
X135616Y11175D01*
X135547Y10655D01*
X135504Y10328D01*
X134496D01*
X134453Y10655D01*
X134384Y11175D01*
X133931Y12269D01*
X133209Y13209D01*
X132269Y13931D01*
X131175Y14384D01*
X130000Y14539D01*
X128825Y14384D01*
X127731Y13931D01*
X126791Y13209D01*
X126069Y12269D01*
X125616Y11175D01*
X125547Y10655D01*
X125504Y10328D01*
X124496D01*
X124453Y10655D01*
X124384Y11175D01*
X123931Y12269D01*
X123209Y13209D01*
X122269Y13931D01*
X121175Y14384D01*
X120000Y14539D01*
X118825Y14384D01*
X117731Y13931D01*
X116791Y13209D01*
X116069Y12269D01*
X115616Y11175D01*
X115547Y10655D01*
X115504Y10328D01*
X114496D01*
X114453Y10655D01*
X114384Y11175D01*
X113931Y12269D01*
X113209Y13209D01*
X112269Y13931D01*
X111175Y14384D01*
X110000Y14539D01*
X108825Y14384D01*
X107731Y13931D01*
X106791Y13209D01*
X106069Y12269D01*
X105616Y11175D01*
X105547Y10655D01*
X105504Y10328D01*
X104496D01*
X104453Y10655D01*
X104384Y11175D01*
X103931Y12269D01*
X103209Y13209D01*
X102269Y13931D01*
X101175Y14384D01*
X100000Y14539D01*
X98825Y14384D01*
X97731Y13931D01*
X96791Y13209D01*
X96069Y12269D01*
X95616Y11175D01*
X95547Y10655D01*
X95504Y10328D01*
X94496D01*
X94453Y10655D01*
X94384Y11175D01*
X93931Y12269D01*
X93209Y13209D01*
X92269Y13931D01*
X91175Y14384D01*
X90500Y14473D01*
Y10000D01*
X89500D01*
Y14473D01*
X88825Y14384D01*
X87731Y13931D01*
X86791Y13209D01*
X86069Y12269D01*
X85616Y11175D01*
X85547Y10655D01*
X85504Y10328D01*
X84496D01*
X84453Y10655D01*
X84384Y11175D01*
X83931Y12269D01*
X83209Y13209D01*
X82269Y13931D01*
X81175Y14384D01*
X80000Y14539D01*
X78825Y14384D01*
X77731Y13931D01*
X76791Y13209D01*
X76069Y12269D01*
X75616Y11175D01*
X75547Y10655D01*
X75504Y10328D01*
X74496D01*
X74453Y10655D01*
X74384Y11175D01*
X73931Y12269D01*
X73209Y13209D01*
X72269Y13931D01*
X71175Y14384D01*
X70000Y14539D01*
X68825Y14384D01*
X67731Y13931D01*
X66791Y13209D01*
X66069Y12269D01*
X65616Y11175D01*
X65547Y10655D01*
X65504Y10328D01*
X64496D01*
X64453Y10655D01*
X64384Y11175D01*
X63931Y12269D01*
X63209Y13209D01*
X62269Y13931D01*
X61175Y14384D01*
X60000Y14539D01*
X58825Y14384D01*
X57731Y13931D01*
X56791Y13209D01*
X56069Y12269D01*
X55616Y11175D01*
X55547Y10655D01*
X55504Y10328D01*
X54496D01*
X54453Y10655D01*
X54384Y11175D01*
X53931Y12269D01*
X53209Y13209D01*
X52269Y13931D01*
X51175Y14384D01*
X50000Y14539D01*
X48825Y14384D01*
X47731Y13931D01*
X46791Y13209D01*
X46069Y12269D01*
X45616Y11175D01*
X45547Y10655D01*
X45504Y10328D01*
X44496D01*
X44453Y10655D01*
X44384Y11175D01*
X43931Y12269D01*
X43209Y13209D01*
X42269Y13931D01*
X41175Y14384D01*
X40000Y14539D01*
X38825Y14384D01*
X37731Y13931D01*
X36791Y13209D01*
X36069Y12269D01*
X35616Y11175D01*
X35547Y10655D01*
X35504Y10328D01*
X34496D01*
X34453Y10655D01*
X34384Y11175D01*
X33931Y12269D01*
X33209Y13209D01*
X32269Y13931D01*
X31175Y14384D01*
X30000Y14539D01*
X28825Y14384D01*
X27731Y13931D01*
X26791Y13209D01*
X26069Y12269D01*
X25616Y11175D01*
X25547Y10655D01*
X25504Y10328D01*
X24496D01*
X24453Y10655D01*
X24384Y11175D01*
X23931Y12269D01*
X23209Y13209D01*
X22269Y13931D01*
X21175Y14384D01*
X20500Y14473D01*
Y10000D01*
X19500D01*
Y14473D01*
X18825Y14384D01*
X17731Y13931D01*
X16791Y13209D01*
X16069Y12269D01*
X15616Y11175D01*
X15547Y10655D01*
X15504Y10328D01*
X14496D01*
X14453Y10655D01*
X14384Y11175D01*
X13931Y12269D01*
X13209Y13209D01*
X12269Y13931D01*
X11175Y14384D01*
X10000Y14539D01*
X8825Y14384D01*
X7731Y13931D01*
X6791Y13209D01*
X6069Y12269D01*
X5616Y11175D01*
X5547Y10655D01*
X5504Y10328D01*
X4496D01*
X4453Y10655D01*
X4384Y11175D01*
X3931Y12269D01*
X3209Y13209D01*
X2269Y13931D01*
X1175Y14384D01*
X0Y14539D01*
X-1175Y14384D01*
X-2269Y13931D01*
X-3209Y13209D01*
X-3931Y12269D01*
X-4384Y11175D01*
X-4539Y10000D01*
X-4384Y8825D01*
X-3931Y7731D01*
X-3209Y6791D01*
X-2269Y6069D01*
X-1175Y5616D01*
X-499Y5527D01*
X-475Y5524D01*
X-501Y5129D01*
X-501D01*
X-501Y5129D01*
X-1250Y4524D01*
X-1750D01*
X-2468Y4429D01*
X-3137Y4152D01*
X-3711Y3711D01*
X-4152Y3137D01*
X-4429Y2468D01*
X-4524Y1750D01*
Y-1750D01*
X-4429Y-2468D01*
X-4152Y-3137D01*
X-3711Y-3711D01*
X-3137Y-4152D01*
X-2468Y-4429D01*
X-1750Y-4524D01*
X1750D01*
X2468Y-4429D01*
X3137Y-4152D01*
X3711Y-3711D01*
X4152Y-3137D01*
X4429Y-2468D01*
X4524Y-1750D01*
Y-1250D01*
X5129Y-501D01*
X5129Y-501D01*
Y-501D01*
X5524Y-475D01*
X5527Y-499D01*
X5616Y-1175D01*
X6069Y-2269D01*
X6791Y-3209D01*
X7731Y-3931D01*
X8825Y-4384D01*
X10000Y-4539D01*
X11175Y-4384D01*
X12269Y-3931D01*
X13209Y-3209D01*
X13931Y-2269D01*
X14384Y-1175D01*
X14453Y-654D01*
X14496Y-328D01*
X15504D01*
X15547Y-654D01*
X15616Y-1175D01*
X16069Y-2269D01*
X16791Y-3209D01*
X17731Y-3931D01*
X18825Y-4384D01*
X20000Y-4539D01*
X21175Y-4384D01*
X22269Y-3931D01*
X23209Y-3209D01*
X23931Y-2269D01*
X24384Y-1175D01*
X24453Y-654D01*
X24496Y-328D01*
X25504D01*
X25547Y-654D01*
X25616Y-1175D01*
X26069Y-2269D01*
X26791Y-3209D01*
X27731Y-3931D01*
X28825Y-4384D01*
X30000Y-4539D01*
X31175Y-4384D01*
X31660Y-4183D01*
X32716Y-5239D01*
Y-9800D01*
X31400D01*
Y-14800D01*
X31400Y-15800D01*
X31400Y-16200D01*
Y-21200D01*
X37600D01*
Y-21200D01*
X38598Y-21204D01*
X39000Y-21284D01*
X40250D01*
Y-22500D01*
X42216D01*
Y-30358D01*
X24400D01*
Y-28542D01*
X16300D01*
Y-35742D01*
X24400D01*
Y-33926D01*
X47600D01*
Y-35742D01*
X55700D01*
Y-28542D01*
X47600D01*
Y-30358D01*
X45784D01*
Y-22500D01*
X47750D01*
Y-16500D01*
X40250D01*
Y-16812D01*
X39262Y-17238D01*
X38683Y-16851D01*
X38000Y-16716D01*
X37600Y-16316D01*
X37600Y-15200D01*
X37600Y-14800D01*
Y-9800D01*
X36284D01*
Y-4500D01*
X36186Y-4006D01*
X36673Y-3543D01*
X37002Y-3371D01*
X37731Y-3931D01*
X38825Y-4384D01*
X39500Y-4473D01*
Y0D01*
X40500D01*
Y-4473D01*
X41175Y-4384D01*
X42269Y-3931D01*
X43209Y-3209D01*
X43931Y-2269D01*
X44384Y-1175D01*
X44453Y-654D01*
X44496Y-328D01*
X45504D01*
X45547Y-654D01*
X45616Y-1175D01*
X46069Y-2269D01*
X46791Y-3209D01*
X47731Y-3931D01*
X48825Y-4384D01*
X50000Y-4539D01*
X51175Y-4384D01*
X52269Y-3931D01*
X53209Y-3209D01*
X53931Y-2269D01*
X54384Y-1175D01*
X54453Y-654D01*
X54496Y-328D01*
X55504D01*
X55547Y-654D01*
X55616Y-1175D01*
X56069Y-2269D01*
X56791Y-3209D01*
X57731Y-3931D01*
X58825Y-4384D01*
X60000Y-4539D01*
X61175Y-4384D01*
X62269Y-3931D01*
X63209Y-3209D01*
X63931Y-2269D01*
X64384Y-1175D01*
X64453Y-654D01*
X64496Y-328D01*
X65504D01*
X65547Y-654D01*
X65616Y-1175D01*
X66069Y-2269D01*
X66791Y-3209D01*
X67731Y-3931D01*
X68216Y-4132D01*
Y-9800D01*
X66900D01*
Y-14800D01*
X66900Y-15800D01*
X66900Y-16200D01*
Y-21200D01*
X73100D01*
Y-21200D01*
X74098Y-21204D01*
X74500Y-21284D01*
X75750D01*
Y-22500D01*
X77716D01*
Y-26000D01*
X75750D01*
Y-32000D01*
X83250D01*
Y-26000D01*
X81284D01*
Y-22500D01*
X83250D01*
Y-16500D01*
X75750D01*
Y-16812D01*
X74762Y-17238D01*
X74183Y-16851D01*
X73500Y-16716D01*
X73100Y-16316D01*
X73100Y-15200D01*
X73100Y-14800D01*
Y-9800D01*
X71784D01*
Y-4132D01*
X72269Y-3931D01*
X73209Y-3209D01*
X73931Y-2269D01*
X74384Y-1175D01*
X74453Y-654D01*
X74496Y-328D01*
X75504D01*
X75547Y-654D01*
X75616Y-1175D01*
X76069Y-2269D01*
X76791Y-3209D01*
X77731Y-3931D01*
X78825Y-4384D01*
X80000Y-4539D01*
X81175Y-4384D01*
X82269Y-3931D01*
X83209Y-3209D01*
X83931Y-2269D01*
X84384Y-1175D01*
X84453Y-654D01*
X84496Y-328D01*
X85504D01*
X85547Y-654D01*
X85616Y-1175D01*
X86069Y-2269D01*
X86791Y-3209D01*
X87731Y-3931D01*
X88825Y-4384D01*
X90000Y-4539D01*
X91175Y-4384D01*
X92269Y-3931D01*
X93209Y-3209D01*
X93931Y-2269D01*
X94384Y-1175D01*
X94453Y-654D01*
X94496Y-328D01*
X95504D01*
X95547Y-654D01*
X95616Y-1175D01*
X96069Y-2269D01*
X96791Y-3209D01*
X97731Y-3931D01*
X98825Y-4384D01*
X100000Y-4539D01*
X101175Y-4384D01*
X102269Y-3931D01*
X103209Y-3209D01*
X103931Y-2269D01*
X104384Y-1175D01*
X104453Y-654D01*
X104496Y-328D01*
X105504D01*
X105547Y-654D01*
X105616Y-1175D01*
X106069Y-2269D01*
X106791Y-3209D01*
X107731Y-3931D01*
X108825Y-4384D01*
X110000Y-4539D01*
X111175Y-4384D01*
X112269Y-3931D01*
X113209Y-3209D01*
X113931Y-2269D01*
X114384Y-1175D01*
X114453Y-654D01*
X114496Y-328D01*
X115504D01*
X115547Y-654D01*
X115616Y-1175D01*
X116069Y-2269D01*
X116791Y-3209D01*
X117731Y-3931D01*
X118825Y-4384D01*
X119500Y-4473D01*
Y0D01*
X120500D01*
Y-4473D01*
X121175Y-4384D01*
X122269Y-3931D01*
X123209Y-3209D01*
X123931Y-2269D01*
X124384Y-1175D01*
X124453Y-654D01*
X124496Y-328D01*
X125504D01*
X125547Y-654D01*
X125616Y-1175D01*
X126069Y-2269D01*
X126791Y-3209D01*
X127731Y-3931D01*
X128825Y-4384D01*
X130000Y-4539D01*
X131175Y-4384D01*
X132269Y-3931D01*
X133209Y-3209D01*
X133931Y-2269D01*
X134384Y-1175D01*
X134453Y-654D01*
X134496Y-328D01*
X135504D01*
X135547Y-654D01*
X135616Y-1175D01*
X136069Y-2269D01*
X136791Y-3209D01*
X137731Y-3931D01*
X138825Y-4384D01*
X140000Y-4539D01*
X141175Y-4384D01*
X142269Y-3931D01*
X143209Y-3209D01*
X143931Y-2269D01*
X144384Y-1175D01*
X144453Y-654D01*
X144496Y-328D01*
X145504D01*
X145547Y-654D01*
X145616Y-1175D01*
X146069Y-2269D01*
X146791Y-3209D01*
X147731Y-3931D01*
X148825Y-4384D01*
X150000Y-4539D01*
X151175Y-4384D01*
X152269Y-3931D01*
X153209Y-3209D01*
X153931Y-2269D01*
X154384Y-1175D01*
X154453Y-654D01*
X154496Y-328D01*
X155504D01*
X155547Y-654D01*
X155616Y-1175D01*
X156069Y-2269D01*
X156791Y-3209D01*
X157731Y-3931D01*
X158825Y-4384D01*
X160000Y-4539D01*
X161175Y-4384D01*
X162269Y-3931D01*
X163209Y-3209D01*
X163931Y-2269D01*
X164384Y-1175D01*
X164453Y-654D01*
X164496Y-328D01*
X165504D01*
X165547Y-654D01*
X165616Y-1175D01*
X166069Y-2269D01*
X166791Y-3209D01*
X167731Y-3931D01*
X168825Y-4384D01*
X170000Y-4539D01*
X171175Y-4384D01*
X172269Y-3931D01*
X172471Y-3776D01*
X173471Y-4270D01*
Y-9800D01*
X171900D01*
Y-14800D01*
X171900Y-15800D01*
X171500Y-16716D01*
X170817Y-16851D01*
X170238Y-17238D01*
X170238Y-17238D01*
X169250Y-16812D01*
Y-16500D01*
X161750D01*
Y-17716D01*
X160150D01*
X159436Y-17239D01*
X158500Y-17053D01*
X157564Y-17239D01*
X156770Y-17770D01*
X156239Y-18564D01*
X156053Y-19500D01*
X156239Y-20436D01*
X156770Y-21230D01*
X157564Y-21761D01*
X158500Y-21947D01*
X159436Y-21761D01*
X160150Y-21284D01*
X161750D01*
Y-22500D01*
X169250D01*
Y-21284D01*
X170500D01*
X170902Y-21204D01*
X171900Y-21200D01*
Y-21200D01*
X178100D01*
Y-16200D01*
X178100Y-15200D01*
X178100Y-14800D01*
Y-9800D01*
X176529D01*
Y-4270D01*
X177529Y-3776D01*
X177731Y-3931D01*
X178825Y-4384D01*
X180000Y-4539D01*
X181175Y-4384D01*
X182269Y-3931D01*
X182471Y-3776D01*
X183471Y-4270D01*
Y-9800D01*
X181900D01*
Y-14800D01*
X181900Y-15800D01*
X181900Y-16200D01*
Y-21200D01*
X188100D01*
Y-21200D01*
X189098Y-21204D01*
X189500Y-21284D01*
X190750D01*
Y-22500D01*
X198250D01*
Y-21284D01*
X199850D01*
X200564Y-21761D01*
X201500Y-21947D01*
X202436Y-21761D01*
X203230Y-21230D01*
X203761Y-20436D01*
X203947Y-19500D01*
X203761Y-18564D01*
X203230Y-17770D01*
X202436Y-17239D01*
X201500Y-17053D01*
X200564Y-17239D01*
X199850Y-17716D01*
X198250D01*
Y-16500D01*
X190750D01*
Y-16812D01*
X189762Y-17238D01*
X189183Y-16851D01*
X188500Y-16716D01*
X188100Y-16316D01*
X188100Y-15200D01*
X188100Y-14800D01*
Y-9800D01*
X186529D01*
Y-4270D01*
X187529Y-3776D01*
X187731Y-3931D01*
X188825Y-4384D01*
X189500Y-4473D01*
Y0D01*
X190000D01*
Y500D01*
X194473D01*
X194384Y1175D01*
X193931Y2269D01*
X193209Y3209D01*
X192269Y3931D01*
X191175Y4384D01*
X190655Y4453D01*
X190328Y4496D01*
Y5504D01*
X190655Y5547D01*
X191175Y5616D01*
X192269Y6069D01*
X193209Y6791D01*
X193931Y7731D01*
X194384Y8825D01*
X194539Y10000D01*
X194384Y11175D01*
X193931Y12269D01*
X193209Y13209D01*
X192269Y13931D01*
X191175Y14384D01*
X190000Y14539D01*
D02*
G37*
G36*
X209173Y11444D02*
X207916Y11321D01*
X206707Y10954D01*
X205593Y10358D01*
X204616Y9557D01*
X203815Y8580D01*
X203219Y7466D01*
X202853Y6257D01*
X202729Y5000D01*
X202853Y3743D01*
X203219Y2534D01*
X203815Y1420D01*
X204616Y443D01*
X205593Y-358D01*
X206707Y-954D01*
X207916Y-1321D01*
X209173Y-1444D01*
X210431Y-1321D01*
X211639Y-954D01*
X212754Y-358D01*
X213730Y443D01*
X214532Y1420D01*
X215127Y2534D01*
X215494Y3743D01*
X215618Y5000D01*
X215494Y6257D01*
X215127Y7466D01*
X214532Y8580D01*
X213730Y9557D01*
X212754Y10358D01*
X211639Y10954D01*
X210431Y11321D01*
X209173Y11444D01*
D02*
G37*
G36*
X-19173D02*
X-20430Y11321D01*
X-21639Y10954D01*
X-22754Y10358D01*
X-23730Y9557D01*
X-24532Y8580D01*
X-25127Y7466D01*
X-25494Y6257D01*
X-25618Y5000D01*
X-25494Y3743D01*
X-25127Y2534D01*
X-24532Y1420D01*
X-23730Y443D01*
X-22754Y-358D01*
X-21639Y-954D01*
X-20430Y-1321D01*
X-19173Y-1444D01*
X-17916Y-1321D01*
X-16707Y-954D01*
X-15593Y-358D01*
X-14616Y443D01*
X-13815Y1420D01*
X-13219Y2534D01*
X-12853Y3743D01*
X-12729Y5000D01*
X-12853Y6257D01*
X-13219Y7466D01*
X-13815Y8580D01*
X-14616Y9557D01*
X-15593Y10358D01*
X-16707Y10954D01*
X-17916Y11321D01*
X-19173Y11444D01*
D02*
G37*
G36*
X194473Y-500D02*
X190500D01*
Y-4473D01*
X191175Y-4384D01*
X192269Y-3931D01*
X193209Y-3209D01*
X193931Y-2269D01*
X194384Y-1175D01*
X194473Y-500D01*
D02*
G37*
G36*
X28750Y-8500D02*
X21250D01*
Y-9716D01*
X20150D01*
X19436Y-9239D01*
X18500Y-9053D01*
X17564Y-9239D01*
X16770Y-9770D01*
X16239Y-10564D01*
X16053Y-11500D01*
X16239Y-12436D01*
X16770Y-13230D01*
X17564Y-13761D01*
X18500Y-13947D01*
X19436Y-13761D01*
X20150Y-13284D01*
X21250D01*
Y-14500D01*
X28750D01*
Y-8500D01*
D02*
G37*
G36*
X198250D02*
X190750D01*
Y-11000D01*
X198250D01*
Y-8500D01*
D02*
G37*
G36*
X169250D02*
X161750D01*
Y-11000D01*
X169250D01*
Y-8500D01*
D02*
G37*
G36*
X83250D02*
X75750D01*
Y-11000D01*
X83250D01*
Y-8500D01*
D02*
G37*
G36*
X47750D02*
X40250D01*
Y-11000D01*
X47750D01*
Y-8500D01*
D02*
G37*
G36*
X198250Y-12000D02*
X190750D01*
Y-14500D01*
X198250D01*
Y-12000D01*
D02*
G37*
G36*
X169250D02*
X161750D01*
Y-14500D01*
X169250D01*
Y-12000D01*
D02*
G37*
G36*
X83250D02*
X75750D01*
Y-14500D01*
X83250D01*
Y-12000D01*
D02*
G37*
G36*
X47750D02*
X40250D01*
Y-14500D01*
X47750D01*
Y-12000D01*
D02*
G37*
G36*
X28750Y-16500D02*
X21250D01*
Y-19000D01*
X25000D01*
X28750D01*
Y-16500D01*
D02*
G37*
G36*
Y-20000D02*
X25000D01*
X21250D01*
Y-22500D01*
X28750D01*
Y-20000D01*
D02*
G37*
G36*
X4449Y-15154D02*
X3144Y-15326D01*
X1927Y-15829D01*
X883Y-16631D01*
X81Y-17675D01*
X-422Y-18892D01*
X-594Y-20197D01*
X-422Y-21502D01*
X81Y-22718D01*
X883Y-23763D01*
X1927Y-24564D01*
X3144Y-25068D01*
X4449Y-25240D01*
X5754Y-25068D01*
X6970Y-24564D01*
X8015Y-23763D01*
X8816Y-22718D01*
X9320Y-21502D01*
X9492Y-20197D01*
X9320Y-18892D01*
X8816Y-17675D01*
X8015Y-16631D01*
X6970Y-15829D01*
X5754Y-15326D01*
X4449Y-15154D01*
D02*
G37*
G36*
X194500Y-23553D02*
X193564Y-23739D01*
X192850Y-24216D01*
X161500D01*
X160817Y-24351D01*
X160238Y-24738D01*
X160238Y-24738D01*
X119261Y-65716D01*
X52239D01*
X48262Y-61738D01*
X47683Y-61352D01*
X47000Y-61216D01*
X42500D01*
Y-60500D01*
X37500D01*
Y-61471D01*
X30500D01*
X29915Y-61587D01*
X29419Y-61919D01*
X24919Y-66419D01*
X24587Y-66915D01*
X24471Y-67500D01*
Y-68250D01*
X23000D01*
Y-75750D01*
X29000D01*
Y-68250D01*
X28827D01*
X28413Y-67250D01*
X31133Y-64529D01*
X36793D01*
X37445Y-65181D01*
X37494Y-65529D01*
X37487Y-65609D01*
X37385Y-66452D01*
X35169Y-68669D01*
X34837Y-69165D01*
X34770Y-69500D01*
X33750D01*
Y-74500D01*
X38750D01*
Y-69500D01*
X39555Y-69029D01*
X40445D01*
X41250Y-69500D01*
X41250Y-70029D01*
Y-74500D01*
X41576D01*
X41866Y-75500D01*
X41489Y-76064D01*
X41303Y-77000D01*
X41489Y-77936D01*
X41866Y-78500D01*
X41582Y-79295D01*
X41423Y-79500D01*
X37500D01*
Y-80471D01*
X29000D01*
Y-78250D01*
X23000D01*
Y-85750D01*
X29000D01*
Y-83529D01*
X37500D01*
Y-84500D01*
X42500D01*
Y-83529D01*
X54250D01*
Y-85000D01*
X61750D01*
Y-79000D01*
X54250D01*
Y-80471D01*
X43707D01*
X43683Y-80402D01*
X43686Y-80353D01*
X44361Y-79325D01*
X44686Y-79261D01*
X45480Y-78730D01*
X46011Y-77936D01*
X46197Y-77000D01*
X46011Y-76064D01*
X45634Y-75500D01*
X45924Y-74500D01*
X46250D01*
Y-70827D01*
X47250Y-70413D01*
X51919Y-75081D01*
X52415Y-75413D01*
X53000Y-75529D01*
X54250D01*
Y-77000D01*
X61750D01*
Y-71000D01*
X54250D01*
Y-71673D01*
X53250Y-72087D01*
X51410Y-70247D01*
X51861Y-69284D01*
X66216D01*
Y-71000D01*
X64250D01*
Y-77000D01*
X71750D01*
Y-71000D01*
X69784D01*
Y-69284D01*
X120000D01*
X120683Y-69148D01*
X121262Y-68762D01*
X161988Y-28036D01*
X162762Y-28117D01*
X163239Y-29064D01*
X163053Y-30000D01*
X163239Y-30936D01*
X163770Y-31730D01*
X163971Y-31865D01*
Y-33250D01*
X163000D01*
Y-38250D01*
X168000D01*
Y-37279D01*
X172000D01*
Y-42000D01*
X172971D01*
Y-54636D01*
X172770Y-54770D01*
X172239Y-55564D01*
X172053Y-56500D01*
X172239Y-57436D01*
X172770Y-58230D01*
X173564Y-58761D01*
X174500Y-58947D01*
X175436Y-58761D01*
X176230Y-58230D01*
X176761Y-57436D01*
X176947Y-56500D01*
X176761Y-55564D01*
X176230Y-54770D01*
X176029Y-54636D01*
Y-42000D01*
X177000D01*
Y-37279D01*
X179000D01*
Y-39750D01*
X185000D01*
Y-32250D01*
X179000D01*
Y-34221D01*
X168000D01*
Y-33250D01*
X167029D01*
Y-31865D01*
X167230Y-31730D01*
X167761Y-30936D01*
X167947Y-30000D01*
X167761Y-29064D01*
X167574Y-28784D01*
X168109Y-27784D01*
X192850D01*
X193564Y-28261D01*
X194500Y-28447D01*
X195436Y-28261D01*
X196230Y-27730D01*
X196761Y-26936D01*
X196947Y-26000D01*
X196761Y-25064D01*
X196230Y-24270D01*
X195436Y-23739D01*
X194500Y-23553D01*
D02*
G37*
G36*
X-17205Y-20342D02*
X-18288Y-20484D01*
X-19298Y-20902D01*
X-20165Y-21568D01*
X-20830Y-22435D01*
X-21248Y-23444D01*
X-21391Y-24528D01*
X-21248Y-25611D01*
X-20830Y-26621D01*
X-20165Y-27487D01*
X-19298Y-28153D01*
X-18288Y-28571D01*
X-17205Y-28713D01*
X-16121Y-28571D01*
X-15112Y-28153D01*
X-14245Y-27487D01*
X-13580Y-26621D01*
X-13161Y-25611D01*
X-13019Y-24528D01*
X-13161Y-23444D01*
X-13580Y-22435D01*
X-14245Y-21568D01*
X-15112Y-20902D01*
X-16121Y-20484D01*
X-17205Y-20342D01*
D02*
G37*
G36*
X210405Y-32835D02*
X204468D01*
Y-35500D01*
X207437D01*
X210405D01*
Y-32835D01*
D02*
G37*
G36*
X-18673Y-31462D02*
Y-35839D01*
X-14297D01*
X-14399Y-35059D01*
X-14893Y-33867D01*
X-15678Y-32844D01*
X-16702Y-32058D01*
X-17894Y-31565D01*
X-18673Y-31462D01*
D02*
G37*
G36*
X-19673D02*
X-20452Y-31565D01*
X-21644Y-32058D01*
X-22668Y-32844D01*
X-23453Y-33867D01*
X-23947Y-35059D01*
X-24050Y-35839D01*
X-19673D01*
Y-31462D01*
D02*
G37*
G36*
X210405Y-36500D02*
X207437D01*
X204468D01*
Y-39165D01*
X210405D01*
Y-36500D01*
D02*
G37*
G36*
X193000Y-32250D02*
X187000D01*
Y-39750D01*
X193000D01*
Y-37784D01*
X196595D01*
Y-39165D01*
X202532D01*
Y-32835D01*
X196595D01*
Y-34216D01*
X193000D01*
Y-32250D01*
D02*
G37*
G36*
X168000Y-40750D02*
X166000D01*
Y-43250D01*
Y-45750D01*
X168000D01*
Y-40750D01*
D02*
G37*
G36*
X165000D02*
X163000D01*
Y-45750D01*
X165000D01*
Y-43250D01*
Y-40750D01*
D02*
G37*
G36*
X-14297Y-36839D02*
X-19173D01*
X-24050D01*
X-23947Y-37618D01*
X-23453Y-38810D01*
X-22668Y-39833D01*
X-21644Y-40619D01*
X-21109Y-40841D01*
X-20766Y-42036D01*
X-20830Y-42120D01*
X-21248Y-43129D01*
X-21391Y-44213D01*
X-21248Y-45296D01*
X-20830Y-46306D01*
X-20165Y-47172D01*
X-19298Y-47838D01*
X-18288Y-48256D01*
X-17205Y-48398D01*
X-16121Y-48256D01*
X-15112Y-47838D01*
X-14245Y-47172D01*
X-13580Y-46306D01*
X-13161Y-45296D01*
X-13019Y-44213D01*
X-13161Y-43129D01*
X-13580Y-42120D01*
X-14245Y-41253D01*
X-15067Y-40622D01*
X-15132Y-40553D01*
X-15351Y-39406D01*
X-14893Y-38810D01*
X-14399Y-37618D01*
X-14297Y-36839D01*
D02*
G37*
G36*
X55700Y-46258D02*
X47600D01*
Y-49358D01*
X51650D01*
X55700D01*
Y-46258D01*
D02*
G37*
G36*
X24400D02*
X16300D01*
Y-49358D01*
X20350D01*
X24400D01*
Y-46258D01*
D02*
G37*
G36*
X90405Y-48335D02*
X84469D01*
Y-51000D01*
X87437D01*
X90405D01*
Y-48335D01*
D02*
G37*
G36*
X-3425Y-41138D02*
X-4730Y-41310D01*
X-5947Y-41814D01*
X-6991Y-42615D01*
X-7793Y-43659D01*
X-8297Y-44876D01*
X-8468Y-46181D01*
X-8297Y-47486D01*
X-7793Y-48703D01*
X-6991Y-49747D01*
X-5947Y-50549D01*
X-4730Y-51052D01*
X-3425Y-51224D01*
X-2120Y-51052D01*
X-904Y-50549D01*
X141Y-49747D01*
X942Y-48703D01*
X1446Y-47486D01*
X1618Y-46181D01*
X1446Y-44876D01*
X942Y-43659D01*
X141Y-42615D01*
X-904Y-41814D01*
X-2120Y-41310D01*
X-3425Y-41138D01*
D02*
G37*
G36*
X55700Y-50358D02*
X51650D01*
X47600D01*
Y-53458D01*
X55700D01*
Y-50358D01*
D02*
G37*
G36*
X24400D02*
X20350D01*
X16300D01*
Y-53458D01*
X24400D01*
Y-50358D01*
D02*
G37*
G36*
X90405Y-52000D02*
X87437D01*
X84469D01*
Y-54665D01*
X90405D01*
Y-52000D01*
D02*
G37*
G36*
X83250Y-34000D02*
X75750D01*
Y-40000D01*
X77716D01*
Y-48335D01*
X76595D01*
Y-54665D01*
X82531D01*
Y-48335D01*
X81284D01*
Y-40000D01*
X83250D01*
Y-34000D01*
D02*
G37*
G36*
X21000Y-68250D02*
X18500D01*
Y-72000D01*
Y-75750D01*
X21000D01*
Y-68250D01*
D02*
G37*
G36*
X17500D02*
X15000D01*
Y-75750D01*
X17500D01*
Y-72000D01*
Y-68250D01*
D02*
G37*
G36*
X157055Y-74957D02*
X144622D01*
Y-77716D01*
X142878D01*
Y-74957D01*
X130445D01*
Y-84043D01*
X142878D01*
Y-81284D01*
X144622D01*
Y-84043D01*
X157055D01*
Y-74957D01*
D02*
G37*
G36*
X125555D02*
X113122D01*
Y-77716D01*
X110000D01*
X110000Y-77716D01*
X109317Y-77851D01*
X108738Y-78238D01*
X108738Y-78238D01*
X94238Y-92738D01*
X93852Y-93317D01*
X93716Y-94000D01*
Y-125261D01*
X91405Y-127571D01*
X90405Y-127157D01*
Y-121835D01*
X88966D01*
Y-118437D01*
X88850Y-117852D01*
X88518Y-117356D01*
X84029Y-112866D01*
Y-111500D01*
X88750D01*
Y-109500D01*
X86250D01*
Y-108500D01*
X88750D01*
Y-106500D01*
X84029D01*
Y-102500D01*
X85000D01*
Y-97500D01*
X80000D01*
Y-102500D01*
X80971D01*
Y-106500D01*
X76250D01*
Y-111500D01*
X77221D01*
Y-115558D01*
X73457Y-119321D01*
X73220Y-119273D01*
X72284Y-119460D01*
X71490Y-119990D01*
X70960Y-120784D01*
X70774Y-121721D01*
X70872Y-122216D01*
X70222Y-123216D01*
X68750D01*
Y-122000D01*
X61250D01*
Y-128000D01*
X68750D01*
Y-126784D01*
X76595D01*
Y-128165D01*
X82531D01*
Y-121835D01*
X76683D01*
X76039Y-121065D01*
X79831Y-117272D01*
X80163Y-116776D01*
X80279Y-116191D01*
Y-114676D01*
X81279Y-114373D01*
X81419Y-114581D01*
X85908Y-119070D01*
Y-121835D01*
X84469D01*
Y-128165D01*
X89397D01*
X89811Y-129165D01*
X82761Y-136216D01*
X19784D01*
Y-134750D01*
X21000D01*
Y-127250D01*
X19784D01*
Y-124750D01*
X21000D01*
Y-117250D01*
X19784D01*
Y-114750D01*
X21000D01*
Y-107250D01*
X15000D01*
Y-114750D01*
X16216D01*
Y-117250D01*
X15000D01*
Y-124750D01*
X16216D01*
Y-127250D01*
X15000D01*
Y-134750D01*
X16216D01*
Y-136351D01*
X15739Y-137064D01*
X15553Y-138000D01*
X15739Y-138936D01*
X16270Y-139730D01*
X17064Y-140261D01*
X18000Y-140447D01*
X18936Y-140261D01*
X19649Y-139784D01*
X83500D01*
X84183Y-139648D01*
X84762Y-139262D01*
X96762Y-127262D01*
X96762Y-127262D01*
X97149Y-126683D01*
X97284Y-126000D01*
Y-94739D01*
X110739Y-81284D01*
X113122D01*
Y-84043D01*
X125555D01*
Y-74957D01*
D02*
G37*
G36*
X82531Y-78835D02*
X76595D01*
Y-80216D01*
X71750D01*
Y-79000D01*
X64250D01*
Y-85000D01*
X71750D01*
Y-83784D01*
X76595D01*
Y-85165D01*
X82531D01*
Y-78835D01*
D02*
G37*
G36*
X90405D02*
X84469D01*
Y-81500D01*
X87437D01*
X90405D01*
Y-78835D01*
D02*
G37*
G36*
Y-82500D02*
X87437D01*
X84469D01*
Y-85165D01*
X90405D01*
Y-82500D01*
D02*
G37*
G36*
X9750Y-74803D02*
X8814Y-74989D01*
X8020Y-75520D01*
X7489Y-76314D01*
X7303Y-77250D01*
X7489Y-78186D01*
X8020Y-78980D01*
X8814Y-79511D01*
X9655Y-79678D01*
X13238Y-83262D01*
X13238Y-83262D01*
X13817Y-83649D01*
X14500Y-83784D01*
X15000D01*
Y-85750D01*
X21000D01*
Y-78250D01*
X15000D01*
Y-78670D01*
X14076Y-79053D01*
X12178Y-77155D01*
X12011Y-76314D01*
X11480Y-75520D01*
X10686Y-74989D01*
X9750Y-74803D01*
D02*
G37*
G36*
X46250Y-88500D02*
X41250D01*
Y-90500D01*
X43750D01*
X46250D01*
Y-88500D01*
D02*
G37*
G36*
Y-91500D02*
X43750D01*
X41250D01*
Y-93500D01*
X46250D01*
Y-91500D01*
D02*
G37*
G36*
X21700Y-87900D02*
Y-87900D01*
X21329Y-87900D01*
X16300D01*
Y-94100D01*
X17491D01*
X17587Y-94585D01*
X17919Y-95081D01*
X18087Y-95250D01*
X17673Y-96250D01*
X15000D01*
Y-103750D01*
X17500D01*
Y-100000D01*
X18500D01*
Y-103750D01*
X21000D01*
Y-96529D01*
X23000D01*
Y-103750D01*
X29000D01*
Y-101529D01*
X37500D01*
Y-102500D01*
X38471D01*
Y-106500D01*
X33750D01*
Y-107471D01*
X33000D01*
X32415Y-107587D01*
X31919Y-107919D01*
X30367Y-109471D01*
X29000D01*
Y-107250D01*
X23000D01*
Y-114750D01*
X29000D01*
Y-112529D01*
X31000D01*
X31585Y-112413D01*
X32081Y-112081D01*
X32750Y-111413D01*
X33750Y-111500D01*
Y-111500D01*
X35755D01*
X36138Y-112424D01*
X35919Y-112643D01*
X35587Y-113140D01*
X35471Y-113725D01*
Y-115610D01*
X32457D01*
Y-119216D01*
X29000D01*
Y-117250D01*
X23000D01*
Y-124750D01*
X29000D01*
Y-122784D01*
X32457D01*
Y-126390D01*
X41543D01*
Y-115610D01*
X38529D01*
Y-114358D01*
X41081Y-111806D01*
X41286Y-111500D01*
X46250D01*
Y-106500D01*
X41529D01*
Y-102500D01*
X42500D01*
Y-101529D01*
X58500D01*
Y-102500D01*
X63500D01*
Y-97500D01*
X58500D01*
Y-98471D01*
X42500D01*
Y-97500D01*
X37500D01*
Y-98471D01*
X29000D01*
Y-96250D01*
X27480D01*
X27413Y-95915D01*
X27081Y-95419D01*
X26687Y-95024D01*
X27070Y-94100D01*
X27700D01*
Y-92529D01*
X33750D01*
Y-93500D01*
X38750D01*
Y-88500D01*
X33750D01*
Y-89471D01*
X27700D01*
Y-87900D01*
X22671D01*
X22300Y-87900D01*
Y-87900D01*
X21700D01*
D02*
G37*
G36*
X59750Y-106500D02*
X54750D01*
Y-108500D01*
X57250D01*
X59750D01*
Y-106500D01*
D02*
G37*
G36*
X117000Y-103970D02*
X116086Y-104090D01*
X115235Y-104443D01*
X114504Y-105004D01*
X113943Y-105735D01*
X113590Y-106586D01*
X113470Y-107500D01*
X113590Y-108414D01*
X113943Y-109265D01*
X114504Y-109996D01*
X115235Y-110557D01*
X116086Y-110910D01*
X117000Y-111030D01*
X117914Y-110910D01*
X118765Y-110557D01*
X119496Y-109996D01*
X120057Y-109265D01*
X120410Y-108414D01*
X120530Y-107500D01*
X120410Y-106586D01*
X120057Y-105735D01*
X119496Y-105004D01*
X118765Y-104443D01*
X117914Y-104090D01*
X117000Y-103970D01*
D02*
G37*
G36*
X67250Y-106500D02*
X62250D01*
Y-111500D01*
X67250D01*
Y-106500D01*
D02*
G37*
G36*
X59750Y-109500D02*
X57250D01*
X54750D01*
Y-111500D01*
X59750D01*
Y-109500D01*
D02*
G37*
G36*
X71500Y-108553D02*
X70564Y-108739D01*
X69770Y-109270D01*
X69239Y-110064D01*
X69053Y-111000D01*
X69239Y-111936D01*
X69716Y-112650D01*
Y-113917D01*
X68750Y-114000D01*
Y-114000D01*
X61250D01*
Y-120000D01*
X68750D01*
Y-118784D01*
X69500D01*
X70183Y-118649D01*
X70762Y-118262D01*
X72762Y-116262D01*
X72762Y-116262D01*
X73149Y-115683D01*
X73284Y-115000D01*
X73284Y-115000D01*
Y-112650D01*
X73761Y-111936D01*
X73947Y-111000D01*
X73761Y-110064D01*
X73230Y-109270D01*
X72436Y-108739D01*
X71500Y-108553D01*
D02*
G37*
G36*
X57543Y-115602D02*
X48457D01*
Y-120500D01*
X57543D01*
Y-115602D01*
D02*
G37*
G36*
Y-121500D02*
X48457D01*
Y-126398D01*
X57543D01*
Y-121500D01*
D02*
G37*
G36*
X127500Y-124036D02*
Y-127000D01*
X130464D01*
X130410Y-126586D01*
X130057Y-125735D01*
X129496Y-125004D01*
X128765Y-124443D01*
X127914Y-124090D01*
X127500Y-124036D01*
D02*
G37*
G36*
X182000D02*
Y-127000D01*
X184964D01*
X184910Y-126586D01*
X184557Y-125735D01*
X183996Y-125004D01*
X183265Y-124443D01*
X182414Y-124090D01*
X182000Y-124036D01*
D02*
G37*
G36*
X126500Y-124036D02*
X126086Y-124090D01*
X125235Y-124443D01*
X124504Y-125004D01*
X123943Y-125735D01*
X123590Y-126586D01*
X123536Y-127000D01*
X126500D01*
Y-124036D01*
D02*
G37*
G36*
X181000D02*
X180586Y-124090D01*
X179735Y-124443D01*
X179004Y-125004D01*
X178443Y-125735D01*
X178090Y-126586D01*
X178036Y-127000D01*
X181000D01*
Y-124036D01*
D02*
G37*
G36*
X184964Y-128000D02*
X182000D01*
Y-130964D01*
X182414Y-130910D01*
X183265Y-130557D01*
X183996Y-129996D01*
X184557Y-129265D01*
X184910Y-128414D01*
X184964Y-128000D01*
D02*
G37*
G36*
X130464D02*
X127500D01*
Y-130964D01*
X127914Y-130910D01*
X128765Y-130557D01*
X129496Y-129996D01*
X130057Y-129265D01*
X130410Y-128414D01*
X130464Y-128000D01*
D02*
G37*
G36*
X181000D02*
X178036D01*
X178090Y-128414D01*
X178443Y-129265D01*
X179004Y-129996D01*
X179735Y-130557D01*
X180586Y-130910D01*
X181000Y-130964D01*
Y-128000D01*
D02*
G37*
G36*
X126500D02*
X123536D01*
X123590Y-128414D01*
X123943Y-129265D01*
X124504Y-129996D01*
X125235Y-130557D01*
X126086Y-130910D01*
X126500Y-130964D01*
Y-128000D01*
D02*
G37*
G36*
X107000Y-123970D02*
X106086Y-124090D01*
X105235Y-124443D01*
X104504Y-125004D01*
X103943Y-125735D01*
X103590Y-126586D01*
X103470Y-127500D01*
X103590Y-128414D01*
X103943Y-129265D01*
X104504Y-129996D01*
X105235Y-130557D01*
X106086Y-130910D01*
X107000Y-131030D01*
X107914Y-130910D01*
X108765Y-130557D01*
X109496Y-129996D01*
X110057Y-129265D01*
X110410Y-128414D01*
X110530Y-127500D01*
X110410Y-126586D01*
X110057Y-125735D01*
X109496Y-125004D01*
X108765Y-124443D01*
X107914Y-124090D01*
X107000Y-123970D01*
D02*
G37*
G36*
X174378Y-74957D02*
X161945D01*
Y-84043D01*
X166716D01*
Y-101761D01*
X160238Y-108238D01*
X159852Y-108817D01*
X159716Y-109500D01*
Y-124458D01*
X159004Y-125004D01*
X158443Y-125735D01*
X158090Y-126586D01*
X157970Y-127500D01*
X158090Y-128414D01*
X158443Y-129265D01*
X159004Y-129996D01*
X159735Y-130557D01*
X160586Y-130910D01*
X161500Y-131030D01*
X162414Y-130910D01*
X163265Y-130557D01*
X163996Y-129996D01*
X164557Y-129265D01*
X164910Y-128414D01*
X165030Y-127500D01*
X164910Y-126586D01*
X164557Y-125735D01*
X163996Y-125004D01*
X163284Y-124458D01*
Y-110239D01*
X167141Y-106382D01*
X168051Y-106887D01*
X167970Y-107500D01*
X168090Y-108414D01*
X168443Y-109265D01*
X169004Y-109996D01*
X169735Y-110557D01*
X170586Y-110910D01*
X171500Y-111030D01*
X172414Y-110910D01*
X173265Y-110557D01*
X173996Y-109996D01*
X174542Y-109284D01*
X175761D01*
X197072Y-130595D01*
X197239Y-131436D01*
X197770Y-132230D01*
X198564Y-132761D01*
X199500Y-132947D01*
X200436Y-132761D01*
X201230Y-132230D01*
X201761Y-131436D01*
X201947Y-130500D01*
X201761Y-129564D01*
X201230Y-128770D01*
X200436Y-128239D01*
X199595Y-128072D01*
X177762Y-106238D01*
X177183Y-105851D01*
X176500Y-105716D01*
X174542D01*
X173996Y-105004D01*
X173265Y-104443D01*
X172414Y-104090D01*
X171500Y-103970D01*
X170760Y-104067D01*
X170385Y-103681D01*
X170143Y-103191D01*
X170149Y-103183D01*
X170284Y-102500D01*
Y-84043D01*
X174378D01*
Y-74957D01*
D02*
G37*
G36*
X29000Y-127250D02*
X26500D01*
Y-131000D01*
Y-134750D01*
X29000D01*
Y-127250D01*
D02*
G37*
G36*
X25500D02*
X23000D01*
Y-134750D01*
X25500D01*
Y-131000D01*
Y-127250D01*
D02*
G37*
G36*
X171772Y-160900D02*
X170894Y-161016D01*
X170076Y-161354D01*
X169374Y-161893D01*
X168835Y-162596D01*
X168496Y-163414D01*
X168380Y-164291D01*
X168496Y-165169D01*
X168835Y-165987D01*
X169374Y-166689D01*
X170076Y-167228D01*
X170894Y-167567D01*
X171772Y-167683D01*
X172649Y-167567D01*
X173467Y-167228D01*
X174170Y-166689D01*
X174708Y-165987D01*
X175047Y-165169D01*
X175163Y-164291D01*
X175047Y-163414D01*
X174708Y-162596D01*
X174170Y-161893D01*
X173467Y-161354D01*
X172649Y-161016D01*
X171772Y-160900D01*
D02*
G37*
G36*
X116654D02*
X115776Y-161016D01*
X114958Y-161354D01*
X114256Y-161893D01*
X113717Y-162596D01*
X113378Y-163414D01*
X113262Y-164291D01*
X113378Y-165169D01*
X113717Y-165987D01*
X114256Y-166689D01*
X114958Y-167228D01*
X115776Y-167567D01*
X116654Y-167683D01*
X117531Y-167567D01*
X118349Y-167228D01*
X119052Y-166689D01*
X119590Y-165987D01*
X119929Y-165169D01*
X120045Y-164291D01*
X119929Y-163414D01*
X119590Y-162596D01*
X119052Y-161893D01*
X118349Y-161354D01*
X117531Y-161016D01*
X116654Y-160900D01*
D02*
G37*
G36*
X61535D02*
X60658Y-161016D01*
X59840Y-161354D01*
X59137Y-161893D01*
X58599Y-162596D01*
X58260Y-163414D01*
X58144Y-164291D01*
X58260Y-165169D01*
X58599Y-165987D01*
X59137Y-166689D01*
X59840Y-167228D01*
X60658Y-167567D01*
X61535Y-167683D01*
X62413Y-167567D01*
X63231Y-167228D01*
X63933Y-166689D01*
X64472Y-165987D01*
X64811Y-165169D01*
X64927Y-164291D01*
X64811Y-163414D01*
X64472Y-162596D01*
X63933Y-161893D01*
X63231Y-161354D01*
X62413Y-161016D01*
X61535Y-160900D01*
D02*
G37*
G36*
X191457Y-159248D02*
X190151Y-159420D01*
X188935Y-159924D01*
X187891Y-160725D01*
X187089Y-161770D01*
X186585Y-162986D01*
X186414Y-164291D01*
X186585Y-165597D01*
X187089Y-166813D01*
X187891Y-167857D01*
X188935Y-168659D01*
X190151Y-169163D01*
X191457Y-169334D01*
X192762Y-169163D01*
X193978Y-168659D01*
X195023Y-167857D01*
X195824Y-166813D01*
X196328Y-165597D01*
X196500Y-164291D01*
X196328Y-162986D01*
X195824Y-161770D01*
X195023Y-160725D01*
X193978Y-159924D01*
X192762Y-159420D01*
X191457Y-159248D01*
D02*
G37*
G36*
X152087D02*
X150781Y-159420D01*
X149565Y-159924D01*
X148521Y-160725D01*
X147719Y-161770D01*
X147215Y-162986D01*
X147044Y-164291D01*
X147215Y-165597D01*
X147719Y-166813D01*
X148521Y-167857D01*
X149565Y-168659D01*
X150781Y-169163D01*
X152087Y-169334D01*
X153392Y-169163D01*
X154608Y-168659D01*
X155653Y-167857D01*
X156454Y-166813D01*
X156958Y-165597D01*
X157130Y-164291D01*
X156958Y-162986D01*
X156454Y-161770D01*
X155653Y-160725D01*
X154608Y-159924D01*
X153392Y-159420D01*
X152087Y-159248D01*
D02*
G37*
G36*
X136339D02*
X135033Y-159420D01*
X133817Y-159924D01*
X132773Y-160725D01*
X131971Y-161770D01*
X131467Y-162986D01*
X131296Y-164291D01*
X131467Y-165597D01*
X131971Y-166813D01*
X132773Y-167857D01*
X133817Y-168659D01*
X135033Y-169163D01*
X136339Y-169334D01*
X137644Y-169163D01*
X138860Y-168659D01*
X139905Y-167857D01*
X140706Y-166813D01*
X141210Y-165597D01*
X141382Y-164291D01*
X141210Y-162986D01*
X140706Y-161770D01*
X139905Y-160725D01*
X138860Y-159924D01*
X137644Y-159420D01*
X136339Y-159248D01*
D02*
G37*
G36*
X96969D02*
X95663Y-159420D01*
X94447Y-159924D01*
X93402Y-160725D01*
X92601Y-161770D01*
X92097Y-162986D01*
X91925Y-164291D01*
X92097Y-165597D01*
X92601Y-166813D01*
X93402Y-167857D01*
X94447Y-168659D01*
X95663Y-169163D01*
X96969Y-169334D01*
X98274Y-169163D01*
X99490Y-168659D01*
X100535Y-167857D01*
X101336Y-166813D01*
X101840Y-165597D01*
X102012Y-164291D01*
X101840Y-162986D01*
X101336Y-161770D01*
X100535Y-160725D01*
X99490Y-159924D01*
X98274Y-159420D01*
X96969Y-159248D01*
D02*
G37*
G36*
X81221D02*
X79915Y-159420D01*
X78699Y-159924D01*
X77654Y-160725D01*
X76853Y-161770D01*
X76349Y-162986D01*
X76177Y-164291D01*
X76349Y-165597D01*
X76853Y-166813D01*
X77654Y-167857D01*
X78699Y-168659D01*
X79915Y-169163D01*
X81221Y-169334D01*
X82526Y-169163D01*
X83742Y-168659D01*
X84786Y-167857D01*
X85588Y-166813D01*
X86092Y-165597D01*
X86264Y-164291D01*
X86092Y-162986D01*
X85588Y-161770D01*
X84786Y-160725D01*
X83742Y-159924D01*
X82526Y-159420D01*
X81221Y-159248D01*
D02*
G37*
G36*
X41850D02*
X40545Y-159420D01*
X39329Y-159924D01*
X38284Y-160725D01*
X37483Y-161770D01*
X36979Y-162986D01*
X36807Y-164291D01*
X36979Y-165597D01*
X37483Y-166813D01*
X38284Y-167857D01*
X39329Y-168659D01*
X40545Y-169163D01*
X41850Y-169334D01*
X43156Y-169163D01*
X44372Y-168659D01*
X45416Y-167857D01*
X46218Y-166813D01*
X46722Y-165597D01*
X46894Y-164291D01*
X46722Y-162986D01*
X46218Y-161770D01*
X45416Y-160725D01*
X44372Y-159924D01*
X43156Y-159420D01*
X41850Y-159248D01*
D02*
G37*
G36*
X118Y-159248D02*
X-1187Y-159420D01*
X-2403Y-159924D01*
X-3448Y-160725D01*
X-4249Y-161770D01*
X-4753Y-162986D01*
X-4925Y-164291D01*
X-4753Y-165597D01*
X-4249Y-166813D01*
X-3448Y-167857D01*
X-2403Y-168659D01*
X-1187Y-169163D01*
X118Y-169334D01*
X1423Y-169163D01*
X2640Y-168659D01*
X3684Y-167857D01*
X4486Y-166813D01*
X4989Y-165597D01*
X5161Y-164291D01*
X4989Y-162986D01*
X4486Y-161770D01*
X3684Y-160725D01*
X2640Y-159924D01*
X1423Y-159420D01*
X118Y-159248D01*
D02*
G37*
G36*
X26102Y-167122D02*
X24797Y-167294D01*
X23581Y-167798D01*
X22536Y-168599D01*
X21735Y-169644D01*
X21231Y-170860D01*
X21059Y-172165D01*
X21231Y-173471D01*
X21735Y-174687D01*
X22536Y-175731D01*
X23581Y-176533D01*
X24797Y-177037D01*
X26102Y-177208D01*
X27408Y-177037D01*
X28624Y-176533D01*
X29668Y-175731D01*
X30470Y-174687D01*
X30974Y-173471D01*
X31146Y-172165D01*
X30974Y-170860D01*
X30470Y-169644D01*
X29668Y-168599D01*
X28624Y-167798D01*
X27408Y-167294D01*
X26102Y-167122D01*
D02*
G37*
G36*
X117154Y-178999D02*
Y-183476D01*
X121631D01*
X121525Y-182671D01*
X121021Y-181455D01*
X120220Y-180410D01*
X119175Y-179609D01*
X117959Y-179105D01*
X117154Y-178999D01*
D02*
G37*
G36*
X172272Y-178999D02*
Y-183476D01*
X176749D01*
X176643Y-182671D01*
X176139Y-181455D01*
X175338Y-180410D01*
X174293Y-179609D01*
X173077Y-179105D01*
X172272Y-178999D01*
D02*
G37*
G36*
X171272Y-178999D02*
X170466Y-179105D01*
X169250Y-179609D01*
X168206Y-180410D01*
X167404Y-181455D01*
X166900Y-182671D01*
X166794Y-183476D01*
X171272D01*
Y-178999D01*
D02*
G37*
G36*
X116154Y-178999D02*
X115348Y-179105D01*
X114132Y-179609D01*
X113087Y-180410D01*
X112286Y-181455D01*
X111782Y-182671D01*
X111676Y-183476D01*
X116154D01*
Y-178999D01*
D02*
G37*
G36*
X24134Y-181759D02*
X23051Y-181902D01*
X22041Y-182320D01*
X21174Y-182985D01*
X20543Y-183807D01*
X20474Y-183872D01*
X19328Y-184091D01*
X18731Y-183633D01*
X17539Y-183140D01*
X16760Y-183037D01*
Y-187913D01*
Y-192790D01*
X17539Y-192687D01*
X18731Y-192193D01*
X19755Y-191408D01*
X20540Y-190384D01*
X20762Y-189849D01*
X21958Y-189506D01*
X22041Y-189570D01*
X23051Y-189988D01*
X24134Y-190131D01*
X25217Y-189988D01*
X26227Y-189570D01*
X27094Y-188905D01*
X27759Y-188038D01*
X28177Y-187028D01*
X28320Y-185945D01*
X28177Y-184862D01*
X27759Y-183852D01*
X27094Y-182985D01*
X26227Y-182320D01*
X25217Y-181902D01*
X24134Y-181759D01*
D02*
G37*
G36*
X191457Y-180585D02*
X190579Y-180701D01*
X189761Y-181040D01*
X189059Y-181578D01*
X188520Y-182281D01*
X188181Y-183099D01*
X188066Y-183976D01*
X188181Y-184854D01*
X188520Y-185672D01*
X189059Y-186374D01*
X189761Y-186913D01*
X190579Y-187252D01*
X191457Y-187368D01*
X192334Y-187252D01*
X193152Y-186913D01*
X193855Y-186374D01*
X194394Y-185672D01*
X194732Y-184854D01*
X194848Y-183976D01*
X194732Y-183099D01*
X194394Y-182281D01*
X193855Y-181578D01*
X193152Y-181040D01*
X192334Y-180701D01*
X191457Y-180585D01*
D02*
G37*
G36*
X152087D02*
X151209Y-180701D01*
X150391Y-181040D01*
X149689Y-181578D01*
X149150Y-182281D01*
X148811Y-183099D01*
X148695Y-183976D01*
X148811Y-184854D01*
X149150Y-185672D01*
X149689Y-186374D01*
X150391Y-186913D01*
X151209Y-187252D01*
X152087Y-187368D01*
X152964Y-187252D01*
X153782Y-186913D01*
X154485Y-186374D01*
X155024Y-185672D01*
X155362Y-184854D01*
X155478Y-183976D01*
X155362Y-183099D01*
X155024Y-182281D01*
X154485Y-181578D01*
X153782Y-181040D01*
X152964Y-180701D01*
X152087Y-180585D01*
D02*
G37*
G36*
X136339D02*
X135461Y-180701D01*
X134643Y-181040D01*
X133941Y-181578D01*
X133402Y-182281D01*
X133063Y-183099D01*
X132947Y-183976D01*
X133063Y-184854D01*
X133402Y-185672D01*
X133941Y-186374D01*
X134643Y-186913D01*
X135461Y-187252D01*
X136339Y-187368D01*
X137216Y-187252D01*
X138034Y-186913D01*
X138736Y-186374D01*
X139276Y-185672D01*
X139614Y-184854D01*
X139730Y-183976D01*
X139614Y-183099D01*
X139276Y-182281D01*
X138736Y-181578D01*
X138034Y-181040D01*
X137216Y-180701D01*
X136339Y-180585D01*
D02*
G37*
G36*
X96969D02*
X96091Y-180701D01*
X95273Y-181040D01*
X94571Y-181578D01*
X94032Y-182281D01*
X93693Y-183099D01*
X93577Y-183976D01*
X93693Y-184854D01*
X94032Y-185672D01*
X94571Y-186374D01*
X95273Y-186913D01*
X96091Y-187252D01*
X96969Y-187368D01*
X97846Y-187252D01*
X98664Y-186913D01*
X99366Y-186374D01*
X99905Y-185672D01*
X100244Y-184854D01*
X100360Y-183976D01*
X100244Y-183099D01*
X99905Y-182281D01*
X99366Y-181578D01*
X98664Y-181040D01*
X97846Y-180701D01*
X96969Y-180585D01*
D02*
G37*
G36*
X81221D02*
X80343Y-180701D01*
X79525Y-181040D01*
X78822Y-181578D01*
X78284Y-182281D01*
X77945Y-183099D01*
X77829Y-183976D01*
X77945Y-184854D01*
X78284Y-185672D01*
X78822Y-186374D01*
X79525Y-186913D01*
X80343Y-187252D01*
X81221Y-187368D01*
X82098Y-187252D01*
X82916Y-186913D01*
X83618Y-186374D01*
X84157Y-185672D01*
X84496Y-184854D01*
X84612Y-183976D01*
X84496Y-183099D01*
X84157Y-182281D01*
X83618Y-181578D01*
X82916Y-181040D01*
X82098Y-180701D01*
X81221Y-180585D01*
D02*
G37*
G36*
X41850D02*
X40973Y-180701D01*
X40155Y-181040D01*
X39452Y-181578D01*
X38914Y-182281D01*
X38575Y-183099D01*
X38459Y-183976D01*
X38575Y-184854D01*
X38914Y-185672D01*
X39452Y-186374D01*
X40155Y-186913D01*
X40973Y-187252D01*
X41850Y-187368D01*
X42728Y-187252D01*
X43546Y-186913D01*
X44248Y-186374D01*
X44787Y-185672D01*
X45126Y-184854D01*
X45242Y-183976D01*
X45126Y-183099D01*
X44787Y-182281D01*
X44248Y-181578D01*
X43546Y-181040D01*
X42728Y-180701D01*
X41850Y-180585D01*
D02*
G37*
G36*
X15760Y-183037D02*
X14981Y-183140D01*
X13789Y-183633D01*
X12765Y-184419D01*
X11980Y-185442D01*
X11486Y-186634D01*
X11383Y-187413D01*
X15760D01*
Y-183037D01*
D02*
G37*
G36*
X121631Y-184476D02*
X117154D01*
Y-188954D01*
X117959Y-188848D01*
X119175Y-188344D01*
X120220Y-187542D01*
X121021Y-186498D01*
X121525Y-185282D01*
X121631Y-184476D01*
D02*
G37*
G36*
X171272D02*
X166794D01*
X166900Y-185282D01*
X167404Y-186498D01*
X168206Y-187542D01*
X169250Y-188344D01*
X170466Y-188848D01*
X171272Y-188954D01*
Y-184476D01*
D02*
G37*
G36*
X176749D02*
X172272D01*
Y-188954D01*
X173077Y-188848D01*
X174293Y-188344D01*
X175338Y-187542D01*
X176139Y-186498D01*
X176643Y-185282D01*
X176749Y-184476D01*
D02*
G37*
G36*
X116154D02*
X111676D01*
X111782Y-185282D01*
X112286Y-186498D01*
X113087Y-187542D01*
X114132Y-188344D01*
X115348Y-188848D01*
X116154Y-188954D01*
Y-184476D01*
D02*
G37*
G36*
X61535Y-178933D02*
X60230Y-179105D01*
X59014Y-179609D01*
X57969Y-180410D01*
X57168Y-181455D01*
X56664Y-182671D01*
X56492Y-183976D01*
X56664Y-185282D01*
X57168Y-186498D01*
X57969Y-187542D01*
X59014Y-188344D01*
X60230Y-188848D01*
X61535Y-189020D01*
X62841Y-188848D01*
X64057Y-188344D01*
X65101Y-187542D01*
X65903Y-186498D01*
X66407Y-185282D01*
X66579Y-183976D01*
X66407Y-182671D01*
X65903Y-181455D01*
X65101Y-180410D01*
X64057Y-179609D01*
X62841Y-179105D01*
X61535Y-178933D01*
D02*
G37*
G36*
X4449Y-181759D02*
X3365Y-181902D01*
X2356Y-182320D01*
X1489Y-182985D01*
X824Y-183852D01*
X406Y-184862D01*
X263Y-185945D01*
X406Y-187028D01*
X824Y-188038D01*
X1489Y-188905D01*
X2356Y-189570D01*
X3365Y-189988D01*
X4449Y-190131D01*
X5532Y-189988D01*
X6542Y-189570D01*
X7409Y-188905D01*
X8074Y-188038D01*
X8492Y-187028D01*
X8635Y-185945D01*
X8492Y-184862D01*
X8074Y-183852D01*
X7409Y-182985D01*
X6542Y-182320D01*
X5532Y-181902D01*
X4449Y-181759D01*
D02*
G37*
G36*
X15760Y-188413D02*
X11383D01*
X11486Y-189193D01*
X11980Y-190384D01*
X12765Y-191408D01*
X13789Y-192193D01*
X14981Y-192687D01*
X15760Y-192790D01*
Y-188413D01*
D02*
G37*
G36*
X209173Y-181469D02*
X207916Y-181593D01*
X206707Y-181959D01*
X205593Y-182555D01*
X204616Y-183356D01*
X203815Y-184333D01*
X203219Y-185447D01*
X202853Y-186656D01*
X202729Y-187913D01*
X202853Y-189171D01*
X203219Y-190380D01*
X203815Y-191494D01*
X204616Y-192470D01*
X205593Y-193272D01*
X206707Y-193867D01*
X207916Y-194234D01*
X209173Y-194358D01*
X210431Y-194234D01*
X211639Y-193867D01*
X212754Y-193272D01*
X213730Y-192470D01*
X214532Y-191494D01*
X215127Y-190380D01*
X215494Y-189171D01*
X215618Y-187913D01*
X215494Y-186656D01*
X215127Y-185447D01*
X214532Y-184333D01*
X213730Y-183356D01*
X212754Y-182555D01*
X211639Y-181959D01*
X210431Y-181593D01*
X209173Y-181469D01*
D02*
G37*
G36*
X-19173D02*
X-20430Y-181593D01*
X-21639Y-181959D01*
X-22754Y-182555D01*
X-23730Y-183356D01*
X-24532Y-184333D01*
X-25127Y-185447D01*
X-25494Y-186656D01*
X-25618Y-187913D01*
X-25494Y-189171D01*
X-25127Y-190380D01*
X-24532Y-191494D01*
X-23730Y-192470D01*
X-22754Y-193272D01*
X-21639Y-193867D01*
X-20430Y-194234D01*
X-19173Y-194358D01*
X-17916Y-194234D01*
X-16707Y-193867D01*
X-15593Y-193272D01*
X-14616Y-192470D01*
X-13815Y-191494D01*
X-13219Y-190380D01*
X-12853Y-189171D01*
X-12729Y-187913D01*
X-12853Y-186656D01*
X-13219Y-185447D01*
X-13815Y-184333D01*
X-14616Y-183356D01*
X-15593Y-182555D01*
X-16707Y-181959D01*
X-17916Y-181593D01*
X-19173Y-181469D01*
D02*
G37*
G36*
X191457Y-190428D02*
X190579Y-190543D01*
X189761Y-190882D01*
X189059Y-191421D01*
X188520Y-192123D01*
X188181Y-192941D01*
X188066Y-193819D01*
X188181Y-194697D01*
X188520Y-195515D01*
X189059Y-196217D01*
X189761Y-196756D01*
X190579Y-197095D01*
X191457Y-197210D01*
X192334Y-197095D01*
X193152Y-196756D01*
X193855Y-196217D01*
X194394Y-195515D01*
X194732Y-194697D01*
X194848Y-193819D01*
X194732Y-192941D01*
X194394Y-192123D01*
X193855Y-191421D01*
X193152Y-190882D01*
X192334Y-190543D01*
X191457Y-190428D01*
D02*
G37*
G36*
X152087D02*
X151209Y-190543D01*
X150391Y-190882D01*
X149689Y-191421D01*
X149150Y-192123D01*
X148811Y-192941D01*
X148695Y-193819D01*
X148811Y-194697D01*
X149150Y-195515D01*
X149689Y-196217D01*
X150391Y-196756D01*
X151209Y-197095D01*
X152087Y-197210D01*
X152964Y-197095D01*
X153782Y-196756D01*
X154485Y-196217D01*
X155024Y-195515D01*
X155362Y-194697D01*
X155478Y-193819D01*
X155362Y-192941D01*
X155024Y-192123D01*
X154485Y-191421D01*
X153782Y-190882D01*
X152964Y-190543D01*
X152087Y-190428D01*
D02*
G37*
G36*
X136339D02*
X135461Y-190543D01*
X134643Y-190882D01*
X133941Y-191421D01*
X133402Y-192123D01*
X133063Y-192941D01*
X132947Y-193819D01*
X133063Y-194697D01*
X133402Y-195515D01*
X133941Y-196217D01*
X134643Y-196756D01*
X135461Y-197095D01*
X136339Y-197210D01*
X137216Y-197095D01*
X138034Y-196756D01*
X138736Y-196217D01*
X139276Y-195515D01*
X139614Y-194697D01*
X139730Y-193819D01*
X139614Y-192941D01*
X139276Y-192123D01*
X138736Y-191421D01*
X138034Y-190882D01*
X137216Y-190543D01*
X136339Y-190428D01*
D02*
G37*
G36*
X96969D02*
X96091Y-190543D01*
X95273Y-190882D01*
X94571Y-191421D01*
X94032Y-192123D01*
X93693Y-192941D01*
X93577Y-193819D01*
X93693Y-194697D01*
X94032Y-195515D01*
X94571Y-196217D01*
X95273Y-196756D01*
X96091Y-197095D01*
X96969Y-197210D01*
X97846Y-197095D01*
X98664Y-196756D01*
X99366Y-196217D01*
X99905Y-195515D01*
X100244Y-194697D01*
X100360Y-193819D01*
X100244Y-192941D01*
X99905Y-192123D01*
X99366Y-191421D01*
X98664Y-190882D01*
X97846Y-190543D01*
X96969Y-190428D01*
D02*
G37*
G36*
X81221D02*
X80343Y-190543D01*
X79525Y-190882D01*
X78822Y-191421D01*
X78284Y-192123D01*
X77945Y-192941D01*
X77829Y-193819D01*
X77945Y-194697D01*
X78284Y-195515D01*
X78822Y-196217D01*
X79525Y-196756D01*
X80343Y-197095D01*
X81221Y-197210D01*
X82098Y-197095D01*
X82916Y-196756D01*
X83618Y-196217D01*
X84157Y-195515D01*
X84496Y-194697D01*
X84612Y-193819D01*
X84496Y-192941D01*
X84157Y-192123D01*
X83618Y-191421D01*
X82916Y-190882D01*
X82098Y-190543D01*
X81221Y-190428D01*
D02*
G37*
G36*
X41850D02*
X40973Y-190543D01*
X40155Y-190882D01*
X39452Y-191421D01*
X38914Y-192123D01*
X38575Y-192941D01*
X38459Y-193819D01*
X38575Y-194697D01*
X38914Y-195515D01*
X39452Y-196217D01*
X40155Y-196756D01*
X40973Y-197095D01*
X41850Y-197210D01*
X42728Y-197095D01*
X43546Y-196756D01*
X44248Y-196217D01*
X44787Y-195515D01*
X45126Y-194697D01*
X45242Y-193819D01*
X45126Y-192941D01*
X44787Y-192123D01*
X44248Y-191421D01*
X43546Y-190882D01*
X42728Y-190543D01*
X41850Y-190428D01*
D02*
G37*
%LPD*%
D11*
X37000Y-121000D02*
Y-113725D01*
X40000Y-110725D01*
Y-100000D01*
X174500Y-56500D02*
Y-39500D01*
X165500Y-35750D02*
Y-30000D01*
Y-35750D02*
X181500D01*
X40000Y-82000D02*
X57000D01*
X40000Y-100000D02*
X61000D01*
X26000Y-82000D02*
X40000D01*
X26000Y-111000D02*
X31000D01*
X33000Y-109000D01*
X36250D01*
X26000Y-100000D02*
X40000D01*
X25000Y-91000D02*
X36250D01*
X19000Y-94000D02*
Y-91000D01*
X26000Y-100000D02*
Y-96500D01*
X185000Y5000D02*
X190000Y10000D01*
X185000Y-12500D02*
Y5000D01*
X175000D02*
X180000Y10000D01*
X175000Y-12500D02*
Y5000D01*
X19000Y-94000D02*
X20000Y-95000D01*
X24500D01*
X26000Y-96500D01*
Y-72000D02*
Y-67500D01*
X30500Y-63000D01*
X40000D01*
X53000Y-74000D02*
X58000D01*
X46500Y-67500D02*
X53000Y-74000D01*
X38500Y-67500D02*
X46500D01*
X36250Y-69750D02*
X38500Y-67500D01*
X36250Y-72000D02*
Y-69750D01*
X82500Y-113500D02*
Y-100000D01*
Y-113500D02*
X87437Y-118437D01*
Y-125000D02*
Y-118437D01*
X78750Y-116191D02*
Y-109000D01*
X73220Y-121721D02*
X78750Y-116191D01*
D14*
X165500Y-35750D02*
D03*
X174500Y-39500D02*
D03*
X165500Y-43250D02*
D03*
D15*
X25000Y-91000D02*
D03*
X19000D02*
D03*
D16*
X26000Y-100000D02*
D03*
X18000D02*
D03*
Y-72000D02*
D03*
X26000D02*
D03*
Y-82000D02*
D03*
X18000D02*
D03*
X26000Y-131000D02*
D03*
X18000D02*
D03*
Y-111000D02*
D03*
X26000D02*
D03*
X18000Y-121000D02*
D03*
X26000D02*
D03*
X182000Y-36000D02*
D03*
X190000D02*
D03*
D17*
X119339Y-79500D02*
D03*
X136661D02*
D03*
X168161D02*
D03*
X150839D02*
D03*
D18*
X185000Y-18500D02*
D03*
Y-12500D02*
D03*
X175000Y-18500D02*
D03*
Y-12500D02*
D03*
X70000D02*
D03*
Y-18500D02*
D03*
X34500Y-12500D02*
D03*
Y-18500D02*
D03*
D19*
X36250Y-72000D02*
D03*
X40000Y-63000D02*
D03*
X43750Y-72000D02*
D03*
X36250Y-91000D02*
D03*
X40000Y-82000D02*
D03*
X43750Y-91000D02*
D03*
X57250Y-109000D02*
D03*
X61000Y-100000D02*
D03*
X64750Y-109000D02*
D03*
X36250D02*
D03*
X40000Y-100000D02*
D03*
X43750Y-109000D02*
D03*
X86250D02*
D03*
X82500Y-100000D02*
D03*
X78750Y-109000D02*
D03*
D20*
X58000Y-74000D02*
D03*
Y-82000D02*
D03*
X68000D02*
D03*
Y-74000D02*
D03*
X79500Y-29000D02*
D03*
Y-37000D02*
D03*
X194500Y-19500D02*
D03*
Y-11500D02*
D03*
X165500Y-19500D02*
D03*
Y-11500D02*
D03*
X79500Y-19500D02*
D03*
Y-11500D02*
D03*
X25000D02*
D03*
Y-19500D02*
D03*
X65000Y-125000D02*
D03*
Y-117000D02*
D03*
X44000Y-11500D02*
D03*
Y-19500D02*
D03*
D21*
X37000Y-121000D02*
D03*
D22*
X53000D02*
D03*
D23*
X87437Y-82000D02*
D03*
X79563D02*
D03*
X87437Y-51500D02*
D03*
X79563D02*
D03*
X207437Y-36000D02*
D03*
X199563D02*
D03*
X87437Y-125000D02*
D03*
X79563D02*
D03*
D24*
X20350Y-49858D02*
D03*
Y-32142D02*
D03*
X51650D02*
D03*
Y-49858D02*
D03*
D39*
X-19173Y-36339D02*
D03*
X16260Y-187913D02*
D03*
D42*
X120000Y-67500D02*
X161500Y-26000D01*
X194500D01*
X9750Y-77250D02*
X14500Y-82000D01*
X18000D01*
X68000Y-74000D02*
Y-67500D01*
X51500D02*
X68000D01*
Y-82000D02*
X78063D01*
X165500Y-19500D02*
X170500D01*
X171500Y-18500D01*
X175000D01*
X18000Y-121000D02*
Y-111000D01*
Y-131000D02*
Y-121000D01*
Y-138000D02*
Y-131000D01*
X26000Y-121000D02*
X37000D01*
X81000Y-164071D02*
X81221Y-164291D01*
X194500Y-19500D02*
X201500D01*
X158500D02*
X165500D01*
X70000Y-12500D02*
Y0D01*
X185000Y-18500D02*
X188500D01*
X189500Y-19500D01*
X194500D01*
X70000Y-18500D02*
X73500D01*
X74500Y-19500D01*
X79500D01*
X39000D02*
X44000D01*
X38000Y-18500D02*
X39000Y-19500D01*
X34500Y-18500D02*
X38000D01*
X34500Y-12500D02*
Y-4500D01*
X30000Y0D02*
X34500Y-4500D01*
X18500Y-11500D02*
X25000D01*
X136661Y-79500D02*
X150839D01*
X161500Y-109500D02*
X168500Y-102500D01*
X161500Y-127500D02*
Y-109500D01*
X176500Y-107500D02*
X199500Y-130500D01*
X171500Y-107500D02*
X176500D01*
X190000Y-36000D02*
X199563D01*
X79500Y-29000D02*
Y-19500D01*
X44000Y-32142D02*
Y-19500D01*
Y-32142D02*
X51650D01*
X20350D02*
X44000D01*
X47000Y-63000D02*
X51500Y-67500D01*
X68000D02*
X120000D01*
X40000Y-63000D02*
X47000D01*
X79500Y-51437D02*
Y-37000D01*
Y-51437D02*
X79563Y-51500D01*
X43750Y-77000D02*
Y-72000D01*
X110000Y-79500D02*
X119000D01*
X168500Y-102500D02*
Y-79500D01*
X65000Y-125000D02*
X79563D01*
X65000Y-117000D02*
X69500D01*
X71500Y-115000D01*
Y-111000D01*
X18000Y-138000D02*
X83500D01*
X95500Y-126000D01*
Y-94000D01*
X110000Y-79500D01*
D43*
X161500Y-127500D02*
D03*
X181500D02*
D03*
X171500Y-107500D02*
D03*
X107000Y-127500D02*
D03*
X127000D02*
D03*
X117000Y-107500D02*
D03*
D44*
X152087Y-164291D02*
D03*
X191457D02*
D03*
X171772Y-183976D02*
D03*
X96969Y-164291D02*
D03*
X136339D02*
D03*
X116654Y-183976D02*
D03*
X41850Y-164291D02*
D03*
X81221D02*
D03*
X61535Y-183976D02*
D03*
X4449Y-20197D02*
D03*
X-3425Y-46181D02*
D03*
X26102Y-172165D02*
D03*
X118Y-164291D02*
D03*
D45*
X0Y10000D02*
D03*
X10000D02*
D03*
X20000D02*
D03*
X30000D02*
D03*
X40000D02*
D03*
X50000D02*
D03*
X60000D02*
D03*
X70000D02*
D03*
X80000D02*
D03*
X90000D02*
D03*
X100000D02*
D03*
X110000D02*
D03*
X120000D02*
D03*
X130000D02*
D03*
X140000D02*
D03*
X150000D02*
D03*
X160000D02*
D03*
X170000D02*
D03*
X180000D02*
D03*
X190000D02*
D03*
X10000Y0D02*
D03*
X20000D02*
D03*
X30000D02*
D03*
X40000D02*
D03*
X50000D02*
D03*
X60000D02*
D03*
X70000D02*
D03*
X80000D02*
D03*
X90000D02*
D03*
X100000D02*
D03*
X110000D02*
D03*
X120000D02*
D03*
X130000D02*
D03*
X140000D02*
D03*
X150000D02*
D03*
X160000D02*
D03*
X170000D02*
D03*
X180000D02*
D03*
X190000D02*
D03*
D46*
X0D02*
D03*
D47*
X194500Y-26000D02*
D03*
X9750Y-77250D02*
D03*
X174500Y-56500D02*
D03*
X165500Y-30000D02*
D03*
X201500Y-19500D02*
D03*
X158500D02*
D03*
X18500Y-11500D02*
D03*
X199500Y-130500D02*
D03*
X43750Y-77000D02*
D03*
X71500Y-111000D02*
D03*
X73220Y-121721D02*
D03*
X18000Y-138000D02*
D03*
M02*
